<svg width="1028" height="1906" viewBox="0 0 1028 1906" fill="none" xmlns="http://www.w3.org/2000/svg">
<path d="M948.68 1768.29C949.381 1768.32 950.227 1768.37 951.032 1768.5C954.379 1768.58 958.137 1768.71 960.142 1768.95C961.328 1769.09 962.346 1769.29 963.191 1769.57C964.006 1769.84 964.935 1770.27 965.648 1771.07C967.388 1773.02 966.418 1775.36 966.319 1775.66C964.785 1780.28 964.186 1784.73 963.525 1790.97C963.42 1792.34 963.384 1794.66 963.09 1796.3C962.759 1798.16 962.028 1799.69 960.8 1802.88C960.204 1804.42 958.468 1805.19 956.922 1804.6C955.376 1804 954.606 1802.27 955.201 1800.72C956.661 1796.93 956.986 1796.35 957.183 1795.25C957.415 1793.95 957.38 1792.59 957.545 1790.47L957.549 1790.43L957.553 1790.39C958.165 1784.61 958.762 1779.88 960.229 1775.02C959.996 1774.98 959.727 1774.94 959.419 1774.91C958.249 1774.76 956.229 1774.66 953.991 1774.59C953.426 1775.27 952.622 1776 951.791 1776.68C950.861 1777.45 949.715 1778.32 948.428 1779.25C945.851 1781.11 942.595 1783.3 939.122 1785.58C935.644 1787.87 931.917 1790.27 928.394 1792.53C924.863 1794.8 921.543 1796.93 918.851 1798.71C918.728 1798.79 918.6 1798.86 918.471 1798.92C918.626 1800.84 918.681 1802.88 918.662 1804.98C918.587 1813.2 917.377 1822.94 916.186 1831.75C915.551 1836.44 912.838 1840.17 908.861 1843.92C904.927 1847.63 899.3 1851.76 892.272 1857.08C885.702 1862.06 879.267 1864.83 872.748 1866.99C869.516 1868.06 866.223 1868.99 862.932 1869.95C859.618 1870.91 856.265 1871.91 852.786 1873.14C846.851 1875.24 843.162 1878.76 838.946 1882.96C837.827 1884.46 836.613 1885.75 835.388 1886.86C835.256 1888.39 833.97 1889.6 832.4 1889.6C832.246 1889.6 832.087 1889.6 831.924 1889.59C830.812 1890.35 829.756 1890.99 828.822 1891.53C828.313 1891.87 827.99 1892.13 827.324 1892.62C826.691 1893.08 825.948 1893.58 824.952 1894.08C823.473 1894.82 821.669 1894.23 820.922 1892.75C820.175 1891.27 820.769 1889.47 822.248 1888.72C822.723 1888.48 823.104 1888.25 823.468 1888C820.943 1887.17 818.175 1885.97 815.307 1884.27C806.185 1878.88 800.495 1871.93 795.903 1864.14C794.22 1864.92 793.649 1865.56 791.979 1866.62L791.885 1866.68L791.786 1866.73C785.886 1869.87 777.989 1874.9 770.854 1877.65C768.89 1878.51 766.975 1879.27 765.195 1879.89C766.303 1882.38 766.516 1885.42 766.188 1888.61L766.174 1888.75L766.147 1888.88C765.674 1891.29 764.742 1893.69 763.036 1896.83C762.743 1897.37 762.306 1897.79 761.8 1898.05V1902.6C761.8 1904.26 760.456 1905.6 758.8 1905.6C757.143 1905.6 755.8 1904.26 755.8 1902.6V1895.4C755.8 1893.82 757.019 1892.53 758.567 1892.41C759.499 1890.51 759.971 1889.11 760.232 1887.85C760.538 1884.68 760.066 1882.79 759.414 1881.78C759.314 1881.71 759.204 1881.65 759.08 1881.58C758.64 1881.66 758.216 1881.72 757.814 1881.76C756.877 1881.84 755.46 1881.89 754.247 1881.28C753.308 1880.8 752.727 1879.9 752.619 1878.93C751.086 1878.3 749.56 1877.68 748.042 1877.12C745.066 1876 742.651 1875.3 741.015 1875.19C739.361 1875.09 738.104 1873.67 738.206 1872.01C738.309 1870.36 739.732 1869.1 741.386 1869.21C744.005 1869.37 747.167 1870.38 750.144 1871.5C753.136 1872.61 756.478 1874.05 759.223 1875.14C759.354 1875.19 759.507 1875.25 759.678 1875.32C759.775 1875.29 759.875 1875.27 759.977 1875.24C762.282 1874.63 765.262 1873.56 768.497 1872.13L768.564 1872.1L768.633 1872.08C775.3 1869.52 782.269 1865.01 788.839 1861.5C789.699 1860.94 790.956 1859.89 793.009 1858.88C791.792 1856.53 790.624 1854.13 789.448 1851.68C784.206 1840.78 783.541 1829.8 782.734 1806.93C782.643 1804.34 782.907 1802.29 783.667 1800.63C784.477 1798.86 785.691 1797.88 786.703 1797.2C794.754 1791.77 803.813 1790.54 822.397 1790.13C827.887 1790.01 830.768 1791.23 833.452 1792.57C837.993 1794.83 839.711 1799.92 840.737 1803.78C841.012 1804.82 841.258 1805.85 841.487 1806.83C841.72 1807.82 841.935 1808.74 842.162 1809.6C842.588 1811.22 842.992 1812.36 843.419 1813.11C843.422 1813.11 843.426 1813.11 843.43 1813.11C844.427 1812.58 845.847 1811.27 847.737 1809.2C848.639 1808.22 849.575 1807.14 850.562 1806.01C851.538 1804.89 852.56 1803.72 853.594 1802.59C855.624 1800.38 857.875 1798.14 860.179 1796.65C870.818 1789.79 883.886 1786.1 894.736 1783.69C903.955 1781.64 910.338 1783.19 913.323 1785.58C915.417 1787.25 916.653 1789.77 917.409 1792.48C919.741 1790.96 922.395 1789.25 925.15 1787.48C928.677 1785.22 932.378 1782.84 935.825 1780.57C939.259 1778.31 942.412 1776.19 944.875 1774.41C944.804 1774.41 944.735 1774.41 944.669 1774.41C944.16 1774.4 943.828 1774.4 943.683 1774.4C943.663 1774.4 943.613 1774.4 943.578 1774.4C943.575 1774.4 943.545 1774.4 943.508 1774.4C943.48 1774.4 943.387 1774.39 943.32 1774.38C942.883 1774.3 940.659 1771.1 943.045 1768.46C943.224 1768.43 943.451 1768.41 943.497 1768.4C943.518 1768.4 943.552 1768.4 943.564 1768.4C943.585 1768.4 943.602 1768.4 943.607 1768.4H943.988C943.936 1768.4 943.976 1768.4 944.347 1768.38C944.632 1768.36 945.021 1768.34 945.473 1768.32C946.366 1768.29 947.542 1768.26 948.68 1768.29ZM909.581 1790.27C908.574 1789.46 904.331 1787.7 896.04 1789.54C885.33 1791.93 873.134 1795.44 863.43 1801.69C861.816 1802.73 860.001 1804.48 858.016 1806.65C857.041 1807.71 856.067 1808.83 855.085 1809.95C854.112 1811.07 853.126 1812.2 852.167 1813.25C850.336 1815.25 848.278 1817.33 846.239 1818.41C845.185 1818.97 843.784 1819.45 842.234 1819.19C840.569 1818.91 839.347 1817.87 838.525 1816.61C837.48 1815 836.845 1812.97 836.359 1811.13C836.108 1810.17 835.874 1809.17 835.646 1808.2C835.415 1807.22 835.188 1806.26 834.938 1805.32C833.867 1801.3 832.646 1798.87 830.78 1797.94C828.673 1796.89 826.766 1796.04 822.53 1796.13C803.835 1796.55 796.477 1797.84 790.058 1802.17C789.474 1802.57 789.279 1802.78 789.123 1803.12C788.916 1803.58 788.654 1804.56 788.73 1806.71C789.548 1829.9 790.26 1839.53 794.855 1849.08C801.01 1861.88 806.313 1871.99 818.357 1879.11C823.033 1881.87 827.266 1883.04 830.167 1883.43C831.6 1882.29 833.016 1880.91 834.26 1879.21L834.396 1879.02L834.561 1878.86C838.843 1874.59 843.382 1870.11 850.782 1867.48C854.435 1866.19 857.928 1865.15 861.259 1864.18C864.613 1863.21 867.765 1862.32 870.863 1861.29C877.006 1859.26 882.778 1856.75 888.648 1852.3C895.865 1846.83 901.115 1842.97 904.746 1839.55C908.335 1836.17 909.877 1833.62 910.239 1830.95C911.436 1822.1 912.591 1812.71 912.662 1804.93C912.698 1801.03 912.458 1797.68 911.874 1795.06C911.273 1792.37 910.407 1790.92 909.581 1790.27ZM185 0C204.047 0 220.128 12.6797 225.273 30.0576C226.964 30.2187 228.702 30.3987 230.493 30.5986C248.352 32.5915 271.146 36.5685 283.671 39.0117C290.849 40.412 295.499 41.6634 300.022 43.4463C304.485 45.2052 308.767 47.4639 315.122 50.7373C326.278 56.4837 345.001 67.323 359.475 74.3789C373.712 81.3198 382.486 84.1478 390.581 86.1172C405.779 89.8144 419.594 90.1975 430.782 89.9365C438.708 89.7516 444.992 87.7034 451.249 85.2295C454.285 84.0293 457.465 82.1507 462.208 79.0479C466.861 76.0039 473.098 71.7282 481.819 66.1094C495.264 57.4475 518.484 43.9157 536.099 35.0742C553.892 26.1428 565.588 22.596 583.31 20.6533C600.822 18.7336 623.938 18.4718 637.22 18.4678C661.725 18.4605 678.805 25.5064 686.1 30.5908C687.742 31.7356 689.122 33.514 690.275 35.3955C691.459 37.3259 692.552 39.6102 693.536 42.0117C695.092 45.8096 696.44 50.0565 697.482 53.9766C703.23 50.1993 710.108 48 717.5 48C737.658 48 754 64.3416 754 84.5C754 89.0915 753.149 93.4838 751.602 97.5312C759.168 96.95 767.524 94.8141 779.493 90.5684C794.988 85.0717 823.705 73.2358 845.937 67.3477C868.394 61.3999 883.506 61.3914 895.445 62.0645C915.663 63.2042 927.5 66.5265 933.148 68.6426C938.254 70.5552 944.711 74.5039 950.569 78.9346C956.423 83.3617 962.01 88.5212 965.229 93.0234C966.441 94.7195 967.121 96.8555 967.512 99.1396C967.907 101.451 968.044 104.141 968.01 107.121C967.942 113.072 967.189 120.581 966.201 129.271C965.044 139.443 959.962 150.609 956.287 159.293C955.684 160.718 955.093 162.088 954.517 163.406C960.72 168.423 966.951 173.143 971.572 178.394C976.832 184.37 977.174 192.609 975.669 200.413C974.148 208.303 970.609 216.493 967.098 223.196C960.499 235.794 948.765 244.478 937.592 250.948C933.222 253.479 928.643 255.529 923.957 257.229C923.055 276.584 907.079 292 887.5 292C870.363 292 855.987 280.19 852.062 264.266C849.968 263.907 848.083 263.545 846.429 263.225C838.583 261.703 832.914 259.888 828.346 258.196C823.625 256.449 820.601 255.056 817.314 254.085C811.784 252.451 806.245 249.748 801.99 247.278C798.833 245.446 786.094 237.549 766.242 226.146C750.624 217.174 739.162 213.368 731.801 210.696C728.493 209.496 723.795 209.368 716.911 211.024C710.052 212.675 701.322 216.023 690.15 221.406C681.569 225.541 669.509 232.288 656.905 239.425C644.352 246.533 631.287 254.012 620.831 259.521C591.351 275.055 579.293 278.156 574.848 279.635C570.126 281.206 566.324 282.797 560.772 285.109C556.529 286.877 551.318 289.042 543.995 291.892C543.785 311.87 527.528 328 507.5 328C497.066 328 487.655 323.621 481.003 316.602C471.405 320.417 462.399 323.988 455.229 326.769C430.285 336.442 422.108 337.487 412.461 338.316C402.282 339.191 394.41 338.311 383.676 336.301C361.168 332.086 345.186 327.291 337.253 325.038C328.801 322.638 320.554 320.888 313.359 319.396C306.266 317.926 299.983 316.667 295.776 315.267C282.624 310.887 270.914 304.632 255.434 298.125C246.088 294.197 237.436 291.011 210.339 283.178C202.588 280.937 196.611 281.299 187.012 280.461C176.012 279.501 165.61 281.457 156.744 283.937C146.565 286.783 137.379 288.581 125.549 293.646C104.922 302.476 90.8184 311.734 87.001 314.531C82.2757 317.994 78.8937 322.604 75.5859 327.629C73.8522 330.263 70.8972 334.957 68.2061 343.257C65.2267 352.446 68.6824 359.71 73.0137 364.64C89.2044 383.068 99.2681 390.485 106.123 393.979C107.31 394.585 109.364 395.131 112.678 395.576C113.724 395.717 114.867 395.841 116.11 395.958C116.256 394.997 116.598 394.015 117.216 393.026C121.773 385.731 129.877 374.572 145.871 361.512C147.457 360.216 149.007 358.862 150.585 357.491C152.147 356.135 153.737 354.764 155.333 353.507C158.479 351.029 161.942 348.753 165.745 347.869C172.582 346.281 182.613 343.712 191.411 342.216C195.809 341.468 200.061 340.959 203.562 340.998C205.312 341.018 206.997 341.175 208.474 341.566C209.917 341.949 211.468 342.638 212.573 343.955C213.84 345.464 214.722 347.864 214.446 350.117C214.064 353.238 213.495 357.891 212.384 362.814C218.354 369.313 222 377.98 222 387.5C222 407.658 205.658 424 185.5 424C170.73 424 158.01 415.227 152.265 402.607C143.541 402.952 133.141 403.006 125.04 402.584C124.865 402.575 124.691 402.564 124.519 402.555C125.849 404.807 127.538 407.691 128.781 411.002C132.326 420.445 135.21 428.967 137.467 435.668C139.764 442.49 141.33 447.163 142.299 449.223C144.002 452.844 146.562 455.887 149.727 458.447C150.022 458.686 150.853 459.096 152.606 459.466C154.271 459.817 156.433 460.067 159.06 460.231C164.314 460.561 171.049 460.534 178.67 460.468C190.12 460.368 201.465 453.236 212.013 446.207C225.526 437.201 240.181 427.612 249.611 419.751C260.086 411.02 269.183 405.072 283.42 397.14C286.175 395.604 288.873 394.628 291.627 393.777C294.524 392.883 297.058 392.24 300.348 391.164C305.577 389.453 312.598 388.638 320.332 388.275C328.119 387.911 336.875 387.998 345.68 388.196C352.614 388.352 357.619 389.358 361.566 390.957C365.54 392.566 368.254 394.703 370.633 396.795C373.399 399.227 374.961 402.268 376.295 404.785C377.688 407.415 378.899 409.63 380.941 411.499C384.906 415.127 387.265 420.545 388.945 425.472C389.8 427.976 390.524 430.497 391.179 432.729C391.848 435.009 392.434 436.943 393.045 438.468C393.612 439.885 395.003 441.255 397.633 442.712C400.25 444.161 403.574 445.425 407.454 446.926C413.565 449.288 419.967 450.799 424.807 451.717C429.176 452.545 440.999 453.364 449.408 451.73C450.339 451.55 451.293 451.089 452.471 450.316C453.059 449.931 453.653 449.501 454.322 449.017C454.973 448.545 455.694 448.021 456.451 447.518C460.483 444.837 462.841 440.469 464.534 435.426C465.376 432.919 466.018 430.361 466.645 427.858C467.255 425.42 467.871 422.946 468.638 420.866C474.212 405.747 483.664 396.802 486.758 392.525C488.569 390.023 491.068 388.23 493.92 386.625C496.73 385.044 500.24 383.458 504.118 381.583C508.695 379.37 514.182 378.356 519.737 377.9C525.317 377.443 531.206 377.533 536.661 377.665C551.891 378.033 559.993 382.695 564.238 386.927C565.355 388.04 566.967 390.082 568.774 392.512C570.625 394.999 572.805 398.064 575.097 401.348C579.68 407.916 584.759 415.437 588.605 421.098C591.497 425.353 593.944 429.434 600.384 436.009C602.117 437.778 604.169 438.953 606.853 440.025C609.688 441.159 612.714 442.002 616.813 443.421C621.527 445.052 636.979 448.297 664.123 451.482C668.138 435.685 682.454 424 699.5 424C714.464 424 727.323 433.006 732.957 445.894C733.799 445.597 734.6 445.294 735.35 444.979C738.507 443.652 742.535 440.973 746.449 437.682C750.344 434.405 753.913 430.701 756.214 427.477C760.456 421.533 765.688 414.121 769.856 408.613C778.167 397.634 791.495 392.971 798.055 389.954C801.514 388.363 806.971 387.701 812.409 387.791C817.93 387.882 823.996 388.758 828.815 390.656C833.411 392.466 835.815 396.135 837.531 399C838.451 400.535 839.104 401.722 839.868 402.771C840.598 403.772 841.219 404.333 841.833 404.634C842.513 404.967 843.628 405.107 845.417 404.723C847.181 404.343 849.258 403.526 851.583 402.393C853.891 401.267 856.307 399.898 858.751 398.484C861.16 397.091 863.626 395.635 865.901 394.432C876.5 388.826 885.138 387.037 893.439 386.346C898.647 385.912 905.588 386.818 913.306 388.506C921.088 390.208 929.902 392.761 938.956 395.777C954.549 400.973 959.76 404.726 966.145 408.453C982.376 417.93 984.976 428.163 989.847 434.704C992.929 438.843 995.197 442.74 996.902 446.398C1014.5 449.009 1028 464.177 1028 482.5C1028 502.658 1011.66 519 991.5 519C990.375 519 989.263 518.946 988.164 518.847C986.039 522.746 984.253 526 982.892 528.254C982.371 529.177 982.007 529.89 981.714 530.696C981.801 531.055 981.825 531.435 981.771 531.822C981.196 535.871 979.478 540.983 977.264 547.768C974.274 556.927 969.266 560.717 966.103 564.708C958.646 574.115 945.669 584.464 928.414 596.111C923.135 599.675 915.831 603.159 905.011 607.581C898.175 610.375 891.94 612.791 886.396 614.864C886.791 617.016 887 619.234 887 621.5C887 641.658 870.658 658 850.5 658C831.89 658 816.534 644.073 814.284 626.073C812.3 625.972 810.257 625.864 808.155 625.743C794.183 624.94 778.64 621.304 769.564 619.439C757.52 616.965 749.79 614.901 737.451 613.32C721.868 611.324 708.654 613.56 701.254 615.245C695.052 616.657 689.059 620.522 682.858 625.496C679.776 627.969 676.729 630.641 673.61 633.349C670.514 636.036 667.354 638.751 664.139 641.211C654.096 648.894 648.717 652.651 643.755 657.085C639.696 660.712 636.15 663.145 632.725 665.312C629.261 667.502 626.144 669.29 622.562 671.828C617.652 675.308 611.626 679.271 604.823 682.902C604.939 684.086 605 685.286 605 686.5C605 706.658 588.658 723 568.5 723C564.575 723 560.796 722.378 557.253 721.231C555.337 723.684 553.33 725.741 551.149 727.537C546.446 731.412 541.105 733.93 534.697 736.674C525.924 740.43 517.319 740.527 499.791 740.404C489.014 740.329 479.456 737.19 472.788 735.522C467.936 734.309 456.387 731.093 440.196 725.475C429.455 721.748 417.55 713.542 402.804 702.125C389.598 691.901 382.674 675.976 377.974 661.215C372.187 643.042 376.114 630.98 378.526 624.742C380.039 620.832 382.591 617.888 386.231 616.062C390.465 613.94 396.707 612.354 403.44 610.485C410.342 608.57 418.174 606.265 426.197 602.685C429.644 601.147 431.634 599.375 433.008 597.405C434.441 595.351 435.331 592.916 436.335 589.728C436.639 588.763 436.566 587.636 436.121 586.191C435.649 584.661 434.947 583.292 434.191 581.551C432.873 578.513 430.06 575.702 423.485 572.858C416.865 569.995 406.871 567.288 391.826 564.229C367.892 559.362 351.191 563.951 344.387 566.343C333.696 570.101 318.361 578.682 302.81 588.776C293.064 595.103 287.112 604.993 277.949 619.673C270.561 631.508 265.564 641.326 262.519 647.978C272.445 654.501 279 665.734 279 678.5C279 698.658 262.658 715 242.5 715C237.618 715 232.962 714.039 228.706 712.3C228.147 712.965 227.638 713.55 227.183 714.051C217.086 725.149 209.254 731.621 203.951 734.769C199.075 737.663 193.215 738.104 187.628 737.374C182.01 736.64 176.348 734.684 171.552 732.396C167.869 730.638 164.323 729.239 161.071 727.951C157.886 726.69 154.853 725.489 152.464 724.187C147.446 721.451 135.144 714.131 118.447 705.313C105.731 698.598 93.1496 698.519 84.7412 701.417C79.858 703.1 75.8239 707.327 71.8838 713.113C69.9375 715.972 68.0932 719.087 66.2061 722.299C64.3372 725.479 62.4202 728.764 60.3955 731.815C55.9417 738.528 51.076 745.947 46.8428 753.488C61.9636 757.948 73 771.934 73 788.5C73 806.4 60.1139 821.289 43.1123 824.4C45.1618 829.538 47.8709 835.275 51.0596 842.009C54.7486 849.799 57.859 854.133 60.4121 856.835C62.9931 859.566 64.9917 860.668 67.2256 862.305C67.3757 862.414 67.8867 862.698 69.1602 863.179C70.3657 863.634 72.0257 864.185 74.2803 864.895C78.8837 866.344 85.3163 868.259 95 871.289C107.96 875.345 128.528 879.553 141.834 882.277C155.14 885.001 160.024 885.454 168.839 887.1C177.407 888.699 188.863 891.306 209.844 893.047C228.735 894.614 255.022 895.408 277.522 894.709C277.086 891.901 276.8 888.87 276.636 885.779C276.202 877.625 276.598 868.814 277.414 862.133C277.905 858.116 280.029 855.538 282.649 852.904C288.588 846.937 295.117 844.519 302.392 842.972C305.969 842.211 309.838 841.64 313.86 840.985C317.924 840.324 322.256 839.559 326.969 838.396C343.168 834.394 372.465 829.339 399.536 826.473C426.674 823.599 450.868 823.595 465.527 824.53C479.09 825.395 487.977 828.389 494.056 831.842C500.126 835.29 503.255 839.151 505.074 841.028C507.974 844.021 510.198 848.119 511.969 852.489C513.752 856.892 515.158 861.781 516.32 866.517C517.482 871.252 518.424 875.932 519.251 879.873C520.099 883.913 520.796 887.015 521.476 888.889C523.62 894.798 530.571 903.799 552.825 917.603C557.402 920.442 560.513 920.941 569.698 922.838C578.675 924.691 593.07 927.307 606.592 928.521C613.742 929.162 620.536 929.386 626.643 929.343C626.222 927.126 626 924.839 626 922.5C626 902.342 642.342 886 662.5 886C676.633 886 688.889 894.033 694.953 905.782C703.595 900.441 708.793 894.508 714.599 887.65C721.753 879.2 726.327 871.251 729.661 865.644C733.874 858.557 740.9 852.544 746.505 847.589C751.124 843.506 759.774 839.301 770.437 834.56C775.476 832.318 779.16 831.634 798.426 827.962C817.877 824.254 853.566 817.645 875.813 814.235C890.736 811.949 900.612 811.206 907.159 811.274C913.552 811.341 917.249 812.175 919.346 813.536C924.279 816.738 927.706 822.035 930.495 827.75C932.926 832.732 935.081 838.509 937.271 843.993L938.212 846.322L938.215 846.329C946.049 865.578 951.934 879.489 953.178 881.85L953.224 881.936L953.263 882.024C953.458 882.46 953.621 882.882 953.762 883.329C954.734 883.826 955.4 884.834 955.4 886L955.399 886.001C955.433 886.001 955.466 886 955.5 886C975.658 886 992 902.342 992 922.5C992 935.351 985.357 946.649 975.319 953.152C975.936 963.752 973.927 972.217 971.919 978.477C975.286 983.986 977.888 989.956 979.111 996.942C980.692 1005.97 982.543 1015.35 983.53 1023.92C984.513 1032.46 984.705 1040.66 982.729 1047.33C980.176 1055.95 977.835 1062.97 975.507 1068.55C973.189 1074.1 970.809 1078.4 968.101 1081.47C965.81 1084.06 962.597 1086.58 957.844 1087.24C952.76 1087.95 934.571 1089.01 907.832 1086.57C895.746 1085.46 886.822 1083.58 877.631 1080.68C868.599 1077.84 859.288 1074.34 853.469 1071.29C845.336 1067.02 836.49 1061.21 833.869 1050.67C832.435 1044.9 831.703 1039.66 832.244 1034.2C832.786 1028.72 834.584 1023.23 837.924 1016.91C844.234 1004.97 853.146 991.825 863.618 985.046C873.486 978.658 884.838 970.913 903.685 974.525C909.843 975.706 913.996 978.106 917.796 980.748C921.627 983.412 924.76 986.036 929.507 988.403C934.122 990.705 941.402 993.458 947.876 994.751C951.131 995.401 953.971 995.638 956.088 995.379C958.267 995.112 958.962 994.435 959.191 993.977C959.818 992.722 960.776 991.189 961.362 990.142C962.039 988.933 962.554 987.841 962.827 986.729C963.339 984.645 964.277 982.171 965.292 979.25C963.976 977.279 962.541 975.329 961.01 973.364C960.81 973.107 960.017 972.472 957.879 971.677C955.863 970.928 953.072 970.184 949.431 969.423C942.156 967.903 931.912 966.399 918.598 964.597C905.556 962.832 892.549 963.396 884.11 963.662C873.034 964.011 865.42 966.431 856.316 970.326C852.109 972.126 848.048 975.493 843.869 980.126C839.698 984.751 835.582 990.44 831.188 996.696C822.518 1009.04 818.405 1019.37 816.638 1025.69C816.126 1027.52 815.463 1029.2 814.395 1031.73C813.312 1034.29 811.81 1037.73 809.489 1043.29C804.862 1054.4 796.923 1073.71 791.641 1085.79C790.348 1088.74 789.222 1091.24 788.188 1093.43C797.738 1100.01 804 1111.02 804 1123.5C804 1143.66 787.658 1160 767.5 1160C757.419 1160 748.292 1155.91 741.687 1149.3C740.759 1149.96 739.738 1150.68 738.609 1151.46C729.168 1157.98 712.24 1169.09 702.464 1175.34C696.491 1179.16 691.846 1181.58 687.429 1183.17C682.991 1184.77 678.91 1185.49 674.15 1186.04C660.548 1187.6 644.906 1183.55 632.13 1179.56C617.131 1174.88 605.682 1168.66 595.534 1162.45C586.621 1156.99 576.593 1150.1 565.879 1143.08C561.285 1140.06 556.979 1137.35 553.142 1135.02C548.318 1149.53 534.632 1160 518.5 1160C498.342 1160 482 1143.66 482 1123.5C482 1120.83 482.288 1118.24 482.83 1115.73C477.61 1115.77 471.915 1116 465.75 1116.32C459.021 1116.67 454.91 1118.63 442.678 1126.32C430.511 1133.97 411.063 1147.38 399.483 1155.15C385.06 1164.83 378.755 1167.4 372.857 1169.37C369.88 1170.36 364.987 1170.75 359.037 1170.87C352.953 1170.98 345.344 1170.8 336.673 1170.47C329.313 1170.19 325.56 1169.46 318.073 1166.56C310.669 1163.69 299.662 1158.58 281.67 1146.93C279.117 1145.27 276.428 1143.49 273.65 1141.61C268.759 1145.79 262.843 1149.97 255.491 1154.08C241.892 1161.67 220.919 1172.03 206.267 1177.92C191.403 1183.89 183.137 1185.27 168.809 1185.8C154.691 1186.33 135.032 1186.07 121.855 1184.97C109.559 1183.95 102.914 1182.39 95.1035 1179.48C91.2646 1186.04 88.2569 1191.58 86.0566 1195.8C76.1629 1214.8 76.2575 1234.02 77.3457 1240.11C77.441 1240.65 77.6449 1242.04 85.1787 1247.04C92.4357 1251.86 106.037 1259.45 120.321 1266.54C134.576 1273.61 148.996 1279.9 160.976 1284.31C181.748 1291.95 195.02 1293.96 203.537 1294.74C214.681 1295.76 222.47 1294.69 227.334 1292.38C232.004 1290.17 236.684 1286 241.426 1280.8C246.163 1275.61 250.672 1269.74 255.212 1264.18C265.943 1251.04 283.915 1247.58 292.645 1245.61C298.69 1244.25 303.987 1245.68 306.71 1247.49C310.259 1249.84 312.146 1253.78 313.204 1257.86C314.273 1261.97 314.621 1266.7 314.727 1271.25C314.83 1275.72 314.696 1280.48 314.717 1284.17C314.74 1288.17 314.949 1290.87 315.468 1292.27C316.386 1294.74 318.305 1297.09 321.056 1299.3C323.794 1301.5 327.201 1303.43 330.827 1305.08C332.212 1305.71 333.615 1306.29 335.008 1306.83C335.364 1286.98 351.565 1271 371.5 1271C387.471 1271 401.043 1281.26 405.994 1295.54C407.984 1292.44 410.13 1288.82 412.32 1285.07C415.434 1279.73 418.64 1274.13 421.508 1269.61C434.564 1249.05 440.588 1242.77 448.558 1237.98C456.4 1233.26 465.532 1231.55 483.221 1231.26C489.338 1231.17 494.614 1233.29 498.949 1235.66C501.115 1236.85 503.101 1238.12 504.838 1239.25C506.624 1240.4 508.076 1241.33 509.35 1241.99C512.651 1243.68 515.046 1246.87 517.279 1250.83C519.532 1254.81 521.924 1260.14 524.937 1266.62C535.686 1289.74 541.111 1306.34 541.971 1309.78C542.897 1313.49 545.769 1318.64 550.227 1324.55C552.008 1326.91 555.838 1329.82 562.312 1333.55C568.682 1337.23 577.232 1341.5 588.06 1346.68C599.87 1352.34 614.406 1357.45 623.242 1360.58C634.015 1364.4 642.999 1364.6 654.481 1364.21C667.03 1363.78 673.943 1357.27 682.168 1348.4C691.315 1338.54 695.716 1328.91 699.102 1316.97C701.946 1306.94 703.594 1298.77 704.985 1291.54C706.37 1284.34 707.525 1277.91 709.373 1271.6C711.971 1262.73 716.836 1257.32 722.902 1249.17C725.31 1245.94 728.708 1243.58 732.061 1241.78C735.42 1239.97 738.98 1238.6 741.806 1237.49C752.709 1233.18 761.598 1235.67 770.817 1239.92C778.389 1243.41 782.499 1249.59 785.683 1257.33C791.774 1272.14 794.565 1288.44 795.779 1301.62C796.958 1314.42 796.122 1324.07 794.416 1331.76C792.711 1339.44 790.156 1345.04 788.079 1349.61C785.459 1355.38 781.48 1361.39 778.148 1366.51C776.454 1369.11 774.93 1371.48 773.747 1373.57C772.533 1375.71 771.833 1377.29 771.599 1378.35C771.561 1378.52 771.542 1378.87 771.987 1379.63C772.458 1380.43 773.23 1381.32 774.302 1382.46C774.639 1382.82 775.163 1383.28 776.822 1384.27C778.502 1385.26 781.167 1386.69 785.675 1389.01C786.529 1389.45 787.448 1389.92 788.418 1390.42C793.679 1376.72 806.953 1367 822.5 1367C834.369 1367 844.913 1372.67 851.579 1381.44C851.907 1377.91 852.267 1374.14 852.737 1370.21C854.201 1358 853.918 1342.49 854.33 1332.19C854.894 1318.09 857.486 1308.2 861.261 1296.99C864.974 1285.97 874.576 1275.85 882.971 1267.06C888.13 1261.65 895.308 1258.62 903.057 1256.89C910.82 1255.15 919.445 1254.67 927.785 1254.6C932.479 1254.55 936.466 1257.66 940.139 1262.06C943.889 1266.55 947.907 1273.13 952.572 1281.5L952.662 1281.66L952.731 1281.83C956.735 1291.68 963.117 1308.96 966.424 1320.72C969.778 1332.65 969.839 1338.62 968.971 1344.82C968.886 1345.42 968.627 1345.95 968.254 1346.38C968.435 1352.98 968.892 1362.04 969.743 1370.28C970.22 1374.9 970.813 1379.2 971.534 1382.64C971.895 1384.37 972.278 1385.82 972.675 1386.98C973.088 1388.17 973.448 1388.84 973.679 1389.14C974.502 1390.2 975.652 1390.85 977.281 1391.63C978.021 1391.98 978.983 1392.42 979.832 1392.91C980.71 1393.42 981.691 1394.12 982.484 1395.13C986.387 1400.13 986.536 1406.51 985.232 1413.71C983.928 1420.92 980.978 1429.88 977.7 1440.59C974.225 1451.94 965.586 1462.71 955.598 1473.38C940.939 1489.03 928.908 1488.59 915.643 1492.51C904.447 1495.82 885.063 1499.64 845.191 1501.82C805.333 1504 745.317 1504 713.271 1503.87C681.232 1503.74 678.646 1503.48 669.65 1502.11C660.878 1500.79 645.929 1498.43 630.633 1497.08C615.347 1495.74 600.131 1495.47 590.834 1495.47C590.212 1495.47 589.591 1495.47 588.973 1495.48C590.284 1499.25 591 1503.29 591 1507.5C591 1527.66 574.658 1544 554.5 1544C535.584 1544 520.03 1529.61 518.184 1511.18C506.971 1515.11 491.626 1521.34 479.328 1526.84C467.201 1532.26 458.312 1536.85 451.922 1540.27C448.78 1541.95 446.085 1543.43 444.06 1544.51C442.044 1545.58 440.33 1546.44 439.008 1546.89C436.36 1547.8 433.74 1548.26 419.942 1548.53C406.01 1548.8 380.364 1548.8 365.948 1548.54C348.943 1548.22 339.422 1546.37 324.752 1544.25C307.825 1541.82 297.701 1538.56 294.018 1537.14C291.11 1536.02 288.038 1534.98 284.264 1533.68C280.504 1532.38 276.106 1530.85 270.634 1528.77C262.553 1525.72 249.056 1521.89 240.272 1518.96C228.508 1515.05 217.741 1510.83 203.881 1506.56C198.621 1504.94 195.993 1504.54 184.82 1504.14C173.602 1503.74 154.102 1503.47 143.534 1503.47C137.786 1503.47 134.311 1503.73 131.872 1504.11C129.476 1504.48 128.015 1504.98 126.145 1505.58C125.431 1505.81 123.997 1506.44 121.771 1507.53C119.604 1508.6 116.838 1510.03 113.542 1511.78C106.95 1515.29 98.3143 1520.02 88.248 1525.55C73.7905 1533.5 67.113 1543.02 58.4365 1553.05C54.6608 1557.42 51.4553 1563.72 46.5166 1574.92C42.8167 1583.31 40.0063 1590.98 37.7451 1597.33C35.5247 1603.57 33.7443 1608.82 32.1826 1612.01C30.9107 1614.61 29.6343 1619.45 28.3125 1626.32C27.0103 1633.09 25.7199 1641.51 24.3193 1651.04C23.175 1658.82 23.5632 1663.51 24.4902 1666.88C25.4449 1670.36 26.9554 1672.56 28.7676 1675.97C29.9745 1678.23 32.2659 1681 35.5996 1684.24C38.8984 1687.45 43.0586 1690.97 47.833 1694.76C52.3562 1698.35 57.1906 1700.97 63.1152 1704.33C64.0646 1704.81 64.7523 1704.98 65.751 1705.08C66.3159 1705.14 66.645 1705.13 66.916 1705.07C67.1345 1705.01 67.4585 1704.89 67.8994 1704.46C69.0825 1703.3 70.9817 1703.32 72.1416 1704.5C72.809 1705.18 73.0839 1706.1 72.9736 1706.98C74.2553 1707.48 75.7754 1708.13 77.4453 1708.88C81.4243 1710.67 86.3444 1713.11 91.0703 1715.85C97.3755 1719.49 102.186 1722.38 106.279 1724.6C110.358 1726.82 113.495 1728.25 116.366 1729.03C118.978 1729.74 129.158 1732.04 145.418 1735.37C149.204 1736.14 152.45 1737.07 156.602 1738.24C160.762 1739.41 165.94 1740.85 173.711 1742.7C187.994 1746.1 210.803 1751.01 239.167 1753.99C239.058 1752.84 239 1751.68 239 1750.5C239 1730.34 255.342 1714 275.5 1714C295.658 1714 312 1730.34 312 1750.5C312 1752.91 311.763 1755.27 311.315 1757.56C321.54 1757.71 330.738 1757.77 338.038 1757.86C359.371 1758.13 363.29 1758.66 369.695 1759.91C375.857 1761.11 384.134 1762.92 395.941 1763.86C407.853 1764.8 422.963 1764.8 432.057 1765.06C437.68 1765.23 441.847 1765.57 445.278 1765.88C448.742 1766.2 451.3 1766.47 453.901 1766.53C456.062 1766.58 460.413 1767.43 466.017 1768.6C471.826 1769.81 479.202 1771.43 487.954 1773.24C494.339 1774.55 495.27 1774.39 508.002 1776.69C520.45 1778.94 543.969 1783.43 557.816 1786.28C580.407 1790.92 587.941 1794.88 598.625 1800.16C602.395 1802.02 605.619 1803.92 608.974 1805.79C612.354 1807.68 616.013 1809.62 620.872 1811.69C624.87 1813.4 629.162 1814.36 633.985 1815.26C638.44 1816.09 643.39 1816.88 648.607 1818.21L649.654 1818.49L649.688 1818.5L649.722 1818.5C654.352 1819.86 660.813 1821.93 666.933 1823.54C672.992 1825.12 678.442 1826.16 684.162 1827.25C685.789 1827.56 686.857 1829.13 686.548 1830.76C686.238 1832.39 684.667 1833.46 683.039 1833.15C677.335 1832.06 671.696 1830.99 665.412 1829.34C659.212 1827.72 652.501 1825.57 648.083 1824.28C642.783 1822.85 637.833 1822.08 632.886 1821.16C628.005 1820.25 623.158 1819.2 618.513 1817.21C613.392 1815.02 609.534 1812.97 606.052 1811.03C602.544 1809.08 599.559 1807.31 595.968 1805.54C585.564 1800.4 578.532 1796.66 556.608 1792.15C542.816 1789.32 519.344 1784.84 506.936 1782.6C494.811 1780.41 493.066 1780.42 486.742 1779.11C478.035 1777.32 470.467 1775.66 464.79 1774.47C458.908 1773.24 455.228 1772.57 453.756 1772.53C450.897 1772.46 448.064 1772.16 444.733 1771.86C441.369 1771.55 437.335 1771.22 431.88 1771.06C423.086 1770.8 407.572 1770.8 395.468 1769.84C383.26 1768.87 374.64 1766.99 368.546 1765.8C362.695 1764.65 359.221 1764.13 337.963 1763.86C330.323 1763.77 320.523 1763.71 309.601 1763.53C304.353 1777.26 291.066 1787 275.5 1787C258.679 1787 244.519 1775.62 240.29 1760.14C210.766 1757.14 187.041 1752.04 172.322 1748.54C164.438 1746.66 159.173 1745.2 154.978 1744.02C150.773 1742.83 147.747 1741.97 144.215 1741.25C127.997 1737.93 117.623 1735.59 114.795 1734.82C111.239 1733.86 107.612 1732.16 103.413 1729.88C99.2288 1727.6 94.246 1724.61 88.0664 1721.04C83.5446 1718.43 78.8084 1716.08 74.9795 1714.35C73.0656 1713.49 71.399 1712.79 70.1162 1712.3C69.4735 1712.05 68.9464 1711.86 68.5449 1711.74C68.0976 1711.59 67.9422 1711.56 67.9775 1711.57C67.5272 1711.51 67.1157 1711.34 66.7588 1711.11C66.1325 1711.13 65.5799 1711.09 65.1436 1711.05C63.4902 1710.88 62.0727 1710.53 60.3633 1709.67L60.2969 1709.63L60.2314 1709.6C54.4477 1706.32 49.0976 1703.43 44.1025 1699.46C39.2612 1695.62 34.9243 1691.95 31.417 1688.54C27.9446 1685.17 25.1199 1681.88 23.4717 1678.79C21.948 1675.93 19.891 1672.79 18.7041 1668.47C17.4896 1664.05 17.162 1658.48 18.3838 1650.16C19.7832 1640.64 21.0906 1632.11 22.4209 1625.19C23.7315 1618.37 25.1234 1612.78 26.793 1609.37C28.1593 1606.58 29.7758 1601.83 32.0928 1595.32C34.3689 1588.92 37.2368 1581.09 41.0264 1572.5C45.9194 1561.4 49.446 1554.28 53.8984 1549.13C62.2617 1539.46 69.7289 1528.88 85.3584 1520.29C95.4157 1514.77 104.09 1510.01 110.727 1506.49C114.044 1504.72 116.873 1503.26 119.122 1502.15C121.313 1501.07 123.12 1500.25 124.311 1499.87C126.164 1499.27 128.032 1498.64 130.945 1498.18C133.816 1497.73 137.635 1497.47 143.537 1497.47C154.153 1497.47 173.726 1497.74 185.035 1498.14C196.39 1498.55 199.636 1498.98 205.646 1500.83C219.49 1505.09 230.855 1509.51 242.167 1513.27C250.432 1516.02 264.594 1520.07 272.758 1523.16C278.148 1525.2 282.481 1526.71 286.221 1528C289.945 1529.29 293.142 1530.38 296.174 1531.54C299.387 1532.78 309.069 1535.93 325.607 1538.31C340.449 1540.45 349.52 1542.23 366.059 1542.54C380.403 1542.8 405.973 1542.8 419.825 1542.53C433.809 1542.25 435.455 1541.77 437.056 1541.22C437.861 1540.94 439.169 1540.31 441.249 1539.21C443.321 1538.11 445.801 1536.74 449.092 1534.98C455.569 1531.52 464.589 1526.86 476.879 1521.36C489.941 1515.52 506.505 1508.81 518.095 1504.86C519.445 1485.94 535.228 1471 554.5 1471C568.137 1471 580.025 1478.48 586.291 1489.56C587.797 1489.5 589.311 1489.47 590.837 1489.47C600.219 1489.47 615.628 1489.74 631.158 1491.1C646.678 1492.47 661.826 1494.86 670.549 1496.18C679.049 1497.47 681.217 1497.74 713.296 1497.87C745.37 1498 805.21 1498 844.863 1495.83C884.502 1493.66 903.37 1489.88 913.94 1486.75C928.483 1482.45 938.012 1483.37 951.218 1469.27C961.181 1458.63 968.929 1448.74 971.963 1438.83C975.325 1427.85 978.106 1419.4 979.328 1412.64C980.551 1405.88 980.024 1401.73 977.755 1398.83C977.616 1398.65 977.354 1398.41 976.811 1398.09C976.238 1397.76 975.601 1397.47 974.696 1397.04C973.035 1396.25 970.712 1395.09 968.944 1392.82C968.111 1391.75 967.491 1390.35 967.001 1388.93C966.495 1387.46 966.053 1385.74 965.662 1383.87C964.88 1380.14 964.261 1375.61 963.774 1370.9C962.801 1361.47 962.333 1351.05 962.2 1344.26C962.182 1343.31 962.604 1342.46 963.277 1341.9C963.719 1337.29 963.402 1332.14 960.648 1322.34C957.446 1310.95 951.207 1294.03 947.239 1284.25C942.619 1275.97 938.864 1269.89 935.532 1265.9C932.101 1261.79 929.681 1260.58 927.839 1260.6C919.631 1260.67 911.506 1261.15 904.364 1262.74C897.207 1264.34 891.324 1266.99 887.31 1271.2C878.656 1280.26 870.151 1289.39 866.947 1298.91C863.282 1309.79 860.86 1319.09 860.326 1332.43C859.938 1342.15 860.193 1358.42 858.694 1370.92C858.067 1376.16 857.638 1381.1 857.208 1385.7C857.046 1387.43 856.882 1389.12 856.709 1390.75C858.189 1394.72 859 1399.02 859 1403.5C859 1423.66 842.658 1440 822.5 1440C802.342 1440 786 1423.66 786 1403.5C786 1401.03 786.247 1398.61 786.715 1396.28C785.356 1395.59 784.082 1394.94 782.926 1394.35C778.43 1392.03 775.616 1390.53 773.763 1389.43C771.889 1388.32 770.822 1387.52 769.93 1386.57C768.877 1385.45 767.668 1384.12 766.816 1382.67C765.939 1381.18 765.258 1379.26 765.738 1377.07C766.178 1375.06 767.273 1372.82 768.529 1370.61C769.817 1368.34 771.439 1365.82 773.119 1363.24C776.537 1357.98 780.225 1352.39 782.617 1347.13C784.68 1342.59 787 1337.48 788.559 1330.46C790.116 1323.44 790.932 1314.42 789.805 1302.17C788.619 1289.3 785.911 1273.66 780.134 1259.61C777.213 1252.51 773.9 1247.95 768.303 1245.37C759.682 1241.39 752.67 1239.64 744.011 1243.07C741.096 1244.22 737.889 1245.46 734.9 1247.07C731.904 1248.68 729.372 1250.53 727.714 1252.76C721.277 1261.4 717.345 1265.73 715.131 1273.29C713.383 1279.25 712.287 1285.34 710.878 1292.67C709.476 1299.96 707.789 1308.33 704.874 1318.61C701.308 1331.18 696.529 1341.74 686.567 1352.48C678.248 1361.45 669.861 1369.68 654.687 1370.2C643.001 1370.6 633.098 1370.44 621.237 1366.24C612.474 1363.13 597.62 1357.91 585.469 1352.09C574.637 1346.91 565.903 1342.55 559.313 1338.75C552.827 1335.01 548.021 1331.59 545.438 1328.16C540.855 1322.09 537.377 1316.15 536.149 1311.23C535.416 1308.3 530.157 1292.08 519.496 1269.15C516.405 1262.5 514.157 1257.49 512.057 1253.78C509.937 1250.03 508.266 1248.17 506.611 1247.33C505.015 1246.51 503.288 1245.39 501.585 1244.29C499.832 1243.16 498.018 1241.99 496.069 1240.92C492.175 1238.79 487.965 1237.19 483.315 1237.26C465.829 1237.54 458.061 1239.26 451.65 1243.12C444.948 1247.15 439.543 1252.4 426.572 1272.83C423.784 1277.22 420.664 1282.67 417.503 1288.09C414.375 1293.45 411.199 1298.79 408.385 1302.76C408.186 1303.04 407.986 1303.32 407.791 1303.59C407.928 1304.88 408 1306.18 408 1307.5C408 1327.66 391.658 1344 371.5 1344C353.351 1344 338.299 1330.75 335.478 1313.4C333.142 1312.57 330.721 1311.62 328.341 1310.54C324.442 1308.76 320.556 1306.6 317.298 1303.98C314.052 1301.37 311.269 1298.19 309.844 1294.36C308.89 1291.79 308.74 1287.98 308.718 1284.21C308.694 1280.13 308.831 1275.88 308.728 1271.39C308.625 1266.97 308.288 1262.8 307.396 1259.37C306.495 1255.89 305.147 1253.65 303.394 1252.49C302.124 1251.65 298.52 1250.44 293.964 1251.46C284.725 1253.54 269.044 1256.73 259.859 1267.97C255.479 1273.34 250.742 1279.5 245.856 1284.85C240.976 1290.19 235.658 1295.07 229.906 1297.8C223.626 1300.78 214.575 1301.77 202.991 1300.72C193.972 1299.89 180.187 1297.77 158.904 1289.94C146.684 1285.44 132.063 1279.06 117.654 1271.91C103.275 1264.78 89.4204 1257.06 81.8613 1252.04C74.5796 1247.21 72.042 1244.55 71.4385 1241.17C70.1427 1233.92 70.165 1213.33 80.7354 1193.03C82.8842 1188.9 85.7787 1183.57 89.4395 1177.28C81.6738 1174.24 74.9584 1171.57 69.5088 1169.12C63.2913 1166.32 58.3379 1163.64 55.3398 1160.79C51.3105 1156.95 46.717 1152.83 43.0342 1148.75C39.3903 1144.71 36.1615 1140.21 35.2998 1135.42C33.4848 1125.35 30.3968 1112.12 38.5029 1098.43C41.8735 1092.74 45.8026 1087.23 49.8516 1082.74C53.8442 1078.32 58.1799 1074.63 62.4072 1072.92C71.5248 1069.25 89.7144 1063.21 111.508 1061.66C126.503 1060.6 139.346 1060.3 156.039 1065.74C156.862 1066.01 157.712 1066.29 158.583 1066.59C165.183 1057.16 176.121 1051 188.5 1051C199.517 1051 209.394 1055.88 216.086 1063.6C216.991 1063.51 217.907 1063.44 218.839 1063.4C228.05 1063 243.544 1062.61 254.094 1063.42C261.769 1064.01 272.299 1064.55 281.056 1066.93C289.651 1069.26 298.106 1073.83 299.128 1083.49C300.199 1093.62 300.951 1106.66 292.062 1120.25C288.466 1125.75 284.231 1131.56 278.208 1137.45C280.527 1139.01 282.777 1140.5 284.931 1141.89C302.642 1153.36 313.284 1158.27 320.239 1160.97C327.112 1163.63 330.211 1164.22 336.903 1164.47C345.548 1164.81 353.017 1164.98 358.923 1164.87C364.963 1164.75 368.972 1164.34 370.959 1163.67C376.237 1161.91 382.058 1159.62 396.141 1150.17C407.593 1142.48 427.217 1128.96 439.482 1121.24C451.682 1113.57 456.984 1110.77 465.435 1110.33C472.296 1109.97 478.736 1109.72 484.689 1109.73C490.125 1096.4 503.214 1087 518.5 1087C538.658 1087 555 1103.34 555 1123.5C555 1125.33 554.862 1127.13 554.602 1128.89C558.969 1131.51 563.923 1134.62 569.169 1138.06C580.046 1145.19 589.855 1151.93 598.666 1157.33C608.59 1163.4 619.57 1169.35 633.918 1173.83C646.71 1177.83 661.254 1181.48 673.466 1180.08C678.002 1179.56 681.571 1178.91 685.394 1177.53C689.237 1176.14 693.465 1173.98 699.232 1170.29C708.977 1164.06 725.839 1152.99 735.198 1146.52C736.139 1145.87 737 1145.27 737.793 1144.71C733.518 1138.73 731 1131.41 731 1123.5C731 1103.34 747.342 1087 767.5 1087C773.029 1087 778.269 1088.23 782.965 1090.43C783.914 1088.41 784.954 1086.1 786.144 1083.38C791.397 1071.37 799.299 1052.15 803.951 1040.99C806.271 1035.42 807.826 1031.86 808.868 1029.39C809.925 1026.89 810.458 1025.51 810.859 1024.08C812.812 1017.09 817.219 1006.14 826.277 993.248C830.663 987.005 834.968 981.037 839.413 976.107C843.851 971.187 848.602 967.1 853.956 964.81C863.476 960.736 871.852 958.045 883.922 957.665C892.251 957.403 905.776 956.807 919.402 958.651C932.688 960.449 943.141 961.979 950.658 963.55C954.413 964.334 957.541 965.15 959.97 966.053C962.275 966.91 964.45 968.018 965.742 969.676C966.345 970.45 966.94 971.228 967.521 972.011C968.674 967.54 969.538 962.319 969.453 956.234C965.154 958.014 960.442 959 955.5 959C935.342 959 919 942.658 919 922.5C919 904.787 931.617 890.023 948.354 886.7C948.182 885.436 948.011 884.98 947.798 884.502C946.251 881.474 940.288 867.341 932.66 848.599C929.985 842.077 927.771 835.851 925.103 830.382C922.444 824.934 919.608 820.859 916.078 818.568C915.518 818.205 913.337 817.339 907.097 817.273C901.008 817.21 891.49 817.903 876.723 820.166C854.595 823.557 819.003 830.147 799.55 833.855C779.912 837.599 777.114 838.157 772.875 840.042C761.97 844.892 754.266 848.736 750.479 852.084C744.636 857.249 738.448 862.605 734.818 868.71C731.512 874.27 726.701 882.639 719.178 891.526C713.307 898.461 707.577 905.057 698.013 910.947C697.767 911.098 697.521 911.247 697.277 911.396C698.394 914.898 699 918.628 699 922.5C699 942.658 682.658 959 662.5 959C646.855 959 633.511 949.156 628.319 935.325C621.609 935.426 614.045 935.213 606.056 934.496C592.21 933.254 577.564 930.589 568.485 928.715C559.615 926.883 555.331 926.218 549.662 922.702C527.189 908.762 518.709 898.852 515.836 890.936C514.98 888.578 514.199 885.012 513.379 881.105C512.538 877.1 511.624 872.555 510.493 867.946C509.362 863.339 508.037 858.764 506.408 854.742C504.766 850.688 502.893 847.4 500.766 845.204C498.705 843.078 496.242 839.984 491.092 837.059C485.949 834.138 477.983 831.337 465.145 830.519C450.828 829.606 426.974 829.601 400.168 832.439C373.295 835.285 344.278 840.301 328.407 844.221C323.46 845.443 318.941 846.237 314.825 846.907C310.669 847.584 307.032 848.12 303.64 848.841C296.974 850.258 291.706 852.31 286.902 857.137C284.5 859.551 283.608 860.916 283.37 862.86C282.594 869.211 282.213 877.67 282.628 885.46C282.799 888.683 283.107 891.75 283.565 894.48C284.067 894.458 284.566 894.436 285.062 894.412C308.933 893.247 325.6 890.113 340.273 885.908C354.979 881.694 367.233 876.482 376.043 872.352C386.46 867.469 392.945 863.8 398.459 860.696C403.995 857.58 408.647 854.977 415.243 852.363C429.085 846.879 445.248 851.186 450.626 852.631C453.693 853.455 456.436 855.482 458.906 857.672C463.834 862.04 464.051 868.832 462.542 876.413C461.005 884.137 457.404 893.995 452.981 905.823C448.461 917.914 439.253 929.293 431.752 937.882C422.697 948.25 409.294 949.856 395.184 950.136C390.066 950.237 385.776 949.699 381.611 948.87C375.81 961.348 363.167 970 348.5 970C328.342 970 312 953.658 312 933.5C312 933.01 312.012 932.522 312.031 932.037C304.627 929.031 298.938 925.519 294.436 921.816C288.044 916.56 284.172 911.026 281.216 906.373C280.204 904.78 279.417 902.82 278.798 900.672C255.807 901.439 228.749 900.636 209.348 899.026C188.001 897.255 176.225 894.582 167.737 892.997C159.496 891.459 153.819 890.855 140.63 888.155C127.44 885.455 106.525 881.183 93.208 877.016C83.7961 874.07 76.919 872.015 72.4785 870.617C70.2112 869.903 68.4145 869.311 67.041 868.792C65.7371 868.3 64.5453 867.78 63.6787 867.145C61.9007 865.842 59.1279 864.212 56.0508 860.956C52.9458 857.67 49.5106 852.757 45.6367 844.576C42.2276 837.377 39.1724 830.969 36.9043 824.994C36.7697 824.996 36.635 825 36.5 825C16.3416 825 0 808.658 0 788.5C0 768.342 16.3416 752 36.5 752C37.9125 752 39.306 752.083 40.6768 752.239C45.2799 743.831 50.659 735.638 55.3965 728.498C57.3116 725.612 59.1378 722.483 61.0322 719.259C62.9084 716.066 64.8487 712.784 66.9238 709.736C71.0267 703.711 75.9865 698.088 82.7861 695.744C92.8337 692.282 107.133 692.553 121.249 700.008C137.864 708.782 150.709 716.396 155.336 718.918C157.335 720.008 159.985 721.067 163.28 722.372C166.509 723.651 170.241 725.122 174.136 726.98C178.527 729.076 183.573 730.794 188.405 731.425C193.268 732.06 197.603 731.558 200.889 729.608C205.466 726.892 212.838 720.904 222.745 710.014C222.894 709.85 223.047 709.674 223.21 709.489C212.877 703.044 206 691.576 206 678.5C206 658.342 222.342 642 242.5 642C247.745 642 252.73 643.108 257.237 645.1C260.415 638.202 265.488 628.306 272.859 616.496C281.768 602.225 288.434 590.955 299.542 583.744C315.158 573.607 330.994 564.691 342.396 560.683C349.928 558.035 367.756 553.211 393.021 558.349C408.113 561.417 418.634 564.222 425.867 567.351C433.145 570.498 437.524 574.158 439.696 579.162C440.269 580.481 441.253 582.471 441.854 584.423C442.483 586.461 442.873 588.941 442.058 591.529C441.05 594.728 439.938 597.958 437.929 600.838C435.861 603.802 432.967 606.234 428.643 608.164C420.19 611.936 411.997 614.337 405.045 616.267C397.925 618.243 392.482 619.64 388.921 621.426C386.721 622.529 385.142 624.27 384.122 626.906C381.998 632.397 378.463 642.979 383.69 659.395C388.318 673.929 394.791 688.332 406.477 697.38C421.282 708.842 432.471 716.444 442.163 719.807C458.204 725.373 469.583 728.536 474.244 729.702C481.424 731.498 489.985 734.335 499.833 734.404C517.689 734.529 524.934 734.327 532.335 731.158C538.715 728.426 543.35 726.188 547.334 722.906C548.772 721.722 550.146 720.38 551.493 718.801C539.902 712.685 532 700.517 532 686.5C532 686.471 532.001 686.442 532.001 686.413C529.66 685.166 527.199 683.811 524.612 682.334C511.007 674.566 508.356 660.592 507.935 649.555C507.785 645.627 509.849 642.064 512.271 639.229C514.746 636.332 517.966 633.757 520.962 631.729C525.09 628.933 530.086 627.744 534.93 627.4C539.795 627.056 544.723 627.549 548.915 628.309C551.937 628.856 554.542 631.084 556.673 633.651C558.88 636.311 560.968 639.809 562.861 643.724C563.832 645.73 564.763 647.874 565.646 650.11C566.587 650.037 567.539 650 568.5 650C585.263 650 599.385 661.301 603.667 676.7C609.5 673.477 614.725 670.029 619.094 666.933C622.844 664.275 626.298 662.276 629.518 660.24C632.776 658.18 636.028 655.944 639.757 652.611C644.946 647.974 650.715 643.926 660.493 636.445C663.544 634.111 666.578 631.508 669.678 628.817C672.755 626.146 675.908 623.38 679.104 620.816C685.459 615.718 692.336 611.123 699.922 609.396C707.697 607.625 721.672 605.25 738.213 607.369C750.85 608.988 759.018 611.146 770.771 613.562C780.112 615.481 795.084 618.982 808.5 619.753C810.394 619.862 812.238 619.96 814.03 620.053C814.79 600.565 830.826 585 850.5 585C866.286 585 879.729 595.021 884.819 609.049C890.178 607.04 896.176 604.71 902.741 602.027C913.512 597.626 920.325 594.332 925.058 591.138C942.265 579.522 954.563 569.608 961.4 560.981C965.421 555.908 969.014 553.702 971.56 545.905C973.204 540.866 974.429 537.145 975.172 534.194C975.004 533.717 974.952 533.191 975.05 532.657C975.654 529.368 976.297 527.733 977.675 525.29L977.722 525.21C978.873 523.309 980.279 520.774 981.94 517.731C966.419 513.53 955 499.35 955 482.5C955 462.84 970.543 446.813 990.012 446.032C988.681 443.571 987.051 440.996 985.034 438.287C978.993 430.173 977.949 422.293 963.119 413.635C956.719 409.898 951.994 406.446 937.06 401.47C928.13 398.495 919.532 396.009 912.024 394.367C904.453 392.711 898.226 391.968 893.938 392.325C886.287 392.962 878.463 394.575 868.707 399.735C866.562 400.87 864.238 402.241 861.755 403.678C859.307 405.094 856.73 406.559 854.213 407.786C851.713 409.005 849.134 410.061 846.68 410.589C844.25 411.112 841.584 411.195 839.191 410.021C837.342 409.115 836.028 407.689 835.019 406.304C834.043 404.965 833.15 403.363 832.384 402.083C830.728 399.319 829.199 397.256 826.617 396.239C822.681 394.689 817.383 393.874 812.31 393.79C807.154 393.705 802.785 394.383 800.562 395.405C793.242 398.772 781.804 402.772 774.641 412.234C770.538 417.655 765.379 424.965 761.098 430.963C758.423 434.71 754.469 438.777 750.312 442.273C746.172 445.755 741.616 448.854 737.675 450.51C736.806 450.875 735.875 451.226 734.896 451.568C735.615 454.427 736 457.418 736 460.5C736 480.658 719.658 497 699.5 497C679.342 497 663 480.658 663 460.5C663 459.458 663.045 458.426 663.131 457.406C636.183 454.233 620.231 450.953 614.851 449.091C611.23 447.838 607.59 446.782 604.625 445.597C601.507 444.351 598.624 442.787 596.097 440.207C589.224 433.19 586.495 428.667 583.643 424.47C579.781 418.786 574.732 411.309 570.177 404.781C567.899 401.517 565.758 398.509 563.961 396.094C562.121 393.621 560.758 391.93 560.002 391.177C557.031 388.216 550.492 384.001 536.516 383.663C531.055 383.531 525.454 383.452 520.228 383.881C514.977 384.312 510.339 385.239 506.729 386.984C502.624 388.969 499.456 390.395 496.863 391.854C494.313 393.289 492.686 394.567 491.618 396.042C487.76 401.374 479.462 408.85 474.267 422.941C473.635 424.654 473.099 426.782 472.465 429.316C471.846 431.787 471.151 434.571 470.222 437.337C468.374 442.839 465.458 448.734 459.772 452.514C459.134 452.938 458.513 453.39 457.843 453.875C457.191 454.347 456.485 454.858 455.762 455.333C454.317 456.281 452.599 457.223 450.552 457.621C441.209 459.436 428.593 458.541 423.689 457.611C418.657 456.657 411.867 455.064 405.29 452.521C401.567 451.082 397.787 449.656 394.726 447.96C391.677 446.272 388.814 444.041 387.476 440.699C386.741 438.864 386.077 436.655 385.421 434.419C384.75 432.133 384.069 429.761 383.267 427.409C381.633 422.622 379.666 418.464 376.891 415.925C373.985 413.266 372.351 410.158 370.992 407.594C369.574 404.917 368.478 402.89 366.671 401.301C364.51 399.401 362.385 397.762 359.314 396.519C356.218 395.264 351.973 394.34 345.545 394.195C336.762 393.998 328.18 393.915 320.612 394.27C312.992 394.626 306.641 395.419 302.213 396.867C298.998 397.919 295.827 398.76 293.397 399.51C290.825 400.304 288.575 401.136 286.341 402.381C272.322 410.192 263.56 415.936 253.453 424.36C243.708 432.483 228.695 442.3 215.34 451.2C205.096 458.027 192.262 466.35 178.723 466.468C171.152 466.534 164.192 466.566 158.684 466.22C155.929 466.047 153.441 465.774 151.369 465.337C149.386 464.919 147.392 464.276 145.953 463.112C142.206 460.08 139.02 456.348 136.869 451.776C135.71 449.311 133.995 444.155 131.781 437.583C129.527 430.889 126.669 422.45 123.163 413.11C121.672 409.137 119.687 406.348 118 403.267C117.795 402.892 117.588 402.5 117.389 402.093C115.359 401.929 113.523 401.744 111.879 401.523C108.437 401.061 105.535 400.414 103.397 399.324C95.5804 395.339 84.9311 387.293 68.5068 368.6C63.2862 362.658 58.6595 353.246 62.498 341.406C65.4068 332.435 68.6536 327.248 70.5742 324.33C73.9383 319.219 77.8088 313.829 83.4551 309.691C87.6306 306.632 102.13 297.144 123.188 288.13C135.501 282.858 145.378 280.885 155.128 278.158C164.342 275.582 175.526 273.436 187.533 274.483C196.27 275.246 203.506 274.957 212.005 277.414C239.203 285.277 248.106 288.537 257.759 292.594C273.95 299.399 284.747 305.269 297.672 309.573C301.453 310.833 307.278 312.008 314.578 313.521C321.777 315.014 330.211 316.8 338.892 319.266C346.847 321.525 362.579 326.246 384.78 330.403C395.238 332.361 402.519 333.149 411.947 332.339C420.916 331.568 428.532 330.687 453.06 321.175C459.747 318.581 468.115 315.267 477.096 311.698C473.245 305.914 471 298.97 471 291.5C471 271.342 487.342 255 507.5 255C525.661 255 540.72 268.264 543.527 285.632C549.902 283.132 554.582 281.189 558.465 279.571C563.981 277.273 567.987 275.594 572.953 273.941C577.284 272.5 588.982 269.522 618.034 254.214C628.386 248.759 641.34 241.343 653.948 234.204C666.506 227.093 678.75 220.239 687.546 216.001C698.886 210.537 708.052 206.985 715.507 205.191C722.937 203.403 728.971 203.286 733.848 205.056C741.19 207.72 753.106 211.68 769.23 220.942C788.818 232.194 802.325 240.535 805.002 242.089C809.003 244.411 814.091 246.876 819.015 248.331C822.524 249.368 826.26 251.027 830.43 252.57C834.751 254.17 840.102 255.887 847.571 257.335C848.654 257.545 849.828 257.77 851.087 258C851.031 257.174 851 256.34 851 255.5C851 235.342 867.342 219 887.5 219C906.106 219 921.459 232.921 923.714 250.916C927.463 249.467 931.104 247.772 934.585 245.756C945.46 239.458 955.984 231.481 961.782 220.412C965.175 213.936 968.415 206.34 969.777 199.276C971.156 192.127 970.486 186.241 967.068 182.357C963.116 177.867 957.913 173.848 951.973 169.068C944.036 186.268 938.681 193.283 933.951 200.085C926.189 211.248 915.22 212.741 907.952 214.871C898.333 217.691 890.426 214.744 888.013 213.688C883.616 211.762 878.955 207.791 875.184 203.864C871.402 199.926 868.125 195.622 866.658 192.697C865.701 190.788 865.434 188.738 865.433 186.833C865.431 184.939 865.697 182.979 865.96 181.191C866.779 175.628 870.414 170.957 874.079 166.629C877.399 162.708 882.41 159.714 887.753 157.316C893.144 154.897 899.18 152.953 904.8 151.28C917.048 147.634 930.414 150.542 936.902 152.001C940.429 152.794 943.519 154.631 946.177 156.585C947.375 157.466 948.574 158.443 949.715 159.4C950.058 158.604 950.409 157.79 950.762 156.955C954.599 147.888 959.205 137.688 960.239 128.593C961.231 119.871 961.946 112.654 962.01 107.054C962.041 104.259 961.908 101.967 961.598 100.151C961.282 98.3091 960.819 97.1727 960.348 96.5127C957.642 92.727 952.602 87.9947 946.95 83.7197C941.303 79.4482 935.375 75.8832 931.044 74.2607C926.037 72.3849 914.806 69.1651 895.107 68.0547C883.631 67.4077 869.175 67.3996 847.473 73.1475C825.544 78.9553 797.502 90.547 781.499 96.2236C767.502 101.189 757.888 103.492 748.555 103.684C742.121 114.076 730.62 121 717.5 121C697.342 121 681 104.658 681 84.5C681 74.1001 685.349 64.7157 692.328 58.0674C691.276 53.6853 689.759 48.6206 687.983 44.2871C687.073 42.0651 686.12 40.0963 685.161 38.5322C684.172 36.9193 683.311 35.9604 682.669 35.5127C676.523 31.2292 660.684 24.4607 637.221 24.4678C623.934 24.4718 601.114 24.738 583.963 26.6182C567.021 28.4754 556.012 31.7923 538.79 40.4365C521.389 49.1708 498.356 62.5935 485.069 71.1533C476.307 76.7982 470.343 80.8955 465.493 84.0684C460.734 87.1821 457.109 89.3648 453.455 90.8096C446.944 93.3836 439.889 95.7253 430.922 95.9346C419.478 96.2015 405.079 95.8182 389.163 91.9463C380.619 89.8677 371.44 86.8874 356.846 79.7725C342.487 72.7724 322.912 61.4988 312.374 56.0703C305.893 52.7319 301.934 50.6493 297.822 49.0283C293.771 47.4313 289.513 46.2642 282.521 44.9004C270.07 42.4716 247.456 38.5287 229.827 36.5615C228.731 36.4392 227.656 36.324 226.601 36.2168C226.861 38.1075 227 40.0377 227 42C227 65.196 208.196 84 185 84C162.39 84 143.956 66.1343 143.038 43.75C138.4 45.0055 134.394 46.0884 130.956 47.0449C124.949 48.716 120.944 49.9332 118.575 50.9209C115.455 52.2223 112.957 53.4601 111.244 54.5391C110.555 54.9731 110.051 55.3479 109.702 55.6504C109.958 56.6442 109.7 57.7433 108.922 58.5215C107.75 59.693 105.85 59.6929 104.679 58.5215C104.596 58.4389 104.065 57.9471 103.724 57.1982C103.332 56.3401 103.297 55.4541 103.454 54.6396C103.716 53.2827 104.58 52.2505 105.273 51.5723C106.033 50.8296 106.995 50.1252 108.046 49.4629C110.159 48.1318 112.999 46.7453 116.266 45.3828C119.037 44.227 123.41 42.9165 129.348 41.2646C133.206 40.1912 137.839 38.9426 143.242 37.4785C145.497 16.409 163.332 0 185 0ZM220.808 1104.49C214.695 1116.09 202.522 1124 188.5 1124C174.555 1124 162.437 1116.18 156.292 1104.68C150.564 1109.29 145.23 1113.69 141.134 1116.99C136.221 1120.94 133.59 1123.13 131.504 1125.26C129.455 1127.34 127.885 1129.42 125.177 1133.25C119.77 1140.89 110.298 1154.83 102.665 1167C101.093 1169.51 99.6116 1171.92 98.2188 1174.23C105.039 1176.7 111.124 1178.06 122.353 1178.99C135.24 1180.06 154.653 1180.33 168.584 1179.81C182.303 1179.29 189.878 1178.03 204.03 1172.35C218.393 1166.58 239.132 1156.34 252.565 1148.84C258.924 1145.29 264.131 1141.69 268.494 1138.11C252.988 1127.47 235.782 1114.97 224.677 1107.18C223.33 1106.23 222.042 1105.34 220.808 1104.49ZM154.177 1071.45C138.596 1066.36 126.681 1066.6 111.933 1067.65C90.9473 1069.14 73.387 1074.97 64.6484 1078.49C61.6908 1079.68 58.0944 1082.56 54.3066 1086.76C50.575 1090.9 46.8744 1096.07 43.665 1101.49C36.8759 1112.95 39.3151 1123.87 41.2041 1134.36C41.7501 1137.39 43.9712 1140.83 47.4893 1144.73C50.9685 1148.58 55.2499 1152.42 59.4766 1156.44C61.6582 1158.52 65.7494 1160.84 71.9727 1163.65C77.4836 1166.13 84.3702 1168.86 92.5312 1172.05C94.1001 1169.43 95.7835 1166.68 97.583 1163.81C105.286 1151.53 114.822 1137.5 120.279 1129.78C123.003 1125.93 124.809 1123.51 127.222 1121.05C129.597 1118.63 132.512 1116.23 137.371 1112.32C141.674 1108.85 147.531 1104 153.838 1098.96C152.647 1095.36 152 1091.5 152 1087.5C152 1081.91 153.256 1076.62 155.5 1071.89C155.052 1071.74 154.611 1071.59 154.177 1071.45ZM253.635 1069.4C243.865 1068.65 229.451 1068.97 220.175 1069.35C223.245 1074.7 225 1080.89 225 1087.5C225 1091.47 224.365 1095.28 223.195 1098.86C224.751 1099.92 226.39 1101.05 228.123 1102.27C239.677 1110.38 257.415 1123.27 273.132 1134.01C279.267 1128.18 283.466 1122.43 287.041 1116.97C294.738 1105.2 294.202 1093.96 293.161 1084.12C292.566 1078.49 287.708 1074.95 279.481 1072.72C271.417 1070.52 261.615 1070.01 253.635 1069.4ZM902.556 980.418C886.251 977.292 876.722 983.71 866.878 990.082C857.765 995.981 849.446 1007.95 843.229 1019.72C840.152 1025.54 838.662 1030.28 838.215 1034.79C837.767 1039.31 838.346 1043.81 839.691 1049.22C841.626 1057.01 848.216 1061.75 856.259 1065.98C861.599 1068.78 870.506 1072.15 879.434 1074.96C888.202 1077.72 896.703 1079.53 908.377 1080.59C934.813 1083 952.521 1081.92 957.021 1081.3C959.893 1080.9 961.902 1079.42 963.604 1077.5C965.676 1075.15 967.755 1071.54 969.971 1066.23C972.176 1060.95 974.445 1054.17 976.976 1045.63C978.592 1040.17 978.533 1032.98 977.569 1024.61C976.609 1016.27 974.816 1007.2 973.201 997.978C972.448 993.677 971.094 989.785 969.276 986.091C969.017 986.86 968.803 987.551 968.653 988.16C968.189 990.052 967.368 991.697 966.597 993.074C965.735 994.613 965.13 995.515 964.561 996.656C962.999 999.784 959.787 1000.97 956.815 1001.33C953.781 1001.71 950.221 1001.34 946.7 1000.63C939.622 999.221 931.838 996.271 926.829 993.772C921.562 991.146 917.763 988.033 914.37 985.674C910.945 983.292 907.581 981.381 902.556 980.418ZM449.069 858.426C443.487 856.926 429.205 853.285 417.453 857.941C411.269 860.392 406.926 862.815 401.401 865.925C395.855 869.047 389.213 872.805 378.589 877.785C369.599 881.999 357.036 887.347 341.927 891.677C326.784 896.016 309.659 899.219 285.354 900.405C285.241 900.411 285.127 900.414 285.013 900.42C285.405 901.532 285.831 902.447 286.28 903.155C289.096 907.586 292.567 912.511 298.247 917.183C301.951 920.229 306.652 923.212 312.803 925.858C316.315 909.369 330.963 897 348.5 897C368.658 897 385 913.342 385 933.5C385 936.845 384.547 940.085 383.704 943.163C387.268 943.826 390.856 944.22 395.064 944.137C409.202 943.856 420.062 942.146 427.232 933.936C434.731 925.349 443.261 914.69 447.362 903.722C451.84 891.747 455.235 882.389 456.657 875.242C458.108 867.954 457.247 864.219 454.926 862.161C452.604 860.103 450.729 858.872 449.069 858.426ZM547.845 634.212C543.977 633.511 539.573 633.087 535.354 633.386C531.113 633.686 527.271 634.702 524.326 636.696C521.574 638.56 518.83 640.789 516.833 643.127C514.782 645.528 513.865 647.634 513.93 649.326C514.332 659.872 516.822 670.977 527.587 677.123C529.319 678.112 530.987 679.042 532.593 679.917C535.159 665.826 545.817 654.558 559.576 651.101C558.895 649.438 558.189 647.842 557.461 646.336C555.686 642.667 553.843 639.635 552.057 637.483C550.194 635.24 548.742 634.374 547.845 634.212ZM203.496 346.998C200.534 346.965 196.699 347.403 192.416 348.131C183.853 349.587 174.146 352.078 167.103 353.714C164.633 354.287 162.028 355.872 159.045 358.221C157.576 359.377 156.086 360.661 154.519 362.021C152.968 363.368 151.339 364.793 149.666 366.159C134.248 378.749 126.564 389.388 122.305 396.205C122.263 396.272 122.224 396.341 122.189 396.413C123.197 396.474 124.252 396.534 125.353 396.592C132.686 396.974 142.018 396.953 150.164 396.679C149.404 393.746 149 390.67 149 387.5C149 367.342 165.342 351 185.5 351C193.632 351 201.142 353.661 207.21 358.157C207.819 354.833 208.2 351.758 208.49 349.387C208.507 349.245 208.493 348.96 208.375 348.591C208.257 348.223 208.091 347.947 207.979 347.812C207.963 347.798 207.732 347.577 206.935 347.365C206.119 347.149 204.979 347.015 203.496 346.998ZM935.586 157.854C928.979 156.369 917.071 153.888 906.512 157.031C900.94 158.69 895.22 160.542 890.209 162.791C885.15 165.061 881.113 167.608 878.658 170.507C874.899 174.947 872.434 178.412 871.896 182.064C871.632 183.865 871.432 185.427 871.433 186.829C871.434 188.219 871.636 189.238 872.021 190.007C873.102 192.162 875.916 195.966 879.511 199.709C883.116 203.463 887.119 206.746 890.42 208.191C892.263 208.999 898.6 211.36 906.265 209.113C914.444 206.716 922.756 205.675 929.025 196.659C933.793 189.803 939.096 182.909 947.184 165.12C945.692 163.849 944.238 162.606 942.623 161.419C940.252 159.676 937.944 158.385 935.586 157.854Z" fill="#F42C2C"/>
</svg>
