<svg width="987" height="1888" viewBox="0 0 987 1888" fill="none" xmlns="http://www.w3.org/2000/svg">
<rect width="987" height="1888" fill="#F5F5F5"/>
<path d="M89.1853 37.932C88.9213 37.668 88.6573 37.404 88.7853 36.74C89.1338 34.9324 93.4173 32.348 99.8053 29.684C104.945 27.5404 116.561 24.628 135.969 19.304C146.297 16.471 158.017 15.036 170.205 14.084C182.393 13.132 194.801 13.132 212.545 15.112C230.289 17.092 252.993 21.052 265.481 23.488C279.652 26.2522 283.297 28.324 296.133 34.936C306.98 40.5235 326.129 51.58 340.545 58.608C354.961 65.636 363.937 68.54 372.257 70.564C387.815 74.3486 401.921 74.732 413.237 74.468C421.684 74.2709 428.353 72.076 434.737 69.552C441.427 66.9071 448.345 61.428 465.829 50.164C479.195 41.5532 502.321 28.076 519.829 19.288C537.337 10.5 548.689 7.06801 566.021 5.16801C583.353 3.26801 606.321 3.00401 619.605 3.00001C643.59 2.99278 660.049 9.90001 666.769 14.584C671.339 17.7691 675.553 30.108 677.713 39.236C680.501 51.0161 682.769 61.068 687.561 69.108C694.345 80.49 711.809 80.588 722.329 81.796C734.292 83.1696 744.625 81.404 762.881 74.928C778.63 69.3414 807.009 57.628 829.089 51.78C851.169 45.932 865.953 45.932 877.661 46.592C897.62 47.7171 909.153 50.988 914.481 52.984C923.918 56.5191 939.249 68.012 945.173 76.3C948.542 81.0123 947.585 93.052 945.605 110.464C944.51 120.098 939.665 130.78 935.909 139.656C925.629 163.95 919.361 172.012 913.873 179.904C906.857 189.994 897.217 191.26 889.493 193.524C880.852 196.057 873.729 193.404 871.601 192.472C863.904 189.101 854.273 177.964 851.725 172.884C850.382 170.207 850.785 166.748 851.313 163.16C851.991 158.552 855.041 154.484 858.753 150.1C864.528 143.28 876.849 139.02 888.041 135.688C899.445 132.293 912.081 134.988 918.629 136.46C924.514 137.783 929.425 142.716 933.833 146.316C940.598 151.841 947.009 156.572 951.705 161.908C960.383 171.768 953.729 190.156 946.825 203.336C940.627 215.17 929.497 223.5 918.473 229.884C904.379 238.046 887.921 241.116 872.373 243.516C853.598 246.414 838.297 243.54 829.385 241.812C814.07 238.842 807.345 234.748 800.549 232.74C795.322 231.196 790.009 228.612 785.881 226.216C782.964 224.523 769.841 216.404 750.121 205.076C734.25 195.959 722.561 192.076 715.209 189.408C707.025 186.438 693.745 189.388 671.233 200.236C653.856 208.61 622.625 227.436 601.817 238.4C572.551 253.821 560.673 256.86 556.285 258.32C546.597 261.544 540.673 264.86 517.937 273.448C497.223 281.272 458.241 297.084 436.529 305.504C411.794 315.097 403.897 316.06 394.589 316.86C384.786 317.703 377.209 316.868 366.613 314.884C344.258 310.698 328.401 305.94 320.457 303.684C303.324 298.818 287.097 296.612 279.109 293.952C266.071 289.61 254.817 283.548 238.981 276.892C229.482 272.9 220.705 269.676 193.557 261.828C185.433 259.479 178.825 259.804 169.657 259.004C158.154 258 147.361 260.052 138.321 262.58C128.357 265.367 118.825 267.252 106.753 272.42C85.9109 281.343 71.6093 290.716 67.6133 293.644C62.4274 297.444 58.8013 302.444 55.4653 307.512C53.6382 310.288 50.5373 315.228 47.7373 323.864C44.3283 334.378 48.3693 342.716 53.1453 348.152C69.4529 366.713 79.8093 374.444 87.1453 378.184C90.4702 379.879 97.0573 380.572 107.581 381.12C118.105 381.668 132.625 381.404 142.085 380.74C162.284 379.322 171.009 372.092 182.477 362.504C190.894 355.467 192.897 339.084 193.853 331.284C194.017 329.951 193.457 328.364 192.661 327.416C188.284 322.202 162.689 329.1 148.809 332.324C142.536 333.781 136.673 340.044 130.153 345.368C114.447 358.193 106.553 369.092 102.145 376.148C99.3673 380.595 105.177 385.116 108.357 393.588C115.408 412.371 119.841 427.508 121.969 432.032C123.896 436.129 126.769 439.516 130.225 442.312C133.692 445.117 145.889 445.132 161.081 445C173.576 444.891 185.665 437.164 196.061 430.236C209.496 421.283 224.329 411.58 233.917 403.588C244.208 395.01 253.137 389.164 267.265 381.292C272.255 378.512 277.161 377.676 283.665 375.548C293.323 372.388 310.409 372.332 327.997 372.728C341.36 373.029 346.497 376.588 351.037 380.58C355.61 384.601 356.353 390.716 361.301 395.244C368.041 401.412 369.953 414.396 372.645 421.116C374.552 425.875 381.153 428.316 388.757 431.256C395.101 433.709 401.697 435.26 406.633 436.196C411.27 437.075 423.489 437.932 432.365 436.208C435.344 435.629 437.705 433.404 440.497 431.548C450.215 425.088 451.041 411.02 453.837 403.436C459.222 388.83 468.097 380.62 471.573 375.816C474.452 371.838 479.825 369.676 487.809 365.816C495.996 361.858 508.057 361.932 518.973 362.196C533.577 362.549 540.897 366.988 544.505 370.584C548.252 374.318 560.801 392.972 568.509 404.316C571.381 408.543 573.969 412.844 580.625 419.64C584.885 423.99 590.497 425.116 598.217 427.788C603.3 429.547 619.185 432.844 646.577 436.044C675.378 439.409 692.633 436.604 696.225 435.672C703.77 433.714 712.881 431.804 718.897 429.276C725.996 426.293 736.065 417.724 741.041 410.752C745.303 404.781 750.497 397.42 754.633 391.956C762.37 381.735 774.753 377.404 781.693 374.212C787.376 371.598 801.345 371.532 810.101 374.98C817.279 377.807 817.969 386.444 822.897 388.86C829.043 391.873 840.849 383.292 849.689 378.616C859.867 373.233 868.097 371.532 876.073 370.868C885.569 370.077 902.409 374.164 920.393 380.156C935.657 385.242 940.625 388.844 947.017 392.576C962.548 401.644 964.369 410.7 969.825 418.028C980.415 432.251 980.913 443.228 982.513 452.292C984.65 464.396 980.129 474.14 977.333 481.904C970.801 493.364 965.737 503.236 962.673 508.296C961.457 510.452 960.929 511.772 960.385 514.732" stroke="#E21C4A" stroke-width="6" stroke-linecap="round"/>
<path d="M961.185 512.932C960.657 516.652 959.057 521.444 956.797 528.368C954.03 536.847 949.729 539.844 946.137 544.376C938.99 553.393 926.353 563.524 909.121 575.156C904.115 578.535 897.057 581.924 886.261 586.336C861.254 596.556 844.401 601.724 839.757 603.32C832.461 605.827 815.969 605.732 790.713 604.28C777.019 603.493 761.761 599.924 752.553 598.032C740.654 595.587 732.705 593.476 720.217 591.876C704.155 589.818 690.561 592.124 682.973 593.852C669.185 596.992 657.233 610.772 644.701 620.36C634.791 627.942 629.217 631.844 624.141 636.38C616.353 643.34 610.545 645.716 603.213 650.912C598.034 654.582 591.633 658.772 584.413 662.516C572.468 668.71 560.449 675.844 554.001 677.064C546.92 678.404 534.561 676.148 508.485 661.26C496.3 654.303 493.729 641.764 493.317 630.972C493.103 625.351 499.281 619.636 505.029 615.744C512.102 610.955 522.705 611.332 530.765 612.792C538.605 614.212 547.537 634.692 551.181 652.988C554.002 667.15 548.409 681.148 543.489 690.86C535.853 705.935 528.689 709.972 515.901 715.448C507.814 718.911 499.889 719.06 482.197 718.936C471.885 718.864 462.825 715.876 455.901 714.144C451.145 712.954 439.681 709.764 423.565 704.172C413.349 700.627 401.801 692.724 387.025 681.284C374.579 671.648 367.881 656.484 363.217 641.836C357.711 624.541 361.441 613.22 363.709 607.356C364.976 604.082 367.041 601.74 369.961 600.276C377.757 596.368 393.329 594.308 409.805 586.956C417.577 583.488 419.569 578.548 421.581 572.16C422.701 568.606 420.657 564.948 419.329 561.888C415.839 553.845 404.945 548.948 374.809 542.82C350.209 537.818 332.945 542.524 325.777 545.044C314.731 548.928 299.145 557.676 283.561 567.792C273.134 574.561 266.825 585.14 257.789 599.616C245.656 619.054 239.857 633.18 238.529 637.036C237.058 641.309 233.737 648.084 228.165 660.168C220.021 677.831 211.337 689.18 207.349 693.564C197.348 704.559 189.745 710.788 184.805 713.72C176.643 718.564 164.417 715.604 155.229 711.22C147.652 707.604 140.673 705.476 136.285 703.084C131.463 700.455 118.889 692.988 102.233 684.192C88.8172 677.107 75.3773 676.932 66.1493 680.112C54.466 684.138 48.1613 699.812 40.2813 711.688C33.2335 722.31 24.9613 734.98 19.8653 747.164C18.5699 750.261 17.9853 765.588 18.2493 788.244C18.3722 798.785 23.5453 809.644 30.7333 824.824C38.2964 840.796 43.8253 843.316 47.8373 846.256C49.8698 847.745 57.3933 849.708 76.4893 855.684C89.628 859.796 110.369 864.036 123.617 866.748C136.865 869.46 142.145 869.988 150.673 871.58C159.201 873.172 170.817 875.812 191.981 877.568C213.145 879.324 243.505 880.116 267.593 878.94C291.681 877.764 308.577 874.596 323.485 870.324C338.393 866.052 350.801 860.772 359.701 856.6C380.743 846.736 385.953 841.748 398.733 836.684C411.531 831.613 426.753 835.588 432.233 837.06C434.596 837.695 436.905 839.324 439.301 841.448C446.55 847.874 441.457 862.5 432.557 886.304C428.247 897.833 419.377 908.852 411.877 917.44C403.765 926.73 391.633 928.388 377.509 928.668C365.063 928.915 357.761 925.204 343.177 922.688C332.782 920.895 316.449 917.268 305.509 914.18C280.818 907.21 271.905 895.38 266.133 886.296C261.224 878.569 261.185 857.06 262.777 844.028C263.141 841.047 264.649 839.076 267.161 836.552C277.904 825.758 290.753 827.612 310.073 822.84C326.108 818.879 355.265 813.844 382.237 810.988C409.209 808.132 433.233 808.132 447.721 809.056C474.123 810.74 481.425 820.644 485.305 824.648C495.36 835.024 497.969 862.98 501.041 871.444C503.55 878.357 511.265 887.812 533.629 901.684C538.752 904.862 542.449 905.444 551.477 907.308C560.505 909.172 575.025 911.812 588.709 913.04C602.393 914.268 614.801 914.004 623.701 913.208C637.721 911.954 644.897 908.412 649.549 905.884C654.73 903.069 665.641 898.044 678.825 889.924C687.955 884.301 693.425 878.028 699.273 871.12C706.613 862.45 711.305 854.292 714.625 848.708C718.547 842.112 725.153 836.428 730.877 831.368C735.081 827.652 743.257 823.628 754.041 818.832C758.681 816.769 761.921 816.148 781.373 812.44C800.825 808.732 836.465 802.132 858.653 798.732C888.344 794.182 897.441 795.86 900.097 797.584C908.56 803.077 912.625 816.324 917.821 828.992C925.617 848.148 931.577 862.252 932.909 864.78C933.449 865.988 933.713 867.044 933.985 870.532" stroke="#E21C4A" stroke-width="6" stroke-linecap="round"/>
<path d="M934.785 867.532C934.257 867.532 936.625 873.076 940.757 882.268C943.02 887.302 946.481 899.956 952.081 919.656C959.406 945.422 950.001 961.34 948.125 968.976C947.387 971.98 945.457 974.452 944.261 976.848C940.68 984.022 920.177 977.42 910.553 972.62C900.539 967.625 896.689 961.148 885.505 959.004C867.93 955.635 857.489 962.716 847.633 969.096C837.841 975.435 829.225 987.996 822.961 999.848C816.545 1011.99 816.385 1020.3 819.165 1031.48C821.443 1040.64 829.161 1045.92 837.249 1050.16C842.829 1053.09 851.937 1056.52 860.917 1059.35C869.897 1062.18 878.609 1064.03 890.489 1065.11C917.077 1067.54 935.025 1066.47 939.817 1065.8C943.63 1065.28 946.241 1063.28 948.237 1061.02C953.019 1055.6 957.153 1045.18 962.237 1028.01C965.83 1015.88 961.737 997.244 958.541 978.992C956.766 968.853 951.889 960.916 945.761 953.052C942.778 949.223 927.985 946.756 901.385 943.156C888.051 941.351 874.785 941.932 866.401 942.196C854.828 942.56 846.833 945.116 837.521 949.1C827.96 953.191 819.897 964.004 811.117 976.504C802.253 989.124 797.993 999.764 796.133 1006.42C795.22 1009.68 793.745 1012.54 789.105 1023.67C784.465 1034.8 776.545 1054.08 771.277 1066.12C766.009 1078.16 763.633 1082.38 758.713 1089.31C746.825 1106.05 736.673 1117.12 732.549 1120.44C730.478 1122.11 728.689 1124.03 719.289 1130.52C709.889 1137.02 692.993 1148.11 683.233 1154.35C671.493 1161.85 665.489 1163.52 656.193 1164.59C643.286 1166.07 628.193 1162.22 615.409 1158.23C600.736 1153.65 589.521 1147.56 579.485 1141.42C570.623 1135.99 560.705 1129.18 549.909 1122.1C536.934 1113.59 526.009 1107.28 521.353 1105.41C517.091 1103.71 505.809 1100.89 490.229 1096.63C479.831 1093.78 465.553 1093.93 447.977 1094.86C440.387 1095.26 435.681 1097.63 423.465 1105.31C411.249 1113 391.713 1126.46 380.197 1134.19C365.944 1143.75 359.881 1146.19 354.293 1148.05C349.329 1149.71 336.489 1149.67 319.173 1149C312.147 1148.73 308.721 1148.08 301.541 1145.3C294.361 1142.52 283.537 1137.5 265.685 1125.94C247.833 1114.38 223.281 1096.43 208.785 1086.26C190.937 1073.73 183.353 1069.96 171.025 1063.45C162.351 1058.88 147.873 1053.52 137.493 1050.13C121.356 1044.86 108.977 1045.13 94.1053 1046.19C72.7159 1047.71 54.8413 1053.64 45.9133 1057.24C38.7283 1060.13 30.0493 1070.38 23.4693 1081.49C16.0217 1094.07 18.7853 1106.14 20.6373 1116.42C22.045 1124.24 31.5373 1132.28 39.7933 1140.14C44.973 1145.08 57.8813 1150.16 76.6493 1157.48C85.0534 1160.76 91.4573 1162.43 104.489 1163.51C117.521 1164.6 137.057 1164.86 151.081 1164.34C165.105 1163.81 173.025 1162.49 187.533 1156.66C202.041 1150.84 222.897 1140.54 236.413 1132.99C256.094 1122 265.145 1110.52 271.937 1100.14C280.23 1087.46 279.585 1075.32 278.529 1065.34C276.913 1050.04 251.905 1049.14 236.249 1047.94C225.896 1047.15 210.561 1047.53 201.353 1047.93C189.457 1048.44 180.185 1053.36 161.341 1065.56C148.701 1073.74 131.409 1088.32 121.637 1096.18C111.865 1104.05 110.545 1105.37 105.113 1113.05C99.6813 1120.72 90.1773 1134.72 82.5093 1146.94C74.8413 1159.16 69.2973 1169.2 65.7813 1175.95C55.5492 1195.6 55.5853 1215.5 56.7773 1222.17C57.1267 1224.13 58.4973 1226.16 65.9053 1231.07C73.3133 1235.99 87.0413 1243.64 101.373 1250.76C115.705 1257.87 130.225 1264.2 142.325 1268.66C163.353 1276.39 176.881 1278.46 185.649 1279.26C197.013 1280.3 205.433 1279.27 211.005 1276.62C221.427 1271.68 231.001 1258.53 239.921 1247.61C249.879 1235.41 266.705 1232.09 275.689 1230.07C280.99 1228.87 285.441 1230.2 287.437 1231.52C298.042 1238.55 292.097 1266.92 295.041 1274.84C299.727 1287.45 323.281 1293.92 331.685 1295.79C343.102 1298.34 361.617 1300.33 371.293 1299.14C375.838 1298.58 380.625 1293.43 388.321 1282.56C393.773 1274.86 400.769 1261.66 406.425 1252.75C419.438 1232.26 425.153 1226.49 432.489 1222.08C439.616 1217.79 448.065 1216.08 465.653 1215.8C476.421 1215.62 484.625 1223.24 490.365 1226.19C495.321 1228.73 498.497 1236.29 504.601 1249.42C515.307 1272.44 520.649 1288.85 521.445 1292.04C522.522 1296.35 525.697 1301.9 530.217 1307.89C534.582 1313.67 547.489 1320.55 569.149 1330.92C581.13 1336.66 595.825 1341.82 604.625 1344.94C615.943 1348.95 625.385 1349.13 636.969 1348.74C650.831 1348.26 658.481 1340.89 666.753 1331.97C676.308 1321.67 680.897 1311.58 684.373 1299.32C690.134 1279.01 691.041 1266.25 694.637 1253.98C697.044 1245.76 701.441 1240.89 707.693 1232.5C711.759 1227.04 719.553 1224.08 725.293 1221.81C735.075 1217.94 743.025 1220.06 751.945 1224.18C758.53 1227.21 762.241 1232.58 765.293 1240C771.228 1254.43 773.977 1270.4 775.177 1283.43C777.483 1308.47 771.873 1320.8 767.733 1329.9C762.721 1340.93 752.401 1353.1 751.053 1359.24C750.536 1361.6 752.377 1363.79 754.501 1366.05C755.731 1367.36 757.681 1368.57 766.685 1373.21C775.689 1377.85 791.793 1385.77 800.749 1389.98C813.543 1396 821.937 1395.53 827.833 1393.15C836.204 1389.76 835.569 1373.22 838.101 1352.1C839.583 1339.74 839.313 1323.85 839.713 1313.84C840.262 1300.12 842.769 1290.52 846.489 1279.48C849.947 1269.21 859.001 1259.59 867.525 1250.66C876.699 1241.05 893.649 1239.28 910.197 1239.13C916.733 1239.07 923.009 1247.76 932.337 1264.49C936.321 1274.29 942.657 1291.45 945.921 1303.06C949.185 1314.68 949.185 1320.22 948.385 1325.93" stroke="#E21C4A" stroke-width="6" stroke-linecap="round"/>
<path d="M947.585 1325.73C947.849 1339.2 949.441 1367.04 953.697 1372.51C956.288 1375.84 960.641 1376.12 962.505 1378.51C968.677 1386.42 963.857 1399.56 957.217 1421.24C953.963 1431.87 945.769 1442.2 935.793 1452.86C921.861 1467.73 911.081 1467.05 897.177 1471.16C886.295 1474.38 867.169 1478.18 827.413 1480.36C787.657 1482.53 727.729 1482.53 695.669 1482.4C663.609 1482.27 661.233 1482 652.485 1480.68C643.737 1479.36 628.689 1476.98 613.281 1475.62C597.873 1474.27 582.561 1474 573.221 1474C560.975 1473.99 549.537 1476.12 535.285 1479.04C526.437 1480.86 519.889 1483.32 504.917 1488.09C493.525 1491.71 474.897 1499.19 460.489 1505.63C436.072 1516.55 424.673 1524.12 420.417 1525.59C418.293 1526.32 416.161 1526.79 402.269 1527.06C388.377 1527.33 362.769 1527.33 348.389 1527.07C331.617 1526.76 322.321 1524.94 307.565 1522.82C290.832 1520.41 280.929 1517.2 277.481 1515.88C271.542 1513.59 264.945 1511.61 254.081 1507.5C245.959 1504.43 232.129 1500.48 223.605 1497.65C212.067 1493.81 201.001 1489.49 187.149 1485.23C181.514 1483.49 178.577 1483.08 167.313 1482.67C156.049 1482.27 136.513 1482 125.921 1482C114.27 1482 111.337 1483.06 107.613 1484.26C103.805 1485.48 89.3133 1493.4 69.1893 1504.46C54.1453 1512.72 47.0733 1522.77 38.5533 1532.62C34.439 1537.38 31.0733 1544.09 26.1573 1555.24C18.6675 1572.22 14.8013 1586.24 11.8733 1592.22C8.93165 1598.23 6.53732 1613.08 3.73732 1632.13C1.37103 1648.23 5.16933 1652.64 8.50533 1658.91C11.3605 1664.27 18.7373 1671.01 28.3533 1678.64C33.1224 1682.43 38.2253 1685.19 44.0973 1688.52C45.4413 1689.2 46.4973 1689.46 47.8333 1689.6C49.1693 1689.73 50.7533 1689.73 52.3853 1688.13" stroke="#E21C4A" stroke-width="6" stroke-linecap="round"/>
<path d="M50.7853 1690.13C52.6413 1690.4 62.7053 1694.63 71.9533 1699.98C84.4382 1707.2 91.5373 1711.72 97.9653 1713.46C100.684 1714.2 110.961 1716.52 127.201 1719.84C134.519 1721.34 139.745 1723.43 155.401 1727.15C171.057 1730.88 196.929 1736.42 229.133 1739.28C261.337 1742.13 299.089 1742.13 320.385 1742.4C341.681 1742.66 345.377 1743.19 351.505 1744.38C357.633 1745.58 366.081 1747.43 378.089 1748.38C390.097 1749.33 405.409 1749.33 414.353 1749.6C425.433 1749.92 430.753 1750.93 436.213 1751.06C439.846 1751.15 452.273 1754.11 469.733 1757.71C476.088 1759.02 477.425 1758.93 489.853 1761.18C502.281 1763.42 525.777 1767.91 539.597 1770.75C561.855 1775.32 569.137 1779.17 579.681 1784.38C587.043 1788.02 592.097 1791.72 602.077 1795.98C610.721 1799.68 620.353 1799.99 631.261 1802.92C635.785 1804.24 642.385 1806.36 648.557 1807.97C654.729 1809.59 660.273 1810.64 665.985 1811.73" stroke="#E21C4A" stroke-width="6" stroke-linecap="round"/>
<path d="M814.785 1868.13C811.601 1868.13 805.745 1867.08 799.217 1863.22C786.317 1855.6 780.689 1844.71 774.537 1831.92C769.619 1821.69 768.929 1811.38 768.117 1788.35C767.95 1783.61 769.169 1782.29 770.765 1781.22C778.001 1776.34 786.209 1775.08 804.849 1774.66C809.712 1774.56 812.105 1775.6 814.501 1776.79C820.909 1779.98 820.377 1791.82 823.425 1796.51C827.342 1802.53 836.353 1785.76 844.189 1780.7C854.362 1774.15 866.993 1770.55 877.773 1768.15C886.528 1766.2 891.841 1767.86 893.837 1769.45C900.328 1774.63 897.985 1795.22 895.597 1812.88C894.601 1820.25 887.089 1825.43 872.845 1836.22C860.405 1845.65 848.433 1846.79 834.169 1851.84C827.467 1854.22 823.345 1858.24 819.065 1862.52C816.129 1866.52 812.401 1868.92 809.605 1870.52C808.393 1871.32 807.601 1872.12 805.985 1872.93" stroke="#E21C4A" stroke-width="6" stroke-linecap="round"/>
<path d="M737.985 1860.13C739.569 1860.93 745.425 1859.35 752.093 1856.41C759.025 1853.75 766.497 1848.95 772.761 1845.61C774.241 1844.68 775.297 1843.62 777.985 1842.53" stroke="#E21C4A" stroke-width="6" stroke-linecap="round"/>
<path d="M899.585 1777.73C910.425 1770.59 931.297 1757.75 934.117 1754.14C935.608 1752.24 926.817 1752.93 926.373 1752.93C923.649 1752.93 937.809 1752.93 942.165 1753.46C946.521 1753.99 946.257 1755.04 945.857 1756.25C944.206 1761.22 943.585 1765.97 942.921 1772.24C942.785 1773.98 942.785 1775.83 942.521 1777.31C942.257 1778.79 941.729 1779.84 940.385 1783.33" stroke="#E21C4A" stroke-width="6" stroke-linecap="round"/>
<path d="M723.585 1853.73C727.841 1854 734.737 1857.17 740.501 1859.46C741.681 1859.93 743.025 1860.39 743.969 1861.19C745.441 1863.04 745.985 1865.98 745.589 1869.84C745.193 1871.84 744.401 1873.96 742.785 1876.93" stroke="#E21C4A" stroke-width="6" stroke-linecap="round"/>
<path d="M741.185 1876.93V1884.13" stroke="#E21C4A" stroke-width="6" stroke-linecap="round"/>
</svg>
