<svg width="1591" height="2773" viewBox="0 0 1591 2773" fill="none" xmlns="http://www.w3.org/2000/svg">
<path d="M1260.48 1.02509C1261.85 -0.341734 1264.07 -0.341664 1265.43 1.02509C1266.8 2.39187 1266.8 4.60751 1265.43 5.9743C1265.08 6.32304 1264.09 7.53007 1262.29 9.84149C1260.56 12.0607 1258.24 15.0987 1255.32 18.9128C1249.5 26.5318 1241.35 37.1912 1231.01 50.3962C1222.63 61.1012 1210.81 70.2947 1196.67 79.2028C1182.53 88.1107 1165.81 96.891 1147.53 106.644C1129.18 116.431 1110.98 124.248 1087.56 131.181C1064.12 138.118 1035.85 143.548 1002.6 146.342C969.372 149.135 931.989 149.136 902.136 146.966C851.169 143.263 822.958 135.404 809.26 133.598C800.448 132.437 789.451 129.96 764.411 121.545C751.886 117.336 735.902 111.585 720.117 105.896C704.307 100.199 688.699 94.5644 676.854 90.5593C646.206 80.1958 630.771 78.3192 606.496 73.1286C590.291 69.6637 565.054 66.4248 530.008 64.7556C494.985 63.0874 450.911 63.6254 419.106 65.7809C387.428 67.9279 369.406 71.6512 346.816 79.4118C296.327 96.7572 265.887 113.863 256.379 119.942C232.708 135.076 225.191 140.689 217.964 149.687C207.603 162.586 201.823 177.444 201.549 196.256C201.367 208.701 209.685 221.744 219.408 232.568C222.22 235.698 226.323 238.031 232.43 239.953C238.566 241.883 246.408 243.306 256.452 244.817C280.944 248.502 301.158 244.564 309.694 242.703C311.527 242.303 313.941 241.325 317.038 239.702C320.1 238.096 323.648 235.958 327.719 233.37C331.785 230.784 336.305 227.794 341.321 224.492C346.326 221.197 351.805 217.604 357.743 213.847C378.035 201.009 394.801 198.804 404.165 198.232C422.327 197.124 437.208 210.175 445.08 220.837C454.756 233.942 456.661 251.011 458.29 265.809C459.425 276.119 461.961 284.323 465.399 289.984C470.097 297.72 477.545 301.203 487.922 301.967C531.433 305.171 551.361 293.814 572.46 287.696C593.481 281.601 615.19 280.907 633.137 282.65C650.933 284.378 665.567 288.558 672.247 292.646C684.951 300.421 693.517 306.329 702.356 318.008C706.568 323.574 711.491 326.67 715.403 328.383C715.369 328.368 715.472 328.415 715.801 328.487C716.108 328.555 716.529 328.626 717.078 328.696C718.178 328.836 719.657 328.954 721.535 329.038C725.284 329.206 730.429 329.238 736.929 329.128C749.92 328.908 768.147 328.123 791.093 326.772C828.675 324.56 857.911 311.835 880.577 302.819C896.039 296.669 908.653 292.742 943.789 277.869C972.36 265.775 1023.27 246.227 1052.35 235.408C1066.87 230.006 1075.83 226.953 1083.41 225.237C1091.08 223.499 1097.25 223.154 1106.13 223.009C1129.61 222.628 1150.7 223.644 1167.49 225.55C1184.12 227.437 1197 230.242 1203.74 233.684C1212.04 237.92 1218.12 244.577 1222.89 252.248C1225.68 251.784 1228.39 251.345 1230.99 250.932C1281.22 242.956 1302.13 247.118 1317.14 254.036C1334.53 262.053 1345.31 270.343 1352.6 278.425C1359.88 286.489 1363.55 294.213 1366.8 300.555C1369.61 306.048 1370.47 311.739 1370.68 318.146C1370.88 324.321 1370.47 332.011 1370.48 340.768C1370.49 357.662 1362.57 380.05 1351.46 404.481C1339.88 429.917 1317.69 452.536 1289.53 478.813C1273.05 494.202 1250.1 510.349 1226.84 525.704C1203.47 541.129 1179.64 554.669 1161.4 564.089C1143.07 573.546 1130.98 578.503 1113.25 583.238C1095.55 587.965 1072.67 592.307 1032.25 594.81C991.888 597.309 934.622 597.849 893.749 596.235C852.768 594.617 829.948 590.816 804.968 586.156C780.066 581.511 753.599 576.11 736.694 572.241C728.223 570.302 722.356 568.789 717.286 567.455C712.213 566.12 708.004 564.982 702.761 563.767C697.49 562.546 691.267 561.272 679.923 558.826C668.613 556.387 652.301 552.803 626.971 546.983C576.331 535.348 490.042 514.855 443.142 502.944C440.241 502.207 437.5 501.504 434.907 500.835C433.107 507.903 431.035 514.878 428.59 521.786C421.963 540.507 411.804 567.976 403.12 585.51C390.406 611.183 377.311 638.777 344.344 658.681C331.333 666.537 317.731 675 296.8 675.741C266.237 676.823 235.112 676.227 204.911 669.592C187.504 665.768 164.221 661.172 145.833 651.812C143.792 650.773 141.795 649.74 139.844 648.715C142.253 653.602 144.811 658.768 147.465 664.237C154.204 678.126 158.501 689.685 161.385 698.319C162.824 702.626 163.914 706.214 164.762 708.938C165.654 711.802 166.2 713.428 166.586 714.2C167.29 715.609 168.635 717.232 172.052 719.418C175.513 721.631 180.835 724.255 189.183 727.755C222.582 741.755 251.71 754.397 271.207 759.478C281.928 762.272 295.216 763.995 319.877 765.102C344.503 766.208 379.984 766.209 406.039 765.134C447.426 763.428 474.835 754.427 494.532 744.85C507.863 738.369 536.596 725.151 576.503 711.753C595.817 705.268 605.784 704.165 632.053 701.71C653.608 699.695 691.697 700.866 713.172 701.402C730.274 701.829 741.945 703.622 750.899 706.018C759.844 708.412 765.989 711.392 771.758 713.934C788.49 721.308 806.986 728.389 819.474 735.606C827.945 740.501 834.681 745.369 844.289 752.388C853.901 759.411 866.5 768.672 886.82 782.482C903.643 793.916 914.085 801.881 922.169 808.059C930.259 814.242 935.833 818.513 943.084 822.739C959.881 832.529 971.628 836.627 988.444 842.339C1005.5 848.131 1029.59 851.706 1055.19 854.981C1098.3 860.498 1122.74 849.743 1147.82 844.713C1167.39 840.788 1192.16 833.918 1211.03 828.712C1226.72 824.384 1261.86 814.831 1304.4 805.564C1337.56 798.339 1349.55 793.466 1391.52 792.888C1407.27 792.672 1419.21 795.187 1429.35 799.919C1438.83 804.339 1446.52 810.602 1454.14 817.936L1455.66 819.418L1455.67 819.423C1475.76 839.227 1483.8 855.512 1488.96 864.931C1489.16 864.291 1489.42 863.673 1489.76 863.109C1490.76 861.456 1492.92 860.929 1494.57 861.93C1496.22 862.932 1496.75 865.085 1495.75 866.738C1495.75 866.742 1495.73 866.773 1495.7 866.837C1495.67 866.908 1495.63 867.012 1495.59 867.154C1495.51 867.444 1495.42 867.845 1495.34 868.381C1495.18 869.462 1495.09 870.909 1495.07 872.78C1495.02 876.525 1495.26 881.574 1495.63 888.053C1496.37 900.948 1497.58 919.127 1497.88 942.566C1498.05 955.362 1492.43 964.631 1482.92 973.665C1462.24 993.32 1440.21 1001.09 1419.51 1004.69C1409.21 1006.48 1399.21 1007.24 1389.97 1007.93C1380.66 1008.61 1372.2 1009.22 1364.63 1010.65C1334.31 1016.42 1309.31 1025.01 1269.6 1038.94C1251.39 1045.32 1237.84 1051.96 1226.46 1057.9C1215.18 1063.78 1205.67 1069.19 1196 1072.78C1188.98 1075.4 1182.55 1078.58 1174.73 1081.82C1173.06 1082.52 1171.34 1083.2 1169.59 1083.86C1169.58 1083.87 1169.58 1083.87 1169.58 1083.88C1166.78 1094.39 1162.24 1104.26 1157.79 1112C1153.42 1119.62 1148.91 1125.59 1146 1128.01C1125.48 1145.14 1101.64 1146.57 1051.6 1147.69C1008.28 1148.66 982.306 1125.25 941.933 1093.92C920.975 1077.65 903.415 1062.94 888.543 1050.91C873.588 1038.82 861.429 1029.52 851.007 1023.77C843.452 1019.6 834.148 1017.49 817.985 1016.35C801.801 1015.21 779.257 1015.05 745.404 1014.49C729.287 1014.22 713.551 1026.42 699.492 1042.65C685.572 1058.72 674.228 1077.6 666.53 1089.13C659.601 1099.51 646.809 1106.53 634.453 1111.91C619.756 1118.31 600.222 1117.61 580.163 1112.93C559.988 1108.23 538.723 1099.37 520.184 1088.76C496.927 1075.46 482.596 1058.33 463.743 1033.06C456.741 1023.67 452.429 1013.48 448.887 1003.74C445.285 993.821 442.584 984.721 438.666 976.594C436.256 971.597 431.641 967.209 424.875 963.432C418.114 959.659 409.427 956.622 399.255 954.231C378.908 949.449 353.195 947.381 326.438 946.819C315.447 946.588 305.085 954.051 294.67 965.415C289.538 971.014 284.572 977.355 279.664 983.785C274.79 990.169 269.939 996.685 265.162 1002.43C251.717 1018.6 239.061 1033.32 225.813 1058.18C210.01 1087.83 210.692 1107.54 214.769 1124.51C215.604 1127.98 218.344 1131.46 223.626 1134.81C224.298 1135.24 225.005 1135.66 225.747 1136.07C226.096 1132.36 226.463 1128.71 226.885 1125.23C227.964 1116.32 229.449 1107.95 232.09 1101.45C234.726 1094.96 238.849 1089.57 245.612 1088.09C262.897 1084.31 287.555 1080.81 310.885 1081.87C333.983 1082.91 356.888 1088.48 369.368 1103.94C372.104 1107.33 373.601 1110.72 374.093 1114.24C374.577 1117.71 374.048 1121.05 373.16 1124.26C371.491 1130.3 368.669 1137.94 363.639 1142.96C355.307 1151.28 342.683 1161.78 320.539 1160.58C289.834 1158.91 263.338 1155.66 243.866 1150.4C239.525 1149.23 235.496 1147.94 231.822 1146.53C231.59 1149.08 231.352 1151.64 231.09 1154.23C230.113 1163.86 228.849 1173.52 226.627 1182.02C222.089 1199.38 213.023 1216.55 202.609 1230.93C192.215 1245.28 180.285 1257.12 169.818 1263.66C164.518 1266.97 156.811 1267.92 149.196 1268.5C141.422 1269.08 133.359 1269.28 125.682 1270.49C125.715 1270.61 125.755 1270.75 125.808 1270.9C126.459 1272.78 128.165 1275.38 130.179 1277.66C138.976 1287.61 152.633 1292.98 176.021 1295.68C199.411 1298.37 231.712 1298.3 277.08 1298.05C286.41 1298 292.031 1296.83 295.592 1295.4C299.027 1294.02 300.726 1292.32 302.135 1290.7C304.95 1287.45 306.781 1284.04 309.504 1280.04C312.1 1276.22 315.266 1272.32 320.231 1269.52C323.528 1267.65 327.799 1267.12 331.877 1268.62C336.025 1270.15 339.621 1273.64 341.844 1279.19C343.954 1284.45 344.968 1292.17 346.075 1299.48C347.229 1307.09 348.509 1314.56 350.968 1320.35C356.583 1333.57 367.699 1342.85 382.201 1349.23C396.732 1355.62 414.413 1358.98 432.616 1360.46C469.016 1363.41 506.649 1358.76 523.414 1356.62C537.783 1354.79 549.018 1348.25 561.703 1338.98C574.29 1329.79 588.449 1317.78 607.915 1306.13C633.817 1290.64 657.429 1293.21 677.595 1297.53C694.974 1301.25 703.873 1312.48 710.014 1324.16C713.021 1329.88 715.516 1336.02 717.901 1341.22C720.362 1346.6 722.761 1351.12 725.744 1354.46C731.863 1361.31 739.785 1365.91 749.26 1370.25C754.006 1372.42 759.024 1374.47 764.381 1376.73C769.705 1378.98 775.3 1381.41 781.036 1384.27C810.478 1398.96 834.595 1402.71 884.945 1408.67C924.062 1413.31 958.497 1412.01 985.006 1408.77C984.986 1399.99 984.787 1391.9 984.603 1384.47C984.362 1374.73 984.144 1366.06 984.41 1358.59C984.929 1344 987.289 1332.34 996.911 1326.42C1006.37 1320.61 1023.55 1312.93 1040.57 1309.42C1049.09 1307.67 1057.78 1306.92 1065.54 1308.1C1073.33 1309.28 1080.44 1312.46 1085.28 1318.78C1091.22 1326.52 1097.32 1342.49 1091.69 1361.2C1088.99 1370.17 1081.95 1379.17 1071.65 1387.07C1061.3 1395.01 1047.43 1402.03 1030.64 1406.98C1021.7 1409.62 1008.53 1412.62 991.989 1414.92C991.983 1415.73 991.975 1416.55 991.965 1417.38C991.861 1425.87 994.198 1432.73 997.209 1438.72C998.726 1441.73 1000.4 1444.51 1002.06 1447.21C1003.68 1449.87 1005.33 1452.52 1006.61 1455.1C1011.24 1464.37 1022.19 1469.23 1035.73 1471.94C1042.37 1473.28 1049.35 1474.04 1056.02 1474.64C1062.6 1475.23 1069.04 1475.67 1074.23 1476.35C1091.62 1478.63 1107.56 1475.85 1117.48 1473.24C1124.02 1471.52 1131.58 1466.85 1139.73 1460.05C1147.82 1453.31 1156.22 1444.72 1164.44 1435.54C1172.66 1426.37 1180.63 1416.68 1187.9 1407.76C1195.14 1398.87 1201.73 1390.68 1207.06 1384.65C1223.08 1366.54 1246.35 1354.79 1267.05 1343.61C1298.41 1326.68 1325.07 1317.07 1350.13 1311.55C1375.36 1305.99 1409.74 1302.83 1435.14 1306.1C1444.77 1307.34 1453.19 1312.69 1461.33 1319.59C1469.38 1326.4 1477.87 1335.39 1487.03 1344.01C1503.31 1359.33 1513.35 1381.62 1519.85 1402.03C1526.34 1422.41 1529.51 1441.66 1531.59 1450.49C1532.72 1455 1533.81 1459.49 1534.37 1471.47C1534.67 1477.98 1534.81 1486.72 1534.87 1496.53C1535.06 1495.61 1535.26 1494.74 1535.47 1493.94C1536.17 1491.23 1537.04 1488.77 1538.3 1487.11C1539.47 1485.57 1541.66 1485.27 1543.2 1486.44C1544.74 1487.6 1545.05 1489.8 1543.88 1491.34C1543.52 1491.81 1542.92 1493.09 1542.25 1495.69C1541.61 1498.17 1540.99 1501.47 1540.4 1505.63C1539.21 1513.95 1538.15 1525.38 1537.07 1539.85C1536.03 1553.85 1528.64 1564.31 1518.68 1572.91C1508.82 1581.42 1496.07 1588.39 1483.86 1595.32C1461.53 1607.98 1444 1621.51 1429.09 1632.96C1414.36 1644.26 1401.77 1653.9 1389.77 1657.95C1383.01 1660.23 1376.93 1659.44 1371.64 1656.47C1366.5 1653.58 1362.33 1648.76 1358.9 1643.3C1352.05 1632.42 1347.39 1617.81 1343.91 1606.92C1340.2 1595.32 1338.17 1585.96 1326.68 1578.7C1311.49 1569.11 1294.77 1568.88 1280.1 1571.72C1265.3 1574.6 1253.31 1580.41 1247 1582.7C1237.79 1586.05 1228.81 1592.73 1218.26 1603.79C1201.31 1621.55 1192.63 1645.41 1186.02 1667.09C1182.76 1677.79 1179.95 1688.15 1176.91 1696.57C1173.92 1704.88 1170.42 1712.2 1165.31 1716.38C1154.91 1724.87 1140.97 1726.74 1126.87 1726.37C1112.86 1726 1097.47 1723.34 1084.45 1722.05C1070.25 1720.64 1061.93 1709.94 1055.81 1698.45C1052.73 1692.67 1050.04 1686.35 1047.43 1680.51C1044.79 1674.57 1042.22 1669.12 1039.3 1664.68C1027.54 1646.77 1013.7 1633.82 997.039 1624.42C976.139 1612.61 953.52 1610.93 931.131 1607.62C918.038 1605.69 906.017 1601.2 872.092 1599.6C833.955 1597.8 799.158 1598.73 770.989 1601.16C756.504 1602.41 743.84 1604.06 733.408 1605.92C734.731 1606.64 736.058 1607.39 737.389 1608.17C740.596 1610.05 743.814 1612.06 746.202 1615.23C748.663 1618.49 749.994 1622.61 750.326 1628.3C751.115 1641.84 753.522 1668.33 751.249 1694.54C750.111 1707.66 747.79 1720.88 743.428 1732.5C739.068 1744.12 732.585 1754.36 722.989 1761.19C710.848 1769.84 684.329 1777.85 652.552 1771.9C632.626 1768.17 613.671 1765.47 597.354 1761.14C580.956 1756.79 566.594 1750.67 555.78 1739.73C553.352 1737.28 551.645 1734.73 550.544 1731.79C549.458 1728.88 549.029 1725.78 548.906 1722.31C548.358 1706.84 551.787 1690.59 563.568 1679.89C575.535 1669.01 586.398 1661.19 597.48 1654.75C636.611 1632.01 674.465 1617.16 707.663 1605.09C708.823 1604.67 710.073 1604.25 711.407 1603.84C704.281 1601.32 697.018 1599.36 689.368 1597.55C673.709 1593.83 656.124 1590.66 635.343 1584.46C611.133 1577.24 589.525 1575.47 547.816 1576.47C535.844 1576.76 527.016 1586.54 519.691 1600.5C516.102 1607.35 513.049 1614.86 510.257 1622.06C507.499 1629.18 504.945 1636.14 502.446 1641.54C498.304 1650.49 491.863 1658.72 484.938 1667.06C477.935 1675.49 470.398 1684.08 463.541 1694.1C450.719 1712.85 437.824 1721.95 425.235 1726.76C412.983 1731.44 400.806 1732.01 390.931 1733.79C384.492 1734.95 377.379 1734.41 371.309 1732.02C358.611 1727.03 349.507 1716.95 342.252 1705.78C335.052 1694.68 329.293 1681.85 323.799 1671.37C312.611 1650.04 295.06 1631.59 270.757 1615.16C246.786 1598.96 218.128 1590.37 191.392 1583.95C162.072 1576.9 142.054 1578.54 127.665 1583.17C113.232 1587.81 104.15 1595.52 96.5251 1601.49C90.459 1606.23 86.4207 1614.19 82.9646 1625.41C79.5013 1636.65 76.8661 1650.23 73.0388 1666.01C63.9084 1703.67 66.3502 1727.99 71.9695 1745.27C74.7909 1753.94 78.4508 1760.96 82.0212 1767.14C85.5081 1773.17 89.1873 1778.82 91.5691 1784.14C99.2042 1801.19 103.477 1816.83 108.346 1831.17C113.245 1845.6 118.838 1859.05 129.208 1872.59C145.417 1893.75 170.99 1902.31 198.1 1904.11C197.76 1902.53 197.43 1900.94 197.118 1899.35C193.976 1883.37 192.173 1866.6 194.51 1849.54C195.337 1843.51 196.748 1837.17 199.501 1831.78C202.289 1826.31 206.536 1821.66 212.992 1819.39C222.985 1815.87 239.955 1810.4 257.044 1808.83C273.955 1807.29 292.16 1809.48 303.283 1822.69C311.831 1832.85 319.156 1843.26 319.618 1854.9C319.882 1861.57 320.065 1868.87 319.068 1875.16C318.088 1881.34 315.816 1887.53 310.302 1890.77C308.855 1891.62 305.627 1892.99 301.267 1894.59C296.804 1896.22 290.91 1898.18 283.964 1900.17C270.08 1904.15 251.906 1908.29 232.467 1910.28C224.169 1911.13 215.575 1911.59 206.944 1911.47C209.535 1922.33 212.419 1932.78 214.78 1943.24C215.977 1948.54 219.461 1954.1 224.42 1958.61C244.938 1977.28 277.9 1979.27 307.574 1975.05C322.276 1972.97 335.874 1969.4 346.23 1965.83C351.41 1964.05 355.735 1962.28 358.954 1960.73C360.565 1959.95 361.859 1959.24 362.828 1958.63C363.853 1957.99 364.316 1957.57 364.446 1957.43C371.316 1949.58 376.804 1939.98 381.824 1929.9C386.717 1920.07 391.421 1909.2 396.221 1900.1C400.412 1892.15 406.001 1879.41 418.653 1865.08C432.537 1849.36 451.557 1846.57 464.546 1847.69C471.407 1848.28 477.317 1851.31 481.571 1854.92C490.421 1862.42 495.356 1873.25 498.606 1889.31C501.846 1905.33 503.516 1927.12 505.405 1957.06C506.421 1973.16 516.148 1979.26 524.792 1985.2C525.294 1985.55 526.427 1986.06 528.5 1986.6C530.499 1987.12 533.111 1987.6 536.355 1988.03C542.839 1988.88 551.589 1989.5 562.492 1989.86C584.284 1990.58 614.405 1990.28 651.636 1988.95C695.015 1987.41 722.48 1980.63 743.01 1972.15C763.798 1963.57 777.229 1953.46 793.852 1944.34C819.643 1930.19 837.591 1922.68 852.133 1918.04C866.6 1913.42 877.741 1911.64 889.317 1909.02C910.413 1904.24 929.375 1912.36 939.718 1921.54C949.844 1930.54 954.906 1944.03 959.124 1956.58C961.28 1962.99 963.203 1969.14 965.473 1974.8C967.736 1980.43 970.237 1985.29 973.391 1989.04C979.761 1996.63 989.71 2002.39 1005.41 2006.19C1020.16 2009.75 1039.74 2011.51 1065.66 2011.53C1065.05 1988.74 1064.29 1970.56 1065.21 1955.59C1066.39 1936.69 1070.28 1922.2 1080.88 1909.07C1083.21 1906.19 1085.72 1903.73 1089.24 1902.01C1092.73 1900.3 1096.91 1899.45 1102.37 1899.23C1115.44 1898.7 1128.7 1898.19 1138.82 1899.19C1143.86 1899.69 1148.47 1900.6 1151.99 1902.27C1155.57 1903.97 1158.57 1906.77 1159 1911.13C1160.07 1921.87 1160.99 1932.49 1160.96 1941.6C1160.94 1950.53 1160.03 1958.74 1156.89 1964.17C1146.66 1981.86 1125.62 2017.23 1072.84 2018.48C1072.92 2021.93 1072.99 2025.5 1073.05 2029.19C1073.1 2031.99 1073.49 2033.81 1074.03 2035.02C1074.53 2036.13 1075.22 2036.85 1076.2 2037.4C1077.27 2038 1078.82 2038.46 1081.09 2038.79C1083.36 2039.11 1086.08 2039.26 1089.43 2039.4C1125 2040.86 1153.8 2037.78 1168.07 2032.18C1194.21 2021.92 1217.69 2002.1 1236.4 1982.03C1255.08 1961.99 1268.81 1941.95 1275.49 1931.53C1283.2 1919.51 1295.09 1909.69 1305.23 1901.66C1311.77 1896.48 1319.65 1896.49 1326.59 1898.27C1333.51 1900.05 1340.08 1903.72 1344.76 1906.73C1356.01 1913.99 1358.8 1927.94 1358.43 1942.36C1358.05 1956.97 1354.39 1973.54 1351.2 1987.73C1349.9 1993.55 1348.4 1998.26 1347.56 2003.34C1346.76 2008.19 1346.75 2012.61 1348.32 2016.93C1348.86 2018.41 1350.16 2019.65 1352.92 2020.52C1355.74 2021.4 1359.59 2021.71 1364.25 2021.58C1373.59 2021.32 1384.79 2019.34 1394.95 2017.98C1400.72 2017.21 1406.08 2013.08 1411.44 2005.8C1416.76 1998.57 1421.64 1988.81 1426.62 1977.87C1431.54 1967.07 1436.59 1955.04 1442.07 1943.85C1447.58 1932.63 1453.7 1921.88 1460.99 1913.42C1468.97 1904.15 1480.35 1901.32 1491.19 1900.98C1502.01 1900.65 1512.98 1902.79 1520.62 1904.1C1529.26 1905.57 1535.88 1911.45 1541.07 1919.31C1546.26 1927.17 1550.31 1937.43 1553.69 1948.55C1557.08 1959.7 1559.88 1971.96 1562.5 1983.91C1565.12 1995.91 1567.55 2007.56 1570.22 2017.73C1578.95 2050.93 1584.23 2077.01 1589.11 2108.28C1597.28 2160.6 1576.42 2192.24 1565.58 2209.57C1557.36 2222.71 1541.72 2229.08 1517.71 2232.36C1493.6 2235.65 1459.89 2235.97 1414.17 2235.99C1380.58 2236 1361.11 2221.43 1343.25 2210.94C1344.81 2219.4 1346.42 2231.15 1340.56 2241.28C1330.57 2258.53 1317.52 2294.22 1269.26 2302.03C1251.03 2304.98 1229.13 2307.47 1208.84 2308.03C1188.71 2308.58 1169.6 2307.27 1157.33 2302.27C1151.07 2299.73 1146.11 2294.77 1143.63 2288.45C1141.29 2282.5 1140.36 2275.26 1141.9 2268.66C1144.47 2257.59 1149.79 2247.63 1156.73 2237.33C1163.61 2227.11 1172.36 2216.17 1181.74 2203.47C1189.24 2193.32 1198.53 2180.54 1208.58 2170.96C1214.13 2165.68 1220.25 2161.03 1226.71 2158.49C1214.28 2160.27 1201.24 2162.78 1188.25 2165.95C1133 2179.46 1103.75 2196.73 1083.09 2212.88C1072.61 2221.08 1064.5 2228.84 1055.91 2236.15C1047.41 2243.38 1038.73 2249.89 1027.73 2254.9C972.08 2280.22 936.905 2295.76 910.219 2305.04C896.147 2309.94 871.82 2313.86 845.613 2314.65C819.397 2315.44 790.818 2313.1 768.32 2305.17C741.617 2295.74 727.492 2279.36 717.596 2263.11C712.732 2255.13 708.768 2246.95 705.011 2240.03C701.169 2232.95 697.48 2227.05 692.936 2222.76C684.931 2215.19 678.004 2207.45 672.407 2201.86C666.501 2195.97 661.99 2192.38 657.928 2191.31C636.315 2185.64 607.079 2184.67 580.775 2186.56C567.658 2187.51 555.368 2189.16 545.236 2191.26C534.99 2193.38 527.305 2195.88 523.138 2198.37C499.565 2212.47 492.946 2230.48 478.06 2253.12C470.693 2264.32 458.148 2273.4 444.461 2280.26C430.715 2287.14 415.466 2291.96 402.269 2294.45C378.189 2298.99 353.4 2294.41 331.332 2286.02C309.25 2277.63 289.653 2265.32 275.825 2254.07C261.321 2242.27 244.96 2224.95 227.808 2208.7C210.462 2192.26 192.088 2176.68 172.941 2167.48C155.039 2158.88 135.43 2157.59 89.1697 2158.09C61.9917 2158.39 50.2057 2176.18 36.0691 2197.26C21.5999 2218.83 11.5916 2236.18 8.54468 2246.29C4.59789 2259.4 8.58285 2272.27 16.4998 2285.63C24.503 2299.13 35.8566 2312.12 46.032 2325.9C53.7864 2336.41 64.7654 2342.03 81.8806 2345.33C99.1558 2348.67 122.08 2349.52 153.308 2350.87C172.206 2351.69 182.612 2360.77 190.795 2364.61C201.506 2369.62 207.963 2379.96 211.8 2396.09C215.626 2412.18 217.026 2434.74 217.074 2465.32C217.085 2472.65 214.165 2477.24 210.189 2480.16C206.639 2482.76 202.025 2484.03 199.886 2484.88C183.345 2491.48 160.342 2491.41 139.467 2489.52C118.547 2487.62 98.7549 2483.77 89.0544 2482.42C86.9014 2482.13 85.9988 2482.51 85.6755 2482.73C85.4204 2482.9 85.0276 2483.31 84.8435 2484.56C84.4341 2487.33 85.4044 2491.96 87.5066 2497.8C89.5419 2503.47 92.3959 2509.65 95.116 2515.26C97.7788 2520.76 100.41 2525.88 101.785 2529.06C105.244 2537.04 114.4 2541.16 133.897 2542.84C153.114 2544.49 180.379 2543.67 217.54 2543.7C238.711 2543.72 256.429 2532.46 274.318 2515.44C283.248 2506.94 292.089 2497.14 301.355 2486.78C310.591 2476.46 320.237 2465.61 330.657 2455.17C348.146 2437.65 364.718 2429.61 379.76 2426.3C394.717 2423.01 407.934 2424.47 418.36 2425.53C428.663 2426.58 432.437 2433.71 435.037 2437.85C442.763 2450.18 446.24 2466.72 449.699 2480.76C451.464 2487.93 453.218 2494.47 455.476 2499.89C457.745 2505.34 460.362 2509.25 463.599 2511.52C472.319 2517.65 479.51 2523.68 491.289 2528.32C512.187 2536.55 534.226 2527.91 546.748 2523.02C556.566 2519.18 565.032 2510.14 574.129 2499C583.011 2488.13 592.415 2475.36 603.76 2465.63C623.878 2448.4 650.2 2433.41 691.241 2419.32C720.537 2409.27 741.827 2411.94 758.407 2418.57C766.618 2421.86 773.577 2426.08 779.641 2430.01C785.829 2434.01 790.809 2437.52 795.537 2439.82C805.415 2444.63 825.124 2453.79 847.301 2467.3C857.169 2473.31 863.112 2482.64 866.708 2492.91C870.291 2503.14 871.622 2514.52 872.148 2525.01C872.412 2530.27 872.475 2535.35 872.508 2539.99C872.54 2544.66 872.541 2548.83 872.675 2552.37C872.81 2555.97 873.074 2558.63 873.536 2560.36C873.695 2560.96 873.837 2561.31 873.935 2561.5C906.91 2566.47 945.459 2572.7 979.676 2577.54C1013.8 2582.37 1038.8 2579.05 1058.23 2572.91C1077.75 2566.74 1091.74 2557.71 1104.27 2550.63C1115.69 2544.19 1126.5 2538.78 1137.56 2533.26C1148.63 2527.74 1159.95 2522.11 1172.5 2515.17C1185.08 2508.22 1199.69 2505.19 1214.79 2502.62C1230.05 2500.02 1245.88 2497.87 1261.75 2492.86C1287.98 2484.57 1319.35 2480.37 1348.4 2477.65C1371.3 2475.5 1408.13 2479.15 1443.64 2486.25C1479.06 2493.33 1513.96 2504 1532.72 2516.26C1542.64 2522.74 1550.65 2534.18 1556.78 2549.32C1562.92 2564.51 1567.32 2583.74 1569.81 2606.25C1571.47 2621.22 1566.44 2636.33 1559.21 2650.1C1551.97 2663.9 1542.31 2676.75 1534.26 2687.26C1518.24 2708.17 1496.56 2719.97 1468.38 2736.47C1430.97 2758.36 1398.91 2767.59 1342.06 2770.84C1289.81 2773.82 1189.6 2771.94 1136.09 2771.41C1077.98 2770.83 1065.97 2767.63 1050.81 2764.93C1035.59 2762.21 985.727 2751.58 874.112 2740.31C805.416 2733.38 710.786 2736.49 646.04 2739.15C581.443 2741.81 549.831 2747.09 519.354 2749.85C473.617 2753.99 444.774 2756.02 424.028 2757.54C403.265 2759.07 390.728 2760.09 377.461 2762.21L377.431 2762.22L377.403 2762.22C369.767 2763.32 361.134 2764.39 345.972 2764.95C330.878 2765.5 309.536 2765.5 287.652 2765.5C285.719 2765.5 284.152 2763.93 284.152 2762C284.152 2760.06 285.719 2758.5 287.652 2758.5C309.59 2758.5 330.781 2758.49 345.718 2757.95C360.586 2757.41 368.968 2756.36 376.411 2755.29C389.995 2753.12 402.813 2752.08 423.515 2750.56C444.265 2749.04 473.052 2747.02 518.722 2742.88C548.758 2740.16 580.946 2734.82 645.753 2732.16C710.41 2729.5 805.541 2726.36 874.815 2733.35C986.722 2744.64 1036.82 2755.32 1052.04 2758.03C1066.88 2760.68 1078.49 2763.84 1136.16 2764.41C1189.88 2764.94 1289.72 2766.82 1341.66 2763.85C1397.65 2760.65 1428.59 2751.65 1464.84 2730.43C1493.46 2713.67 1513.7 2702.58 1528.71 2683C1536.77 2672.48 1546.08 2660.05 1553.01 2646.84C1559.96 2633.6 1564.29 2619.98 1562.86 2607.02C1560.41 2584.92 1556.12 2566.36 1550.29 2551.95C1544.43 2537.49 1537.15 2527.51 1528.9 2522.12C1511.34 2510.65 1477.6 2500.18 1442.26 2493.11C1407 2486.07 1370.95 2482.56 1349.05 2484.62C1320.1 2487.34 1289.35 2491.48 1263.86 2499.53C1247.4 2504.73 1230.92 2506.97 1215.97 2509.52C1200.85 2512.09 1187.32 2514.98 1175.89 2521.3C1163.19 2528.32 1151.74 2534.01 1140.68 2539.53C1129.62 2545.05 1118.95 2550.38 1107.72 2556.73C1095.53 2563.61 1080.74 2573.13 1060.34 2579.58C1039.85 2586.06 1013.8 2589.44 978.695 2584.47C944.284 2579.6 905.372 2573.32 872.412 2568.35C868.759 2567.8 867.368 2564.4 866.772 2562.16C866.092 2559.61 865.816 2556.27 865.679 2552.64C865.541 2548.95 865.539 2544.63 865.508 2540.04C865.475 2535.42 865.413 2530.46 865.157 2525.36C864.643 2515.13 863.358 2504.52 860.101 2495.22C856.856 2485.96 851.734 2478.2 843.659 2473.28C821.821 2459.98 802.435 2450.96 792.473 2446.11C787.237 2443.56 781.659 2439.65 775.836 2435.88C769.888 2432.03 763.381 2428.1 755.806 2425.07C740.814 2419.07 721.254 2416.42 693.513 2425.94C653.065 2439.83 627.589 2454.43 608.315 2470.95C597.589 2480.14 588.766 2492.15 579.55 2503.43C570.547 2514.45 561.042 2524.94 549.297 2529.53C537.169 2534.27 512.544 2544.21 488.724 2534.83C475.951 2529.8 467.862 2523.07 459.574 2517.25C454.756 2513.86 451.493 2508.53 449.014 2502.58C446.526 2496.61 444.664 2489.59 442.902 2482.43C439.307 2467.84 436.082 2452.7 429.105 2441.57C426.291 2437.08 424.144 2433.15 417.652 2432.49C407.15 2431.43 394.985 2430.12 381.264 2433.14C367.629 2436.14 352.229 2443.47 335.61 2460.11C325.352 2470.39 315.843 2481.09 306.571 2491.45C297.329 2501.78 288.308 2511.79 279.143 2520.51C260.843 2537.92 241.441 2550.72 217.534 2550.7C180.778 2550.67 152.909 2551.5 133.297 2549.81C113.966 2548.15 100.599 2543.92 95.3621 2531.84C94.0629 2528.84 91.6147 2524.09 88.8171 2518.32C86.0766 2512.66 83.087 2506.2 80.9197 2500.17C78.8196 2494.33 77.2275 2488.21 77.9177 2483.53C78.2836 2481.06 79.3568 2478.56 81.7351 2476.94C84.046 2475.37 86.9464 2475.06 90.0154 2475.49C100.309 2476.92 119.34 2480.66 140.097 2482.54C160.898 2484.43 182.426 2484.31 197.294 2478.38C200.569 2477.07 203.457 2476.41 206.05 2474.51C208.217 2472.92 210.082 2470.44 210.074 2465.33C210.026 2434.79 208.611 2412.94 204.989 2397.71C201.377 2382.53 195.75 2374.66 187.826 2370.95C177.771 2366.24 170.042 2358.6 153.006 2357.87C122.046 2356.53 98.469 2355.66 80.5554 2352.21C62.4817 2348.72 49.5843 2342.5 40.4001 2330.06C30.7269 2316.95 18.7057 2303.08 10.4783 2289.2C2.16464 2275.17 -2.93776 2260.15 1.84253 2244.27C5.24037 2232.99 15.8724 2214.8 30.2556 2193.36C44.0878 2172.74 57.7638 2151.43 89.0945 2151.09C135.053 2150.6 156.352 2151.75 175.971 2161.17C196.167 2170.87 215.205 2187.11 232.623 2203.61C250.236 2220.3 265.993 2237.05 280.243 2248.64C293.562 2259.48 312.516 2271.38 333.819 2279.48C355.136 2287.58 378.567 2291.79 400.972 2287.57C413.586 2285.19 428.21 2280.57 441.326 2274C454.501 2267.4 465.808 2259.01 472.212 2249.27C486.293 2227.86 494.165 2207.55 519.546 2192.37C524.779 2189.24 533.445 2186.55 543.818 2184.4C554.306 2182.23 566.907 2180.54 580.272 2179.58C606.935 2177.66 637.036 2178.59 659.707 2184.54C665.827 2186.15 671.554 2191.12 677.352 2196.9C683.46 2203 689.703 2210.07 697.746 2217.67C703.151 2222.78 707.275 2229.53 711.163 2236.69C715.136 2244.01 718.82 2251.66 723.575 2259.47C732.918 2274.81 745.916 2289.84 770.648 2298.56C791.988 2306.09 819.591 2308.43 845.403 2307.65C871.224 2306.88 894.771 2303 907.921 2298.43C934.24 2289.28 969.101 2273.89 1024.83 2248.53C1034.98 2243.91 1043.09 2237.86 1051.37 2230.82C1059.55 2223.87 1068.19 2215.65 1078.78 2207.37C1100.26 2190.57 1130.43 2172.88 1186.59 2159.15C1212.92 2152.72 1239.57 2148.95 1261.28 2148.42C1272.13 2148.16 1281.85 2148.71 1289.73 2150.19C1297.46 2151.63 1304.04 2154.08 1307.91 2158.13C1314.56 2165.08 1322.4 2172.96 1329 2181.57C1333.65 2187.65 1337.81 2194.24 1340.54 2201.32C1341.97 2202.13 1343.38 2202.93 1344.74 2203.71C1363.92 2214.69 1381.64 2229 1414.16 2228.99C1460.05 2228.97 1493.22 2228.64 1516.76 2225.42C1540.4 2222.19 1553.19 2216.18 1559.65 2205.86C1570.33 2188.77 1589.95 2159.03 1582.19 2109.36C1577.35 2078.31 1572.12 2052.47 1563.45 2019.51C1560.73 2009.16 1558.26 1997.29 1555.66 1985.4C1553.05 1973.46 1550.3 1961.45 1546.99 1950.59C1543.68 1939.69 1539.87 1930.19 1535.23 1923.17C1530.6 1916.15 1525.42 1912.02 1519.44 1911C1511.54 1909.65 1501.37 1907.67 1491.41 1907.98C1481.48 1908.29 1472.44 1910.85 1466.3 1917.98C1459.59 1925.77 1453.78 1935.88 1448.36 1946.93C1442.92 1958.02 1438.04 1969.68 1432.99 1980.77C1428 1991.73 1422.87 2002.07 1417.08 2009.95C1411.32 2017.78 1404.47 2023.77 1395.88 2024.92C1386.19 2026.22 1374.28 2028.31 1364.45 2028.58C1359.51 2028.72 1354.75 2028.42 1350.83 2027.2C1346.85 2025.95 1343.3 2023.58 1341.75 2019.33C1339.6 2013.46 1339.75 2007.7 1340.65 2002.21C1341.51 1996.96 1343.25 1991.18 1344.37 1986.19C1347.6 1971.86 1351.08 1955.98 1351.43 1942.18C1351.79 1928.18 1348.91 1917.74 1340.96 1912.62C1336.52 1909.75 1330.7 1906.55 1324.85 1905.05C1319 1903.55 1313.71 1903.87 1309.57 1907.15C1299.37 1915.23 1288.38 1924.4 1281.38 1935.31C1274.57 1945.92 1260.59 1966.35 1241.52 1986.8C1222.49 2007.21 1198.16 2027.89 1170.62 2038.7C1154.92 2044.86 1124.9 2047.86 1089.14 2046.39C1085.81 2046.26 1082.76 2046.09 1080.1 2045.72C1077.46 2045.34 1074.94 2044.72 1072.78 2043.5C1070.52 2042.24 1068.78 2040.41 1067.65 2037.9C1066.56 2035.49 1066.11 2032.62 1066.05 2029.31C1065.99 2025.61 1065.92 2022.02 1065.84 2018.53C1039.57 2018.52 1019.31 2016.75 1003.76 2012.99C987.184 2008.98 975.68 2002.66 968.03 1993.54C964.184 1988.96 961.355 1983.33 958.977 1977.4C956.607 1971.5 954.577 1965.02 952.489 1958.81C948.218 1946.1 943.622 1934.37 935.069 1926.78C926.11 1918.82 909.391 1911.64 890.865 1915.84C878.838 1918.57 868.347 1920.21 854.261 1924.71C840.249 1929.18 822.72 1936.49 797.219 1950.48C781.62 1959.03 766.87 1969.88 745.68 1978.62C724.233 1987.48 695.92 1994.38 651.885 1995.95C614.588 1997.28 584.285 1997.59 562.26 1996.86C551.256 1996.49 542.248 1995.87 535.438 1994.97C532.036 1994.52 529.116 1993.99 526.74 1993.37C524.437 1992.77 522.35 1992.02 520.825 1990.97C512.327 1985.12 499.669 1977.31 498.42 1957.5C496.523 1927.44 494.871 1906.16 491.745 1890.7C488.629 1875.3 484.154 1866.28 477.046 1860.26C473.696 1857.42 469.116 1855.11 463.944 1854.66C452.283 1853.66 435.814 1856.23 423.9 1869.72C411.935 1883.26 406.77 1895.1 402.414 1903.36C397.564 1912.56 393.318 1922.51 388.09 1933.02C382.988 1943.26 377.182 1953.51 369.712 1962.04C368.903 1962.96 367.752 1963.81 366.554 1964.56C365.3 1965.35 363.762 1966.18 362 1967.03C358.471 1968.74 353.878 1970.6 348.509 1972.45C337.766 1976.15 323.734 1979.83 308.557 1981.98C278.473 1986.25 242.682 1984.69 219.709 1963.79C213.938 1958.53 209.532 1951.78 207.952 1944.78C205.602 1934.37 202.436 1922.92 199.694 1911.22C170.621 1909.63 141.957 1900.74 123.651 1876.84C112.61 1862.43 106.72 1848.15 101.718 1833.42C96.6859 1818.6 92.637 1803.65 85.1804 1787C82.9947 1782.12 79.7349 1777.17 75.9607 1770.64C72.2698 1764.26 68.3466 1756.76 65.3123 1747.43C59.22 1728.7 56.8598 1703.03 66.2361 1664.36C69.9488 1649.05 72.7315 1634.84 76.2742 1623.35C79.8242 1611.83 84.3816 1602.1 92.2117 1595.98C99.6826 1590.13 109.712 1581.59 125.521 1576.5C141.374 1571.4 162.729 1569.86 193.028 1577.14C219.909 1583.6 249.608 1592.42 274.677 1609.37C299.705 1626.29 318.155 1645.54 329.998 1668.12C335.781 1679.15 341.155 1691.23 348.124 1701.97C355.037 1712.62 363.14 1721.29 373.869 1725.51C378.625 1727.38 384.411 1727.85 389.691 1726.9C400.761 1724.91 411.289 1724.59 422.738 1720.22C433.851 1715.97 445.654 1707.85 457.763 1690.15C464.858 1679.78 472.701 1670.83 479.552 1662.58C486.483 1654.24 492.375 1646.63 496.094 1638.6C498.468 1633.47 500.889 1626.87 503.729 1619.53C506.535 1612.29 509.706 1604.47 513.492 1597.25C520.918 1583.1 531.448 1569.86 547.648 1569.47C589.619 1568.47 612.088 1570.22 637.343 1577.75C657.885 1583.88 674.871 1586.91 690.984 1590.73C701.999 1593.35 712.468 1596.31 722.969 1600.85C735.254 1598.16 751.41 1595.83 770.385 1594.19C798.876 1591.72 833.986 1590.8 872.422 1592.61C906.742 1594.23 920.087 1598.92 932.153 1600.7C953.843 1603.9 978.151 1605.71 1000.48 1618.32C1018.17 1628.31 1032.81 1642.05 1045.15 1660.84C1048.42 1665.81 1051.19 1671.74 1053.83 1677.65C1056.51 1683.66 1059.06 1689.66 1061.99 1695.16C1067.9 1706.26 1074.68 1714.05 1085.14 1715.08C1098.96 1716.45 1113.32 1719.01 1127.05 1719.37C1140.69 1719.73 1152.49 1717.81 1160.88 1710.96C1164.35 1708.12 1167.34 1702.49 1170.33 1694.19C1173.28 1685.99 1175.97 1676.07 1179.33 1665.05C1185.96 1643.3 1195.01 1618.02 1213.2 1598.96C1224.07 1587.55 1233.94 1580 1244.61 1576.13C1250.1 1574.13 1263.25 1567.87 1278.77 1564.85C1294.41 1561.81 1313.16 1561.89 1330.42 1572.78C1344.45 1581.64 1347.06 1593.78 1350.57 1604.79C1354.12 1615.89 1358.54 1629.59 1364.82 1639.57C1367.96 1644.55 1371.37 1648.29 1375.07 1650.37C1378.63 1652.37 1382.66 1652.97 1387.53 1651.32C1398.18 1647.72 1409.76 1638.97 1424.83 1627.41C1439.72 1615.98 1457.6 1602.16 1480.41 1589.23C1492.87 1582.16 1504.89 1575.56 1514.11 1567.61C1523.23 1559.74 1529.23 1550.85 1530.09 1539.33C1530.45 1534.48 1530.82 1529.95 1531.18 1525.74C1529.36 1525.62 1527.92 1524.1 1527.92 1522.25C1527.92 1502.49 1527.92 1483.45 1527.38 1471.79C1526.84 1460.29 1525.82 1456.27 1524.79 1452.15L1524.78 1452.12L1524.78 1452.1C1522.55 1442.63 1519.57 1424.22 1513.18 1404.16C1506.8 1384.13 1497.21 1363.2 1482.24 1349.11C1472.59 1340.03 1464.72 1331.63 1456.81 1324.93C1448.99 1318.31 1441.85 1314.02 1434.24 1313.04C1409.89 1309.9 1376.35 1312.94 1351.64 1318.39C1327.27 1323.76 1301.22 1333.12 1270.38 1349.77C1249.26 1361.18 1227.31 1372.33 1212.31 1389.29C1207.09 1395.18 1200.63 1403.21 1193.33 1412.18C1186.05 1421.11 1177.99 1430.9 1169.66 1440.21C1161.33 1449.5 1152.68 1458.37 1144.21 1465.43C1135.81 1472.43 1127.3 1477.9 1119.26 1480.01C1108.82 1482.75 1091.92 1485.73 1073.32 1483.29C1068.31 1482.63 1062.21 1482.22 1055.4 1481.61C1048.66 1481 1041.38 1480.22 1034.35 1478.81C1020.55 1476.04 1006.55 1470.65 1000.35 1458.23C999.228 1455.98 997.766 1453.61 996.085 1450.86C994.434 1448.17 992.617 1445.17 990.955 1441.86C987.606 1435.2 984.844 1427.22 984.966 1417.3C984.972 1416.8 984.975 1416.31 984.979 1415.82C958.055 1419.05 923.387 1420.28 884.122 1415.63C833.811 1409.67 808.568 1405.83 777.911 1390.54C772.377 1387.78 766.945 1385.41 761.657 1383.18C756.401 1380.96 751.218 1378.84 746.348 1376.61C736.59 1372.15 727.613 1367.06 720.522 1359.12C716.787 1354.94 714.029 1349.58 711.537 1344.14C708.969 1338.53 706.714 1332.93 703.819 1327.42C698.157 1316.65 690.638 1307.48 676.129 1304.37C656.598 1300.19 635.144 1298 611.508 1312.14C592.404 1323.57 578.899 1335.09 565.833 1344.64C552.865 1354.11 540.455 1361.51 524.298 1363.57C507.535 1365.7 469.253 1370.45 432.051 1367.43C413.452 1365.93 394.91 1362.47 379.383 1355.64C363.827 1348.79 351.05 1338.45 344.525 1323.09C341.667 1316.36 340.288 1308.01 339.154 1300.52C337.973 1292.73 337.071 1286.1 335.346 1281.79C333.735 1277.77 331.452 1275.92 329.459 1275.19C327.395 1274.43 325.263 1274.72 323.675 1275.61C320.085 1277.64 317.65 1280.51 315.292 1283.98C313.06 1287.26 310.582 1291.64 307.422 1295.29C305.56 1297.43 302.998 1299.96 298.202 1301.89C293.53 1303.77 286.946 1304.99 277.119 1305.05C231.927 1305.3 199.128 1305.38 175.221 1302.63C151.314 1299.88 135.48 1294.22 124.935 1282.29C122.648 1279.71 120.273 1276.31 119.194 1273.19C118.675 1271.69 118.243 1269.67 118.898 1267.7C119.688 1265.34 121.68 1264.05 123.927 1263.68C132.192 1262.32 141.181 1262.08 148.671 1261.52C156.528 1260.92 162.492 1259.98 166.109 1257.72C175.571 1251.81 186.878 1240.71 196.939 1226.82C206.98 1212.96 215.588 1196.57 219.854 1180.25C221.933 1172.3 223.155 1163.08 224.125 1153.52C224.456 1150.26 224.759 1146.93 225.058 1143.61C223.197 1142.69 221.467 1141.73 219.878 1140.72C213.798 1136.87 209.391 1132.09 207.964 1126.14C203.503 1107.58 202.996 1086.11 219.636 1054.89C233.261 1029.32 246.351 1014.1 259.78 997.954C264.435 992.357 269.147 986.025 274.1 979.537C279.019 973.094 284.147 966.535 289.509 960.685C300.079 949.152 312.305 939.521 326.586 939.821C353.511 940.387 379.797 942.468 400.856 947.418C411.387 949.893 420.755 953.117 428.286 957.32C435.811 961.52 441.727 966.825 444.971 973.554C449.093 982.102 452.062 991.972 455.468 1001.35C458.934 1010.89 462.968 1020.31 469.354 1028.87C488.137 1054.05 501.745 1070.15 523.66 1082.69C541.709 1093.01 562.343 1101.59 581.753 1106.11C601.279 1110.67 619.018 1110.99 631.659 1105.49C643.952 1100.14 655.007 1093.79 660.708 1085.25C668.154 1074.09 679.901 1054.58 694.201 1038.07C708.361 1021.72 725.976 1007.16 745.521 1007.49C779.205 1008.05 802.047 1008.21 818.478 1009.37C834.931 1010.53 845.475 1012.72 854.388 1017.64C865.426 1023.73 878.035 1033.41 892.944 1045.47C907.936 1057.59 925.337 1072.18 946.225 1088.39C987.31 1120.28 1011.14 1141.6 1051.45 1140.69C1102.16 1139.56 1123.23 1137.89 1141.52 1122.64C1143.42 1121.05 1147.43 1115.99 1151.72 1108.52C1155.28 1102.31 1158.88 1094.72 1161.48 1086.62C1157.51 1087.81 1153.28 1088.85 1148.72 1089.61C1116.36 1095.03 1084.4 1086.48 1067.3 1070.62C1061.76 1065.47 1060.41 1057.22 1060.4 1049.84C1060.4 1042.26 1061.83 1034.49 1062.9 1029.28C1064.04 1023.73 1065.82 1019.71 1068.42 1016.74C1071.04 1013.76 1074.19 1012.16 1077.41 1010.97C1091.51 1005.79 1119.87 1006.5 1149.56 1023.92C1161.59 1030.97 1168.12 1040.69 1170.82 1051.42C1172.81 1059.3 1172.7 1067.59 1171.37 1075.63C1171.59 1075.54 1171.82 1075.45 1172.05 1075.36C1179.21 1072.39 1186.49 1068.85 1193.56 1066.22C1202.69 1062.82 1211.6 1057.76 1223.23 1051.69C1234.76 1045.67 1248.64 1038.87 1267.28 1032.33C1306.94 1018.42 1332.41 1009.65 1363.33 1003.78C1371.37 1002.25 1380.26 1001.62 1389.46 1000.95C1398.72 1000.26 1408.39 999.517 1418.31 997.792C1438.05 994.357 1458.68 987.044 1478.1 968.591C1486.77 960.353 1491.01 952.829 1490.88 942.656C1490.59 919.405 1489.38 901.398 1488.64 888.451C1488.48 885.578 1488.34 882.935 1488.24 880.531C1487.43 880.042 1486.82 879.229 1486.61 878.229C1485.58 873.103 1484.64 871.35 1483.52 869.559L1483.47 869.481L1483.42 869.401C1478.23 860.069 1470.81 844.173 1450.76 824.413L1449.28 822.975C1441.91 815.882 1434.87 810.217 1426.39 806.262C1417.39 802.061 1406.53 799.683 1391.62 799.888C1350.52 800.454 1339.32 805.119 1305.89 812.404C1263.53 821.631 1228.53 831.144 1212.89 835.459C1194.11 840.643 1169.06 847.591 1149.2 851.576C1125.25 856.38 1098.92 867.634 1054.3 861.924C1028.83 858.665 1004.03 855.024 986.193 848.967C969.289 843.227 956.99 838.946 939.559 828.787C931.87 824.305 925.955 819.763 917.918 813.621C909.874 807.474 899.551 799.599 882.885 788.272C862.461 774.391 849.782 765.071 840.159 758.041C830.532 751.007 824.076 746.35 815.972 741.667C803.922 734.703 786.232 727.963 768.934 720.34C762.99 717.72 757.399 715.003 749.091 712.78C740.791 710.559 729.688 708.816 712.997 708.399C691.276 707.857 653.735 706.714 632.705 708.679C606.533 711.125 597.239 712.175 578.731 718.388C539.175 731.668 510.725 744.76 497.593 751.145C477.035 761.14 448.683 770.382 406.328 772.129C380.087 773.211 344.404 773.211 319.562 772.095C294.755 770.981 280.883 769.234 269.441 766.252C249.321 761.008 219.542 748.071 186.476 734.211C178.047 730.677 172.269 727.865 168.28 725.314C164.248 722.735 161.792 720.266 160.324 717.33C159.624 715.929 158.898 713.65 158.079 711.02C157.216 708.251 156.155 704.757 154.746 700.538C151.934 692.121 147.746 680.852 141.167 667.293C136.932 658.567 132.842 650.427 129.224 642.938C119.892 637.678 111.844 632.591 105.192 627.651C94.9441 620.04 87.6406 612.522 84.2595 604.957C74.5304 583.187 68.9728 549.063 74.8435 524.335C79.0913 506.442 93.133 467.732 131.37 446.658C137.208 443.44 147.352 441.292 160.09 440.132C169.812 439.246 181.328 438.916 194.134 439.231C195.134 437.967 196.116 436.731 197.079 435.527C206.681 423.524 214.635 414.287 220.118 409.72C229.953 401.528 241.323 392.743 255.233 386.372C268.59 380.254 289.235 372.96 318.231 371.932C348.893 370.846 369.577 373.071 379.475 373.869C385.268 374.336 391.339 374.526 397.489 374.79C403.587 375.051 409.737 375.383 415.464 376.148C426.665 377.645 437.515 380.938 442.885 390.047C446.999 397.022 449.305 409.127 446.553 431.109C443.781 453.258 441.131 474.042 436.552 494.031C439.165 494.706 441.933 495.414 444.865 496.159C491.691 508.051 577.922 528.532 628.539 540.161C653.838 545.973 670.12 549.551 681.398 551.983C692.641 554.407 699.002 555.711 704.342 556.948C709.71 558.192 714.042 559.363 719.067 560.685C724.095 562.008 729.885 563.5 738.257 565.417C755.039 569.258 781.406 574.641 806.251 579.275C831.016 583.895 853.484 587.64 894.025 589.241C934.673 590.846 991.702 590.308 1031.82 587.824C1071.87 585.344 1094.28 581.06 1111.44 576.475C1128.58 571.898 1140.21 567.15 1158.18 557.869C1176.24 548.55 1199.85 535.134 1222.98 519.862C1246.22 504.52 1268.74 488.65 1284.76 473.696C1313.02 447.318 1334.17 425.572 1345.08 401.582C1356.22 377.116 1363.49 355.983 1363.48 340.774C1363.47 331.324 1363.89 324.54 1363.68 318.376C1363.49 312.443 1362.71 307.927 1360.57 303.745C1357.26 297.271 1353.97 290.386 1347.41 283.116C1340.86 275.865 1330.91 268.094 1314.2 260.393C1301 254.307 1281.69 249.968 1232.08 257.845C1230.28 258.131 1228.43 258.432 1226.53 258.743C1230.52 266.593 1233.63 275.235 1236.56 283.529C1245.56 309.036 1237.9 336.449 1223.36 363.379C1215.16 378.558 1203.13 385.716 1191.39 388.369C1177.41 391.527 1163.74 388.947 1150.01 383.341C1136.34 377.76 1122.32 369.055 1107.6 359.676C1086.16 346.019 1074.83 327.167 1063.72 309.583C1060.31 304.193 1060.66 298.353 1061.92 294.17C1063.3 289.553 1066.69 286.298 1069.35 284.223C1071.07 282.88 1072.7 281.966 1077.58 280.606C1082.34 279.281 1090.55 277.435 1105.65 274.331C1131.88 268.934 1179.24 259.687 1215.36 253.516C1211.35 247.686 1206.57 242.989 1200.56 239.919C1195.06 237.112 1183.33 234.392 1166.71 232.506C1150.26 230.638 1129.48 229.631 1106.24 230.008C1097.51 230.15 1091.91 230.487 1084.95 232.064C1077.89 233.663 1069.34 236.557 1054.79 241.969C1025.73 252.781 974.94 272.284 946.517 284.315C911.372 299.192 898.195 303.345 883.165 309.323C860.691 318.262 830.404 331.471 791.504 333.76C768.518 335.114 750.18 335.904 737.048 336.127C730.487 336.238 725.18 336.207 721.221 336.03C719.245 335.941 717.556 335.815 716.191 335.64C714.927 335.479 713.611 335.241 712.594 334.796C707.815 332.702 701.845 328.934 696.774 322.233C688.737 311.613 681.074 306.255 668.593 298.617C663.273 295.362 649.909 291.311 632.461 289.617C615.164 287.937 594.379 288.628 574.409 294.419C554.208 300.276 532.544 312.273 487.408 308.949C475.599 308.079 465.661 303.9 459.416 293.618C455.274 286.798 452.535 277.506 451.332 266.575C449.661 251.395 447.813 236.323 439.448 224.994C432.061 214.989 419.167 204.33 404.592 205.219C396.017 205.743 380.496 207.735 361.486 219.762C355.605 223.484 350.171 227.047 345.171 230.339C340.182 233.623 335.602 236.653 331.475 239.277C327.352 241.899 323.61 244.16 320.288 245.902C316.999 247.626 313.932 248.943 311.185 249.542C302.338 251.471 281.147 255.612 255.41 251.74C245.367 250.229 237.039 248.742 230.329 246.631C223.592 244.511 218.173 241.669 214.2 237.246C204.302 226.227 194.326 211.437 194.549 196.153C194.846 175.772 201.176 159.409 212.507 145.303C220.554 135.285 229.032 129.117 252.608 114.045C262.623 107.642 293.572 90.3023 344.542 72.7917C367.794 64.8034 386.433 60.9789 418.633 58.7966C450.706 56.6228 495.049 56.0824 530.341 57.7634C565.609 59.4432 591.255 62.7109 607.96 66.2829C631.895 71.4009 647.946 73.3953 679.096 83.9284C691.022 87.9611 706.708 93.6239 722.49 99.3112C738.296 105.007 754.203 110.729 766.641 114.909C791.527 123.272 802.026 125.585 810.176 126.659C825.231 128.643 851.655 136.28 902.644 139.985C932.144 142.129 969.16 142.129 1002.01 139.368C1034.85 136.608 1062.64 131.256 1085.57 124.469C1108.51 117.68 1126.28 110.048 1144.23 100.468C1162.62 90.6582 1179.07 82.0197 1192.94 73.28C1206.81 64.5405 1217.85 55.8564 1225.5 46.0817C1235.81 32.9108 1243.94 22.2781 1249.76 14.6608C1252.67 10.8572 1255.02 7.78986 1256.77 5.53973C1258.45 3.38262 1259.75 1.75504 1260.48 1.02509ZM1240.68 2163.92C1232.33 2161.9 1223.11 2166.79 1213.41 2176.03C1203.89 2185.1 1194.98 2197.33 1187.37 2207.63C1177.76 2220.65 1169.32 2231.18 1162.54 2241.24C1155.81 2251.22 1151.01 2260.36 1148.71 2270.24C1147.55 2275.24 1148.23 2281.02 1150.14 2285.89C1151.91 2290.4 1155.46 2293.95 1159.97 2295.79C1170.77 2300.19 1188.58 2301.58 1208.65 2301.03C1228.55 2300.48 1250.13 2298.04 1268.14 2295.12C1312.48 2287.95 1323.95 2256 1334.5 2237.78C1339.04 2229.92 1337.88 2220.35 1336.28 2211.7C1335.93 2209.83 1335.44 2207.97 1334.83 2206.13C1307.06 2190.48 1269.22 2170.86 1240.68 2163.92ZM1288.44 2157.07C1281.21 2155.71 1272.02 2155.17 1261.45 2155.42C1254.95 2155.58 1247.97 2156.04 1240.66 2156.78C1241.22 2156.87 1241.77 2156.99 1242.33 2157.12C1269.02 2163.6 1303.08 2180.6 1329.9 2195.37C1328.01 2192.13 1325.83 2188.95 1323.44 2185.83C1317.14 2177.6 1309.65 2170.07 1302.86 2162.98C1300.56 2160.57 1295.83 2158.45 1288.44 2157.07ZM1138.13 1906.16C1128.6 1905.21 1115.89 1905.69 1102.66 1906.23C1097.73 1906.43 1094.61 1907.17 1092.32 1908.3C1090.06 1909.4 1088.31 1911 1086.32 1913.47C1076.97 1925.05 1073.32 1937.92 1072.2 1956.02C1071.29 1970.76 1072.06 1988.5 1072.66 2011.48C1121.49 2010.33 1140.78 1978.04 1150.83 1960.67C1152.96 1957 1153.94 1950.48 1153.96 1941.58C1153.98 1932.87 1153.1 1922.57 1152.04 1911.82C1151.94 1910.81 1151.33 1909.7 1148.99 1908.59C1146.57 1907.44 1142.92 1906.63 1138.13 1906.16ZM297.927 1827.2C289.125 1816.74 274.045 1814.31 257.681 1815.81C241.496 1817.29 225.203 1822.52 215.315 1825.99C210.968 1827.52 207.933 1830.65 205.737 1834.96C203.506 1839.33 202.231 1844.76 201.446 1850.49C199.256 1866.48 200.918 1882.39 203.986 1898C204.412 1900.16 204.864 1902.31 205.331 1904.44C214.138 1904.65 223.033 1904.21 231.754 1903.32C250.683 1901.38 268.441 1897.34 282.036 1893.44C288.829 1891.49 294.562 1889.59 298.859 1888.01C303.261 1886.4 305.929 1885.22 306.761 1884.73C309.477 1883.13 311.266 1879.67 312.155 1874.06C313.028 1868.56 312.89 1861.92 312.623 1855.18C312.265 1846.17 306.521 1837.41 297.927 1827.2ZM722.246 1608.19C717.405 1609.32 713.316 1610.49 710.053 1611.67C676.978 1623.69 639.586 1638.37 600.998 1660.8C590.361 1666.99 579.895 1674.51 568.275 1685.07C558.695 1693.77 555.387 1707.51 555.902 1722.07C556.011 1725.13 556.38 1727.41 557.1 1729.33C557.806 1731.22 558.916 1732.95 560.758 1734.81C570.29 1744.45 583.245 1750.15 599.149 1754.37C615.135 1758.61 633.47 1761.21 653.839 1765.02C684.017 1770.67 708.545 1762.89 718.927 1755.49C727.021 1749.73 732.817 1740.85 736.875 1730.04C740.931 1719.23 743.167 1706.7 744.274 1693.93C746.491 1668.37 744.144 1642.54 743.338 1628.71C743.059 1623.93 741.999 1621.28 740.613 1619.44C739.154 1617.51 737.069 1616.09 733.848 1614.2C729.957 1611.92 726.103 1609.94 722.246 1608.19ZM1064.48 1315.02C1057.84 1314.01 1050.05 1314.62 1041.98 1316.28C1025.83 1319.6 1009.41 1326.96 1000.58 1332.39C994.412 1336.18 991.93 1344.09 991.405 1358.84C991.149 1366.05 991.359 1374.49 991.601 1384.3C991.779 1391.47 991.971 1399.32 992.002 1407.85C1007.73 1405.61 1020.21 1402.76 1028.66 1400.27C1044.76 1395.52 1057.83 1388.85 1067.39 1381.52C1077 1374.14 1082.85 1366.27 1084.99 1359.18C1089.88 1342.92 1084.49 1329.25 1079.73 1323.04C1076.3 1318.58 1071.09 1316.02 1064.48 1315.02ZM310.568 1088.86C288.042 1087.84 264.026 1091.23 247.107 1094.93C243.649 1095.68 240.846 1098.5 238.575 1104.09C236.308 1109.67 234.903 1117.25 233.834 1126.07C233.318 1130.33 232.894 1134.74 232.481 1139.27C236.315 1140.84 240.727 1142.3 245.693 1143.64C264.461 1148.72 290.385 1151.93 320.918 1153.59C340.16 1154.63 350.948 1145.74 358.694 1138.01C362.355 1134.36 364.795 1128.25 366.413 1122.4C367.168 1119.66 367.461 1117.37 367.16 1115.21C366.866 1113.11 365.969 1110.87 363.921 1108.34C353.463 1095.38 333.327 1089.89 310.568 1088.86ZM1146.02 1029.95C1117.71 1013.35 1091.53 1013.24 1079.83 1017.54C1077.14 1018.53 1075.21 1019.61 1073.69 1021.35C1072.15 1023.11 1070.75 1025.87 1069.76 1030.68C1068.7 1035.83 1067.4 1043.01 1067.4 1049.83C1067.41 1056.85 1068.79 1062.45 1072.06 1065.49C1087.19 1079.52 1116.77 1087.86 1147.56 1082.71C1153.42 1081.73 1158.71 1080.27 1163.68 1078.55C1165.6 1069.87 1166.04 1061.1 1164.03 1053.13C1161.78 1044.2 1156.41 1036.05 1146.02 1029.95ZM197.448 446.332C188.952 457.141 179.219 469.913 168.605 483.803C154.488 502.279 143.699 513.861 129.726 547.614C120.24 570.529 121.229 590.912 122.293 603.496C122.86 610.207 125.756 618.518 130.331 628.778C131.635 631.702 133.057 634.744 134.575 637.915C139.074 640.415 143.887 642.968 149.008 645.574C166.41 654.432 188.646 658.852 206.413 662.756C235.758 669.203 266.195 669.819 296.552 668.745C315.48 668.075 327.678 660.566 340.725 652.689C371.739 633.964 384.076 608.193 396.847 582.404C405.319 565.298 415.351 538.206 421.99 519.45C424.364 512.742 426.381 505.961 428.135 499.072C394.868 490.338 389.789 487.788 379.468 484.174C367.961 480.145 349.768 474.789 323.985 469.069C298.152 463.338 265.386 457.431 247.006 453.819C225.521 449.597 221.247 447.539 206.712 446.74C203.556 446.566 200.466 446.432 197.448 446.332ZM188.713 446.138C178.24 446.025 168.807 446.366 160.725 447.102C148.075 448.254 139.211 450.329 134.749 452.789C99.0664 472.455 85.7219 508.817 81.6541 525.952C76.2165 548.856 81.3957 581.394 90.6501 602.101C93.2873 608.002 99.413 614.639 109.366 622.031C113.619 625.19 118.506 628.439 124.007 631.784C123.983 631.732 123.96 631.68 123.937 631.629C119.329 621.293 115.992 612.057 115.318 604.085C114.225 591.15 113.125 569.415 123.259 544.937C137.63 510.221 148.978 497.961 163.043 479.553C172.321 467.41 180.969 456.07 188.713 446.138ZM378.914 380.846C368.957 380.044 348.672 377.859 318.479 378.928C290.6 379.916 270.865 386.911 258.148 392.736C245.109 398.708 234.318 407.003 224.598 415.098C219.802 419.093 212.382 427.619 202.835 439.539C204.242 439.603 205.663 439.672 207.095 439.751C222.277 440.585 227.65 442.882 248.356 446.951C266.555 450.527 299.562 456.481 325.501 462.235C351.49 468 369.958 473.426 381.781 477.566C392.008 481.147 396.908 483.635 429.775 492.266C434.219 472.807 436.834 452.403 439.608 430.24C442.295 408.771 439.784 398.569 436.855 393.602C433.288 387.553 425.559 384.56 414.536 383.087C409.15 382.367 403.277 382.044 397.19 381.783C391.156 381.525 384.879 381.327 378.914 380.846ZM1219.27 259.953C1182.96 266.093 1133.94 275.658 1107.06 281.187C1091.93 284.299 1083.95 286.1 1079.46 287.35C1075.09 288.566 1074.41 289.155 1073.66 289.739C1071.38 291.52 1069.38 293.657 1068.62 296.179C1067.74 299.135 1067.65 302.707 1069.63 305.842C1080.89 323.645 1091.46 341.09 1111.36 353.772C1126.15 363.197 1139.66 371.555 1152.66 376.861C1165.59 382.143 1177.74 384.276 1189.85 381.541C1199.8 379.293 1210.05 373.295 1217.2 360.052C1231.43 333.707 1237.97 308.548 1229.96 285.859C1226.74 276.736 1223.49 267.775 1219.27 259.953Z" fill="#ED5A95"/>
</svg>
