<svg width="291" height="321" viewBox="0 0 291 321" fill="none" xmlns="http://www.w3.org/2000/svg">
<path d="M71.2871 61.6914C74.9859 60.7751 79.1656 60.6066 83.126 60.7637C90.3615 61.0508 96.6687 65.5283 102.301 71.8408C107.971 78.1959 113.379 86.8862 118.767 96.5635C126.253 110.009 129.443 125.215 130.596 135.46C131.405 132.387 132.3 128.906 133.27 125.162C135.677 115.867 138.509 105.141 141.557 95.7402C143.081 91.039 144.673 86.6212 146.312 82.8525C147.932 79.1287 149.676 75.85 151.556 73.5566C154.527 69.9314 159.037 68.6369 163.363 68.2012C167.717 67.7627 172.562 68.1364 176.772 68.4346C181.415 68.7634 184.696 70.785 186.795 74.0889C189.009 77.574 190.4 82.3623 191.288 88.0205C192.064 92.9619 192.486 98.773 192.656 105.33C193.313 105.88 193.732 106.706 193.732 107.63V109.471C193.732 110.352 193.349 111.142 192.744 111.69C192.794 126.833 191.818 145.591 190.683 166.962C188.533 207.434 177.705 245.112 169.143 275.714L169.106 275.842L169.06 275.967C164.791 287.261 162.096 295.025 160.07 300.204C158.038 305.399 156.403 308.779 153.929 311.259L153.758 311.43L153.562 311.571C152.647 312.231 151.697 312.747 150.747 313.168C151.713 314.725 152.051 315.017 152.362 315.328C153.534 316.5 153.534 318.4 152.362 319.571C151.191 320.742 149.292 320.742 148.12 319.571C147.33 318.781 146.585 317.96 144.807 314.925C143.428 314.966 142.157 314.049 141.809 312.655C141.597 311.808 141.771 310.957 142.216 310.28C140.337 306.796 137.775 301.871 134.186 294.798C124.181 275.084 106.073 238.387 92.5625 208.029C91.6985 209.249 90.9115 210.252 90.1748 211.108C88.6996 212.824 87.3713 214.014 86.4521 214.93C82.5285 219.461 78.3103 224.276 73.2451 230.55C67.9448 240.11 62.2058 250.743 57.0723 259.829C54.4983 264.385 52.0252 268.645 49.7891 272.252C50.3241 272.266 50.872 272.326 51.417 272.462L51.6797 272.533L53.0381 272.933L53.5938 274.234C54.0299 275.256 54.0432 276.33 54.0039 277.103C53.9617 277.932 53.8258 278.865 53.6748 279.8C53.361 281.742 52.9242 284.049 52.623 286.999C52.0179 292.926 51.9925 301.788 48.2373 316.357C47.8238 317.962 46.1873 318.927 44.583 318.514C42.9787 318.1 42.0133 316.465 42.4268 314.86C46.0337 300.866 46.0079 292.721 46.6543 286.39C46.9789 283.211 47.463 280.632 47.752 278.843C47.7712 278.723 47.7875 278.608 47.8047 278.498C47.1391 278.648 46.3745 278.856 45.4717 279.114C45.3628 279.145 45.2517 279.177 45.1396 279.209C44.7244 279.764 44.3295 280.271 43.9521 280.723C42.8896 281.994 40.9977 282.163 39.7266 281.101C39.5782 280.977 39.4453 280.841 39.3271 280.696C38.2792 280.902 37.1825 281.073 36.0498 281.179C29.5655 281.785 23.911 282.69 18.5811 283.533C13.2823 284.372 8.24642 285.16 3.18555 285.474C1.53199 285.576 0.108503 284.319 0.00585938 282.665C-0.0964864 281.012 1.16091 279.588 2.81445 279.485C7.5446 279.192 12.3014 278.453 17.6426 277.607C22.9527 276.767 28.7887 275.831 35.4912 275.204C37.6108 275.006 39.5867 274.532 41.4932 274.006C44.2216 270.07 47.8094 264.026 51.8486 256.877C57.0176 247.728 62.7315 237.135 68.126 227.41L68.251 227.184L68.4131 226.982C73.6616 220.473 78.0254 215.497 81.9902 210.917L82.0586 210.838L82.1328 210.764C83.365 209.526 84.2992 208.739 85.626 207.196C86.7131 205.932 88.0238 204.186 89.6836 201.493C89.3967 200.835 89.1112 200.181 88.8301 199.531C66.7363 148.46 60.805 113.262 58.0176 91.2871C56.5093 79.3966 58.2699 73.0064 61.8281 67.6582C64.0286 64.3509 67.6111 62.6021 71.2871 61.6914ZM82.8877 66.7588C79.1919 66.6122 75.6482 66.7926 72.7295 67.5156C69.7881 68.2443 67.8579 69.4264 66.8232 70.9814C64.2711 74.8174 62.5905 79.6501 63.9707 90.5312C66.7047 112.085 72.5171 146.711 94.3369 197.149C94.6564 197.888 94.9807 198.632 95.3076 199.381C95.8445 199.919 96.1484 200.633 96.1797 201.373C109.774 232.321 129.074 271.467 139.535 292.082C143.332 299.565 145.943 304.555 147.764 307.916C148.52 307.624 149.205 307.283 149.85 306.845C151.278 305.337 152.524 303.025 154.482 298.019C156.517 292.818 159.046 285.493 163.397 273.977C171.983 243.294 182.585 206.294 184.69 166.644C185.912 143.649 186.935 123.955 186.72 108.526C186.612 100.816 186.194 94.2622 185.36 88.9512C184.518 83.5888 183.289 79.7594 181.73 77.3057C180.719 75.714 179.221 74.6234 176.349 74.4199C171.983 74.1107 167.701 73.7946 163.965 74.1709C160.201 74.55 157.659 75.5751 156.196 77.3594C154.848 79.0047 153.367 81.6774 151.814 85.2461C150.282 88.7702 148.756 92.9878 147.264 97.5908C144.278 106.799 141.487 117.362 139.078 126.667C136.698 135.858 134.645 144.014 133.183 148.105C132.826 149.104 132.423 150.101 131.966 150.833C131.781 151.128 131.328 151.822 130.53 152.277C130.061 152.545 129.343 152.8 128.476 152.683C127.602 152.564 126.969 152.12 126.576 151.715C125.916 151.033 125.677 150.207 125.582 149.849C125.455 149.371 125.375 148.843 125.318 148.315C125.205 147.25 125.154 145.842 125.154 144.101C125.154 136.692 122.969 116.446 113.524 99.4824C108.173 89.8711 103.029 81.669 97.8242 75.835C92.5812 69.9585 87.6886 66.9492 82.8877 66.7588ZM277.73 11.083C279.211 10.3392 281.014 10.9367 281.758 12.417C282.502 13.8974 281.904 15.7005 280.424 16.4443C276.795 18.2678 274.659 19.5652 273.243 20.6113C271.882 21.6171 271.13 22.4295 270.286 23.416C268.52 25.4811 266.79 27.7901 265.344 30.1113L265.33 30.1328C259.283 39.6556 250.472 48.4521 246.229 52.6953C245.443 53.4804 244.333 53.7359 243.332 53.4688C243.042 53.8484 242.751 54.2255 242.454 54.6074L242.447 54.6152L242.44 54.624C237.877 60.4043 231.724 68.3997 221.297 79.7598C217.968 84.7804 215.201 89.2284 212.63 93.1602C210.127 96.987 207.822 100.304 205.737 102.39C204.566 103.561 202.667 103.561 201.495 102.39C200.324 101.218 200.324 99.319 201.495 98.1475C203.073 96.5701 205.057 93.7766 207.608 89.876C210.06 86.1282 213.078 81.2912 216.421 76.2559L216.552 76.0596L216.711 75.8857C227.07 64.614 233.136 56.7267 237.731 50.9062C239.82 48.2221 241.574 45.8879 245.218 39.8262C246.071 38.4065 247.914 37.9475 249.334 38.8008C249.743 39.0466 250.069 39.3758 250.311 39.752C253.523 36.1671 256.918 32.0317 259.729 27.7471L260.266 26.916C261.89 24.3124 263.799 21.7703 265.727 19.5166C266.732 18.3406 267.817 17.1605 269.679 15.7852C271.486 14.4502 273.961 12.9772 277.73 11.083ZM276.843 0.419922C279.809 -0.250041 284.532 -0.612532 287.557 3.32129L288.065 3.9834L288.159 4.81348C289.725 18.6902 290.352 33.9883 290.397 46.6523C290.42 52.9878 290.297 58.6881 290.07 63.2441C289.849 67.6889 289.521 71.2573 289.077 73.2334L289.078 73.2344C288.136 77.6242 286.874 83.8937 281.845 95.9053C281.205 97.4333 279.447 98.1534 277.919 97.5137C276.391 96.8737 275.67 95.116 276.31 93.5879C281.145 82.0412 282.313 76.1625 283.212 71.9756L283.22 71.9404C283.536 70.5499 283.854 67.4577 284.078 62.9463C284.298 58.5184 284.42 52.9272 284.397 46.6738C284.354 34.4713 283.759 19.8382 282.307 6.50586C281.516 5.94951 280.237 5.80447 278.165 6.27246C276.992 6.53754 275.85 6.93515 274.585 7.41699C273.374 7.87832 271.942 8.46166 270.477 8.95215C263.564 11.2656 254.909 14.2521 246.827 17.0459C238.758 19.8353 231.245 22.4376 226.652 23.9717C225.081 24.4962 223.381 23.6475 222.856 22.0762C222.332 20.5048 223.181 18.8052 224.752 18.2803C229.306 16.759 236.777 14.1714 244.866 11.375C252.943 8.58293 261.627 5.58725 268.573 3.2627C269.884 2.82419 271.057 2.3398 272.448 1.80957C273.786 1.29984 275.246 0.780605 276.843 0.419922Z" fill="#E21C4A"/>
</svg>
