<?xml version="1.0" encoding="utf-8"?>
<!-- Generator: Adobe Illustrator 27.5.0, SVG Export Plug-In . SVG Version: 6.00 Build 0)  -->
<svg version="1.1" id="Capa_2" xmlns="http://www.w3.org/2000/svg" xmlns:xlink="http://www.w3.org/1999/xlink" x="0px" y="0px"
	 viewBox="0 0 2122 2122" style="enable-background:new 0 0 2122 2122;" xml:space="preserve">
<path style="fill:#E4569A;" d="M1821.22,741.354c-69.317-41.542-160.074-23.81-231.069,14.795
	c-70.994,38.605-130.409,95.59-199.885,136.866c-27.086,16.092-55.675,29.632-85.25,40.522
	c68.008-49.717,128.767-110.692,174.71-169.429c46.461-59.401,85.132-126.789,99.52-200.817
	c14.389-74.029,2.086-155.468-44.46-214.804c-46.546-59.335-130.191-91.059-201.364-66.128
	c-76.269,26.715-120.685,107.824-136.415,187.09c-15.731,79.266-9.927,161.387-22.634,241.193
	c-7.186,45.141-20.525,89.279-39.241,131.003c0.921-104.666-22.405-214.416-55.004-302.354
	c-26.213-70.711-63.313-138.977-118.801-190.049c-55.487-51.072-131.283-83.304-206.213-74.786
	c-74.932,8.517-145.807,63.101-161.904,136.777c-17.247,78.95,28.521,159.303,87.765,214.264
	c59.243,54.961,132.21,93.084,193.499,145.754c38.073,32.718,71.226,71.119,98.403,113.35
	c-95.03-78.486-224.841-131.992-335.344-156.829c-73.577-16.537-151.036-22.613-224.091-3.903
	c-73.056,18.71-141.375,64.714-175.051,132.191c-33.676,67.477-26.511,156.648,26.504,210.281
	c56.813,57.473,149.129,62.862,227.492,43.121c78.364-19.741,150.081-60.164,227.638-82.869
	c69.098-20.229,142.486-25.608,213.884-16.485c-130.214,16.933-266.648,81.209-365.719,150.903
	c-64.589,45.438-123.795,101.244-160.677,171.073c-36.882,69.83-49.262,155.186-20.614,228.777
	c28.648,73.592,102.855,130.767,181.753,127.375c84.546-3.635,153.672-71.449,193.489-146.121
	c39.817-74.672,58.915-158.738,95.866-234.869c31.219-64.323,75.513-122.245,128.88-169.818
	c-54.472,98.158-85.991,217.151-96.479,318.064c-7.795,75.01-4.747,152.646,22.401,223.003
	c27.147,70.358,80.844,132.812,151.805,158.343c70.959,25.532,158.676,7.961,205.722-50.979
	c50.414-63.159,44.943-155.47,16.148-230.978c-28.794-75.509-77.347-141.991-108.989-216.351
	c-12.01-28.221-21.432-57.532-28.242-87.447c46.187,84.512,110.51,162.397,173.483,220.534
	c55.412,51.155,119.419,95.197,192.025,115.579c72.607,20.382,154.78,14.768,217.715-26.781
	c62.937-41.549,101.382-122.325,82.344-195.296c-20.402-78.194-97.615-129.082-175.333-151.229
	c-77.717-22.148-160.037-23.065-238.541-42.243c-34.891-8.524-68.856-20.783-101.242-36.347
	c82.546,21.006,169.379,28.916,244.759,26.64c75.379-2.276,151.915-15.649,218.024-51.936
	c66.111-36.287,120.846-97.832,136.688-171.563C1915.017,864.711,1885.907,780.122,1821.22,741.354z"/>
<ellipse transform="matrix(0.7071 -0.7071 0.7071 0.7071 -396.7094 1092.2465)" style="fill:#F7A813;" cx="1120.103" cy="1024.994" rx="108.979" ry="108.979"/>
<path style="fill:#F4971A;" d="M1208.36,1073.444c-14.588,11.414-36.034,22.808-55.182,20.327
	c-9.781-1.267-17.533-7.378-21.45-16.367c-4.352-9.987-2.204-19.807,0.246-29.996c1.706-7.099,4.382-15.166-3.954-18.618
	c-6.217-2.574-13.923-1.255-20.354-0.267c-15.02,2.304-32.227,7.587-46.654,0.092c-19.116-9.931-21.369-36.682-15.755-55.062
	c5.722-18.732,17.798-35.193,31.978-48.771c-20.476,8.77-37.723,23.63-49.462,42.302l-0.156,0.248
	c-0.413,0.663-0.821,1.33-1.221,2.002l-0.116,0.192l-0.548,0.937l-0.262,0.455l-0.522,0.92l-0.244,0.441
	c-0.304,0.55-0.604,1.102-0.898,1.658l-0.263,0.496l-0.467,0.903l-0.291,0.571l-0.427,0.852l-0.577,1.186l-0.389,0.822l-0.375,0.807
	l-0.319,0.702l-0.434,0.977l-0.245,0.557c-0.214,0.491-0.421,0.984-0.626,1.479l-0.211,0.516l-0.445,1.105l-0.213,0.543
	c-0.205,0.524-0.407,1.05-0.603,1.577l-0.005,0.014c-0.203,0.545-0.4,1.093-0.593,1.642l-0.128,0.362l-0.098,0.278l-0.338,1.183
	c-3.049,9.137-4.96,18.795-5.486,28.825l-0.052,1.105l-0.002,0.056l-0.026,0.69l-0.01,0.268l-0.01,0.309l-0.019,0.751l-0.006,0.278
	l-0.005,0.299l-0.003,0.102l-0.007,0.533l-0.004,0.289l-0.005,0.978c0,3.108,0.133,6.184,0.387,9.226
	c0.289,3.449,0.737,6.854,1.341,10.204c0.63,3.501,1.427,6.944,2.382,10.32c7.132,25.188,23.094,46.665,44.329,60.878
	c2.768,1.853,5.625,3.584,8.565,5.182c5.2,2.827,10.655,5.24,16.324,7.202c3.153,1.091,6.372,2.043,9.65,2.846
	c8.332,2.039,17.039,3.121,26,3.121c0.569,0,1.136-0.005,1.703-0.014h0.008l0.307-0.005c0.547-0.01,1.093-0.024,1.637-0.042
	l0.274-0.009l0.02-0.001c1.156-0.041,2.308-0.1,3.453-0.177l0.187-0.013c0.576-0.039,1.151-0.084,1.725-0.132l0.145-0.013
	c36.424-3.14,67.666-24.24,84.988-54.366c3.719-6.424,6.853-13.301,9.186-20.479
	C1219.119,1064.088,1213.995,1069.036,1208.36,1073.444z"/>
<path style="fill:#E8348A;" d="M659.056,1017.654c26.658-11.547,53.453-22.855,79.197-36.367
	c16.472-8.646,49.113-22.552,56.303-41.694c13.29-35.379-62.425-31.688-79.137-30.786c-49.078,2.649-97.698,13.128-145.253,25.071
	c-9.933,2.495-19.85,5.024-29.774,7.521c-19.085,7.982-37.791,17.257-56.033,27.836c-2.392,1.381-5.437,0.572-6.821-1.815
	c-1.383-2.383-0.57-5.435,1.813-6.819c2.049-1.188,4.105-2.36,6.164-3.517c-20.301,6.647-40.614,13.115-62.178,14.88
	c-72.072,5.9-102.888-54.435-98.084-118.204c4.018-53.347,27.999-89.889,65.224-122.981c-47.641,16.22-91.806,44.175-123.715,82.213
	l-0.021,0.024c-0.487,0.58-0.969,1.163-1.449,1.748l-0.317,0.387c-0.419,0.511-0.836,1.024-1.25,1.539l-0.529,0.662
	c-0.36,0.451-0.721,0.904-1.077,1.358l-0.728,0.935l-0.879,1.132c-0.54,0.703-1.076,1.409-1.607,2.119l-0.197,0.262
	c-0.441,0.59-0.877,1.184-1.312,1.779l-0.497,0.68c-0.381,0.525-0.76,1.053-1.137,1.582l-0.618,0.872
	c-0.346,0.491-0.692,0.983-1.034,1.478l-0.72,1.048c-0.308,0.45-0.618,0.901-0.923,1.353l-0.865,1.298l-0.756,1.141
	c-0.537,0.821-1.071,1.645-1.598,2.475l-0.023,0.037c-0.555,0.873-1.103,1.75-1.645,2.631l-0.022,0.034
	c-1.077,1.751-2.129,3.518-3.157,5.302l-0.067,0.114c-0.477,0.829-0.948,1.662-1.413,2.498l-0.203,0.361
	c-0.448,0.808-0.891,1.619-1.33,2.434l-0.208,0.389c-0.44,0.821-0.876,1.645-1.305,2.473l-0.161,0.312
	c-0.448,0.866-0.891,1.735-1.327,2.608c-33.676,67.477-26.511,156.648,26.504,210.281c56.813,57.473,149.129,62.862,227.492,43.121
	c1.214-0.306,2.426-0.617,3.637-0.932c1.116-0.291,2.232-0.587,3.345-0.886c0.524-0.141,1.046-0.284,1.57-0.427
	c0.584-0.159,1.168-0.318,1.753-0.479c0.667-0.185,1.333-0.371,1.999-0.558l1.204-0.339c0.775-0.219,1.547-0.441,2.32-0.664
	l0.822-0.238c0.904-0.262,1.807-0.527,2.71-0.794l0.176-0.052c0.954-0.283,1.906-0.57,2.859-0.858l1.056-0.321
	c0.672-0.205,1.346-0.411,2.018-0.619l0.943-0.291c0.809-0.251,1.616-0.504,2.424-0.759l0.003-0.002
	c4.934-4.102,9.859-8.075,14.698-11.863C573.727,1059.781,615.138,1036.678,659.056,1017.654z"/>
<path style="fill:#E8348A;" d="M1092.829,609.249c5.312,17.008,12.301,36.049,22.472,51.096
	c-7.095-32.61-15.781-64.153-25.586-93.723l-0.156-0.471c-0.271-0.811-0.541-1.621-0.811-2.429
	c-0.358-1.067-0.717-2.131-1.078-3.193l-0.321-0.94c-0.258-0.758-0.518-1.515-0.777-2.271c-0.389-1.128-0.778-2.254-1.17-3.375
	l-0.322-0.922c-0.292-0.833-0.586-1.663-0.879-2.492c-0.189-0.535-0.379-1.068-0.569-1.602c-0.252-0.708-0.506-1.416-0.759-2.121
	c-0.241-0.67-0.484-1.338-0.726-2.005c-0.21-0.58-0.419-1.161-0.631-1.74c-0.461-1.261-0.922-2.518-1.386-3.771
	c-0.503-1.356-1.01-2.711-1.522-4.065l-0.011-0.029c-3.591-9.498-7.402-18.938-11.403-28.304
	C1076.376,540.816,1082.395,575.836,1092.829,609.249z"/>
<path style="fill:#E8348A;" d="M1249.191,565.184c13.502-46.258,28.76-95.405,70.626-123.748
	c47.546-32.188,114.578-38.465,159.296,2.327c1.462,1.333,2.872,2.671,4.239,4.014c0.115-2.527,0.214-5.057,0.297-7.59
	c0.088-2.755,2.373-4.941,5.15-4.823c2.753,0.09,4.911,2.397,4.819,5.15c-0.193,5.847-0.469,11.679-0.827,17.496
	c74.629,89.849-44.569,198.189-53.58,291.414c-1.689,17.469,2.66,35.156,14.584,46.201c7.765-9.002,15.231-18.007,22.347-26.969
	l0.949-1.198l0.794-1.004c0.617-0.782,1.23-1.564,1.842-2.345c46.461-59.401,85.132-126.789,99.52-200.817
	c14.389-74.029,2.086-155.468-44.46-214.804c-46.546-59.335-130.191-91.059-201.364-66.128
	c-76.269,26.715-120.685,107.824-136.415,187.09c-0.235,1.183-0.464,2.366-0.689,3.55l-0.195,1.041
	c-0.156,0.831-0.31,1.661-0.463,2.492l-0.235,1.313c-0.135,0.749-0.268,1.498-0.4,2.247c-0.08,0.46-0.159,0.92-0.239,1.38
	c-0.124,0.726-0.248,1.453-0.369,2.18c-0.079,0.467-0.156,0.935-0.232,1.403c-0.124,0.756-0.246,1.511-0.368,2.266l-0.195,1.23
	c-0.139,0.875-0.273,1.749-0.407,2.624l-0.135,0.89c-0.166,1.097-0.326,2.193-0.486,3.291l-0.034,0.237
	c-8.982,62.347-7.525,126.088-14.659,188.765l0.033-0.01l0.957-0.285C1225.829,668.376,1237.115,606.55,1249.191,565.184z"/>
<path style="fill:#E8348A;" d="M726.507,382.526c54.129-41.217,127.751-53.227,192.478-33.01
	c30.969,9.673,61.533,26.372,86.546,48.73c-11.557-15.259-24.133-29.704-37.906-43.054l-0.469-0.454
	c-0.774-0.746-1.552-1.489-2.333-2.229l-0.614-0.583c-0.955-0.9-1.915-1.796-2.882-2.686
	c-55.487-51.072-131.283-83.304-206.213-74.786c-74.932,8.517-145.807,63.101-161.904,136.777c-0.127,0.577-0.248,1.153-0.368,1.73
	l-0.132,0.653l-0.218,1.095l-0.138,0.72l-0.194,1.03l-0.133,0.739l-0.183,1.039l-0.121,0.712l-0.174,1.07l-0.11,0.69l-0.166,1.098
	l-0.099,0.662c-0.167,1.152-0.319,2.303-0.459,3.454l-0.075,0.638l-0.129,1.125l-0.073,0.691l-0.109,1.062l-0.07,0.714l-0.096,1.042
	l-0.062,0.725l-0.084,1.036l-0.056,0.735l-0.075,1.103l-0.041,0.623c-0.072,1.166-0.132,2.332-0.179,3.498l-0.017,0.47l-0.044,1.284
	l-0.016,0.618l-0.027,1.105l-0.012,0.715l-0.012,1.058l-0.005,0.687v1.113l0.001,0.629l0.011,1.136l0.008,0.647
	c0.019,1.152,0.05,2.303,0.093,3.453l0.022,0.535l0.052,1.22l0.03,0.602l0.062,1.154l0.038,0.644l0.069,1.083l0.049,0.696l0.083,1.1
	l0.049,0.627l0.102,1.19l0.048,0.561c0.106,1.15,0.223,2.299,0.351,3.447l0.068,0.593l0.137,1.156l0.076,0.624l0.143,1.113
	l0.09,0.68l0.145,1.046l0.101,0.71l0.156,1.052l0.102,0.667l0.183,1.161l0.091,0.562c0.091,0.556,0.184,1.113,0.281,1.668
	l0.007,0.045c0.099,0.568,0.2,1.135,0.305,1.703l0.123,0.657l0.201,1.063l0.14,0.716l0.2,1.002l0.148,0.721l0.212,1.015l0.154,0.716
	l0.221,1.007l0.157,0.708l0.241,1.047l0.154,0.667c0.106,0.453,0.214,0.905,0.324,1.358l0.08,0.335
	c0.137,0.56,0.275,1.118,0.418,1.678l0.147,0.574l0.294,1.137l0.168,0.632l0.287,1.071l0.189,0.689l0.283,1.016l0.192,0.679
	l0.297,1.034l0.2,0.689l0.302,1.016l0.202,0.677l0.405,1.313l0.111,0.361c0.173,0.555,0.348,1.109,0.526,1.663l0.186,0.571
	l0.353,1.086l0.238,0.712l0.33,0.98l0.249,0.733l0.313,0.907l0.268,0.767l0.34,0.955l0.256,0.714l0.357,0.979l0.255,0.694l0.37,0.99
	l0.368,0.976l0.508,1.324l0.196,0.501l0.437,1.115l0.303,0.76l0.357,0.887l0.305,0.75l0.379,0.921l0.299,0.721l0.384,0.913
	l0.325,0.767l0.372,0.865l0.33,0.762l0.412,0.938l0.453,1.023l0.561,1.252l0.272,0.596l0.456,0.997l0.366,0.786l0.385,0.824
	l0.375,0.795l0.395,0.828l0.388,0.806l0.382,0.788l0.389,0.797l0.425,0.859l0.38,0.764l0.429,0.851
	c0.267,0.526,0.535,1.052,0.804,1.577l0.33,0.645l0.44,0.845l0.405,0.774l0.446,0.841l0.375,0.706l0.459,0.856l0.406,0.749
	l0.45,0.824l0.409,0.747l0.455,0.823l0.419,0.748l0.463,0.824l0.397,0.701c0.286,0.502,0.573,1.004,0.862,1.505l0.474,0.821
	l0.48,0.82l0.412,0.701l0.524,0.883l0.403,0.676l0.499,0.832l0.43,0.711l0.508,0.833l0.443,0.721l0.48,0.779l0.51,0.819l0.46,0.734
	l0.397,0.628c0.462,0.732,0.929,1.463,1.399,2.192l0.068,0.107l0.598,0.922l0.388,0.594l0.598,0.91l0.374,0.567l0.615,0.924
	l0.391,0.583l0.58,0.861l0.457,0.674l0.561,0.823l0.446,0.648l0.569,0.824l0.487,0.698c0.706,1.013,1.42,2.023,2.14,3.028
	l0.439,0.613l0.576,0.797l0.473,0.652l0.63,0.861l0.417,0.568l0.617,0.833l0.481,0.646l0.625,0.837l0.397,0.526l0.686,0.908
	l0.325,0.425c0.848,1.113,1.703,2.22,2.565,3.321l0.307,0.394l0.72,0.911l0.387,0.489l0.756,0.949l0.331,0.413l0.754,0.935
	l0.422,0.52l0.676,0.829l0.496,0.604l0.653,0.794l0.374,0.45c0.858,1.034,1.721,2.063,2.591,3.085l0.414,0.487l0.744,0.868
	l0.422,0.49l0.711,0.822l0.477,0.549l0.711,0.814l0.431,0.49l0.777,0.881l0.329,0.369c0.561,0.632,1.127,1.26,1.693,1.887
	l0.319,0.357l-0.001-0.005c-4.92-18.613-7.876-37.741-8.377-57.148C649.526,483.034,675.381,421.458,726.507,382.526z"/>
<path style="fill:#E8348A;" d="M1821.22,741.354c-69.317-41.542-160.074-23.81-231.069,14.795c-1.218,0.663-2.432,1.332-3.644,2.005
	l-1.005,0.563c-0.916,0.512-1.832,1.026-2.745,1.545l-0.884,0.505c-1.017,0.58-2.032,1.162-3.043,1.749l-0.461,0.267
	c-16.496,9.595-32.407,20.12-48.032,31.102c8.291-4.083,16.22-8.573,23.538-12.595c49.479-27.2,107.85-67.306,165.952-41.661
	c53.034,23.406,92.756,85.227,75.724,143.657c-15.542,53.319-72.064,81.468-115.826,108.371
	c-18.038,11.088-35.615,23.437-49.084,37.846c63.268-22.734,123.542-53.826,178.561-92.857c2.241-1.591,5.364-1.065,6.953,1.181
	c1.593,2.249,1.067,5.362-1.184,6.955c-60.08,42.622-126.353,75.904-195.942,99.308c-13.637,20.655-18.26,45.257-5.738,75.587
	c5.119,12.4,12.078,23.421,20.1,33.642c33.845-5.841,66.989-14.912,98.342-28.353l0.019-0.009c1.011-0.434,2.02-0.871,3.025-1.314
	l0.203-0.088c0.975-0.429,1.949-0.864,2.92-1.301l0.298-0.134c1.054-0.476,2.105-0.957,3.153-1.443l0.81-0.378
	c0.819-0.382,1.635-0.766,2.45-1.153c0.471-0.225,0.942-0.45,1.414-0.677l1.169-0.565c0.794-0.386,1.589-0.775,2.38-1.167
	l0.877-0.437c0.816-0.407,1.632-0.816,2.446-1.23l0.617-0.316c0.785-0.401,1.568-0.806,2.35-1.213l0.616-0.32
	c0.896-0.469,1.792-0.943,2.686-1.421l0.517-0.277c0.936-0.502,1.871-1.008,2.804-1.52
	c66.111-36.287,120.846-97.832,136.688-171.563C1915.017,864.711,1885.907,780.122,1821.22,741.354z"/>
<path style="fill:#E8348A;" d="M1473.593,1361.59c-30.944-29.645-66.645-31.964-97.735-17.589
	c42.59,28.429,90.118,52.164,141.866,70.654C1503.521,1396.047,1489.741,1377.061,1473.593,1361.59z"/>
<path style="fill:#E8348A;" d="M1729.305,1254.451c56.321,92.752-1.276,276.571-131.683,229.656
	c-28.843-10.376-49.693-31.515-68.606-54.989c-60.08-20.027-114.826-46.898-163.19-79.808
	c-19.239,11.494-36.154,29.389-48.266,50.873c-8.386,14.875-14.981,30.888-19.751,47.423c8.304,8.32,16.628,16.348,24.928,24.012
	c55.412,51.155,119.419,95.197,192.025,115.579c72.607,20.382,154.78,14.768,217.715-26.781
	c62.937-41.549,101.382-122.325,82.344-195.296c-0.178-0.68-0.361-1.359-0.547-2.034l-0.179-0.643
	c-0.127-0.45-0.253-0.901-0.384-1.349l-0.23-0.788l-0.381-1.272l-0.227-0.741l-0.413-1.314l-0.224-0.701
	c-0.191-0.59-0.386-1.178-0.583-1.765l-0.063-0.192c-0.22-0.653-0.447-1.304-0.676-1.952l-0.219-0.611
	c-0.163-0.456-0.326-0.912-0.494-1.366l-0.249-0.67l-0.494-1.307l-0.252-0.657c-0.186-0.476-0.372-0.951-0.562-1.425l-0.198-0.499
	c-0.246-0.61-0.495-1.218-0.748-1.825l-0.042-0.104c-0.273-0.654-0.551-1.305-0.832-1.955l-0.146-0.333
	c-0.231-0.53-0.464-1.058-0.7-1.585l-0.212-0.466c-0.229-0.508-0.462-1.015-0.697-1.521l-0.177-0.379
	c-0.256-0.547-0.515-1.093-0.777-1.636l-0.129-0.27c-0.942-1.945-1.92-3.87-2.933-5.774l-0.077-0.142
	c-0.319-0.597-0.641-1.193-0.966-1.786l-0.068-0.123c-0.253-0.459-0.508-0.918-0.765-1.375l-0.078-0.137l-0.711-1.249l-0.002-0.003
	c-0.329-0.572-0.661-1.141-0.997-1.71c-1.005-1.704-2.04-3.391-3.103-5.06l-0.002-0.002c-0.507-0.796-1.021-1.589-1.541-2.377
	c-0.362-0.548-0.731-1.093-1.099-1.637l-0.484-0.722c-0.395-0.579-0.797-1.153-1.2-1.728l-0.418-0.603
	c-0.456-0.645-0.917-1.286-1.381-1.926l-0.262-0.365c-0.459-0.63-0.924-1.256-1.392-1.88l-0.305-0.41
	c-0.483-0.643-0.973-1.282-1.465-1.919l-0.251-0.327c-0.532-0.685-1.069-1.366-1.61-2.045l-0.131-0.163
	c-0.552-0.69-1.108-1.376-1.671-2.059l-0.117-0.144c-0.566-0.687-1.138-1.37-1.714-2.049l-0.109-0.13
	c-0.598-0.705-1.201-1.406-1.81-2.104l-0.026-0.029c-0.62-0.71-1.246-1.416-1.877-2.119l-0.005-0.006
	C1762.096,1278.829,1746.429,1265.754,1729.305,1254.451z"/>
<path style="fill:#E8348A;" d="M635.717,1511.995c2.832-28.966,15.631-56.311,27.754-82.396
	c20.97-45.125,66.291-131.695-7.847-155.682c-47.343-15.318-96.345,30.983-141.185,39.477
	c-33.131,6.276-57.906-11.781-69.852-38.214c-11.995,15.399-22.951,31.57-32.549,48.615l-0.606,1.082l-0.692,1.246
	c-0.456,0.821-0.906,1.644-1.354,2.47l-0.328,0.607c-0.517,0.959-1.034,1.92-1.543,2.885
	c-36.882,69.83-49.262,155.186-20.614,228.777c28.648,73.592,102.855,130.767,181.753,127.375c0.618-0.026,1.235-0.057,1.851-0.09
	l0.656-0.039l1.225-0.074l0.737-0.051l1.102-0.08l0.789-0.063l1.109-0.094l0.737-0.067l1.122-0.108l0.76-0.077l1.093-0.119
	l0.759-0.084c0.47-0.054,0.94-0.112,1.409-0.17l0.513-0.063c0.567-0.072,1.132-0.148,1.698-0.225l0.641-0.091l1.166-0.168
	l0.805-0.124l1.001-0.156l0.854-0.139l0.944-0.159l0.857-0.149l0.981-0.177l0.834-0.154l1.037-0.199l0.732-0.142l1.167-0.238
	l1.182-0.248l1.171-0.252l0.839-0.19l0.927-0.211l0.868-0.204l0.915-0.219l0.904-0.223l0.819-0.206l0.961-0.247l0.761-0.2
	l1.011-0.27l0.705-0.194l1.022-0.284l0.676-0.193c0.83-0.237,1.657-0.48,2.483-0.73l0.171-0.051l0.99-0.305l0.762-0.237l0.991-0.316
	l0.68-0.219l1.045-0.344l0.679-0.227l1.037-0.353l0.59-0.204l1.141-0.399l0.448-0.161l1.232-0.444l0.208-0.077
	c1.442-0.529,2.877-1.076,4.306-1.641l0.306-0.12l1.213-0.487l0.445-0.181l1.17-0.483l0.453-0.189l1.206-0.51l0.385-0.165
	l1.264-0.548l0.23-0.102c1.191-0.524,2.378-1.06,3.559-1.608c0.667-0.309,1.333-0.622,1.998-0.939
	c0.614-0.293,1.226-0.589,1.836-0.888l0.194-0.095l1.33-0.66l0.232-0.116c0.457-0.229,0.912-0.46,1.367-0.693l0.119-0.061
	c3.509-1.798,6.974-3.7,10.391-5.703l0.006-0.003c0.728-0.427,1.454-0.858,2.179-1.294l1.34-0.817l0.807-0.492l1.205-0.752
	l0.974-0.61l1.113-0.713l1.018-0.653l1.13-0.742l1.016-0.669l1.036-0.697l1.084-0.731l1.01-0.694l1.097-0.757l0.99-0.698
	l1.117-0.788l0.159-0.113l-0.002-0.001c-8.108-13.717-14.681-28.124-19.699-41.945
	C639.018,1579.033,632.558,1544.299,635.717,1511.995z"/>
<path style="fill:#E8348A;" d="M1239.131,1741.934c-59.352,33.943-105.516,1.522-132.263-54.363
	c-23.284-48.65-30.815-117.59-71.258-155.721c-9.961-9.392-22.303-14.529-35.168-15.947c4.095,34.348,10.778,68.409,20.113,101.821
	c0.741,2.653-0.809,5.406-3.459,6.146c-0.453,0.127-0.901,0.188-1.349,0.188c-2.178,0-4.185-1.445-4.799-3.65
	c-9.613-34.405-16.453-69.49-20.59-104.867c-14.335,0.523-28.718,5.392-40.663,13.895c-25.781,18.351-39.001,50.591-52.645,77.982
	c-0.865,1.735-1.747,3.492-2.643,5.261c3.373,18.131,7.935,36.008,13.914,53.48l0.422,1.222c0.232,0.667,0.465,1.333,0.7,1.998
	c0.224,0.636,0.451,1.271,0.679,1.905l0.326,0.903c0.331,0.912,0.667,1.823,1.006,2.733l0.236,0.632
	c0.368,0.982,0.741,1.964,1.119,2.943c27.147,70.358,80.844,132.812,151.805,158.343c70.959,25.532,158.676,7.961,205.722-50.979
	c0.362-0.453,0.719-0.907,1.075-1.364l0.328-0.423l0.744-0.967l0.374-0.492l0.709-0.945l0.331-0.445l0.868-1.185l0.158-0.217
	c0.332-0.459,0.661-0.92,0.988-1.382l0.318-0.455l0.693-0.994l0.331-0.483l0.652-0.961l0.339-0.502l0.701-1.06l0.245-0.372
	c0.312-0.477,0.62-0.955,0.927-1.435l0.218-0.346l0.68-1.08l0.339-0.547l0.59-0.962l0.314-0.519l0.598-1l0.286-0.482
	c0.285-0.485,0.569-0.971,0.849-1.459l0.101-0.178l0.725-1.279l0.319-0.573l0.506-0.919l0.325-0.596l0.532-0.992l0.267-0.5
	l0.643-1.23l0.153-0.294c0.25-0.485,0.497-0.972,0.742-1.459l0.294-0.588l0.459-0.928l0.314-0.645l0.439-0.915l0.292-0.61
	l0.484-1.038l0.236-0.506c0.228-0.495,0.453-0.992,0.676-1.49l0.218-0.49l0.461-1.047l0.279-0.643l0.389-0.906l0.29-0.684
	l0.405-0.972l0.23-0.56c0.209-0.508,0.414-1.018,0.618-1.528l0.179-0.456l0.424-1.085l0.277-0.724l0.315-0.831l0.29-0.775
	l0.296-0.807l0.287-0.786l0.279-0.786c0.169-0.475,0.335-0.949,0.499-1.425l0.28-0.816l0.26-0.775l0.278-0.835l0.259-0.793
	l0.246-0.765l0.276-0.869l0.228-0.734l0.407-1.328l0.292-0.977l0.255-0.872l0.207-0.716l0.265-0.937l0.181-0.647l0.258-0.94
	l0.173-0.645c0.322-1.203,0.632-2.411,0.932-3.622l0.083-0.338l0.273-1.126l0.118-0.498l0.25-1.073l0.113-0.495
	c0.308-1.353,0.602-2.71,0.882-4.071l0.004-0.014l0.265-1.318l0.05-0.251l0.254-1.312l0.039-0.203
	c0.36-1.906,0.697-3.82,1.006-5.741l0.022-0.133c0.075-0.469,0.149-0.938,0.22-1.407l0.016-0.108
	c0.102-0.673,0.202-1.347,0.298-2.022l0.077-0.539c0.077-0.546,0.151-1.094,0.224-1.641l0.061-0.457
	c0.084-0.638,0.165-1.277,0.242-1.916l0.077-0.647c0.059-0.494,0.117-0.988,0.172-1.482l0.067-0.595
	c0.068-0.625,0.134-1.251,0.198-1.877l0.073-0.746l0.122-1.278l0.074-0.816c0.054-0.599,0.105-1.198,0.154-1.798l0.058-0.765
	l0.096-1.289l0.058-0.82c0.033-0.478,0.063-0.956,0.093-1.435l0.07-1.17l0.063-1.138l0.054-1.08l0.045-0.995
	c0.021-0.467,0.04-0.936,0.058-1.404l0.044-1.219l0.034-1.126l0.023-0.85c0.017-0.693,0.031-1.388,0.044-2.083l0.011-0.673
	l0.013-1.252l0.006-0.621l0.006-1.307v-0.221c0-0.922-0.004-1.844-0.014-2.767l-0.003-0.427c-0.006-0.467-0.012-0.932-0.019-1.399
	l-0.005-0.257c-0.019-0.997-0.041-1.994-0.071-2.991l-0.001-0.061c-0.029-0.996-0.066-1.992-0.106-2.989l-0.021-0.515
	c-0.039-0.927-0.084-1.855-0.133-2.783l-0.038-0.687c-0.05-0.905-0.103-1.808-0.162-2.713l-0.048-0.711
	c-0.061-0.915-0.127-1.83-0.198-2.746l-0.045-0.554c-0.062-0.79-0.129-1.581-0.199-2.372l-0.068-0.784
	c-0.077-0.839-0.157-1.679-0.241-2.518l-0.1-1.004c-0.083-0.792-0.167-1.584-0.256-2.376l-0.133-1.172
	c-0.079-0.693-0.162-1.385-0.246-2.078c-0.058-0.479-0.12-0.957-0.181-1.436c-0.064-0.511-0.131-1.023-0.199-1.535
	c-0.084-0.642-0.172-1.285-0.262-1.926c-0.064-0.473-0.132-0.946-0.199-1.418c-0.091-0.634-0.184-1.267-0.279-1.9
	c-0.078-0.517-0.157-1.034-0.237-1.552c-0.079-0.514-0.161-1.028-0.244-1.543l-0.195-1.194c-0.132-0.796-0.264-1.591-0.402-2.386
	l-0.16-0.915c-0.158-0.906-0.321-1.811-0.488-2.715l-0.135-0.729c-0.199-1.063-0.403-2.126-0.613-3.187l-0.057-0.295
	c-0.364-1.837-0.744-3.67-1.14-5.5l-0.008-0.041c-0.263-1.21-0.531-2.419-0.806-3.625l-0.019-0.086
	c-0.138-0.601-0.278-1.203-0.418-1.803C1304.537,1656.339,1293.539,1710.818,1239.131,1741.934z"/>
<path style="fill:#A3195B;" d="M419.085,820.324c-2.597,0.921-3.956,3.773-3.035,6.37c0.921,2.597,3.781,3.944,6.368,3.033
	c204.249-72.476,428.301-21.189,605.629,136.917c1.799-2.833,3.725-5.577,5.771-8.224
	C853.874,798.451,626.509,746.716,419.085,820.324z"/>
<path style="fill:#A3195B;" d="M1017.323,988.686c0.194-0.549,0.39-1.098,0.593-1.642l0.005-0.014
	c0.196-0.528,0.398-1.053,0.603-1.577l0.213-0.543l0.445-1.105l0.211-0.516c0.206-0.495,0.413-0.988,0.626-1.479l0.245-0.557
	l0.434-0.977l0.151-0.341c-175.194-105.247-372.727-114.085-535.33-22.85c-2.06,1.156-4.115,2.328-6.164,3.517
	c-2.382,1.383-3.196,4.436-1.813,6.819c1.384,2.387,4.429,3.196,6.821,1.815c18.241-10.579,36.948-19.854,56.033-27.836
	c149.322-62.449,321.891-45.589,476.703,47.927l0.098-0.278L1017.323,988.686z"/>
<path style="fill:#A3195B;" d="M1223.258,1060.233c-1.098,3.213-2.341,6.36-3.724,9.43c49.714,10.163,100.343,15.155,150.979,15.155
	c84.312,0,168.602-13.851,248.516-40.728c69.589-23.404,135.861-56.686,195.942-99.308c2.251-1.594,2.777-4.707,1.184-6.955
	c-1.589-2.246-4.712-2.772-6.953-1.181c-55.02,39.031-115.294,70.123-178.561,92.857
	C1500.934,1076.109,1358.647,1087.574,1223.258,1060.233z"/>
<path style="fill:#A3195B;" d="M1682.04,828.453c2.061-1.827,2.256-4.98,0.429-7.042c-1.837-2.064-4.985-2.249-7.045-0.427
	c-124.654,110.413-286.229,184.366-446.375,206.682c-0.083,3.429-0.324,6.819-0.716,10.163
	C1391.086,1015.584,1555.418,940.614,1682.04,828.453z"/>
<path style="fill:#A3195B;" d="M1200.708,951.649c172.859-116.483,279.937-296.238,292.081-493.64
	c0.358-5.817,0.635-11.65,0.827-17.496c0.092-2.753-2.066-5.06-4.819-5.15c-2.777-0.117-5.062,2.068-5.15,4.823
	c-0.083,2.533-0.183,5.062-0.297,7.59c-9.041,198.652-115.795,380.079-289.831,496.68
	C1196.026,946.741,1198.425,949.142,1200.708,951.649z"/>
<path style="fill:#A3195B;" d="M1321.071,466.958c-0.176-2.753-2.548-4.875-5.291-4.665c-2.752,0.173-4.843,2.543-4.667,5.294
	c10.336,164.085-42.969,330.131-144.704,458.727c3.071,1.443,6.063,3.026,8.97,4.739
	C1277.87,800.745,1331.522,632.865,1321.071,466.958z"/>
<path style="fill:#A3195B;" d="M990.358,1515.541c4.136,35.377,10.977,70.462,20.59,104.867c0.614,2.205,2.621,3.65,4.799,3.65
	c0.448,0,0.896-0.061,1.349-0.188c2.65-0.74,4.2-3.493,3.459-6.146c-9.335-33.412-16.018-67.474-20.113-101.821
	c-16.045-134.576,7.68-273.546,67.687-395.099c-2.941-1.598-5.797-3.329-8.565-5.182
	C998.665,1238.616,974.422,1379.256,990.358,1515.541z"/>
<path style="fill:#A3195B;" d="M1177.856,1577.383c0.955,1.471,2.558,2.271,4.19,2.271c0.93,0,1.876-0.26,2.714-0.806
	c2.309-1.501,2.967-4.589,1.467-6.901c-83.948-129.213-116.297-288.659-92.123-441.094c-3.278-0.802-6.497-1.755-9.65-2.846
	C1059.519,1283.241,1092.335,1445.748,1177.856,1577.383z"/>
<path style="fill:#A3195B;" d="M1365.825,1349.309c48.364,32.911,103.11,59.781,163.19,79.808
	c46.575,15.526,96.355,26.94,148.855,33.866l0.658,0.044c2.466,0,4.609-1.827,4.941-4.336c0.36-2.731-1.559-5.237-4.293-5.598
	c-57.332-7.563-111.368-20.544-161.452-38.438c-51.748-18.489-99.276-42.225-141.866-70.654
	c-87.395-58.338-153.99-136.438-193.541-229.52c-2.761,1.923-5.617,3.721-8.556,5.387
	C1213.474,1212.55,1279.479,1290.555,1365.825,1349.309z"/>
<path style="fill:#A3195B;" d="M1691.244,1324.774l0.76,0.058c2.422,0,4.546-1.766,4.926-4.231c0.419-2.724-1.452-5.272-4.175-5.688
	c-191.915-29.451-366.248-111.876-484.229-226.205c-1.956,2.71-4.034,5.327-6.225,7.843
	C1321.77,1211.942,1497.724,1295.077,1691.244,1324.774z"/>
<path style="fill:#A3195B;" d="M830.592,385.852c-2.358-1.398-5.428-0.616-6.831,1.757c-1.403,2.37-0.619,5.43,1.754,6.833
	c177.961,105.207,279.539,298.043,278.125,522.809c3.284-0.497,6.615-0.847,9.988-1.045
	C1114.738,688.317,1011.401,492.743,830.592,385.852z"/>
<path style="fill:#A3195B;" d="M772.141,577.031c-2.66-0.77-5.418,0.757-6.182,3.403c-0.765,2.646,0.76,5.413,3.406,6.18
	c153.289,44.412,266.141,169.469,307.62,338.265c3.064-1.322,6.202-2.509,9.405-3.55
	C1043.824,749.609,928.597,622.36,772.141,577.031z"/>
<path style="fill:#A3195B;" d="M1011.129,1024.016c-140.945,36.233-272.884,112.023-373.311,216.425
	c-1.91,1.986-1.846,5.145,0.137,7.055c0.969,0.93,2.212,1.393,3.459,1.393c1.311,0,2.616-0.512,3.596-1.53
	c98.663-102.568,228.124-177.161,366.503-213.139c-0.254-3.042-0.387-6.119-0.387-9.226L1011.129,1024.016z"/>
<path style="fill:#A3195B;" d="M713.116,1523.892c-0.292,2.738,1.691,5.196,4.434,5.488l0.531,0.027c2.519,0,4.682-1.9,4.955-4.463
	c20.131-189.406,132.247-367.113,292.199-470.2c-0.955-3.376-1.753-6.819-2.382-10.32
	C848.816,1148.836,733.682,1330.349,713.116,1523.892z"/>
<path style="fill:#EE731F;" d="M1184.085,1108.07c-16.415,11.69-37.031,19.06-57.279,15.168
	c-15.98-3.072-27.834-13.588-31.739-29.509c-1.62-6.599-2.015-13.219-2.028-19.977c-0.009-4.527,1.013-11.951-1.598-16.019
	c-0.576-0.898-0.773-0.969-2.596-0.986c-3.43-0.032-7.247,1.68-10.32,3.037c-7.943,3.504-15.349,8.331-24.066,9.695
	c-19.057,2.981-32.146-14.443-36.978-30.824c-4.538-15.384-4.224-32.465-0.722-48.146c-3.049,9.137-4.96,18.795-5.486,28.825
	l-0.052,1.105l-0.002,0.056l-0.026,0.69l-0.01,0.268l-0.01,0.309l-0.019,0.751l-0.006,0.278l-0.005,0.299l-0.003,0.102l-0.007,0.533
	l-0.004,0.289l-0.005,0.978c0,3.108,0.133,6.184,0.387,9.226c0.289,3.449,0.737,6.854,1.341,10.204
	c0.63,3.501,1.427,6.944,2.382,10.32c7.132,25.188,23.094,46.665,44.329,60.878c2.768,1.853,5.625,3.584,8.565,5.182
	c5.2,2.827,10.655,5.24,16.324,7.202c3.153,1.091,6.372,2.043,9.65,2.846c8.332,2.039,17.039,3.121,26,3.121
	c0.569,0,1.136-0.005,1.703-0.014h0.008l0.307-0.005c0.547-0.01,1.093-0.024,1.637-0.042l0.274-0.009l0.02-0.001
	c1.156-0.041,2.308-0.1,3.453-0.177l0.187-0.013c0.576-0.039,1.151-0.084,1.725-0.132l0.145-0.013
	c36.424-3.14,68.242-24.472,84.988-54.366C1205.528,1089.978,1195.347,1100.05,1184.085,1108.07z"/>
<path style="fill:#FDD518;" d="M1124.371,949.444c-13.923,13.922-7.506,42.913,14.333,64.752
	c21.839,21.839,50.831,28.257,64.753,14.335c13.922-13.923,7.505-42.913-14.335-64.752
	C1167.283,941.94,1138.293,935.522,1124.371,949.444z"/>
</svg>
