<?xml version="1.0" encoding="utf-8"?>
<!-- Generator: Adobe Illustrator 27.5.0, SVG Export Plug-In . SVG Version: 6.00 Build 0)  -->
<svg version="1.1" id="Capa_1" xmlns="http://www.w3.org/2000/svg" xmlns:xlink="http://www.w3.org/1999/xlink" x="0px" y="0px"
	 viewBox="0 0 2122 2122" style="enable-background:new 0 0 2122 2122;" xml:space="preserve">
<g>
	<path style="fill:#F7C2D6;" d="M1938.006,1038.263c-34.502-227.439-322.593-226.657-534.907-167.193
		c28.898-18.795,57.106-38.094,84.202-57.963c183.469-134.531,326.371-397.346,56.369-516.352
		c-179.623-79.169-317.92,86.619-394.151,268.129c11.289-224.276-97.193-490.005-357.548-364.021
		c-180.837,87.505-138.217,308.312-44.876,486.238c-1.317-1.375-2.618-2.792-3.937-4.16
		C585.25,519.159,305.652,412.772,223.91,696.29c-54.379,188.611,128.449,303.44,318.539,354.655
		c-223.766,18.874-472.556,161.994-312.813,403.115c128.95,194.64,395.859,66.054,563.022-79.993
		c-18.011,28.602-35.204,57.367-51.203,86.181c-110.436,198.905-130.396,497.392,164.632,492.639
		c196.269-3.162,252.604-211.581,245.983-408.338c83.494,208.461,293.122,404.515,476.978,181.235
		c127.702-155.084-3.316-337.86-162.485-460.479c1.771,0.698,3.546,1.443,5.315,2.134
		C1683.789,1350.219,1982.259,1329.991,1938.006,1038.263z"/>
	<path style="fill:#E394BA;" d="M1391.445,956.81c19.75-21.318,45.504-36.286,72.071-47.483
		c31.019-13.073,63.916-21.385,96.986-27.307c35.809-6.412,72.103-10.01,108.417-11.926c35.007-1.848,70.094-2.105,105.134-1.187
		c12.252,0.321,24.501,0.822,36.743,1.431c-111.539-50.755-274.546-36.544-407.743,0.761c28.915-18.804,57.139-38.113,84.25-57.992
		c76.103-55.803,145.191-133.682,180.76-214.212c-12.898,8.68-26.133,16.89-39.315,25.081
		c-32.086,19.937-64.443,40.342-92.635,65.668c-12.807,11.506-23.565,25.182-35.912,37.175
		c-12.326,11.975-27.152,24.96-44.634,28.101c-8.133,1.461-17.352,0.654-25.121-2.167c-5.53-2.007-10.24-5.521-12.155-11.263
		c-3.241-9.722,2.819-20.635-1.44-30.061c-4.598-10.177-19.252-9.791-28.303-7.47c-12.571,3.222-23.968,10.396-34.612,17.589
		c-11.933,8.064-23.29,16.938-35.081,25.204c-9.864,6.916-20.364,14.102-32.042,17.551c-9.174,2.709-18.883,1.904-25.912-5.125
		c-7.231-7.231-8.208-17.945-5.589-27.381c3.242-11.679,10.416-22.152,17.425-31.865c8.532-11.826,17.809-23.092,26.426-34.855
		c13.33-18.198,31.879-44.401,21.012-67.779c-10.954,2.109-20.901,7.563-29.997,13.889c-20.07,13.958-36.805,32.082-55.654,47.546
		c-15.157,12.436-33.711,25.682-54.411,22.673c-1.038-0.151-1.866-1.428-1.831-2.405c0.138-3.744,0.371-7.483,0.713-11.213
		c3.035-33.179,13.376-65.382,26.202-95.973c14.056-33.526,31.349-65.613,49.932-96.823c17.886-30.038,37.073-59.269,56.479-88.339
		c19.66-29.449,39.399-58.631,63.514-84.697c4.865-5.259,9.915-10.338,15.059-15.315
		c-105.455,34.568-188.016,152.81-240.784,278.546c3.18-62.516-2.843-128.22-18.978-187.828
		c-13.788,26.268-21.931,55.017-25.48,84.45c-1.99,16.496-3.129,33.406-2.633,50.027c0.334,11.215,1.671,22.398,2.218,33.606
		c0.647,13.291,0.922,26.923-1.603,40.051c-1.997,10.38-6.202,19.839-16.698,23.682c-12.123,4.439-21.66-4.773-28.216-13.874
		c-7.208-10.004-12.464-21.618-20.475-31.045c-0.199,0.811-0.4,1.621-0.563,2.44c-2.526,12.668-2.228,25.979-2.088,38.832
		c0.181,16.361,0.864,32.712,0.945,49.073c0.074,15.023-0.144,30.234-2.713,45.075c-1.714,9.903-4.675,21.623-13.062,28.072
		c-8.709,6.695-20.556,3.709-29.737-0.411c-12.48-5.6-22.022-16.097-29.507-27.283c-8.97-13.405-15.486-28.364-21.385-43.32
		c-6.47-16.404-12.074-33.13-18.067-49.711c-5.664-15.674-11.568-31.382-19.427-46.113c-5.856-10.975-13.04-21.981-23.101-29.563
		c-0.859,1.836-1.604,3.719-2.152,5.69c-4.545,16.339-2.375,34.637-0.641,51.231c2.072,19.823,5.259,39.534,6.741,59.418
		c0.626,8.394,0.988,16.879,0.24,25.278c-0.575,6.477-1.717,13.19-4.928,18.938c-2.712,4.856-7.418,9.005-12.758,10.694
		c-6.027,1.906-12.409,0.227-17.874-2.546c-14.962-7.594-26.353-22.378-36.231-35.482c-10.438-13.846-19.699-28.507-28.922-43.174
		c-5.484-8.72-11.402-17.146-17.081-25.74c-8.781-13.287-17.278-26.76-25.446-40.433c-16.144-27.019-30.977-54.829-44.166-83.411
		c-6.036-13.081-12.205-26.301-16.862-39.948c-4.006-11.742-7.028-23.791-10.331-35.742c-0.363-1.316-0.748-2.657-1.118-3.986
		c-5.418,92.695,30.005,199.99,79.88,295.054c-1.345-1.403-2.672-2.85-4.018-4.246c-61.046-63.317-140.281-118.031-219.238-144.98
		c35.345,24.819,69.783,51.14,100.908,81.139c16.681,16.078,32.359,33.206,46.539,51.537c6.441,8.327,12.673,16.86,18.236,25.804
		c3.378,5.429,6.732,11.148,8.653,17.286c2.234,7.137,0.586,14.164-7.553,15.666c-9.426,1.74-19.895-1.092-29.121-2.832
		c-13.181-2.487-26.383-5.119-39.804-5.891c-12.419-0.714-25.457,0.079-36.826,5.527c0.559,1.982,1.407,3.532,2.615,5.599
		c4.766,8.152,11.485,15.181,18.044,21.914c9.308,9.558,19.158,18.587,29.076,27.505c23.501,21.129,47.65,41.532,70.821,63.03
		c10.706,9.933,21.241,20.084,31.138,30.831c7.972,8.656,15.753,17.749,21.878,27.833c4.172,6.867,8.272,15.109,7.697,23.386
		c-0.527,7.605-5.434,13.32-12.097,16.622c-10.715,5.31-23.576,6.037-35.314,6.205c-18.589,0.265-35.518-9.845-52.162-16.899
		c-12.928-5.479-34.543-14.751-43.488,1.607c-4.327,7.914-5.384,17.813-1.867,26.197c3.013,7.185,8.566,12.88,13.635,18.638
		c4.545,5.161,9.432,10.871,10.554,17.889c1.313,8.206-3.177,16.817-8.954,22.427c-9.708,9.429-25.206,11.177-38.047,11.001
		c-18.214-0.25-36.366-4.287-53.867-9.049c-20.268-5.515-40.129-12.459-59.798-19.801c-18.57-6.933-36.958-14.333-55.451-21.467
		c-12.992-5.012-26.073-10.206-39.665-13.365c-19.261-4.477-41.082-10.142-62.429-11.804
		c59.777,43.426,136.872,75.331,215.198,96.442c-118.806,10.019-244.633,55.071-312.665,131.217
		c10.9-1.598,21.749-3.593,32.508-5.968c59.57-13.148,116.491-35.729,175.521-50.867c56.705-14.543,116.342-21.339,173.094-3.235
		c1.45,0.463,2.419,2.266,1.491,3.664c-3.24,4.876-6.247,9.929-8.678,15.261c-3.265,7.16-5.593,15.497-3.987,22.674
		c1.336,5.971,5.187,10.61,10.185,13.982c13.176,8.89,30.935,11.139,46.578,13.215c16.89,2.242,34.261,3.074,50.818,7.297
		c10.246,2.613,23.374,8.371,20.008,21.306c-1.997,7.674-7.92,14.264-13.26,19.831c-10.173,10.609-21.9,19.744-33.642,28.529
		c-31.164,23.312-75.369,45.294-80.099,88.482c-1.655,15.12-0.595,30.302-3.605,45.31c-4.479,22.332-15.68,44.043-32.199,59.808
		c-17.186,16.401-39.214,25.666-60.867,34.573c-25.635,10.544-51.438,20.641-77.215,30.831
		c-18.549,7.333-37.079,14.754-55.491,22.446c134.186,23.275,303.084-71.621,421.735-175.301
		c-18.027,28.625-35.235,57.412-51.246,86.249c-34.432,62.017-60.066,133.714-70.102,202.883
		c8.499-16.344,16.905-32.736,25.418-49.07c17.557-33.689,35.509-67.227,55.572-99.505c18.851-30.326,39.616-59.761,64.191-85.757
		c22.343-23.636,48.135-44.363,77.727-58.182c0.947-0.442,2.272-0.508,3.023,0.39c11.908,14.24,16.831,31.781,15.786,50.186
		c-0.991,17.431-6.168,34.396-11.88,50.783c-6.313,18.105-13.606,35.864-19.428,54.14c-5.492,17.234-9.9,35.224-9.322,53.437
		c0.576,18.129,7.007,34.985,18.491,48.94c5.268-2.581,10.197-5.75,14.541-9.726c19.37-17.723,25.388-45.147,33.032-69.179
		c3.872-12.172,8.154-24.435,14.775-35.424c6.3-10.457,12.537-21.16,19.297-31.327c6.084-9.15,14.173-20.353,25.63-22.812
		c2.806-0.603,5.325-0.318,8.13-0.033c3.149,0.32,6.28,0.274,9.408,0.852c4.302,0.794,8.783,2.547,11.377,6.263
		c4.923,7.053,1.213,16.94-1.35,24.159c-1.744,4.91-3.68,9.763-5.103,14.781c-1.144,4.035-2.56,9.183-1.382,13.375
		c0.853,3.031,2.897,6.051,4.284,8.872c1.296,2.634,2.583,5.271,3.864,7.912c3.291,6.786,6.537,13.593,9.737,20.422
		c6.874,14.671,13.544,29.439,19.955,44.319c13.273,30.808,25.866,62.145,35.07,94.44c2.445,8.578,3.362,17.633,4.442,26.476
		c1.173,9.592,2.045,19.221,2.648,28.865c1.236,19.792,1.337,39.646,0.608,59.46c-0.291,7.926-0.744,15.841-1.278,23.751
		c42.917-78.476,56.944-185.607,53.44-289.482c32.754,81.81,84.9,161.71,147.335,215.122
		c-15.919-49.859-44.431-94.408-69.419-140.015c-12.601-22.996-24.486-46.467-33.702-71.05
		c-6.253-16.684-11.182-33.989-16.389-51.033c-5.102-16.708-9.725-33.717-11.623-51.128c-1.589-14.553-1.485-31.255,6.884-43.932
		c7.407-11.22,22.498-18.793,35.947-15.829c13.837,3.05,25.19,14.576,34.83,24.222c12.6,12.607,24.369,26.146,38.231,37.425
		c11.967,9.738,26.154,17.674,41.889,17.179c-0.309-3.651-1.172-7.235-2.267-10.734c-3.64-11.641-9.42-22.587-14.99-33.392
		c-6.442-12.495-13.107-24.901-18.743-37.79c-8.795-20.112-18.468-47.355-3.302-66.941c6.73-8.69,17.687-12.746,28.506-11.666
		c11.814,1.179,22.785,6.896,32.683,13.132c11.579,7.295,22.29,15.872,33.1,24.236c9.258,7.162,18.671,14.76,29.282,19.853
		c5.106,2.451,10.783,3.611,16.193,5.188c7.909,2.307,15.892,4.359,23.939,6.124c12.239,2.685,24.609,4.554,36.983,6.479
		c9.811,1.526,19.633,3.227,29.069,6.392c10.693,3.587,20.641,8.956,29.866,15.413c13.788,9.651,26.155,21.213,38.041,33.078
		c13.902,13.877,28.095,27.456,42.442,40.872c13.358,12.492,26.851,24.84,40.293,37.244
		c-30.876-91.121-111.285-178.816-200.553-247.59c1.764,0.696,3.53,1.436,5.292,2.125c90.811,35.474,197.502,52,286.322,36.381
		c-11.981-2.397-23.929-4.952-35.819-7.77c-42.36-10.041-84.108-22.735-124.819-38.165c-39.827-15.094-78.708-32.779-115.991-53.387
		c-35.714-19.741-69.929-42.201-101.824-67.677c-1.054-0.842-0.878-2.656,0-3.528c20.961-20.79,48.144-31.607,76.725-36.913
		c-0.472-0.661-0.985-1.29-1.43-1.97c-3.449-5.287-6.456-11.634-6.033-18.112c0.36-5.499,3.229-10.259,7.416-13.742
		c11.671-9.71,29.018-12.293,43.522-14.452c21.209-3.156,42.67-4.387,64.049-5.778c20.901-1.36,41.943-2.477,62.65-5.771
		c8.093-1.287,16.227-2.89,23.972-5.618c4.601-1.62,9.145-3.753,12.675-6.972c-13.38-15.57-31.453-25.045-51.419-29.565
		c-19.523-4.42-39.796-4.674-59.715-4.034c-20.991,0.674-41.922,2.555-62.906,3.392c-35.599,1.419-77.176,0.828-104.221-25.978
		c-1.043-1.032-0.842-2.481,0-3.528C1387.082,961.698,1389.218,959.214,1391.445,956.81z"/>
	<path style="fill:#CE67A5;" d="M1319.402,1011.395c-2.439-8.988-2.815-18.797,3.674-26.19c5.443-6.199,13.694-9.13,21.12-12.162
		c7.139-2.915,15.772-6.169,19.587-13.41c2.717-5.155,4.086-12.057,4.774-17.817c0.333-2.777,0.797-6.826-1.632-8.864
		c-1.856-1.557-4.889-1.781-7.16-2.259c-3.353-0.704-6.638-1.572-9.702-3.153c-10.565-5.453-15.462-18.616-19.157-29.127
		c-4.1-11.666-4.077-22.853,1.034-34.154c2.783-6.152,6.381-11.919,9.797-17.731c3.645-6.2,6.581-13.085,11.053-18.739
		c3.495-4.42,7.816-8.003,12.223-11.474c3.311-2.609,7.502-5.298,9.621-9.056c2.184-3.873,0.017-7.7-2.516-10.837
		c-4.339-5.373-9.462-8.921-16.375-9.816c-12.363-1.6-25.016,4.081-35.905,9.226c-11.465,5.418-22.567,11.797-34.529,16.101
		c-11.82,4.253-25.382,4.796-37.816,3.865c-8.183-0.612-17.469-2.355-23.185-8.812c-4.808-5.432-5.905-12.796-6.147-19.798
		c-0.303-8.764,0.474-17.528,0.086-26.296c-0.454-10.265-2.602-20.264-7.111-29.499c-3.364,1.123-6.699,2.332-9.956,3.735
		c-11.527,4.968-22.002,11.807-31.596,19.859c-4.616,3.875-10.228,10.6-16.557,11.487c-6.854,0.961-10.237-7.073-12.363-12.176
		c-6.566-15.753-10.18-32.607-15.806-48.692c-2.722-7.781-5.622-15.808-10.19-22.733c-2.25-3.414-5.533-7.404-10.048-7.188
		c-5.281,0.252-9.953,5.029-13.37,8.565c-6.881,7.122-12.619,15.339-18.181,23.5c-4.753,6.975-8.917,13.973-12.371,21.686
		c-3.273,7.306-6.164,14.779-9.484,22.065c-6.091,13.371-14.189,27.219-28.447,33.011c-16.022,6.507-31.374,0.036-45.369-8.161
		c-8.124-4.759-15.915-10.059-24.03-14.83c-6.464-3.801-13.278-7.365-20.631-9.048c-3.506,19.64-3.604,40.405-13.933,58.088
		c-0.508,0.87-1.813,1.558-2.816,1.146c-18.836-7.736-32.702-25.511-45.096-40.922c-11.551-14.361-22.234-30.144-35.978-42.551
		c-4.931-4.451-10.027-7.88-16.781-8.378c-5.665-0.418-12.515,0.077-15.975,5.257c-3.122,4.672-2.67,11.196-1.8,16.466
		c2.754,16.688,35.746,55.756,16.2,69.15c-18.923,12.961-40.204-9.275-57.011-14.991c-14.313-4.867-37.475-3.531-32.316,17.294
		c7.333,29.605,42.718,41.135,54.511,67.386c6.937,15.446,7.331,30.943,1.137,46.798c-4.018,10.283-9.314,19.232-16.862,27.26
		c-7.599,8.082-15.912,15.516-23.15,23.934c-2.011,2.339-5.454,5.406-4.955,8.733c0.566,3.783,2.719,7.213,3.402,11.002
		c1.598,8.846-3.859,16.258-10.543,21.475c-11.843,9.244-27.699,10.749-41.162,16.615c-6.699,2.919-13.028,7.042-16.7,13.542
		c-4.38,7.75-5.413,18.949-1.593,27.081c4.137,8.809,13.296,13.965,21.873,17.65c9.25,3.974,19.036,6.855,28.599,9.975
		c16.28,5.31,33.177,8.193,49.541,13.145c10.795,3.266,22.244,8.227,26.497,19.538c2.311,6.144,2.113,12.942,1.204,19.339
		c-1.447,10.173-4.856,20.036-8.581,29.57c-4.117,10.539-7.577,21.217-12.475,31.454c-3.69,7.71-7.895,15.14-12.105,22.573
		c-4.705,8.305-12.212,19.256-7.368,29.044c2.991,6.045,8.86,10.594,14.206,14.439c7.362,5.293,16.838,9.031,22.551,16.268
		c1.518,1.922,2.637,4.052,3.342,6.4c0.476,1.59,0.583,3.47,1.258,4.948c0.762,1.669,2.335,2.531,4.037,3.185
		c4.466,1.719,9.518,2.215,14.231,2.723c9.109,0.98,16.833-2.744,24.427-7.449c8.418-5.216,16.271-11.29,24.749-16.416
		c8.501-5.14,17.715-9.422,27.642-10.762c10.102-1.364,21.263,0.276,30.948,3.344c13.253,4.198,22.786,13.184,24.762,27.256
		c3.804,27.107-11.879,57.845,8.549,80.865c18.777-15.04,29.549-37.309,44.46-55.739c4.75-5.871,10.551-12.222,18.073-14.362
		c7.358-2.093,14.309,1.132,19.836,5.902c8.851,7.635,15.994,18.886,20.961,29.36c4.055,8.55,5.955,17.878,7.165,27.207
		c2.704,20.816,1.6,42.091,5.786,62.722c1.832,9.029,4.764,18.113,10.375,25.55c5.826,7.721,14.109,12.441,23.269,14.992
		c4.274-7.661,6.006-16.692,7.211-25.27c1.715-12.206,2.167-24.589,2.506-36.896c0.671-24.376,0.312-48.874,2.988-73.146
		c2.001-18.155,5.262-39.493,18.419-53.298c6.191-6.495,15.275-10.996,24.297-11.244c10.919-0.3,21.044,5.419,29.614,11.623
		c10.26,7.427,19.424,16.22,29.23,24.21c8.339,6.795,17.934,13.991,28.77,16.08c-0.411-20.561-4.127-41.053-2.149-61.637
		c1.813-18.856,9.13-35.941,25.019-47.034c13.88-9.69,29.997-11.864,46.096-6.963c29.063,8.847,56.869,36.758,88.792,25.519
		c-4.049-9.859-11.849-18.03-19.496-25.197c-10.436-9.78-21.89-18.425-33.197-27.158c-10.076-7.782-20.192-15.571-29.578-24.188
		c-7.986-7.332-15.804-15.435-21.052-25.015c-8.721-15.916-6.688-36.528,8.774-47.526c15.529-11.045,37.019-11.148,55.073-14.581
		c9.112-1.733,18.526-3.986,26.393-9.111c7.598-4.95,12.062-12.616,13.596-21.396c-3.232-1.433-6.603-2.553-9.992-3.544
		c-21.203-6.204-44.333-9.314-63.447-21.086C1328.869,1027.717,1321.957,1020.815,1319.402,1011.395z M1032.767,1051.078
		c-2.144-3.124-4.329-6.273-6.488-9.407c4.225,3.78,8.429,7.416,12.617,10.952
		C1036.848,1052.101,1034.787,1051.562,1032.767,1051.078z"/>
	<path style="fill:#D0774C;" d="M922.805,879.968c-33.487,17.052-66.159,34.763-92.365,58.631
		c-71.524,65.145-19.738,103.902,17.859,161.571c14.024,21.51,15.005,43.132,26.736,67.77
		c17.301,36.337,36.794,50.907,76.656,46.263c17.004-1.981,36.245-17.919,51.985-14.501c12.002,2.606,29.234,29.536,43.389,35.687
		c46.522,20.217,104.09-0.051,140.955-31.2c51.442-43.466,51.255-108.363,68.807-169.463
		c15.162-52.779,8.534-149.384-42.573-186.011c-28.232-20.234-59.614,3.135-87.482-2.323c-43.42-8.506-55.515-59.233-102.937-23.865
		C993.547,845.116,957.733,862.183,922.805,879.968z"/>
	<path style="fill:#B7593F;" d="M1228.946,893.864c-12.974,9.378-23.197,22.014-31.673,35.478c-3.529,5.604-8.149,11.655-8.3,18.565
		c-0.099,4.508,1.719,8.597,3.872,12.455c4.315,7.733,9.266,15.464,4.363,24.247c-3.568,6.396-10.148,11.016-16.157,14.893
		c-9.252,5.97-19.073,11.107-29.927,13.35c-18.592,3.842-37.801-0.304-56.329,3.79c-16.562,3.659-32.021,13.838-39.461,29.312
		c-11.432,23.776-12.021,54.858-34.436,72.173c-6.026,4.655-12.804,7.166-20.106,9.052c-7.782,2.01-16.121,4.162-24.238,3.538
		c-4.594-0.353-9.157-1.751-12.1-5.496c-2.608-3.319-3.392-7.548-3.854-11.64c-1.186-10.5-0.591-21.222-5.994-30.745
		c-2.279-4.018-5.563-6.883-8.864-10.039c-4.405-4.215-8.811-8.428-13.182-12.68c-11.206-10.902-22.262-21.997-32.63-33.705
		c-8.112-9.161-17.424-19.232-21.867-30.843c-4.878-12.753-3.905-26.975-0.475-39.946c4.314-16.308,12.397-31.594,21.786-45.519
		c7.427-11.017,15.859-21.402,25.098-30.98c-0.555,0.282-1.115,0.563-1.67,0.846c-33.487,17.052-66.161,34.763-92.366,58.631
		c-71.524,65.145-19.738,103.902,17.859,161.571c14.024,21.51,15.006,43.132,26.737,67.77
		c17.301,36.337,36.793,50.907,76.655,46.263c17.004-1.981,36.245-17.919,51.985-14.501c12.001,2.606,29.234,29.536,43.39,35.687
		c46.521,20.217,104.089-0.052,140.954-31.2c51.442-43.466,51.256-108.363,68.807-169.463
		c11.453-39.871,10.456-104.735-12.74-149.876C1238.828,887.435,1233.752,890.39,1228.946,893.864z"/>
	<path style="fill:#9A4734;" d="M1248.528,1002.458c-8.175,13.825-13.716,29.139-16.297,44.996
		c-2.508,15.416-3.619,31.106-6.861,46.397c-2.964,13.977-8.657,26.89-17.181,38.38c-2.489,3.353-5.101,7.366-8.294,10.068
		c-1.597,1.352-3.553,2.419-5.28,3.6c-5.297,3.622-10.567,7.286-15.827,10.963c-11.876,8.3-23.734,16.636-35.408,25.218
		c-7.266,5.341-13.967,11.222-21.86,15.691c-7.857,4.45-16.436,7.82-25.403,9.121c-8.434,1.224-17.015,0.663-25.198-1.745
		c-6.497-1.911-13.244-4.497-18.857-8.356c-9.124-6.273-15.185-15.439-22.306-23.701c-8.464-9.821-18.652-16.312-31.518-18.713
		c-14.208-2.651-27.485,1.485-40.753,6.136c-10.509,3.683-20.419,5.065-30.724-0.15c-7.554-3.823-13.564-9.762-19.719-15.437
		c-5.962-5.499-10.586-11.992-13.088-19.759c-4.763-14.801-1.952-30.814-5.31-45.892c-3.763-16.884-17.268-30.119-26.932-43.918
		c-4.972-7.099-9.44-14.563-12.544-22.68c-3.215-8.413-6.629-16.841-8.455-25.697c-4.733-22.952-0.224-45.958,11.006-65.565
		c-7.451,5.389-14.583,11.08-21.283,17.182c-71.524,65.145-19.738,103.902,17.859,161.571c14.024,21.51,15.006,43.132,26.737,67.77
		c17.301,36.337,36.793,50.907,76.655,46.263c17.004-1.981,36.245-17.919,51.985-14.501c12.001,2.606,29.234,29.536,43.39,35.687
		c46.521,20.217,104.089-0.052,140.954-31.2c51.442-43.466,51.256-108.363,68.807-169.463c4.337-15.093,6.877-33.773,7.116-53.605
		C1258.286,987.844,1253.013,994.873,1248.528,1002.458z"/>
	<g>
		<path style="fill:#F4AEC9;" d="M1311.095,556.374c41.268-72.389,94.657-137.199,157.702-191.68
			c9.734-8.412-4.433-22.475-14.111-14.112c-64.23,55.504-118.781,121.975-160.823,195.719
			C1287.493,557.476,1304.728,567.542,1311.095,556.374L1311.095,556.374z"/>
	</g>
	<g>
		<path style="fill:#F4AEC9;" d="M1318.846,711.296c63.779-77.37,125.622-156.337,185.43-236.817
			c17.046-22.938,33.92-46.002,50.637-69.182c3.154-4.373,0.756-11.116-3.58-13.652c-5.031-2.942-10.491-0.804-13.652,3.58
			c-57.892,80.276-117.766,159.114-179.636,236.365c-17.613,21.992-35.388,43.854-53.309,65.595
			C1296.626,707.021,1310.667,721.218,1318.846,711.296L1318.846,711.296z"/>
	</g>
	<g>
		<path style="fill:#F4AEC9;" d="M1491.921,655.804c44.582-38.076,82.52-83.685,112.005-134.356
			c6.472-11.122-10.768-21.179-17.232-10.072c-28.694,49.311-65.504,93.266-108.884,130.317
			C1468.029,650.046,1482.202,664.105,1491.921,655.804L1491.921,655.804z"/>
	</g>
	<g>
		<path style="fill:#F4AEC9;" d="M746.902,312.612c-9.177,90.11,13.273,182.742,62.431,258.793
			c6.948,10.749,24.231,0.756,17.232-10.072c-47.464-73.431-68.563-161.756-59.707-248.721c0.546-5.369-4.978-9.978-9.978-9.978
			C751.03,302.634,747.451,307.228,746.902,312.612L746.902,312.612z"/>
	</g>
	<g>
		<path style="fill:#F4AEC9;" d="M853.077,276.027c16.75,63.307,31.738,127.068,44.946,191.208
			c2.588,12.57,21.828,7.25,19.243-5.305c-13.208-64.14-28.195-127.901-44.945-191.208
			C869.039,258.318,849.784,263.578,853.077,276.027L853.077,276.027z"/>
	</g>
	<g>
		<path style="fill:#F4AEC9;" d="M946.073,237.142c43.471,85.646,68.004,180.432,71.652,276.4c0.486,12.801,20.445,12.865,19.956,0
			c-2.939-77.333-18.781-154.136-47.228-226.13c-8.11-20.524-17.16-40.665-27.148-60.342
			C957.491,215.615,940.268,225.704,946.073,237.142L946.073,237.142z"/>
	</g>
	<g>
		<path style="fill:#F4AEC9;" d="M306.454,834.966c60.613,56.462,135.674,96.603,216.405,115.28
			c12.497,2.892,17.832-16.345,5.305-19.243c-77.435-17.915-149.422-55.955-207.599-110.148
			C311.176,812.108,297.032,826.19,306.454,834.966L306.454,834.966z"/>
	</g>
	<g>
		<path style="fill:#F4AEC9;" d="M336.919,724.384c78.811,33.777,154.66,74.204,226.64,120.797
			c10.813,6.999,20.828-10.269,10.072-17.232c-71.98-46.593-147.829-87.02-226.641-120.797c-4.949-2.121-10.696-1.474-13.651,3.58
			C330.882,714.934,331.939,722.25,336.919,724.384L336.919,724.384z"/>
	</g>
	<g>
		<path style="fill:#F4AEC9;" d="M407.04,638.251c35.683,5.555,69.239,19.147,98.689,40.05c4.397,3.121,11.102,0.781,13.652-3.58
			c2.926-5.003,0.828-10.524-3.58-13.652c-30.643-21.749-66.325-36.281-103.456-42.061c-5.318-0.828-10.732,1.355-12.274,6.969
			C398.77,630.71,401.683,637.417,407.04,638.251L407.04,638.251z"/>
	</g>
	<g>
		<path style="fill:#F4AEC9;" d="M1496.986,964.096c100.591-16.523,204.094-15.04,304.186,4.213
			c12.549,2.414,17.924-16.816,5.305-19.243c-80.657-15.514-163.307-20.121-245.154-13.011c-23.316,2.025-46.549,5.005-69.642,8.798
			c-5.322,0.874-8.289,7.473-6.969,12.274C1486.265,962.778,1491.649,964.972,1496.986,964.096L1496.986,964.096z"/>
	</g>
	<g>
		<path style="fill:#F4AEC9;" d="M1709.419,1050.215c37.236,7.407,74.759,13.247,112.471,17.627
			c5.361,0.623,9.978-5.032,9.978-9.978c0-5.911-4.601-9.353-9.978-9.978c-35.94-4.174-71.68-9.856-107.166-16.914
			C1702.181,1028.477,1696.814,1047.708,1709.419,1050.215L1709.419,1050.215z"/>
	</g>
	<g>
		<path style="fill:#F4AEC9;" d="M1544.432,1139.211c94.793,28.513,192.638,46.354,291.372,53.39
			c12.815,0.913,12.758-19.047,0-19.956c-96.984-6.911-192.961-24.672-286.067-52.677
			C1537.413,1116.26,1532.146,1135.515,1544.432,1139.211L1544.432,1139.211z"/>
	</g>
	<g>
		<path style="fill:#F4AEC9;" d="M811.745,1493.776c-46.876,76.83-78.126,163.211-90.944,252.31c-3.696,25.693-6,51.537-6.75,77.486
			c-0.371,12.846,19.585,12.835,19.956,0c2.523-87.333,22.784-174.201,59.525-253.508c10.533-22.736,22.395-44.827,35.445-66.216
			C835.684,1492.856,818.431,1482.817,811.745,1493.776L811.745,1493.776z"/>
	</g>
	<g>
		<path style="fill:#F4AEC9;" d="M874.89,1665.796c-15.935,50.2-26.728,101.784-32.661,154.108
			c-0.608,5.363,5.021,9.978,9.978,9.978c5.899,0,9.368-4.599,9.978-9.978c5.727-50.51,16.571-100.359,31.948-148.803
			C898.027,1658.831,878.767,1653.58,874.89,1665.796L874.89,1665.796z"/>
	</g>
	<g>
		<path style="fill:#F4AEC9;" d="M975.647,1619.287c7.595,18.83,4.59,38.705,0.428,57.99c-4.719,21.862-9.832,43.646-14.76,65.462
			c-9.867,43.688-19.734,87.376-29.6,131.065c-2.825,12.506,16.41,17.847,19.243,5.305c10.229-45.291,20.458-90.583,30.687-135.874
			c4.976-22.032,10.373-44.017,14.825-66.161c4.185-20.817,6.565-42.9-1.58-63.091c-2.015-4.995-6.652-8.514-12.274-6.969
			C977.876,1608.316,973.619,1614.26,975.647,1619.287L975.647,1619.287z"/>
	</g>
	<g>
		<path style="fill:#F4AEC9;" d="M1281.157,1539.45c35.098,69.275,72.13,141.372,134.292,190.506
			c16.324,12.903,33.797,24.032,52.805,32.555c4.914,2.203,10.728,1.42,13.652-3.58c2.494-4.264,1.362-11.436-3.58-13.652
			c-68.256-30.604-113.525-92.506-148.749-156.162c-10.878-19.658-21.037-39.701-31.189-59.74
			C1292.583,1517.919,1275.359,1528.009,1281.157,1539.45L1281.157,1539.45z"/>
	</g>
	<g>
		<path style="fill:#F4AEC9;" d="M1349.62,1496.258c29.83,25.301,57.12,53.462,81.472,84.072c3.358,4.221,10.605,3.507,14.111,0
			c4.169-4.169,3.367-9.88,0-14.111c-24.352-30.611-51.641-58.771-81.472-84.073c-4.107-3.483-10.081-4.03-14.111,0
			C1346.047,1485.719,1345.491,1492.756,1349.62,1496.258L1349.62,1496.258z"/>
	</g>
	<g>
		<path style="fill:#F4AEC9;" d="M1395.715,1432.505c71.33,63.562,141.271,128.672,209.768,195.279
			c9.213,8.958,23.339-5.138,14.111-14.111c-68.496-66.607-138.438-131.716-209.768-195.279
			C1400.264,1409.874,1386.102,1423.939,1395.715,1432.505L1395.715,1432.505z"/>
	</g>
	<g>
		<path style="fill:#F4AEC9;" d="M249.514,1255.496c76.422-39.891,157.717-70.031,241.669-89.635
			c24.054-5.617,48.304-10.343,72.695-14.239c5.326-0.851,8.284-7.49,6.969-12.275c-1.558-5.67-6.933-7.822-12.274-6.969
			c-86.497,13.82-170.9,38.644-251.258,73.473c-23.012,9.974-45.64,20.808-67.873,32.414
			C228.052,1244.209,238.13,1261.438,249.514,1255.496L249.514,1255.496z"/>
	</g>
	<g>
		<path style="fill:#F4AEC9;" d="M310.336,1319.775c71.54-26.01,143.08-52.02,214.621-78.03c11.975-4.353,6.805-23.646-5.305-19.243
			c-71.54,26.01-143.081,52.02-214.621,78.03C293.056,1304.886,298.225,1324.178,310.336,1319.775L310.336,1319.775z"/>
	</g>
	<g>
		<path style="fill:#F4AEC9;" d="M370.326,1418.584c81.952-33.903,161.913-72.414,239.389-115.587
			c11.22-6.252,1.168-23.495-10.072-17.232c-75.943,42.319-154.282,80.339-234.622,113.575c-4.976,2.058-8.523,6.619-6.969,12.274
			C359.344,1416.318,365.315,1420.657,370.326,1418.584L370.326,1418.584z"/>
	</g>
	<g>
		<path style="fill:#C44C0D;" d="M916.878,1077.733c1.12,6.681-3.389,13.004-10.07,14.124c-6.681,1.12-13.004-3.389-14.124-10.07
			c-1.119-6.681,3.389-13.004,10.07-14.124C909.434,1066.543,915.758,1071.052,916.878,1077.733z"/>
		<path style="fill:#C44C0D;" d="M1219.107,1049.505c1.119,6.681-3.39,13.004-10.07,14.124c-6.681,1.12-13.004-3.389-14.124-10.07
			c-1.119-6.681,3.389-13.004,10.07-14.124C1211.664,1038.315,1217.988,1042.824,1219.107,1049.505z"/>
		<path style="fill:#C44C0D;" d="M1065.442,1004.312c1.12,6.681-3.389,13.004-10.07,14.124c-6.681,1.12-13.004-3.389-14.124-10.07
			c-1.12-6.681,3.389-13.005,10.07-14.124C1057.999,993.122,1064.322,997.631,1065.442,1004.312z"/>
		<path style="fill:#C44C0D;" d="M1106.607,1128.496c1.12,6.681-3.389,13.004-10.07,14.124c-6.681,1.119-13.004-3.39-14.124-10.07
			c-1.12-6.681,3.389-13.004,10.07-14.124C1099.164,1117.306,1105.488,1121.814,1106.607,1128.496z"/>
		<path style="fill:#C44C0D;" d="M1071.652,1165.813c1.119,6.681-3.389,13.004-10.07,14.124c-6.681,1.119-13.004-3.39-14.123-10.07
			c-1.12-6.681,3.389-13.004,10.07-14.124C1064.209,1154.624,1070.532,1159.132,1071.652,1165.813z"/>
		<path style="fill:#C44C0D;" d="M940.758,917.758c1.119,6.681-3.39,13.004-10.07,14.124c-6.681,1.119-13.004-3.39-14.124-10.07
			c-1.12-6.681,3.389-13.004,10.07-14.124C933.315,906.568,939.638,911.076,940.758,917.758z"/>
		<path style="fill:#AB4309;" d="M944.923,1017.636c1.505,8.982-4.556,17.483-13.538,18.988
			c-8.982,1.505-17.483-4.557-18.988-13.538c-1.505-8.982,4.557-17.483,13.538-18.988
			C934.918,1002.593,943.419,1008.654,944.923,1017.636z"/>
		<path style="fill:#AB4309;" d="M1170.296,1029.035c0.948,5.659-2.871,11.015-8.53,11.963c-5.659,0.948-11.015-2.871-11.963-8.53
			c-0.948-5.659,2.871-11.015,8.53-11.963C1163.992,1019.557,1169.348,1023.376,1170.296,1029.035z"/>
		<path style="fill:#AB4309;" d="M1200.764,873.908c0.948,5.659-2.871,11.015-8.53,11.963c-5.659,0.948-11.015-2.871-11.963-8.53
			c-0.948-5.659,2.871-11.015,8.53-11.963C1194.46,864.429,1199.816,868.248,1200.764,873.908z"/>
		<path style="fill:#AB4309;" d="M1026.369,880.893c1.505,8.982-4.556,17.483-13.538,18.988
			c-8.982,1.505-17.483-4.556-18.987-13.538c-1.505-8.982,4.556-17.483,13.538-18.988
			C1016.363,865.85,1024.865,871.911,1026.369,880.893z"/>
		<path style="fill:#AB4309;" d="M1170.218,938.062c1.505,8.982-4.557,17.483-13.538,18.988
			c-8.982,1.505-17.483-4.556-18.988-13.538c-1.505-8.982,4.556-17.483,13.538-18.988
			C1160.212,923.019,1168.712,929.08,1170.218,938.062z"/>
		<path style="fill:#AB4309;" d="M1206.781,1113.183c1.505,8.982-4.556,17.483-13.538,18.988
			c-8.982,1.505-17.483-4.557-18.987-13.538c-1.505-8.982,4.556-17.483,13.538-18.988
			C1196.775,1098.141,1205.276,1104.202,1206.781,1113.183z"/>
		<path style="fill:#AB4309;" d="M1028.432,1143.492c0.752,4.491-2.278,8.741-6.769,9.494c-4.491,0.752-8.741-2.278-9.494-6.769
			c-0.753-4.491,2.278-8.741,6.769-9.494C1023.429,1135.97,1027.68,1139.001,1028.432,1143.492z"/>
		<path style="fill:#E09600;" d="M950.925,1129.473c1.505,8.982-4.557,17.483-13.538,18.988
			c-8.982,1.505-17.483-4.556-18.988-13.538c-1.505-8.982,4.557-17.483,13.538-18.988
			C940.919,1114.43,949.419,1120.491,950.925,1129.473z"/>
		<path style="fill:#E09600;" d="M1069.608,1118.225c1.505,8.982-4.557,17.483-13.538,18.988
			c-8.982,1.505-17.482-4.556-18.987-13.538c-1.505-8.982,4.556-17.483,13.538-18.988
			C1059.602,1103.182,1068.103,1109.243,1069.608,1118.225z"/>
		<path style="fill:#E09600;" d="M1070.489,907.834c1.505,8.982-4.556,17.483-13.538,18.987
			c-8.982,1.505-17.483-4.556-18.988-13.538c-1.505-8.982,4.556-17.483,13.538-18.988
			C1060.484,892.792,1068.985,898.853,1070.489,907.834z"/>
		<path style="fill:#FAB600;" d="M1098.505,1032.314c1.505,8.982-4.556,17.483-13.538,18.988
			c-8.982,1.505-17.483-4.556-18.988-13.538c-1.505-8.982,4.556-17.483,13.538-18.988
			C1088.499,1017.272,1097,1023.333,1098.505,1032.314z"/>
		<path style="fill:#FAB600;" d="M1082.013,864.401c1.505,8.982-4.556,17.483-13.538,18.988
			c-8.982,1.505-17.483-4.556-18.988-13.538c-1.505-8.982,4.556-17.483,13.538-18.988
			C1072.007,849.359,1080.508,855.42,1082.013,864.401z"/>
		<path style="fill:#E09600;" d="M920.388,973.002c1.505,8.982-4.556,17.483-13.538,18.988c-8.982,1.505-17.483-4.556-18.988-13.538
			c-1.505-8.982,4.557-17.483,13.538-18.988C910.382,957.959,918.884,964.02,920.388,973.002z"/>
		<path style="fill:#E09600;" d="M1155.6,1114.015c1.046,6.243-3.167,12.151-9.409,13.197c-6.243,1.046-12.151-3.167-13.197-9.409
			c-1.046-6.243,3.167-12.151,9.409-13.197C1148.646,1103.559,1154.554,1107.772,1155.6,1114.015z"/>
		<path style="fill:#E09600;" d="M1110.038,890.223c1.046,6.242-3.167,12.151-9.409,13.197c-6.243,1.046-12.151-3.167-13.197-9.409
			c-1.046-6.243,3.167-12.151,9.409-13.197C1103.083,879.767,1108.992,883.98,1110.038,890.223z"/>
		<path style="fill:#E09600;" d="M1242.043,948.647c1.046,6.242-3.167,12.151-9.409,13.197c-6.243,1.046-12.151-3.167-13.197-9.409
			c-1.046-6.243,3.167-12.151,9.409-13.197C1235.089,938.192,1240.997,942.404,1242.043,948.647z"/>
		<path style="fill:#E77F05;" d="M990.869,1065.165c1.505,8.982-4.557,17.483-13.538,18.988
			c-8.982,1.505-17.483-4.557-18.988-13.538c-1.505-8.982,4.557-17.483,13.538-18.988
			C980.863,1050.122,989.364,1056.183,990.869,1065.165z"/>
		<path style="fill:#E3690D;" d="M1140.996,996.417c1.505,8.982-4.557,17.483-13.538,18.988
			c-8.982,1.505-17.483-4.557-18.988-13.538c-1.505-8.982,4.556-17.482,13.538-18.988
			C1130.99,981.374,1139.491,987.435,1140.996,996.417z"/>
		<path style="fill:#E3690D;" d="M1042.542,1038.418c1.505,8.982-4.556,17.483-13.538,18.988
			c-8.982,1.505-17.483-4.557-18.988-13.538c-1.505-8.982,4.557-17.483,13.538-18.988
			C1032.536,1023.375,1041.037,1029.436,1042.542,1038.418z"/>
		<path style="fill:#E3690D;" d="M1026.369,1086.199c1.505,8.981-4.556,17.483-13.538,18.987
			c-8.982,1.505-17.483-4.556-18.987-13.538c-1.505-8.982,4.556-17.483,13.538-18.988
			C1016.363,1071.156,1024.865,1077.217,1026.369,1086.199z"/>
		<path style="fill:#E3690D;" d="M1123.673,932.159c1.505,8.982-4.556,17.482-13.538,18.988
			c-8.982,1.505-17.483-4.556-18.988-13.538c-1.505-8.982,4.556-17.483,13.538-18.988
			C1113.667,917.116,1122.168,923.177,1123.673,932.159z"/>
		<path style="fill:#FAB600;" d="M993.111,1016.529c1.114,6.648-3.372,12.94-10.02,14.054c-6.647,1.113-12.94-3.373-14.053-10.02
			c-1.114-6.648,3.372-12.939,10.02-14.054C985.706,1005.395,991.998,1009.881,993.111,1016.529z"/>
		<path style="fill:#E77F05;" d="M1123.673,1082.737c1.505,8.982-4.556,17.483-13.538,18.988
			c-8.982,1.505-17.483-4.557-18.988-13.538c-1.505-8.982,4.556-17.483,13.538-18.988
			C1113.667,1067.694,1122.168,1073.756,1123.673,1082.737z"/>
		<path style="fill:#E77F05;" d="M983.852,965.793c1.505,8.982-4.557,17.483-13.538,18.988c-8.982,1.505-17.483-4.556-18.988-13.538
			c-1.505-8.982,4.556-17.483,13.538-18.988C973.846,950.751,982.347,956.812,983.852,965.793z"/>
		<path style="fill:#E3690D;" d="M1045.503,974.359c1.505,8.982-4.557,17.483-13.538,18.988
			c-8.982,1.505-17.482-4.556-18.988-13.538c-1.505-8.982,4.557-17.483,13.538-18.987
			C1035.497,959.316,1043.998,965.377,1045.503,974.359z"/>
		<path style="fill:#E09600;" d="M1181.655,1069.707c1.505,8.982-4.557,17.483-13.538,18.988
			c-8.982,1.505-17.483-4.557-18.988-13.538c-1.505-8.982,4.557-17.483,13.538-18.988
			C1171.649,1054.664,1180.15,1060.725,1181.655,1069.707z"/>
		<path style="fill:#E09600;" d="M1165.163,889.391c1.505,8.982-4.557,17.483-13.538,18.988
			c-8.982,1.505-17.483-4.556-18.988-13.538c-1.505-8.981,4.557-17.482,13.538-18.987
			C1155.157,874.349,1163.657,880.41,1165.163,889.391z"/>
		<path style="fill:#FAB600;" d="M1104.462,968.077c1.505,8.982-4.556,17.483-13.538,18.988s-17.483-4.557-18.988-13.538
			c-1.505-8.981,4.556-17.482,13.538-18.987C1094.456,953.034,1102.957,959.095,1104.462,968.077z"/>
		<path style="fill:#FAB600;" d="M1149.098,1153.338c1.505,8.982-4.557,17.483-13.538,18.988
			c-8.982,1.505-17.483-4.556-18.988-13.538c-1.505-8.982,4.557-17.483,13.538-18.988
			C1139.092,1138.295,1147.592,1144.356,1149.098,1153.338z"/>
		<path style="fill:#FAB600;" d="M997.338,917.06c1.505,8.982-4.556,17.482-13.538,18.987c-8.982,1.505-17.483-4.556-18.988-13.538
			s4.556-17.483,13.538-18.988C987.332,902.017,995.833,908.078,997.338,917.06z"/>
	</g>
</g>
</svg>
