<?xml version="1.0" encoding="utf-8"?>
<!-- Generator: Adobe Illustrator 27.5.0, SVG Export Plug-In . SVG Version: 6.00 Build 0)  -->
<svg version="1.1" id="Capa_1" xmlns="http://www.w3.org/2000/svg" xmlns:xlink="http://www.w3.org/1999/xlink" x="0px" y="0px"
	 viewBox="0 0 2122 2122" style="enable-background:new 0 0 2122 2122;" xml:space="preserve">
<g>
	<path style="fill:#EEC0C0;" d="M767.82,519.106c32.176,60.383,60.856,122.891,87.895,185.707
		c11.645,27.051,24.684,53.981,41.789,78.039c10.57,14.875,27.57,35.039,48.133,29.113c25.496-7.344,26.527-43.324,25.211-63.922
		c-2.348-36.738-16.68-76.746-9.875-113.711c56.273,57.254,49.133,143.899,72.215,217.164c3.664-6.527,10.574-10.992,18.598-10.992
		c11.816,0,21.395,9.578,21.395,21.394v0.012l0.68-0.012l0.305,0.012c2.031-4.742,5.723-8.602,10.344-10.848
		c0.668-7.949,1.066-15.934,1.227-23.957c-2.914,4.004-7.594,6.633-12.926,6.633c-8.836,0-16-7.16-16-16.004
		c0-8.836,7.164-16.004,16-16.004c5.352,0,10.063,2.652,12.969,6.688c-0.918-67.754-11.805-136.793,19.492-198.738
		c24.262,30.684,26.785,75.621,33.371,112.582c4.199,23.566,9.16,52.652,27.371,69.832c3.098,1.484,5.801,3.594,8.023,6.16
		c0.621,0.387,1.195,0.813,1.836,1.176c1.883,1.059,4.309,0.113,5.273-1.715c24.496-46.5,42.637-96.063,57.973-146.25
		c15.602-51.055,34.371-108.359,28.652-162.277c-5.617-52.949-35.75-98.355-36.027-152.75c-0.09-16.867,1.695-33.484,4.059-50.02
		c-13.504-5.539-27.781-8.961-41.863-10.098c-36.574-2.949-45.27,3.152-72.543-25.707c-19.285-20.406-33.422-46.973-64.699-49.898
		c-24.668-2.305-50.965,9.703-70.629,26.227c-32.25,27.102-33.867,32.176-73.43,12.586c-32.977-16.332-64.934-33.762-103.387-33.863
		c-93.375-0.25-123.289,95.652-125.367,183.82c6.617,7.637,12.828,15.586,18.758,23.445
		C727.648,446.086,748.324,482.52,767.82,519.106z"/>
	<path style="fill:#EF94A3;" d="M1267.77,489.188c5.719,53.918-13.051,111.223-28.652,162.277
		c-15.336,50.188-33.477,99.75-57.973,146.25c-0.965,1.828-3.391,2.773-5.273,1.715c-0.641-0.363-1.215-0.789-1.836-1.176
		c3.762,4.352,6.121,9.949,6.121,16.152c0,13.695-11.105,24.793-24.805,24.793s-24.805-11.098-24.805-24.793
		c0-13.699,11.105-24.808,24.805-24.808c3.836,0,7.422,0.945,10.66,2.496c-18.211-17.18-23.172-46.266-27.371-69.832
		c-6.586-36.961-9.109-81.898-33.371-112.582c-31.297,61.945-20.41,130.984-19.492,198.738c1.895,2.629,3.043,5.832,3.043,9.316
		c0,3.512-1.168,6.734-3.086,9.371c-0.16,8.023-0.559,16.008-1.227,23.957c2.82-1.375,5.988-2.148,9.34-2.148
		c8.234,0,15.289,4.703,18.875,11.523c3.262-9.731,12.355-16.785,23.18-16.785c2.957,0,5.758,0.609,8.383,1.566
		c11.719-12.16,37.203,1.645,50.023-12.977c11.469-13.082,13.715-34.531,18.859-50.754c29.906-94.383,71.742-183.992,85.105-283.012
		c5.969-44.215,4.332-89.18-7.508-132.242c-5.332-19.398-12.133-38.266-18.758-57.164c-0.094-0.082-0.18-0.176-0.273-0.258
		l-1.012-0.953c-2.652-2.359-5.418-4.563-8.266-6.652c-0.574-0.422-1.148-0.852-1.727-1.262c-2.766-1.957-5.605-3.781-8.512-5.492
		c-0.73-0.426-1.461-0.844-2.199-1.254c-2.887-1.617-5.82-3.141-8.816-4.527c-0.77-0.355-1.555-0.68-2.328-1.023
		c-1.02-0.449-2.035-0.926-3.063-1.348l-0.012,0.117c-2.363,16.535-4.148,33.152-4.059,50.02
		C1232.02,390.832,1262.152,436.238,1267.77,489.188z"/>
	<path style="fill:#EF94A3;" d="M835.73,741.805c19.344,40.188,34.738,84.031,69.043,114.356
		c5.242,4.633,11.277,9.945,17.981,12.555c6.504-6.164,15.266-9.969,24.934-9.969c1.324,0,2.609,0.152,3.898,0.293
		c5.449-5.055,11.164-9.262,22.852-6.395c5.894,1.445,10.727,5.527,14.805,10.863c5.234-5.301,12.422-8.656,20.481-8.656
		c8.184,0,15.551,3.398,20.84,8.832c-0.051-0.598-0.18-1.172-0.18-1.785c0-3.797,1.07-7.313,2.805-10.402
		c-23.082-73.266-15.941-159.91-72.215-217.164c-6.805,36.965,7.527,76.973,9.875,113.711c1.316,20.598,0.285,56.578-25.211,63.922
		c-20.563,5.926-37.563-14.238-48.133-29.113c-17.106-24.059-30.145-50.988-41.789-78.039
		c-27.039-62.816-55.719-125.324-87.895-185.707c-19.496-36.586-40.172-73.02-65.18-106.176
		c-5.93-7.859-12.141-15.809-18.758-23.445l-0.016-0.02l-0.004,0.645c-0.191,8.543-0.121,17.012,0.176,25.309
		c0.023,0.641,0.066,1.27,0.09,1.91c0.137,3.406,0.309,6.785,0.519,10.125c0.078,1.195,0.172,2.367,0.258,3.555
		c0.195,2.754,0.41,5.484,0.656,8.18c0.121,1.355,0.258,2.688,0.391,4.027c0.254,2.488,0.52,4.945,0.809,7.375
		c0.164,1.379,0.328,2.742,0.504,4.102c0.305,2.355,0.629,4.668,0.973,6.957c0.188,1.297,0.375,2.602,0.578,3.875
		c0.383,2.398,0.789,4.727,1.203,7.039c0.191,1.063,0.367,2.152,0.566,3.195c0.625,3.289,1.277,6.5,1.969,9.582
		c4.621,20.648,10.191,41.102,16.566,61.367c12.926,20.781,24.43,42.719,37.637,62.098
		C777.086,653.309,812.176,692.871,835.73,741.805z"/>
	<path style="fill:#B46D9F;" d="M1298.273,498.477c-13.363,99.02-55.199,188.629-85.105,283.012
		c-5.145,16.223-7.391,37.672-18.859,50.754c-12.82,14.621-38.305,0.816-50.023,12.977c9.418,3.438,16.172,12.387,16.172,22.988
		c0,3.641-0.844,7.063-2.262,10.172l0.598,0.23c4.887-9.125,14.398-15.41,25.48-15.41c15.25,0,27.613,11.813,28.781,26.762
		c3.664-3.894,8.566-6.59,14.082-7.48c-0.164-3.867-0.152-7.746-0.039-11.629c-4.957-2.719-8.355-7.926-8.355-13.981
		c0-7.246,4.852-13.301,11.457-15.269c4.109-23.203,11.594-46.086,19.289-67.371c17.652-48.82,40.051-95.641,61.871-142.684
		c23.355-50.352,45.344-100.777,73.25-148.887c23.168-39.941,47.871-78.953,71.953-118.344c-0.531,0.34-1.063,0.676-1.594,1.02
		c-3.031,1.988-6.043,4.023-9,6.184l-0.91,0.656c-3.336,2.465-6.621,5.055-9.855,7.734c-0.457,0.375-0.918,0.75-1.375,1.133
		c-3.176,2.668-6.305,5.43-9.383,8.293l-1.293,1.215c-3.125,2.941-6.215,5.965-9.25,9.098c-0.02,0.02-0.039,0.043-0.063,0.063
		l-0.602,0.633c-3.145,3.27-6.25,6.629-9.301,10.09l-0.148,0.172c-3.012,3.422-5.969,6.949-8.887,10.543l-0.996,1.219
		c-2.797,3.477-5.547,7.039-8.262,10.66c-0.391,0.523-0.781,1.043-1.164,1.563c-2.703,3.648-5.375,7.359-7.996,11.141l-0.895,1.305
		c-2.727,3.953-5.414,7.961-8.051,12.051l-0.023,0.035c-2.695,4.164-5.336,8.406-7.941,12.695l-0.555,0.906
		c-2.492,4.109-4.938,8.285-7.348,12.5c-0.32,0.563-0.648,1.121-0.965,1.684c-2.359,4.141-4.676,8.324-6.969,12.547
		c-0.316,0.582-0.629,1.172-0.938,1.754c-2.301,4.266-4.566,8.563-6.793,12.899c-0.191,0.371-0.379,0.746-0.57,1.121l-0.023,0.039
		c-4.664,9.113-9.18,18.367-13.574,27.715c-0.098,0.199-0.191,0.402-0.289,0.605c-0.184,0.398-0.375,0.801-0.559,1.195
		c-2.035,4.359-4.043,8.734-6.027,13.125c-0.293,0.652-0.59,1.305-0.883,1.961c-1.703,3.785-3.375,7.59-5.035,11.395
		c-1.531,3.484-3.031,6.98-4.523,10.473c-0.871,2.039-1.754,4.074-2.609,6.113c-2.223,5.254-4.41,10.516-6.563,15.766l-0.328,0.801
		c-0.555,1.363-1.102,2.723-1.652,4.086c-1.633,4.019-3.258,8.031-4.852,12.035c-1.066,2.672-2.113,5.328-3.168,7.992
		c-1.102,2.797-2.207,5.594-3.293,8.379c-1.188,3.043-2.367,6.074-3.535,9.094c-0.836,2.144-1.656,4.281-2.477,6.41
		c-1.383,3.594-2.762,7.18-4.121,10.734c-0.566,1.484-1.125,2.957-1.691,4.434c-1.238,3.242-2.469,6.484-3.688,9.688
		c-0.27,0.703-0.531,1.402-0.801,2.102c-1.723,4.543-3.434,9.047-5.121,13.5c-1.586,4.176-3.156,8.305-4.715,12.391
		c-0.234,0.625-0.477,1.254-0.711,1.875c-0.215,0.563-0.422,1.105-0.637,1.664c5.063-13.262,10.285-27.09,15.672-41.219
		c0.473-1.246,0.941-2.473,1.418-3.727l0.18-0.473c0.031-0.078,0.063-0.156,0.094-0.234c1.359-3.559,2.738-7.137,4.121-10.734
		c0.281-0.731,0.555-1.453,0.84-2.184c0.207-0.555,0.422-1.098,0.637-1.652c0.328-0.852,0.668-1.719,1-2.574
		c1.168-3.023,2.344-6.047,3.535-9.094c0.195-0.504,0.387-1.004,0.586-1.508c0.273-0.691,0.547-1.387,0.813-2.082
		c0.629-1.594,1.266-3.195,1.895-4.789c1.055-2.664,2.102-5.32,3.168-7.992c0.063-0.164,0.133-0.332,0.195-0.496
		c0.246-0.621,0.496-1.242,0.746-1.863c1.285-3.219,2.602-6.445,3.91-9.676c0.664-1.629,1.313-3.254,1.98-4.887l0.059-0.137
		c1.934-4.715,3.891-9.434,5.875-14.152l0.176-0.422c0.145-0.352,0.301-0.703,0.453-1.055c0.855-2.039,1.738-4.074,2.609-6.113
		c0.961-2.238,1.906-4.484,2.875-6.723c0.254-0.582,0.504-1.16,0.754-1.742c0.293-0.672,0.598-1.34,0.895-2.008
		c0.418-0.969,0.828-1.945,1.25-2.91c0.316-2.547,0.68-5.086,0.977-7.633c8.965-75.41,24.012-180.949-31.48-243.785
		c-2.414-2.738-5-5.285-7.66-7.738c-0.043-0.043-0.086-0.094-0.129-0.137c0,0.004,0.004,0.008,0.004,0.012
		c6.625,18.898,13.426,37.766,18.758,57.164C1302.605,409.297,1304.242,454.262,1298.273,498.477z"/>
	<path style="fill:#B46D9F;" d="M980.93,880.578c0.785-6.652,3.852-12.555,8.313-17.07c-4.078-5.336-8.91-9.418-14.805-10.863
		c-11.688-2.867-17.402,1.34-22.852,6.395C964.773,860.461,975.844,868.883,980.93,880.578z"/>
	<path style="fill:#EEC0C0;" d="M455.566,1046.563c21.672,5.332,65.719,11.922,69.254-20.113
		c1.547-14.055-9.59-30.191-16.078-41.621c-9.41-16.57-21.105-34.102-22.543-53.52c47.738,23.488,93.215,51.281,141.934,72.859
		c46.262,20.484,98.262,36.699,148.973,25.094c1.531-0.355,3.078-2.133,2.875-3.781c-6.98-56.457-78.949-74.273-121.57-95.934
		c-25.656-13.039-52.938-31.262-52.664-63.176c0.258-29.828,27.789-29.68,50.531-26.496c24.027,3.359,80.324,20.113,59.988-24.617
		c-16.441-36.168-47.641-52.543-75.551-78.231c-42-38.648,2.82-88.848-9.144-135.367c-19.309-75.051-83.613-115.078-148.906-150.75
		c-19.148-0.094-38.695,3.75-58.516,12.867c-90.141,41.48-59.887,101.289-70.473,178.852c-4.051,29.66-26.77,51.133-45.449,73.387
		c-23.699,28.234-41.473,59.039-55.207,92.988c-14.445,35.711-26.391,90.019-22.391,138.617
		c28.074,22.91,60.051,40.574,93.719,54.555C366.539,1019.695,411.133,1035.637,455.566,1046.563z"/>
	<path style="fill:#EF94A3;" d="M574.625,1101.32c44.781,2.781,98.367,19.305,139.621-5.16c14.887-8.828,23.91-24.223,39.332-32.719
		c10.117-5.574,21.27-5.355,32.082-6.672c-0.039-0.469-0.141-0.914-0.141-1.395c0-8.84,7.164-16.008,16.004-16.008
		c2.703,0,5.211,0.734,7.445,1.918c4.531-18.145-6.008-49.273-9.121-60.535c-3.074-11.113-1.023-20.102,3.43-28.16l-0.023-0.258
		c0-10.137,7.074-18.586,16.543-20.793c8.141-9.082,16.082-18.41,18.676-30.234c1.281-5.84,3.012-14.246,1.953-19.953
		c-1.465-7.922-11.973-21.625-8.734-29.043c7.477-17.129,11.098-25.09,4.852-43.891c-12.594-37.91-46.399-69.301-72.418-98.203
		c-24.484-27.203-41.797-57.391-61.664-87.953c-22.184-34.113-46.844-67.707-75.066-97.098
		c-32.164-33.504-74.938-52.09-117.086-71.414c-0.141-0.027-0.277-0.063-0.418-0.09c-0.898-0.172-1.793-0.359-2.695-0.516
		c-1.359-0.238-2.727-0.438-4.094-0.641c-0.984-0.141-1.969-0.285-2.953-0.406c-1.359-0.176-2.727-0.332-4.09-0.469
		c-1.008-0.102-2.023-0.176-3.035-0.258c-1.355-0.102-2.703-0.219-4.063-0.289c-2.094-0.105-4.191-0.164-6.297-0.172
		c65.293,35.672,129.598,75.699,148.906,150.75c11.965,46.519-32.856,96.719,9.144,135.367
		c27.91,25.688,59.109,42.063,75.551,78.231c20.336,44.73-35.961,27.977-59.988,24.617c-22.742-3.184-50.273-3.332-50.531,26.496
		c-0.273,31.914,27.008,50.137,52.664,63.176c42.621,21.66,114.59,39.477,121.57,95.934c0.203,1.648-1.344,3.426-2.875,3.781
		c-50.711,11.605-102.711-4.609-148.973-25.094c-48.719-21.578-94.195-49.371-141.934-72.859
		c1.438,19.418,13.133,36.949,22.543,53.52c6.488,11.43,17.625,27.566,16.078,41.621c-3.535,32.035-47.582,25.445-69.254,20.113
		c-44.434-10.926-89.027-26.867-131.219-44.387c-33.668-13.98-65.645-31.645-93.719-54.555c-0.027-0.023-0.055-0.043-0.082-0.063
		c0.063,0.777,0.168,1.539,0.242,2.316c0.082,0.871,0.18,1.731,0.27,2.598c0.285,2.688,0.621,5.348,1.012,7.984
		c0.148,1.016,0.297,2.027,0.465,3.039c0.414,2.523,0.895,5.016,1.41,7.492c0.203,0.969,0.383,1.949,0.602,2.906
		c0.766,3.336,1.598,6.625,2.559,9.84c0.156,0.523,0.297,1.063,0.457,1.586c0.516,1.648,1.082,3.258,1.652,4.867
		c0.285,0.801,0.555,1.609,0.852,2.398c0.539,1.441,1.129,2.852,1.719,4.262c0.387,0.922,0.77,1.848,1.176,2.754
		c0.582,1.293,1.199,2.559,1.824,3.82c0.484,0.977,0.973,1.957,1.484,2.914c0.621,1.172,1.273,2.324,1.941,3.465
		c0.582,1,1.176,1.988,1.793,2.965c0.668,1.063,1.355,2.113,2.063,3.145c0.684,1,1.395,1.98,2.113,2.953
		c0.719,0.961,1.441,1.918,2.191,2.852c0.797,0.984,1.625,1.941,2.461,2.891c0.758,0.863,1.508,1.727,2.301,2.559
		c0.918,0.965,1.887,1.891,2.852,2.82c0.789,0.754,1.563,1.52,2.383,2.246c1.07,0.953,2.199,1.848,3.328,2.746
		c0.797,0.641,1.566,1.297,2.391,1.906c0.75,0.559,1.547,1.066,2.328,1.586c40.555,16.641,80.016,35.938,122.906,46.219
		C454.629,1098.422,516.129,1097.691,574.625,1101.32z"/>
	<path style="fill:#EEC0C0;" d="M1894.852,1163.57c-31.277-18.363-65.621-30.926-101.066-39.586
		c-44.379-10.844-90.891-19.754-136.477-23.746c-22.234-1.945-66.766-1.695-65.344,30.504c0.621,14.121,14.102,28.356,22.266,38.66
		c11.84,14.934,26.086,30.461,30.48,49.426c-50.777-15.887-99.973-36.379-151.422-50.23
		c-48.859-13.152-102.734-21.199-151.059-1.953c-1.465,0.586-2.715,2.582-2.266,4.18c0.164,0.566,0.367,1.102,0.543,1.664
		c13.012,0.875,23.34,11.598,23.34,24.84c0,2.633-0.523,5.121-1.277,7.504c29.621,24.684,78.668,31.16,112.238,42.145
		c27.355,8.949,57.105,22.777,61.734,54.355c4.316,29.512-22.914,33.59-45.871,33.934c-24.262,0.363-82.465-7.559-55.508,33.516
		c21.797,33.223,55.133,44.625,86.652,65.719c47.43,31.758,10.836,88.234,29.801,132.371
		c30.574,71.191,100.242,100.887,170.219,126.121c18.949-2.84,37.691-9.617,55.887-21.68
		c82.715-54.805,43.648-109.27,42.219-187.535c-0.547-29.934,18.609-54.629,33.656-79.488
		c19.082-31.535,31.93-64.707,40.289-100.359C1902.688,1266.449,1906.219,1210.965,1894.852,1163.57z"/>
	<path style="fill:#EF94A3;" d="M1551.617,1566.871c-18.965-44.137,17.629-100.613-29.801-132.371
		c-31.52-21.094-64.855-32.496-86.652-65.719c-26.957-41.074,31.246-33.152,55.508-33.516c22.957-0.344,50.188-4.422,45.871-33.934
		c-4.629-31.578-34.379-45.406-61.734-54.355c-33.57-10.984-82.617-17.461-112.238-42.145c-3.207,10.121-12.559,17.5-23.73,17.5
		c-13.805,0-25.012-11.195-25.012-25.004c0-13.816,11.207-25.008,25.012-25.008c0.566,0,1.105,0.133,1.668,0.168
		c-0.176-0.563-0.379-1.098-0.543-1.664c-0.449-1.598,0.801-3.594,2.266-4.18c48.324-19.246,102.199-11.199,151.059,1.953
		c51.449,13.851,100.645,34.344,151.422,50.23c-4.395-18.965-18.641-34.492-30.48-49.426c-8.164-10.305-21.645-24.539-22.266-38.66
		c-1.422-32.199,43.109-32.449,65.344-30.504c45.586,3.992,92.098,12.902,136.477,23.746c35.445,8.66,69.789,21.223,101.066,39.586
		l0,0l-0.047-0.195c-2.934-12.18-6.871-23.801-11.938-34.461c-0.254-0.531-0.492-1.074-0.75-1.602
		c-0.75-1.523-1.551-3.012-2.344-4.492c-0.414-0.766-0.813-1.543-1.238-2.301c-0.754-1.328-1.543-2.621-2.336-3.91
		c-0.531-0.863-1.055-1.727-1.602-2.574c-0.77-1.18-1.57-2.332-2.375-3.473c-0.629-0.902-1.266-1.793-1.926-2.668
		c-0.793-1.059-1.605-2.094-2.441-3.113c-0.73-0.902-1.477-1.789-2.234-2.668c-0.82-0.945-1.656-1.875-2.516-2.785
		c-0.477-0.512-0.945-1.035-1.434-1.531c-11.598-4.512-23.297-8.777-35.34-12.258c-46.684-13.469-94.941-13.188-143.078-13.793
		c-56.246-0.699-110.797-16.039-167.098-5.531c-25.113,4.688-47.766,19.105-72.117,26.383c-23.113,6.91-47.559-8.223-70.703-3.418
		c-15.375,3.191-28.492,15.426-39.941,25.539c-5.582,4.93-12.02,10.582-17.914,16.75c0.93,2.859,1.469,5.906,1.469,9.086
		c0,13.465-9.004,24.82-21.316,28.414c-2.094,13.063-0.594,26.305,2.859,39.543c2.375,9.09,6.586,17.727,11.176,25.863
		c7.746,13.734-11.391,17.539-21.602,20.328c-3.977,1.074-7.352,2.488-10.223,4.148c2.742,2.871,4.453,6.738,4.453,11.023
		c0,8.836-7.176,16.008-16.012,16.008c-0.504,0-0.973-0.105-1.457-0.145c0.973,9.895,5.66,20.539,11.941,29.797
		c9.531,14.047,21.313,26.558,32.535,39.246c19.152,21.648,35.961,45.707,53.98,68.32c46.281,58.078,95.43,114.375,146.441,168.359
		c23.055,24.387,47.289,47.453,72.969,68.73c-13.758-7.016-27.152-14.535-40.035-22c0.652,0.375,1.301,0.75,1.949,1.133
		c1.473,0.848,2.949,1.695,4.43,2.543c0.719,0.414,1.438,0.828,2.156,1.234c2.078,1.18,4.156,2.359,6.254,3.539
		c0.797,0.449,1.605,0.895,2.41,1.34c1.355,0.754,2.715,1.512,4.082,2.266c1.023,0.559,2.047,1.121,3.07,1.676
		c1.188,0.645,2.371,1.285,3.566,1.926c1.07,0.574,2.145,1.152,3.227,1.723c1.32,0.703,2.645,1.391,3.969,2.082
		c1.621,0.848,3.25,1.684,4.883,2.52c1.34,0.68,2.676,1.363,4.02,2.035c1.141,0.57,2.285,1.125,3.43,1.691
		c1.109,0.543,2.227,1.086,3.344,1.625c1.203,0.582,2.41,1.156,3.621,1.727c1.078,0.508,2.164,1.008,3.246,1.508
		c1.227,0.566,2.457,1.137,3.688,1.691c2.031,0.918,4.063,1.809,6.105,2.684c1.266,0.547,2.543,1.078,3.816,1.609
		c1.031,0.43,2.059,0.863,3.094,1.277c1.305,0.535,2.621,1.051,3.93,1.566c1,0.398,2.004,0.781,3.004,1.16
		c1.344,0.52,2.688,1.023,4.035,1.52c0.922,0.34,1.848,0.66,2.77,0.992c2.543,0.895,5.086,1.762,7.641,2.59
		c0.906,0.297,1.813,0.594,2.719,0.883c1.383,0.43,2.766,0.836,4.148,1.246c0.961,0.285,1.922,0.563,2.879,0.836
		c1.395,0.395,2.793,0.773,4.188,1.145c0.934,0.242,1.871,0.477,2.805,0.703c4.891,1.227,9.797,2.277,14.715,3.145
		c0.934,0.164,1.871,0.332,2.805,0.488c1.402,0.223,2.809,0.426,4.211,0.621c0.965,0.133,1.93,0.254,2.895,0.375
		c1.406,0.172,2.82,0.344,4.227,0.484c0.902,0.086,1.805,0.152,2.699,0.223c2.594,0.215,5.191,0.371,7.781,0.465
		c0.945,0.031,1.887,0.082,2.832,0.102c1.367,0.023,2.738,0.008,4.105,0c1.008-0.012,2.02-0.02,3.027-0.051
		c1.363-0.039,2.723-0.086,4.082-0.16c1.023-0.059,2.043-0.141,3.059-0.219c1.352-0.102,2.699-0.195,4.051-0.336
		c1.949-0.203,3.898-0.453,5.84-0.742l0.406-0.051c-0.012,0-0.027-0.012-0.035-0.012
		C1651.859,1667.758,1582.191,1638.063,1551.617,1566.871z"/>
	<path style="fill:#B46D9F;" d="M1582.695,1660.191c-25.68-21.277-49.914-44.344-72.969-68.73
		c-51.012-53.984-100.16-110.281-146.441-168.359c-18.02-22.613-34.828-46.672-53.98-68.32
		c-11.223-12.688-23.004-25.199-32.535-39.246c-6.281-9.258-10.969-19.902-11.941-29.797c-8.145-0.75-14.543-7.523-14.543-15.863
		c0-8.84,7.164-16.004,16-16.004c4.555,0,8.645,1.922,11.559,4.98c2.871-1.66,6.246-3.074,10.223-4.148
		c10.211-2.789,29.348-6.594,21.602-20.328c-4.59-8.137-8.801-16.773-11.176-25.863c-3.453-13.238-4.953-26.48-2.859-39.543
		c-2.641,0.773-5.422,1.207-8.316,1.207c-1.957,0-3.867-0.219-5.73-0.578c-0.617,1.531-1.219,3.063-1.867,4.574
		c1.063,2.539,1.66,5.324,1.66,8.25c0,9.168-5.793,16.918-13.891,19.965c5.82,3.832,9.68,10.402,9.68,17.887
		c0,11.816-9.582,21.402-21.402,21.402c-5.594,0-10.645-2.199-14.457-5.711l0.113,1.129c0,9.664-6.438,17.727-15.223,20.391
		c2.359,4.82,3.813,10.168,3.813,15.895c0,20.031-16.246,36.277-36.277,36.277c-13.379,0-24.926-7.316-31.223-18.086
		c-1.023,0.441-2.051,0.871-3.082,1.297c-1.336,4.387-3.598,8.348-6.68,11.59c6.195,4.551,10.266,11.828,10.266,20.102
		c0,0.645-0.141,1.25-0.191,1.887c4.66-0.207,9.27-0.203,13.832,0.023c2.93-3.23,7.117-5.301,11.82-5.301
		c6.668,0,12.379,4.09,14.785,9.898c10.559,3.371,20.57,8.723,29.766,16.801c17.242,15.141,31.957,32.773,46.914,50.102
		c13.359,15.48,28.152,29.273,41.867,44.336c35.969,39.504,65.941,85.004,96.129,128.969
		c42.746,62.262,71.352,130.949,97.762,200.824l0.004,0.004v-0.039c0.07-4.367-0.035-8.75-0.254-13.148l-0.051-1.102
		c-0.234-4.266-0.617-8.539-1.113-12.824c-0.055-0.473-0.105-0.949-0.164-1.422c-0.527-4.277-1.172-8.566-1.934-12.867l-0.23-1.242
		c-0.813-4.41-1.73-8.828-2.777-13.262l-0.125-0.5c-2.203-9.207-4.914-18.457-8.07-27.73l-0.203-0.613
		c-1.531-4.473-3.176-8.949-4.906-13.434l-0.457-1.184c-1.723-4.41-3.535-8.816-5.434-13.23l-0.535-1.223
		c-1.941-4.461-3.957-8.926-6.066-13.387l-0.352-0.738c-6.637-13.973-14.066-27.922-22.094-41.789l-0.508-0.883
		c-2.57-4.422-5.203-8.84-7.887-13.246l-0.691-1.133c-2.691-4.402-5.434-8.785-8.219-13.164l-0.566-0.879
		c-8.805-13.762-18.051-27.395-27.551-40.816l-0.031-0.047c-0.199-0.277-0.398-0.559-0.598-0.84c-2.316-3.262-4.648-6.5-6.988-9.734
		c-1.566-2.176-3.141-4.336-4.715-6.5c-1.914-2.617-3.836-5.234-5.758-7.836c-1.551-2.094-3.105-4.18-4.664-6.262
		c-1.965-2.629-3.922-5.254-5.891-7.855c-1.113-1.477-2.227-2.934-3.336-4.402c-3.234-4.258-6.473-8.492-9.695-12.684
		c-0.887-1.156-1.773-2.305-2.66-3.453c-3.57-4.625-7.133-9.215-10.676-13.758c-0.449-0.57-0.895-1.145-1.344-1.715
		c-2.691-3.445-5.352-6.828-8.012-10.219c-5.609-7.148-11.176-14.219-16.609-21.117c-1.922-2.438-3.828-4.867-5.723-7.27
		c-0.918-1.168-1.836-2.344-2.746-3.504c-0.508-0.641-0.996-1.266-1.492-1.91c11.004,14.039,22.629,28.723,34.469,43.871
		c0.543,0.695,1.086,1.391,1.629,2.094c3.434,4.395,6.875,8.832,10.332,13.305c0.988,1.281,1.969,2.559,2.961,3.844
		c3.18,4.129,6.355,8.289,9.535,12.477c0.707,0.934,1.414,1.844,2.121,2.777l0.113,0.148c0.379,0.5,0.754,1.008,1.133,1.516
		c1.969,2.602,3.926,5.227,5.891,7.855c0.852,1.141,1.711,2.266,2.563,3.414l0.582,0.781c0.504,0.684,1.012,1.379,1.52,2.066
		c1.922,2.602,3.84,5.219,5.758,7.836c0.684,0.934,1.367,1.855,2.051,2.797l0.664,0.914c0.672,0.926,1.332,1.863,2,2.789
		c1.043,1.438,2.098,2.859,3.129,4.305c35.602,40.672,73.586,78.133,118.609,104.648c4.094,2.406,8.25,4.848,12.461,7.289
		l0.406,0.238l0.156,0.086C1555.543,1645.656,1568.938,1653.176,1582.695,1660.191z"/>
	<path style="fill:#B46D9F;" d="M1344.086,1086.922c0.828,1.938,1.297,4.066,1.297,6.301c0,8.844-7.172,16.004-16,16.004
		c-8.848,0-16.012-7.16-16.012-16.004c0-1.25,0.18-2.457,0.453-3.629c-4.469,0.375-8.883,0.73-13.258,1.074
		c0.363,1.504,0.605,3.059,0.605,4.668c0,4.727-1.695,9.016-4.422,12.461c-0.152,1.547-0.363,3.094-0.547,4.637
		c9.117,2.879,16.332,9.984,19.277,19.035c5.895-6.168,12.332-11.82,17.914-16.75c11.449-10.113,24.566-22.348,39.941-25.539
		c23.145-4.805,47.59,10.328,70.703,3.418c24.352-7.277,47.004-21.695,72.117-26.383c56.301-10.508,110.852,4.832,167.098,5.531
		c48.137,0.605,96.395,0.324,143.078,13.793c12.043,3.48,23.742,7.746,35.34,12.258l-1.301-1.258
		c-0.684-0.672-1.367-1.344-2.07-1.992l-0.723-0.656c-0.641-0.578-1.301-1.125-1.957-1.688c-0.598-0.5-1.184-1.027-1.793-1.516
		l-1.117-0.855c-0.676-0.52-1.348-1.039-2.027-1.539c-0.777-0.57-1.566-1.113-2.359-1.652c-0.508-0.348-1.012-0.691-1.531-1.023
		l-1.234-0.832c-1.531-0.957-3.105-1.867-4.711-2.73l-0.609-0.305c-0.605-0.324-1.223-0.621-1.84-0.922
		c-1.27-0.637-2.563-1.242-3.883-1.816l-0.348-0.152c-0.617-0.262-1.23-0.535-1.859-0.789c-2.02-0.813-4.086-1.582-6.219-2.266
		c-63.746-20.23-129.297-29.828-195.625-32.52c-46.637,11.242-98.23,20.305-150.148,27.594
		C1433.742,1077.68,1387.324,1082.902,1344.086,1086.922z"/>
	<path style="fill:#EEC0C0;" d="M1369.613,573.769c-19.34,35.801-13.922,66.086,4.473,100.473
		c8.559,15.996,16.258,33.68,9.879,51.594c-5.02,14.078-14.262,26.992-22.516,39.305c-16.508,24.637-35.133,48.211-48.117,75.012
		c-7.484,15.461-13.32,35.836,1.363,48.879c12.879,11.442,47.898-0.746,61.742-3.785c25.906-5.695,53.266-16.262,80.004-18.047
		c-1.313,29.922,1.574,56.359,36.199,60.684c26.508,3.316,54.035,0.824,80.703,2.144c33.223,1.645,67.273,4.973,99.926,11.231
		c46.129,8.844,108.371,12.914,147.352-18.449c16.965-13.648,29.887-30.777,42.035-48.547
		c13.922-32.121,20.078-64.945,12.641-92.313c-11.223-41.25-48.277-64.145-67.652-100.664
		c-17.652-33.27-19.684-60.078-48.469-85.926c-24.523-22.016-54.148-39.055-79.035-60.055
		c-29.738-25.098-32.422-49.059-36.969-86.035c-9.324-75.832-54.145-128.977-136.301-107.422c-0.617,0.16-1.223,0.363-1.844,0.535
		c-23.117,32.387-42.723,67-61.766,102.008C1419.547,487.992,1393.168,530.16,1369.613,573.769z"/>
	<path style="fill:#EF94A3;" d="M1384.609,482.66c-27.906,48.109-49.895,98.535-73.25,148.887
		c-21.82,47.043-44.219,93.863-61.871,142.684c-7.695,21.285-15.18,44.168-19.289,67.371c1.453-0.434,2.961-0.734,4.547-0.734
		c8.832,0,16.004,7.168,16.004,16.004c0,8.84-7.172,16.008-16.004,16.008c-2.785,0-5.363-0.773-7.648-2.027
		c-0.113,3.883-0.125,7.762,0.039,11.629c1.281-0.207,2.582-0.348,3.926-0.348c13.695,0,24.801,11.102,24.801,24.801
		c0,4.887-1.461,9.41-3.898,13.246c6.766,0.543,12.719,3.82,16.871,8.676c0.484,0.117,0.961,0.234,1.438,0.348
		c3.898,0.945,7.73,2.039,11.547,3.184c-0.371-1.711-0.59-3.473-0.59-5.293c0-13.808,11.207-25.008,25.012-25.008
		s25.012,11.199,25.012,25.008c0,8.672-4.426,16.305-11.129,20.789c0.645,0.332,1.297,0.609,1.938,0.945
		c19.535,10.234,24.828,28.57,27.902,48.613c11.898,77.598,119.699,33.762,169.363,28.656c32.676-3.355,65.988-1.723,98.82-4.742
		c39.594-3.641,79.082-8.797,118.656-12.832c5.746-2.383,11.371-4.816,16.781-7.32c44.176-16.105,91.617-74.172,113.156-132.961
		c-1.355,2.012-2.719,4.016-4.086,6.02c-12.148,17.769-25.07,34.898-42.035,48.547c-38.98,31.363-101.223,27.293-147.352,18.449
		c-32.652-6.258-66.703-9.586-99.926-11.231c-26.668-1.32-54.195,1.172-80.703-2.144c-34.625-4.324-37.512-30.762-36.199-60.684
		c-26.738,1.785-54.098,12.352-80.004,18.047c-13.844,3.039-48.863,15.227-61.742,3.785c-14.684-13.043-8.848-33.418-1.363-48.879
		c12.984-26.801,31.609-50.375,48.117-75.012c8.254-12.313,17.496-25.227,22.516-39.305c6.379-17.914-1.32-35.598-9.879-51.594
		c-18.395-34.387-23.813-64.672-4.473-100.473c23.555-43.609,49.934-85.777,73.648-129.379
		c19.043-35.008,38.648-69.621,61.766-102.008c0.008-0.004,0.008-0.004,0.008-0.008c-0.152,0.043-0.309,0.098-0.461,0.137
		c-17.066,4.746-33.016,12.199-48.012,21.805C1432.48,403.707,1407.777,442.719,1384.609,482.66z"/>
	<path style="fill:#B46D9F;" d="M1272.008,955.981c6.43,4.48,10.672,11.914,10.672,20.355c0,5.883-2.137,11.215-5.563,15.473
		c0.289,0.625,0.57,1.262,0.859,1.898c10.813,0.617,19.418,9.508,19.418,20.481c0,3.965-1.176,7.644-3.125,10.785
		c13.555,1.398,24.16,12.719,24.16,26.633c0,12.75-8.898,23.371-20.805,26.148c0.074,2.129,0.148,4.27,0.16,6.422
		c1.301,1.945,2.219,4.145,2.781,6.488c4.375-0.344,8.789-0.707,13.262-1.082c1.652-7.066,7.961-12.359,15.555-12.359
		c6.59,0,12.246,3.996,14.703,9.695c44.246-4.113,91.848-9.512,139.516-16.539c9.754-1.441,19.512-2.945,29.246-4.523
		c1.48-0.242,2.965-0.492,4.449-0.734c10.426-1.719,20.824-3.512,31.152-5.402c0.672-0.125,1.34-0.254,2.016-0.375
		c10.938-2.02,21.809-4.129,32.551-6.348c0.133-0.027,0.258-0.055,0.387-0.082c11.074-2.293,22.02-4.691,32.793-7.211l0.137-0.031
		c3.938-0.922,7.848-1.859,11.734-2.813l0.313-0.074c3.836-0.941,7.645-1.895,11.426-2.867l0.465-0.117
		c3.738-0.965,7.457-1.941,11.145-2.934l0.527-0.145c3.672-0.988,7.316-2,10.934-3.023l0.531-0.148
		c3.598-1.023,7.172-2.059,10.711-3.109l0.566-0.172c3.523-1.051,7.012-2.117,10.465-3.195l0.602-0.191
		c3.438-1.082,6.848-2.18,10.227-3.293l0.57-0.188c3.375-1.121,6.723-2.254,10.023-3.406l0.492-0.172
		c3.32-1.16,6.598-2.336,9.832-3.527l0.453-0.168c3.25-1.203,6.465-2.422,9.633-3.656l0.281-0.113
		c3.219-1.254,6.391-2.527,9.512-3.824l0.031-0.012l0,0c-39.574,4.035-79.063,9.191-118.656,12.832
		c-32.832,3.019-66.145,1.387-98.82,4.742c-49.664,5.105-157.465,48.941-169.363-28.656c-3.074-20.043-8.367-38.379-27.902-48.613
		c-0.641-0.336-1.293-0.613-1.938-0.945c-3.977,2.66-8.746,4.219-13.883,4.219c-11.988,0-21.992-8.449-24.422-19.715
		c-3.816-1.145-7.648-2.238-11.547-3.184c-0.477-0.113-0.953-0.23-1.438-0.348c3.676,4.297,5.953,9.816,5.953,15.93
		C1274.789,948.84,1273.727,952.602,1272.008,955.981z"/>
	<path style="fill:#EEC0C0;" d="M1380.82,1580.984c-20.727-35.012-49.48-45.961-88.426-47.902
		c-18.125-0.906-37.25-3.406-49.316-18.105c-9.484-11.555-15.789-26.121-22.094-39.535c-12.621-26.84-23.234-54.941-39.523-79.879
		c-9.395-14.375-23.859-29.871-42.598-24.004c-16.441,5.148-24.031,41.445-28.551,54.875c-8.461,25.141-13.5,54.035-25.734,77.875
		c-24.969-16.535-49.117-27.676-70.66-0.219c-16.492,21.012-28.531,45.895-43.399,68.078c-18.519,27.629-38.906,55.102-61.09,79.867
		c-31.332,34.988-66.875,86.242-60.066,135.813c2.961,21.57,10.996,41.465,19.973,61.031c20.363,28.473,45.324,50.66,72.617,58.367
		c41.141,11.637,79.844-8.34,121.133-6.148c37.609,2.004,61.629,14.07,98.613,2.711c31.5-9.688,61.363-26.309,92.184-36.828
		c36.824-12.566,58.742-2.523,92.785,12.617c69.805,31.059,138.445,20.012,162.273-61.516c0.18-0.617,0.316-1.242,0.492-1.855
		c-15.859-36.496-35.43-71.125-55.633-105.48C1428.637,1667.961,1406.074,1623.633,1380.82,1580.984z"/>
	<path style="fill:#EF94A3;" d="M1417.938,1571.273c-30.188-43.965-60.16-89.465-96.129-128.969
		c-13.715-15.063-28.508-28.855-41.867-44.336c-14.957-17.328-29.672-34.961-46.914-50.102c-9.195-8.078-19.207-13.43-29.766-16.801
		c0.781,1.883,1.219,3.941,1.219,6.109c0,8.84-7.172,16-16.004,16c-8.84,0-16.004-7.16-16.004-16c0-4.137,1.605-7.867,4.184-10.707
		c-4.563-0.227-9.172-0.23-13.832-0.023c-0.984,12.914-11.664,23.121-24.816,23.121c-10.477,0-19.422-6.457-23.145-15.602
		c-3.195,0.895-6.371,1.867-9.5,2.977c6.266,3.633,10.535,10.34,10.535,18.105c0,11.617-9.41,21.008-21.008,21.008
		c-9.922,0-18.188-6.898-20.383-16.156c-4.734,6.965-8.66,14.598-12.391,21.348c-4.734,8.57-8.652,18.012-18.383,21.586
		c-11.84,4.355-21.438-2.637-31.77-7.02c-11.621-4.926-26.234-2.949-38.676-3.973c-10.098-0.828-22.945,15.008-29.23,20.355
		c-14.723,12.527-21.969,34.578-29.008,51.93c-35.648,87.906-81.582,175.871-98.039,270c6.328,40.324,27.207,86.422,55.379,121.355
		c-1.027-2.195-2.047-4.398-3.055-6.602c-8.977-19.566-17.012-39.461-19.973-61.031c-6.809-49.57,28.734-100.824,60.066-135.813
		c22.184-24.766,42.57-52.238,61.09-79.867c14.867-22.184,26.906-47.066,43.399-68.078c21.543-27.457,45.691-16.316,70.66,0.219
		c12.234-23.84,17.273-52.734,25.734-77.875c4.52-13.43,12.109-49.727,28.551-54.875c18.738-5.867,33.203,9.629,42.598,24.004
		c16.289,24.938,26.902,53.039,39.523,79.879c6.305,13.414,12.609,27.98,22.094,39.535c12.066,14.699,31.191,17.199,49.316,18.105
		c38.945,1.941,67.699,12.891,88.426,47.902c25.254,42.648,47.816,86.977,72.98,129.762c20.203,34.355,39.773,68.984,55.633,105.48
		c0,0.004,0,0.004,0,0.012c0.039-0.117,0.059-0.246,0.086-0.363c0.914-3.277,1.707-6.574,2.41-9.883
		c0.094-0.453,0.188-0.906,0.281-1.359c0.672-3.293,1.246-6.602,1.719-9.926c0.023-0.172,0.055-0.34,0.082-0.512
		c1.016-7.305,1.57-14.676,1.688-22.098C1489.289,1702.223,1460.684,1633.535,1417.938,1571.273z"/>
	<path style="fill:#B46D9F;" d="M944.059,1412.195c6.285-5.348,19.133-21.184,29.23-20.355c12.441,1.023,27.055-0.953,38.676,3.973
		c10.332,4.383,19.93,11.375,31.77,7.02c9.73-3.574,13.648-13.016,18.383-21.586c3.73-6.75,7.656-14.383,12.391-21.348
		c-0.375-1.563-0.617-3.176-0.617-4.852c0-11.602,9.402-21.004,21-21.004c3.832,0,7.375,1.105,10.473,2.898
		c3.129-1.109,6.305-2.082,9.5-2.977c-1.184-2.906-1.863-6.074-1.863-9.406c0-5.5,1.832-10.543,4.836-14.672
		c-1.816-0.988-3.508-2.152-5.063-3.492c-0.59,0.109-1.172,0.219-1.758,0.316c-0.121,11.719-9.637,21.184-21.379,21.184
		c-10.719,0-19.523-7.91-21.078-18.191c-1.008-0.023-2.012-0.039-3.008-0.082c-3.809,5.922-10.422,9.859-17.98,9.859
		c-8.23,0-15.293-4.695-18.875-11.516c-3.266,9.723-12.356,16.777-23.18,16.777c-0.961,0-1.879-0.176-2.813-0.281
		c-3.488,10.262-13.098,17.691-24.527,17.691c-14.363,0-26.008-11.641-26.008-26.008c0-3.211,0.656-6.242,1.723-9.082
		c-10.906-3.766-18.785-14.004-18.785-26.191c0-3.098,0.629-6.031,1.566-8.828c-1.207,0.219-2.438,0.375-3.711,0.375
		c-11.441,0-20.719-9.277-20.719-20.715c0-0.957,0.152-1.867,0.277-2.789c-2.504,0.859-5.152,1.422-7.949,1.422
		c-13.695,0-24.805-11.102-24.805-24.801c0-3.141,0.645-6.109,1.711-8.879c-12.719-1.066-22.738-11.594-22.738-24.59
		c0-6.777,2.734-12.906,7.144-17.379l-1.269,0.129c-11.371,0-20.598-9.23-20.598-20.605c0-3.969,1.18-7.641,3.125-10.781
		c-13.547-1.398-24.156-12.723-24.156-26.637c0-14.691,11.801-26.59,26.43-26.855c-5.512-3.598-9.172-9.797-9.172-16.875
		c0-6.641,3.254-12.48,8.223-16.152c-13.664-2.641-23.988-14.629-23.988-29.063c0-16.355,13.266-29.621,29.625-29.621
		c4.25,0,8.27,0.93,11.918,2.539c-3.688-3.844-5.98-9.039-5.98-14.785c0-9.164,5.789-16.926,13.891-19.981
		c-5.824-3.82-9.684-10.387-9.684-17.875c0-11.82,9.586-21.398,21.402-21.398c5.598,0,10.652,2.199,14.457,5.719l-0.109-1.145
		c0-9.66,6.441-17.727,15.223-20.387c-2.367-4.816-3.813-10.164-3.813-15.895c0-10.367,4.371-19.691,11.348-26.305
		c-6.703-2.609-12.738-7.922-17.981-12.555c-34.305-30.324-49.699-74.168-69.043-114.356c-23.555-48.934-58.645-88.496-88.973-133
		c-13.207-19.379-24.711-41.316-37.637-62.098l-0.008-0.008l0.023,0.074c1.473,4.676,3.031,9.328,4.586,13.984
		c0.652,1.945,1.273,3.891,1.938,5.832c1.488,4.34,3.043,8.664,4.605,12.988c0.805,2.23,1.59,4.465,2.414,6.688
		c1.555,4.199,3.164,8.387,4.781,12.57c0.902,2.32,1.793,4.641,2.711,6.957c1.641,4.133,3.32,8.258,5.023,12.379
		c0.828,2.004,1.652,4.016,2.496,6.016c-21.945-30.582-46.141-58.773-74.641-82.106c-2.5-2.047-5.031-4.113-7.582-6.188
		l-1.106-0.902c-2.531-2.051-5.086-4.109-7.664-6.172l-1.004-0.805l-0.059-0.047c-2.684-2.144-5.391-4.293-8.129-6.438l-0.281-0.215
		c-5.75-4.504-11.613-8.981-17.582-13.371l-0.023-0.02l-0.262-0.188l-0.055-0.043c-2.984-2.195-6-4.367-9.039-6.508l-0.121-0.09
		c-21.063-14.84-43.344-28.109-66.512-37.305c-2.797-1.113-5.598-2.227-8.426-3.215c-8.098-2.824-16.297-5.133-24.594-6.762
		c-0.113-0.023-0.219-0.059-0.332-0.078c0.008,0.004,0.02,0.008,0.027,0.012c42.148,19.324,84.922,37.91,117.086,71.414
		c28.223,29.391,52.883,62.984,75.066,97.098c19.867,30.563,37.18,60.75,61.664,87.953c26.019,28.902,59.824,60.293,72.418,98.203
		c6.246,18.801,2.625,26.762-4.852,43.891c-3.238,7.418,7.269,21.121,8.734,29.043c1.059,5.707-0.672,14.113-1.953,19.953
		c-2.594,11.824-10.535,21.152-18.676,30.234c1.57-0.367,3.184-0.606,4.863-0.606c11.816,0,21.398,9.578,21.398,21.398
		c0,11.824-9.582,21.399-21.398,21.399c-11.73,0-21.238-9.438-21.383-21.141c-4.453,8.059-6.504,17.047-3.43,28.16
		c3.113,11.262,13.652,42.391,9.121,60.535c5.066,2.691,8.559,7.957,8.559,14.09c0,8.836-7.168,16.008-16.004,16.008
		c-8.359,0-15.144-6.441-15.863-14.613c-10.813,1.316-21.965,1.098-32.082,6.672c-15.422,8.496-24.445,23.891-39.332,32.719
		c-41.254,24.465-94.84,7.941-139.621,5.16c-58.496-3.629-119.996-2.898-177.305-16.633
		c-42.891-10.281-82.352-29.578-122.906-46.219c-0.031-0.012-0.063-0.023-0.094-0.035c0.238,0.168,0.5,0.316,0.742,0.48
		c1.422,0.969,2.855,1.918,4.348,2.82c1.813,1.09,3.68,2.129,5.625,3.094c81.641,40.578,169.586,62.234,259.934,73.652l-0.981-0.059
		l-0.418-0.023c-4.184-0.246-8.461-0.5-12.789-0.746c-0.098-0.004-0.195-0.012-0.293-0.02c-1.371-0.078-2.773-0.156-4.16-0.234
		c-3.535-0.203-7.09-0.406-10.703-0.602c-0.055,0-0.113-0.004-0.172-0.004c-0.609-0.031-1.215-0.063-1.832-0.102
		c-2.289-0.117-4.633-0.23-6.949-0.34c-6.125-0.305-12.34-0.574-18.621-0.805c-2.617-0.098-5.238-0.18-7.879-0.258
		c-3.957-0.117-7.922-0.238-11.922-0.309c-2.148-0.039-4.32-0.047-6.484-0.066c-3.273-0.035-6.539-0.078-9.832-0.078
		c-4.555,0.004-9.125,0.043-13.703,0.133c-0.559,0.008-1.117,0.02-1.676,0.031c-4.813,0.109-9.629,0.258-14.445,0.473
		c-0.082,0.004-0.164,0.012-0.246,0.012l-1.059,0.051c-5.129,0.242-10.258,0.551-15.371,0.934c-0.035,0.004-0.066,0.004-0.098,0.008
		c-5.059,0.379-10.105,0.84-15.129,1.379c-0.141,0.016-0.285,0.023-0.434,0.043c-4.918,0.539-9.816,1.164-14.684,1.871l-0.805,0.113
		c-0.25,0.039-0.5,0.078-0.75,0.117c-4.648,0.691-9.262,1.473-13.836,2.332c-0.512,0.098-1.02,0.195-1.531,0.293
		c-4.563,0.887-9.082,1.863-13.559,2.93c-0.602,0.145-1.195,0.297-1.797,0.449c-4.516,1.105-8.984,2.301-13.395,3.617
		c-0.141,0.043-0.289,0.082-0.434,0.121l-0.086,0.031c-4.25,1.281-8.422,2.699-12.555,4.191c-0.488,0.172-0.977,0.359-1.469,0.539
		c157.559,5.93,316.316-17.047,472.359,12.25c3.152-9.582,12.066-16.547,22.703-16.547c13.25,0,24.008,10.746,24.008,24.004
		c0,13.266-10.758,24.012-24.008,24.012c-7.519,0-14.144-3.527-18.543-8.938c-4.465,7.453-6.5,15.621-3.531,25.453
		c1.434,4.758,4.438,21.566,8.922,23.82c7.938,3.988,16.254,6,23.754,9.883l-0.063-0.629c0-11.594,9.402-21.004,21.008-21.004
		c11.594,0,21.004,9.41,21.004,21.004c0,11.609-9.41,21.016-21.004,21.016c-2.434,0-4.73-0.492-6.898-1.258
		c-0.57,6.176-3.992,12.578-7.285,17.238c-6.844,9.684-9.293,15.125-6.082,27.195c2.469,9.281,5.27,18.434,8.664,27.426
		c12.844,34.012,27.32,66.785,18.953,103.938c-9.144,40.613-23.055,80.375-40.316,118.242
		c-27.5,60.336-62.086,116.543-101.004,169.855l0,0c50.879-31.09,91.16-85.734,122.508-143.289l0.082-0.145
		c1.707-3.129,3.383-6.266,5.031-9.41l0.188-0.355c5.555-10.598,10.781-21.23,15.754-31.809c3.805-8.102,7.477-16.172,10.949-24.133
		c0.285-0.637,0.57-1.281,0.848-1.918c1-2.309,1.98-4.602,2.953-6.887c0.457-1.074,0.914-2.148,1.363-3.215
		c0.867-2.051,1.715-4.082,2.559-6.109c0.531-1.289,1.066-2.578,1.594-3.859c0.77-1.879,1.531-3.75,2.285-5.609
		c0.582-1.43,1.148-2.848,1.715-4.262c0.676-1.695,1.355-3.379,2.016-5.055c0.648-1.637,1.277-3.25,1.91-4.867
		c0.57-1.461,1.149-2.93,1.707-4.375c0.723-1.867,1.426-3.703,2.125-5.547c0.453-1.172,0.914-2.367,1.352-3.531
		c1.137-2.992,2.246-5.938,3.324-8.836c7.641-20.523,18.711-43.629,31.398-68.102c-7.266,16.309-14.449,32.895-21.445,49.625
		c-39.289,93.945-72.641,192.242-81.039,270.234c-0.609,3.152-1.039,6.426-1.328,9.789c-0.063,0.691-0.066,1.418-0.117,2.117
		c-0.184,2.816-0.313,5.676-0.293,8.621c0.004,0.535,0.031,1.086,0.039,1.625c0.059,3.27,0.215,6.586,0.508,9.98l0.063,0.672
		c0.309,3.359,0.758,6.785,1.277,10.246c0.059,0.398,0.082,0.781,0.148,1.184c0.004-0.039,0.016-0.082,0.023-0.121
		c16.457-94.129,62.391-182.094,98.039-270C922.09,1446.773,929.336,1424.723,944.059,1412.195z"/>
	<path style="fill:#EEC0C0;" d="M883.102,1450.621c-0.699,1.844-1.402,3.68-2.125,5.547c-0.559,1.445-1.137,2.914-1.707,4.375
		c-0.633,1.617-1.262,3.23-1.91,4.867c-0.66,1.676-1.34,3.359-2.016,5.055c-0.566,1.414-1.133,2.832-1.715,4.262
		c-0.754,1.859-1.516,3.73-2.285,5.609c-0.527,1.281-1.063,2.57-1.594,3.859c-0.844,2.027-1.691,4.059-2.559,6.109
		c-0.449,1.066-0.906,2.141-1.363,3.215c-0.973,2.285-1.953,4.578-2.953,6.887c-0.277,0.637-0.563,1.281-0.848,1.918
		c-3.473,7.965-7.145,16.035-10.949,24.133c-4.973,10.578-10.195,21.219-15.754,31.809l-0.188,0.355
		c-1.648,3.145-3.324,6.281-5.031,9.41l-0.082,0.145c-31.34,57.578-71.625,112.199-122.508,143.289l0,0
		c-11.109,6.781-22.688,12.516-34.824,16.836c-1.559-15.531-1.32-30.906,3.414-45.914c11.785-37.32,45.047-67.406,64.289-101.227
		c16.574-29.129,29.504-67.738,6.926-97.16c-15.898-20.715-39.035-9.961-59.476-5.129c-21.332,5.031-22.602-21.719-23.797-36.688
		c-2.316-28.996,11.004-51.926,29.379-73.027c23.566-27.074,58.563-56.563,64.195-94.227c3.492-23.34-26.879-27.441-43.02-30.449
		c-19.855-3.691-38.734-8.215-57.48-15.906c-21.352-8.77-41.332-20.492-62.742-29.145c-59.469-24.051-126.434-9.172-188.566-10.164
		c-28.879-0.461-59.137-3.101-85.449-15.887c-13.961-6.789-23.227-16.852-28.863-28.77c-28.719,14.68-53.105,36.09-69.859,67.16
		c-47.43,87.941,55.18,148.363,84.277,219.699c25.191,61.762-65.457,137.074-0.473,185.105
		c36.852,27.246,165.738-79.766,168.551,14.625c1.293,43.379-11.641,70.051,46.578,96.129c37.609,16.84,86.344,14.797,125.609,8
		c130.777-22.617,201.973-190.641,241.594-297.074c-1.078,2.898-2.188,5.844-3.324,8.836
		C884.016,1448.254,883.555,1449.449,883.102,1450.621z"/>
	<path style="fill:#EF94A3;" d="M320.363,1173.379c26.313,12.785,56.57,15.426,85.449,15.887
		c62.133,0.992,129.098-13.887,188.566,10.164c21.41,8.652,41.391,20.375,62.742,29.145c18.746,7.691,37.625,12.215,57.48,15.906
		c16.141,3.008,46.512,7.109,43.02,30.449c-5.633,37.664-40.629,67.152-64.195,94.227c-18.375,21.102-31.695,44.031-29.379,73.027
		c1.195,14.969,2.465,41.719,23.797,36.688c20.441-4.832,43.578-15.586,59.476,5.129c22.578,29.422,9.649,68.031-6.926,97.16
		c-19.242,33.82-52.504,63.906-64.289,101.227c-4.734,15.008-4.973,30.383-3.414,45.914c12.137-4.32,23.715-10.055,34.824-16.836
		c38.918-53.313,73.504-109.52,101.004-169.855c17.262-37.867,31.172-77.629,40.316-118.242
		c8.367-37.152-6.109-69.926-18.953-103.938c-3.394-8.992-6.195-18.144-8.664-27.426c-3.211-12.07-0.762-17.512,6.082-27.195
		c3.293-4.66,6.715-11.063,7.285-17.238c-8.008-2.797-13.781-10.23-14.047-19.129c-7.5-3.883-15.816-5.895-23.754-9.883
		c-4.484-2.254-7.488-19.063-8.922-23.82c-2.969-9.832-0.934-18,3.531-25.453c-3.363-4.133-5.461-9.328-5.461-15.074
		c0-2.621,0.523-5.098,1.301-7.457c-156.043-29.297-314.801-6.32-472.359-12.25c-1.602,0.586-3.219,1.148-4.797,1.773
		c-0.117,0.043-0.238,0.082-0.355,0.133c-2.762,1.09-5.48,2.25-8.18,3.441c-0.355,0.164-0.723,0.301-1.078,0.461
		c-3.02,1.359-5.996,2.781-8.926,4.277l-0.039,0.02C297.137,1156.527,306.402,1166.59,320.363,1173.379z"/>
	<path style="fill:#3D1833;" d="M885.648,899.938c10.555,0,19.113-8.559,19.113-19.117c0-10.555-8.559-19.109-19.113-19.109
		c-10.551,0-19.113,8.555-19.113,19.109C866.535,891.379,875.098,899.938,885.648,899.938z"/>
	<path style="fill:#3D1833;" d="M990.793,836.852c7.07,0,12.809-5.734,12.809-12.809c0-7.07-5.738-12.805-12.809-12.805
		c-7.07,0-12.801,5.734-12.801,12.805C977.992,831.117,983.723,836.852,990.793,836.852z"/>
	<path style="fill:#3D1833;" d="M887.742,1263.383c-7.066,0-12.801,5.73-12.801,12.797c0,7.082,5.734,12.813,12.801,12.813
		s12.809-5.73,12.809-12.813C900.551,1269.113,894.809,1263.383,887.742,1263.383z"/>
	<path style="fill:#3D1833;" d="M1085.777,808.418c-2.906-4.035-7.617-6.688-12.969-6.688c-8.836,0-16,7.168-16,16.004
		c0,8.844,7.164,16.004,16,16.004c5.332,0,10.012-2.629,12.926-6.633c1.918-2.637,3.086-5.859,3.086-9.371
		C1088.82,814.25,1087.672,811.047,1085.777,808.418z"/>
	<path style="fill:#3D1833;" d="M1250.285,1269.875c0,8.34,6.398,15.113,14.543,15.863c0.484,0.039,0.953,0.145,1.457,0.145
		c8.836,0,16.012-7.172,16.012-16.008c0-4.285-1.711-8.152-4.453-11.023c-2.914-3.059-7.004-4.98-11.559-4.98
		C1257.449,1253.871,1250.285,1261.035,1250.285,1269.875z"/>
	<path style="fill:#3D1833;" d="M785.519,1055.375c0,0.48,0.102,0.926,0.141,1.395c0.719,8.172,7.504,14.613,15.863,14.613
		c8.836,0,16.004-7.172,16.004-16.008c0-6.133-3.492-11.398-8.559-14.09c-2.234-1.184-4.742-1.918-7.445-1.918
		C792.684,1039.367,785.519,1046.535,785.519,1055.375z"/>
	<path style="fill:#3D1833;" d="M834.586,1247.57c2.168,0.766,4.465,1.258,6.898,1.258c11.594,0,21.004-9.406,21.004-21.016
		c0-11.594-9.41-21.004-21.004-21.004c-11.605,0-21.008,9.41-21.008,21.004l0.063,0.629
		C820.805,1237.34,826.578,1244.773,834.586,1247.57z"/>
	<path style="fill:#3D1833;" d="M791.394,1169.285c4.399,5.41,11.024,8.938,18.543,8.938c13.25,0,24.008-10.746,24.008-24.012
		c0-13.258-10.758-24.004-24.008-24.004c-10.637,0-19.551,6.965-22.703,16.547c-0.777,2.359-1.301,4.836-1.301,7.457
		C785.934,1159.957,788.031,1165.152,791.394,1169.285z"/>
	<path style="fill:#3D1833;" d="M1250.75,856.871c0-8.836-7.172-16.004-16.004-16.004c-1.586,0-3.094,0.301-4.547,0.734
		c-6.605,1.969-11.457,8.023-11.457,15.269c0,6.055,3.398,11.262,8.355,13.981c2.285,1.254,4.863,2.027,7.648,2.027
		C1243.578,872.879,1250.75,865.711,1250.75,856.871z"/>
	<path style="fill:#3D1833;" d="M1032.859,1357.391c8.828,0,16.004-7.172,16.004-16.008c0-8.84-7.176-16.008-16.004-16.008
		c-8.84,0-16.012,7.168-16.012,16.008C1016.848,1350.219,1024.02,1357.391,1032.859,1357.391z"/>
	<path style="fill:#3D1833;" d="M1329.383,1077.223c-7.594,0-13.902,5.293-15.555,12.359l-0.004,0.012
		c-0.273,1.172-0.453,2.379-0.453,3.629c0,8.844,7.164,16.004,16.012,16.004c8.828,0,16-7.16,16-16.004
		c0-2.234-0.469-4.363-1.297-6.301v-0.004C1341.629,1081.219,1335.973,1077.223,1329.383,1077.223z"/>
	<path style="fill:#3D1833;" d="M1188.477,1353.176c8.832,0,16.004-7.16,16.004-16c0-2.168-0.438-4.227-1.219-6.109
		c-2.406-5.809-8.117-9.898-14.785-9.898c-4.703,0-8.891,2.07-11.82,5.301c-2.578,2.84-4.184,6.57-4.184,10.707
		C1172.473,1346.016,1179.637,1353.176,1188.477,1353.176z"/>
	<path style="fill:#3D1833;" d="M1073.891,1355.047c0,1.676,0.242,3.289,0.617,4.852c2.195,9.258,10.461,16.156,20.383,16.156
		c11.598,0,21.008-9.391,21.008-21.008c0-7.766-4.27-14.473-10.535-18.105c-3.098-1.793-6.641-2.898-10.473-2.898
		C1083.293,1334.043,1073.891,1343.445,1073.891,1355.047z"/>
	<path style="fill:#3D1833;" d="M1306.242,952.102c5.137,0,9.906-1.559,13.883-4.219c6.703-4.484,11.129-12.117,11.129-20.789
		c0-13.808-11.207-25.008-25.012-25.008s-25.012,11.199-25.012,25.008c0,1.82,0.219,3.582,0.59,5.293
		C1284.25,943.652,1294.254,952.102,1306.242,952.102z"/>
	<path style="fill:#3D1833;" d="M1313.828,1197.328c0,13.809,11.207,25.004,25.012,25.004c11.172,0,20.523-7.379,23.73-17.5
		c0.754-2.383,1.277-4.871,1.277-7.504c0-13.242-10.328-23.965-23.34-24.84c-0.563-0.035-1.102-0.168-1.668-0.168
		C1325.035,1172.32,1313.828,1183.512,1313.828,1197.328z"/>
	<path style="fill:#3D1833;" d="M1330.426,1030.961c10.316,0,18.703-8.371,18.703-18.699c0-10.328-8.387-18.699-18.703-18.699
		c-10.32,0-18.699,8.371-18.699,18.699C1311.727,1022.59,1320.105,1030.961,1330.426,1030.961z"/>
	<path style="fill:#3D1833;" d="M803.254,952.332l0.023,0.258c0.145,11.703,9.652,21.141,21.383,21.141
		c11.816,0,21.398-9.574,21.398-21.399c0-11.82-9.582-21.398-21.398-21.398c-1.68,0-3.293,0.238-4.863,0.606
		C810.328,933.746,803.254,942.195,803.254,952.332z"/>
	<path style="fill:#3D1833;" d="M1296.203,1112.434c0.184-1.543,0.395-3.09,0.547-4.637c2.727-3.445,4.422-7.734,4.422-12.461
		c0-1.609-0.242-3.164-0.605-4.668v-0.004c-0.563-2.344-1.48-4.543-2.781-6.488c-0.012-2.152-0.086-4.293-0.16-6.422
		c11.906-2.777,20.805-13.398,20.805-26.148c0-13.914-10.605-25.234-24.16-26.633c1.949-3.141,3.125-6.82,3.125-10.785
		c0-10.973-8.605-19.863-19.418-20.481c-0.289-0.637-0.57-1.273-0.859-1.898c3.426-4.258,5.563-9.59,5.563-15.473
		c0-8.441-4.242-15.875-10.672-20.355c1.719-3.379,2.781-7.141,2.781-11.195c0-6.113-2.277-11.633-5.953-15.93
		c-4.152-4.856-10.105-8.133-16.871-8.676c2.438-3.836,3.898-8.359,3.898-13.246c0-13.699-11.105-24.801-24.801-24.801
		c-1.344,0-2.645,0.141-3.926,0.348c-5.516,0.891-10.418,3.586-14.082,7.48c-1.168-14.949-13.531-26.762-28.781-26.762
		c-11.082,0-20.594,6.285-25.48,15.41l-0.598-0.23c1.418-3.109,2.262-6.531,2.262-10.172c0-10.601-6.754-19.551-16.172-22.988
		c-2.625-0.957-5.426-1.566-8.383-1.566c-10.824,0-19.918,7.055-23.18,16.785c-3.586-6.82-10.641-11.523-18.875-11.523
		c-3.352,0-6.52,0.773-9.34,2.148c-4.621,2.246-8.313,6.106-10.344,10.848l-0.305-0.012l-0.68,0.012v-0.012
		c0-11.816-9.578-21.394-21.395-21.394c-8.023,0-14.934,4.465-18.598,10.992c-1.734,3.09-2.805,6.606-2.805,10.402
		c0,0.613,0.129,1.188,0.18,1.785c-5.289-5.434-12.656-8.832-20.84-8.832c-8.059,0-15.246,3.355-20.481,8.656
		c-4.461,4.516-7.527,10.418-8.313,17.07c-5.086-11.695-16.156-20.117-29.344-21.539c-1.289-0.141-2.574-0.293-3.898-0.293
		c-9.668,0-18.43,3.805-24.934,9.969c-6.977,6.613-11.348,15.938-11.348,26.305c0,5.731,1.445,11.078,3.813,15.895
		c-8.781,2.66-15.223,10.727-15.223,20.387l0.109,1.145c-3.805-3.52-8.859-5.719-14.457-5.719c-11.816,0-21.402,9.578-21.402,21.398
		c0,7.488,3.859,14.055,9.684,17.875c-8.102,3.055-13.891,10.816-13.891,19.981c0,5.746,2.293,10.941,5.98,14.785
		c-3.648-1.609-7.668-2.539-11.918-2.539c-16.359,0-29.625,13.266-29.625,29.621c0,14.434,10.324,26.422,23.988,29.063
		c-4.969,3.672-8.223,9.512-8.223,16.152c0,7.078,3.66,13.277,9.172,16.875c-14.629,0.266-26.43,12.164-26.43,26.855
		c0,13.914,10.609,25.238,24.156,26.637c-1.945,3.141-3.125,6.813-3.125,10.781c0,11.375,9.227,20.605,20.598,20.605l1.269-0.129
		c-4.41,4.473-7.144,10.602-7.144,17.379c0,12.996,10.019,23.523,22.738,24.59c-1.066,2.77-1.711,5.738-1.711,8.879
		c0,13.699,11.109,24.801,24.805,24.801c2.797,0,5.445-0.563,7.949-1.422c-0.125,0.922-0.277,1.832-0.277,2.789
		c0,11.438,9.277,20.715,20.719,20.715c1.273,0,2.504-0.156,3.711-0.375c-0.938,2.797-1.566,5.73-1.566,8.828
		c0,12.188,7.879,22.426,18.785,26.191c-1.066,2.84-1.723,5.871-1.723,9.082c0,14.367,11.644,26.008,26.008,26.008
		c11.43,0,21.039-7.43,24.527-17.691c0.934,0.105,1.852,0.281,2.813,0.281c10.824,0,19.914-7.055,23.18-16.777
		c3.582,6.82,10.645,11.516,18.875,11.516c7.559,0,14.172-3.938,17.98-9.859c0.996,0.043,2,0.059,3.008,0.082
		c1.555,10.281,10.359,18.191,21.078,18.191c11.742,0,21.258-9.465,21.379-21.184c0.586-0.098,1.168-0.207,1.758-0.316
		c1.555,1.34,3.246,2.504,5.063,3.492c-3.004,4.129-4.836,9.172-4.836,14.672c0,3.332,0.68,6.5,1.863,9.406
		c3.723,9.145,12.668,15.602,23.145,15.602c13.152,0,23.832-10.207,24.816-23.121c0.051-0.637,0.191-1.242,0.191-1.887
		c0-8.273-4.07-15.551-10.266-20.102c3.082-3.242,5.344-7.203,6.68-11.59c1.031-0.426,2.059-0.855,3.082-1.297
		c6.297,10.77,17.844,18.086,31.223,18.086c20.031,0,36.277-16.246,36.277-36.277c0-5.727-1.453-11.074-3.813-15.895
		c8.785-2.664,15.223-10.727,15.223-20.391l-0.113-1.129c3.813,3.512,8.863,5.711,14.457,5.711c11.82,0,21.402-9.586,21.402-21.402
		c0-7.484-3.859-14.055-9.68-17.887c8.098-3.047,13.891-10.797,13.891-19.965c0-2.926-0.598-5.711-1.66-8.25
		c0.648-1.512,1.25-3.043,1.867-4.574c1.863,0.359,3.773,0.578,5.73,0.578c2.895,0,5.676-0.434,8.316-1.207
		c12.313-3.594,21.316-14.949,21.316-28.414c0-3.18-0.539-6.227-1.469-9.086C1312.535,1122.418,1305.32,1115.313,1296.203,1112.434z
		"/>
	<path style="fill:#3D1833;" d="M1245.977,1038.785c0,6.445-5.238,11.672-11.68,11.672c-6.438,0-11.668-5.227-11.668-11.672
		s5.23-11.672,11.668-11.672C1240.738,1027.113,1245.977,1032.34,1245.977,1038.785z"/>
	<path style="fill:#3D1833;" d="M1243.633,1089.316c0,5.52-4.473,9.992-9.988,9.992c-5.52,0-9.988-4.473-9.988-9.992
		c0-5.512,4.469-9.984,9.988-9.984C1239.16,1079.332,1243.633,1083.805,1243.633,1089.316z"/>
	<path style="fill:#3D1833;" d="M1219.211,970.023c8.613,0,15.605,6.984,15.605,15.606c0,8.617-6.992,15.609-15.605,15.609
		c-8.621,0-15.617-6.992-15.617-15.609C1203.594,977.008,1210.59,970.023,1219.211,970.023z"/>
	<path style="fill:#3D1833;" d="M1174.586,931.813c5.512,0,9.988,4.473,9.988,9.988c0,5.516-4.477,9.992-9.988,9.992
		c-5.52,0-9.992-4.477-9.992-9.992C1164.594,936.285,1169.066,931.813,1174.586,931.813z"/>
	<path style="fill:#3D1833;" d="M1125.031,899.813c8.551,0,15.48,6.934,15.48,15.484c0,8.547-6.93,15.473-15.48,15.473
		s-15.477-6.926-15.477-15.473C1109.555,906.746,1116.48,899.813,1125.031,899.813z"/>
	<path style="fill:#3D1833;" d="M1073.512,907.387c5.52,0,9.996,4.473,9.996,9.988c0,5.519-4.477,9.988-9.996,9.988
		c-5.512,0-9.984-4.469-9.984-9.988C1063.527,911.859,1068,907.387,1073.512,907.387z"/>
	<path style="fill:#3D1833;" d="M1022.324,913.32c4.414,0,7.996,3.578,7.996,7.988c0,4.414-3.582,7.996-7.996,7.996
		c-4.414,0-7.988-3.582-7.988-7.996C1014.336,916.898,1017.91,913.32,1022.324,913.32z"/>
	<path style="fill:#3D1833;" d="M956.699,944.824c6.586,0,11.93,5.336,11.93,11.922c0,6.59-5.344,11.934-11.93,11.934
		c-6.582,0-11.93-5.344-11.93-11.934C944.769,950.16,950.117,944.824,956.699,944.824z"/>
	<path style="fill:#3D1833;" d="M918.637,988.023c7.371,0,13.356,5.981,13.356,13.359c0,7.375-5.984,13.355-13.356,13.355
		c-7.379,0-13.359-5.98-13.359-13.355C905.277,994.004,911.258,988.023,918.637,988.023z"/>
	<path style="fill:#3D1833;" d="M904.195,1055.703c5.516,0,9.988,4.477,9.988,9.988c0,5.52-4.473,9.992-9.988,9.992
		c-5.519,0-9.988-4.473-9.988-9.992C894.207,1060.18,898.676,1055.703,904.195,1055.703z"/>
	<path style="fill:#3D1833;" d="M909.445,1142.367c-8.273,0-14.98-6.707-14.98-14.984c0-8.273,6.707-14.984,14.98-14.984
		c8.27,0,14.984,6.711,14.984,14.984C924.43,1135.66,917.715,1142.367,909.445,1142.367z"/>
	<path style="fill:#3D1833;" d="M929.133,1186.434c-7.242,0-13.109-5.871-13.109-13.113c0-7.234,5.867-13.105,13.109-13.105
		c7.238,0,13.113,5.871,13.113,13.105C942.246,1180.563,936.371,1186.434,929.133,1186.434z"/>
	<path style="fill:#3D1833;" d="M958.008,1211.5c-4.41,0-7.988-3.574-7.988-7.992c0-4.414,3.578-7.992,7.988-7.992
		c4.41,0,7.996,3.578,7.996,7.992C966.004,1207.926,962.418,1211.5,958.008,1211.5z"/>
	<path style="fill:#3D1833;" d="M1048.578,1254.191c-5.52,0-9.992-4.473-9.992-9.988c0-5.52,4.473-9.992,9.992-9.992
		c5.508,0,9.988,4.473,9.988,9.992C1058.566,1249.719,1054.086,1254.191,1048.578,1254.191z"/>
	<path style="fill:#3D1833;" d="M1087.293,1265.844c-7.238,0-13.102-5.863-13.102-13.113c0-7.242,5.863-13.113,13.102-13.113
		c7.246,0,13.109,5.871,13.109,13.113C1100.402,1259.98,1094.539,1265.844,1087.293,1265.844z"/>
	<path style="fill:#3D1833;" d="M1145.703,1251.566c-5.512,0-9.984-4.473-9.984-9.988c0-5.52,4.473-9.992,9.984-9.992
		c5.516,0,9.988,4.473,9.988,9.992C1155.691,1247.094,1151.219,1251.566,1145.703,1251.566z"/>
	<path style="fill:#3D1833;" d="M1194.27,1209.559c-5.516,0-9.988-4.473-9.988-9.988c0-5.52,4.473-9.988,9.988-9.988
		s9.992,4.469,9.992,9.988C1204.262,1205.086,1199.785,1209.559,1194.27,1209.559z"/>
	<path style="fill:#3D1833;" d="M1207.395,1137.344c-1.223,0-2.418-0.137-3.574-0.363c-0.387,0.957-0.762,1.914-1.168,2.859
		c0.664,1.582,1.035,3.32,1.035,5.148c0,5.719-3.609,10.559-8.668,12.465c3.637,2.387,6.043,6.488,6.043,11.16
		c0,7.375-5.984,13.355-13.359,13.355c-3.488,0-6.648-1.371-9.023-3.563l0.066,0.707c0,6.031-4.012,11.059-9.5,12.727
		c1.477,3,2.383,6.344,2.383,9.918c0,12.508-10.141,22.641-22.641,22.641c-8.352,0-15.563-4.566-19.488-11.289
		c-0.637,0.277-1.281,0.543-1.926,0.809c-0.832,2.742-2.238,5.215-4.164,7.234c3.863,2.84,6.402,7.383,6.402,12.547
		c0,8.617-6.992,15.609-15.605,15.609c-8.625,0-15.609-6.992-15.609-15.609c0-3.434,1.145-6.578,3.02-9.16
		c-1.129-0.613-2.188-1.34-3.16-2.176l-1.098,0.199c-0.074,7.313-6.016,13.223-13.344,13.223c-6.691,0-12.18-4.942-13.156-11.359
		c-0.629-0.012-1.25-0.02-1.879-0.047c-2.375,3.691-6.504,6.152-11.219,6.152c-5.137,0-9.543-2.933-11.781-7.183
		c-2.039,6.07-7.711,10.469-14.469,10.469c-0.598,0-1.172-0.113-1.754-0.176c-2.172,6.406-8.172,11.039-15.305,11.039
		c-8.969,0-16.234-7.262-16.234-16.234c0-1.996,0.406-3.891,1.074-5.668c-6.809-2.352-11.727-8.738-11.727-16.344
		c0-1.934,0.395-3.766,0.981-5.508c-0.754,0.137-1.523,0.227-2.316,0.227c-7.141,0-12.934-5.781-12.934-12.926
		c0-0.594,0.098-1.168,0.172-1.738c-1.559,0.531-3.215,0.887-4.957,0.887c-8.551,0-15.484-6.926-15.484-15.477
		c0-1.965,0.402-3.816,1.07-5.547c-7.938-0.66-14.195-7.234-14.195-15.348c0-4.227,1.711-8.059,4.461-10.844l-0.789,0.078
		c-7.102,0-12.859-5.754-12.859-12.855c0-2.477,0.734-4.766,1.949-6.734c-8.449-0.871-15.074-7.938-15.074-16.621
		c0-9.168,7.367-16.598,16.496-16.762c-3.441-2.246-5.723-6.117-5.723-10.531c0-4.148,2.031-7.789,5.129-10.082
		c-8.531-1.648-14.973-9.129-14.973-18.137c0-10.211,8.285-18.492,18.492-18.492c2.652,0,5.156,0.582,7.438,1.586
		c-2.301-2.398-3.734-5.641-3.734-9.23c0-5.719,3.617-10.563,8.672-12.465c-3.633-2.387-6.043-6.484-6.043-11.16
		c0-7.375,5.984-13.356,13.355-13.356c3.496,0,6.648,1.371,9.023,3.57l-0.066-0.715c0-6.027,4.02-11.063,9.5-12.723
		c-1.48-3.008-2.379-6.344-2.379-9.922c0-12.504,10.137-22.641,22.645-22.641c9.297,0,17.262,5.613,20.75,13.629
		c1.059-9.027,8.652-16.059,17.969-16.059c5.105,0,9.703,2.121,13.004,5.512l-0.109-1.113c0-7.375,5.98-13.352,13.355-13.352
		s13.355,5.977,13.355,13.352v0.012l0.422-0.012l0.191,0.008c2.039-4.77,6.77-8.109,12.285-8.109c5.137,0,9.539,2.934,11.781,7.188
		c2.035-6.07,7.707-10.469,14.465-10.469c8.465,0,15.324,6.856,15.324,15.32c0,2.269-0.523,4.41-1.41,6.348l0.371,0.148
		c3.055-5.699,8.996-9.621,15.902-9.621c9.527,0,17.242,7.371,17.969,16.703c2.82-2.996,6.797-4.887,11.238-4.887
		c8.547,0,15.48,6.934,15.48,15.48c0,3.051-0.91,5.871-2.438,8.266c7.961,0.641,14.25,7.234,14.25,15.359
		c0,2.531-0.66,4.879-1.738,6.988c4.016,2.793,6.66,7.433,6.66,12.703c0,3.672-1.336,7-3.469,9.656l0.535,1.184
		c6.746,0.387,12.125,5.934,12.125,12.785c0,2.477-0.742,4.766-1.957,6.73c8.461,0.871,15.082,7.938,15.082,16.621
		c0,7.957-5.555,14.586-12.992,16.32c0.051,1.332,0.098,2.664,0.105,4.004c1.328,1.996,2.113,4.391,2.113,6.969
		c0,2.949-1.059,5.629-2.758,7.773c-0.098,0.969-0.23,1.934-0.34,2.898c7.477,2.367,12.945,9.281,12.945,17.551
		C1225.891,1129.066,1217.605,1137.344,1207.395,1137.344z"/>
	<path style="fill:#3D1833;" d="M1239.551,1169.898c-8.613,0-15.609-6.984-15.609-15.605c0-8.621,6.996-15.609,15.609-15.609
		c8.617,0,15.609,6.988,15.609,15.609C1255.16,1162.914,1248.168,1169.898,1239.551,1169.898z"/>
	<path style="fill:#3D1833;" d="M1130.547,814.406c0,13.695,11.105,24.793,24.805,24.793s24.805-11.098,24.805-24.793
		c0-6.203-2.359-11.801-6.121-16.152c-2.223-2.566-4.926-4.676-8.023-6.16c-3.238-1.551-6.824-2.496-10.66-2.496
		C1141.652,789.598,1130.547,800.707,1130.547,814.406z"/>
	<path style="fill:#512845;" d="M956.699,968.68c6.586,0,11.93-5.344,11.93-11.934c0-6.586-5.344-11.922-11.93-11.922
		c-6.582,0-11.93,5.336-11.93,11.922C944.769,963.336,950.117,968.68,956.699,968.68z"/>
	<path style="fill:#512845;" d="M1022.324,929.305c4.414,0,7.996-3.582,7.996-7.996c0-4.41-3.582-7.988-7.996-7.988
		c-4.414,0-7.988,3.578-7.988,7.988C1014.336,925.723,1017.91,929.305,1022.324,929.305z"/>
	<path style="fill:#512845;" d="M958.008,1195.516c-4.41,0-7.988,3.578-7.988,7.992c0,4.418,3.578,7.992,7.988,7.992
		c4.41,0,7.996-3.574,7.996-7.992C966.004,1199.094,962.418,1195.516,958.008,1195.516z"/>
	<path style="fill:#512845;" d="M1073.512,927.363c5.52,0,9.996-4.469,9.996-9.988c0-5.516-4.477-9.988-9.996-9.988
		c-5.512,0-9.984,4.473-9.984,9.988C1063.527,922.894,1068,927.363,1073.512,927.363z"/>
	<path style="fill:#512845;" d="M1194.27,1189.582c-5.516,0-9.988,4.469-9.988,9.988c0,5.516,4.473,9.988,9.988,9.988
		s9.992-4.473,9.992-9.988C1204.262,1194.051,1199.785,1189.582,1194.27,1189.582z"/>
	<path style="fill:#512845;" d="M904.195,1075.684c5.516,0,9.988-4.473,9.988-9.992c0-5.512-4.473-9.988-9.988-9.988
		c-5.519,0-9.988,4.477-9.988,9.988C894.207,1071.211,898.676,1075.684,904.195,1075.684z"/>
	<path style="fill:#512845;" d="M929.133,1160.215c-7.242,0-13.109,5.871-13.109,13.105c0,7.242,5.867,13.113,13.109,13.113
		c7.238,0,13.113-5.871,13.113-13.113C942.246,1166.086,936.371,1160.215,929.133,1160.215z"/>
	<path style="fill:#512845;" d="M924.43,1127.383c0-8.273-6.715-14.984-14.984-14.984c-8.273,0-14.98,6.711-14.98,14.984
		c0,8.277,6.707,14.984,14.98,14.984C917.715,1142.367,924.43,1135.66,924.43,1127.383z"/>
	<path style="fill:#512845;" d="M1174.586,951.793c5.512,0,9.988-4.477,9.988-9.992c0-5.516-4.477-9.988-9.988-9.988
		c-5.52,0-9.992,4.473-9.992,9.988C1164.594,947.316,1169.066,951.793,1174.586,951.793z"/>
	<path style="fill:#512845;" d="M1048.578,1234.211c-5.52,0-9.992,4.473-9.992,9.992c0,5.516,4.473,9.988,9.992,9.988
		c5.508,0,9.988-4.473,9.988-9.988C1058.566,1238.684,1054.086,1234.211,1048.578,1234.211z"/>
	<path style="fill:#512845;" d="M1233.645,1079.332c-5.52,0-9.988,4.473-9.988,9.984c0,5.52,4.469,9.992,9.988,9.992
		c5.516,0,9.988-4.473,9.988-9.992C1243.633,1083.805,1239.16,1079.332,1233.645,1079.332z"/>
	<path style="fill:#512845;" d="M1145.703,1231.586c-5.512,0-9.984,4.473-9.984,9.992c0,5.516,4.473,9.988,9.984,9.988
		c5.516,0,9.988-4.473,9.988-9.988C1155.691,1236.059,1151.219,1231.586,1145.703,1231.586z"/>
	<path style="fill:#512845;" d="M1087.293,1239.617c-7.238,0-13.102,5.871-13.102,13.113c0,7.25,5.863,13.113,13.102,13.113
		c7.246,0,13.109-5.863,13.109-13.113C1100.402,1245.488,1094.539,1239.617,1087.293,1239.617z"/>
	<path style="fill:#512845;" d="M1219.211,1001.238c8.613,0,15.605-6.992,15.605-15.609c0-8.621-6.992-15.606-15.605-15.606
		c-8.621,0-15.617,6.984-15.617,15.606C1203.594,994.246,1210.59,1001.238,1219.211,1001.238z"/>
	<path style="fill:#512845;" d="M1239.551,1138.684c-8.613,0-15.609,6.988-15.609,15.609c0,8.621,6.996,15.605,15.609,15.605
		c8.617,0,15.609-6.984,15.609-15.605C1255.16,1145.672,1248.168,1138.684,1239.551,1138.684z"/>
	<path style="fill:#512845;" d="M1222.629,1038.785c0,6.445,5.23,11.672,11.668,11.672c6.441,0,11.68-5.227,11.68-11.672
		s-5.238-11.672-11.68-11.672C1227.859,1027.113,1222.629,1032.34,1222.629,1038.785z"/>
	<path style="fill:#512845;" d="M918.637,1014.738c7.371,0,13.356-5.98,13.356-13.355c0-7.379-5.984-13.359-13.356-13.359
		c-7.379,0-13.359,5.981-13.359,13.359C905.277,1008.758,911.258,1014.738,918.637,1014.738z"/>
	<path style="fill:#512845;" d="M1212.945,1101.305c0.109-0.965,0.242-1.93,0.34-2.898c1.699-2.145,2.758-4.824,2.758-7.773
		c0-2.578-0.785-4.973-2.113-6.969c-0.008-1.34-0.055-2.672-0.105-4.004c7.438-1.734,12.992-8.363,12.992-16.32
		c0-8.684-6.621-15.75-15.082-16.621c1.215-1.965,1.957-4.254,1.957-6.73c0-6.852-5.379-12.398-12.125-12.785l-0.535-1.184
		c2.133-2.656,3.469-5.984,3.469-9.656c0-5.27-2.645-9.91-6.66-12.703c1.078-2.109,1.738-4.457,1.738-6.988
		c0-8.125-6.289-14.719-14.25-15.359c1.527-2.394,2.438-5.215,2.438-8.266c0-8.547-6.934-15.48-15.48-15.48
		c-4.441,0-8.418,1.891-11.238,4.887c-0.727-9.332-8.441-16.703-17.969-16.703c-6.906,0-12.848,3.922-15.902,9.621l-0.371-0.148
		c0.887-1.938,1.41-4.078,1.41-6.348c0-8.465-6.859-15.32-15.324-15.32c-6.758,0-12.43,4.398-14.465,10.469
		c-2.242-4.254-6.645-7.188-11.781-7.188c-5.516,0-10.246,3.34-12.285,8.109l-0.191-0.008l-0.422,0.012v-0.012
		c0-7.375-5.98-13.352-13.355-13.352s-13.355,5.977-13.355,13.352l0.109,1.113c-3.301-3.391-7.898-5.512-13.004-5.512
		c-9.316,0-16.91,7.031-17.969,16.059c-3.488-8.016-11.453-13.629-20.75-13.629c-12.508,0-22.645,10.137-22.645,22.641
		c0,3.578,0.898,6.914,2.379,9.922c-5.48,1.66-9.5,6.695-9.5,12.723l0.066,0.715c-2.375-2.199-5.527-3.57-9.023-3.57
		c-7.371,0-13.355,5.981-13.355,13.356c0,4.676,2.41,8.773,6.043,11.16c-5.055,1.902-8.672,6.746-8.672,12.465
		c0,3.59,1.434,6.832,3.734,9.23c-2.281-1.004-4.785-1.586-7.438-1.586c-10.207,0-18.492,8.281-18.492,18.492
		c0,9.008,6.441,16.488,14.973,18.137c-3.098,2.293-5.129,5.934-5.129,10.082c0,4.414,2.281,8.285,5.723,10.531
		c-9.129,0.164-16.496,7.594-16.496,16.762c0,8.684,6.625,15.75,15.074,16.621c-1.215,1.969-1.949,4.258-1.949,6.734
		c0,7.102,5.758,12.855,12.859,12.855l0.789-0.078c-2.75,2.785-4.461,6.617-4.461,10.844c0,8.113,6.258,14.688,14.195,15.348
		c-0.668,1.73-1.07,3.582-1.07,5.547c0,8.551,6.934,15.477,15.484,15.477c1.742,0,3.398-0.355,4.957-0.887
		c-0.074,0.57-0.172,1.145-0.172,1.738c0,7.144,5.793,12.926,12.934,12.926c0.793,0,1.563-0.09,2.316-0.227
		c-0.586,1.742-0.981,3.574-0.981,5.508c0,7.605,4.918,13.992,11.727,16.344c-0.668,1.777-1.074,3.672-1.074,5.668
		c0,8.973,7.266,16.234,16.234,16.234c7.133,0,13.133-4.633,15.305-11.039c0.582,0.063,1.156,0.176,1.754,0.176
		c6.758,0,12.43-4.398,14.469-10.469c2.238,4.25,6.645,7.183,11.781,7.183c4.715,0,8.844-2.461,11.219-6.152
		c0.629,0.027,1.25,0.035,1.879,0.047c0.977,6.418,6.465,11.359,13.156,11.359c7.328,0,13.27-5.91,13.344-13.223l1.098-0.199
		c0.973,0.836,2.031,1.563,3.16,2.176c-1.875,2.582-3.02,5.727-3.02,9.16c0,8.617,6.984,15.609,15.609,15.609
		c8.613,0,15.605-6.992,15.605-15.609c0-5.164-2.539-9.707-6.402-12.547c1.926-2.02,3.332-4.492,4.164-7.234
		c0.645-0.266,1.289-0.531,1.926-0.809c3.926,6.723,11.137,11.289,19.488,11.289c12.5,0,22.641-10.133,22.641-22.641
		c0-3.574-0.906-6.918-2.383-9.918c5.488-1.668,9.5-6.695,9.5-12.727l-0.066-0.707c2.375,2.192,5.535,3.563,9.023,3.563
		c7.375,0,13.359-5.98,13.359-13.355c0-4.672-2.406-8.773-6.043-11.16c5.059-1.906,8.668-6.746,8.668-12.465
		c0-1.828-0.371-3.566-1.035-5.148c0.406-0.945,0.781-1.902,1.168-2.859c1.156,0.227,2.352,0.363,3.574,0.363
		c10.211,0,18.496-8.277,18.496-18.488C1225.891,1110.586,1220.422,1103.672,1212.945,1101.305z"/>
	<path style="fill:#512845;" d="M1171.773,1057.863c0,3.656-2.965,6.613-6.613,6.613c-3.652,0-6.617-2.957-6.617-6.613
		c0-3.652,2.965-6.617,6.617-6.617C1168.809,1051.246,1171.773,1054.211,1171.773,1057.863z"/>
	<path style="fill:#512845;" d="M1170.449,1086.508c0,3.125-2.539,5.656-5.66,5.656c-3.133,0-5.668-2.531-5.668-5.656
		s2.535-5.66,5.668-5.66C1167.91,1080.848,1170.449,1083.383,1170.449,1086.508z"/>
	<path style="fill:#512845;" d="M1156.609,1018.887c4.879,0,8.844,3.961,8.844,8.848c0,4.887-3.965,8.848-8.844,8.848
		c-4.891,0-8.859-3.961-8.859-8.848C1147.75,1022.848,1151.719,1018.887,1156.609,1018.887z"/>
	<path style="fill:#512845;" d="M1131.313,997.231c3.117,0,5.656,2.531,5.656,5.66c0,3.125-2.539,5.664-5.656,5.664
		c-3.133,0-5.668-2.539-5.668-5.664C1125.645,999.762,1128.18,997.231,1131.313,997.231z"/>
	<path style="fill:#512845;" d="M1103.219,979.09c4.844,0,8.781,3.93,8.781,8.773c0,4.848-3.938,8.773-8.781,8.773
		c-4.84,0-8.773-3.926-8.773-8.773C1094.445,983.019,1098.379,979.09,1103.219,979.09z"/>
	<path style="fill:#512845;" d="M1074.016,983.383c3.129,0,5.668,2.535,5.668,5.66c0,3.129-2.539,5.66-5.668,5.66
		c-3.121,0-5.66-2.531-5.66-5.66C1068.355,985.918,1070.895,983.383,1074.016,983.383z"/>
	<path style="fill:#512845;" d="M1045.004,986.746c2.5,0,4.531,2.031,4.531,4.527c0,2.504-2.031,4.531-4.531,4.531
		s-4.527-2.027-4.527-4.531C1040.477,988.777,1042.504,986.746,1045.004,986.746z"/>
	<path style="fill:#512845;" d="M1007.809,1004.602c3.731,0,6.758,3.027,6.758,6.762c0,3.734-3.027,6.766-6.758,6.766
		c-3.734,0-6.762-3.031-6.762-6.766C1001.047,1007.629,1004.074,1004.602,1007.809,1004.602z"/>
	<path style="fill:#512845;" d="M986.23,1029.09c4.18,0,7.57,3.391,7.57,7.57c0,4.184-3.391,7.57-7.57,7.57s-7.574-3.387-7.574-7.57
		C978.656,1032.48,982.051,1029.09,986.23,1029.09z"/>
	<path style="fill:#512845;" d="M978.047,1067.453c3.125,0,5.66,2.535,5.66,5.664c0,3.121-2.535,5.66-5.66,5.66
		c-3.129,0-5.66-2.539-5.66-5.66C972.387,1069.988,974.918,1067.453,978.047,1067.453z"/>
	<path style="fill:#512845;" d="M972.527,1108.082c0-4.691,3.805-8.492,8.496-8.492c4.684,0,8.492,3.801,8.492,8.492
		s-3.809,8.492-8.492,8.492C976.332,1116.574,972.527,1112.773,972.527,1108.082z"/>
	<path style="fill:#512845;" d="M992.18,1141.555c-4.102,0-7.43-3.328-7.43-7.438c0-4.102,3.328-7.43,7.43-7.43
		c4.105,0,7.434,3.328,7.434,7.43C999.613,1138.227,996.285,1141.555,992.18,1141.555z"/>
	<path style="fill:#512845;" d="M1008.551,1155.766c-2.5,0-4.531-2.031-4.531-4.535c0-2.5,2.031-4.527,4.531-4.527
		s4.531,2.027,4.531,4.527C1013.082,1153.734,1011.051,1155.766,1008.551,1155.766z"/>
	<path style="fill:#512845;" d="M1059.883,1179.961c-3.125,0-5.664-2.539-5.664-5.66c0-3.129,2.539-5.664,5.664-5.664
		s5.668,2.535,5.668,5.664C1065.551,1177.422,1063.008,1179.961,1059.883,1179.961z"/>
	<path style="fill:#512845;" d="M1081.832,1186.566c-4.102,0-7.43-3.328-7.43-7.434c0-4.102,3.328-7.43,7.43-7.43
		s7.43,3.328,7.43,7.43C1089.262,1183.238,1085.934,1186.566,1081.832,1186.566z"/>
	<path style="fill:#512845;" d="M1114.941,1178.473c-3.125,0-5.664-2.535-5.664-5.66c0-3.133,2.539-5.664,5.664-5.664
		s5.664,2.531,5.664,5.664C1120.605,1175.938,1118.066,1178.473,1114.941,1178.473z"/>
	<path style="fill:#512845;" d="M1142.465,1154.664c-3.121,0-5.656-2.531-5.656-5.664c0-3.125,2.535-5.66,5.656-5.66
		c3.129,0,5.668,2.535,5.668,5.66C1148.133,1152.133,1145.594,1154.664,1142.465,1154.664z"/>
	<path style="fill:#512845;" d="M1149.91,1113.73c-0.699,0-1.371-0.078-2.027-0.207c-0.219,0.543-0.434,1.086-0.664,1.625
		c0.375,0.895,0.586,1.875,0.586,2.914c0,3.242-2.047,5.984-4.91,7.063c2.055,1.355,3.426,3.68,3.426,6.328
		c0,4.18-3.395,7.566-7.574,7.566c-1.98,0-3.766-0.77-5.113-2.016l0.039,0.398c0,3.422-2.281,6.27-5.391,7.215
		c0.84,1.703,1.352,3.598,1.352,5.625c0,7.086-5.746,12.832-12.828,12.832c-4.738,0-8.82-2.586-11.051-6.398l-1.09,0.457
		c-0.473,1.555-1.27,2.961-2.363,4.105c2.191,1.605,3.629,4.18,3.629,7.105c0,4.887-3.957,8.848-8.844,8.848
		s-8.848-3.961-8.848-8.848c0-1.949,0.648-3.727,1.711-5.191c-0.645-0.348-1.238-0.758-1.793-1.23l-0.617,0.109
		c-0.047,4.145-3.414,7.496-7.566,7.496c-3.793,0-6.906-2.801-7.457-6.438l-1.066-0.027c-1.344,2.09-3.684,3.484-6.359,3.484
		c-2.91,0-5.41-1.656-6.676-4.074c-1.156,3.445-4.371,5.941-8.203,5.941l-0.992-0.102c-1.234,3.629-4.633,6.258-8.676,6.258
		c-5.082,0-9.203-4.121-9.203-9.195c0-1.141,0.23-2.215,0.609-3.223c-3.859-1.328-6.648-4.949-6.648-9.262
		c0-1.098,0.227-2.133,0.555-3.121c-0.426,0.078-0.859,0.129-1.309,0.129c-4.051,0-7.332-3.277-7.332-7.328l0.098-0.988
		c-0.887,0.305-1.82,0.508-2.813,0.508c-4.844,0-8.773-3.926-8.773-8.773c0-1.117,0.227-2.164,0.605-3.145
		c-4.496-0.379-8.047-4.102-8.047-8.695c0-2.398,0.969-4.57,2.527-6.152l-0.445,0.043c-4.023,0-7.289-3.262-7.289-7.285
		c0-1.406,0.418-2.703,1.106-3.813c-4.793-0.492-8.547-4.5-8.547-9.426c0-5.195,4.176-9.41,9.352-9.5
		c-1.949-1.277-3.246-3.469-3.246-5.969c0-2.352,1.152-4.418,2.91-5.715c-4.836-0.934-8.488-5.172-8.488-10.281
		c0-5.789,4.695-10.48,10.48-10.48c1.504,0,2.926,0.328,4.219,0.898c-1.305-1.359-2.117-3.195-2.117-5.23
		c0-3.242,2.051-5.988,4.918-7.07c-2.063-1.352-3.426-3.676-3.426-6.32c0-4.184,3.391-7.574,7.57-7.574
		c1.981,0,3.766,0.777,5.113,2.023l-0.039-0.402c0-3.418,2.281-6.273,5.387-7.215c-0.836-1.703-1.348-3.594-1.348-5.621
		c0-7.086,5.742-12.836,12.832-12.836c5.27,0,9.785,3.188,11.762,7.727c0.605-5.117,4.906-9.102,10.184-9.102
		c2.898,0,5.504,1.203,7.371,3.125l-0.063-0.633c0-4.18,3.391-7.57,7.57-7.57c4.184,0,7.574,3.391,7.574,7.57v0.004l0.234-0.004
		l0.113,0.004c1.152-2.703,3.832-4.598,6.961-4.598c2.914,0,5.41,1.664,6.68,4.078c1.156-3.441,4.367-5.938,8.199-5.938
		c4.801,0,8.688,3.887,8.688,8.684c0,1.289-0.297,2.5-0.797,3.602l0.207,0.082c1.734-3.23,5.098-5.453,9.016-5.453
		c5.391,0,9.773,4.176,10.18,9.465c1.598-1.695,3.855-2.769,6.375-2.769c4.844,0,8.773,3.93,8.773,8.777
		c0,1.727-0.52,3.328-1.379,4.684c4.512,0.363,8.074,4.102,8.074,8.707c0,1.434-0.375,2.766-0.984,3.961
		c2.273,1.586,3.773,4.215,3.773,7.199c0,2.082-0.754,3.973-1.965,5.473l0.301,0.672c3.824,0.223,6.875,3.367,6.875,7.246
		c0,1.402-0.418,2.703-1.105,3.816c4.793,0.496,8.543,4.5,8.543,9.422c0,4.512-3.145,8.266-7.359,9.25
		c0.023,0.758,0.051,1.512,0.059,2.273c0.754,1.129,1.191,2.488,1.191,3.949c0,1.672-0.598,3.188-1.559,4.406
		c-0.059,0.551-0.133,1.094-0.195,1.641c4.238,1.34,7.34,5.262,7.34,9.949C1160.391,1109.039,1155.691,1113.73,1149.91,1113.73z"/>
	<path style="fill:#512845;" d="M1168.137,1132.18c-4.883,0-8.848-3.957-8.848-8.848c0-4.887,3.965-8.844,8.848-8.844
		c4.879,0,8.848,3.957,8.848,8.844C1176.984,1128.223,1173.016,1132.18,1168.137,1132.18z"/>
	<path style="fill:#512845;" d="M1125.031,930.769c8.551,0,15.48-6.926,15.48-15.473c0-8.551-6.93-15.484-15.48-15.484
		s-15.477,6.934-15.477,15.484C1109.555,923.844,1116.48,930.769,1125.031,930.769z"/>
	<path style="fill:#6D3A5C;" d="M1007.809,1018.129c3.731,0,6.758-3.031,6.758-6.766c0-3.734-3.027-6.762-6.758-6.762
		c-3.734,0-6.762,3.027-6.762,6.762C1001.047,1015.098,1004.074,1018.129,1007.809,1018.129z"/>
	<path style="fill:#6D3A5C;" d="M1045.004,995.805c2.5,0,4.531-2.027,4.531-4.531c0-2.496-2.031-4.527-4.531-4.527
		s-4.527,2.031-4.527,4.527C1040.477,993.777,1042.504,995.805,1045.004,995.805z"/>
	<path style="fill:#6D3A5C;" d="M1008.551,1146.703c-2.5,0-4.531,2.027-4.531,4.527c0,2.504,2.031,4.535,4.531,4.535
		s4.531-2.031,4.531-4.535C1013.082,1148.73,1011.051,1146.703,1008.551,1146.703z"/>
	<path style="fill:#6D3A5C;" d="M1074.016,994.703c3.129,0,5.668-2.531,5.668-5.66c0-3.125-2.539-5.66-5.668-5.66
		c-3.121,0-5.66,2.535-5.66,5.66C1068.355,992.172,1070.895,994.703,1074.016,994.703z"/>
	<path style="fill:#6D3A5C;" d="M1142.465,1143.34c-3.121,0-5.656,2.535-5.656,5.66c0,3.133,2.535,5.664,5.656,5.664
		c3.129,0,5.668-2.531,5.668-5.664C1148.133,1145.875,1145.594,1143.34,1142.465,1143.34z"/>
	<path style="fill:#6D3A5C;" d="M978.047,1078.777c3.125,0,5.66-2.539,5.66-5.66c0-3.129-2.535-5.664-5.66-5.664
		c-3.129,0-5.66,2.535-5.66,5.664C972.387,1076.238,974.918,1078.777,978.047,1078.777z"/>
	<path style="fill:#6D3A5C;" d="M992.18,1126.688c-4.102,0-7.43,3.328-7.43,7.43c0,4.109,3.328,7.438,7.43,7.438
		c4.105,0,7.434-3.328,7.434-7.438C999.613,1130.016,996.285,1126.688,992.18,1126.688z"/>
	<path style="fill:#6D3A5C;" d="M989.516,1108.082c0-4.691-3.809-8.492-8.492-8.492c-4.691,0-8.496,3.801-8.496,8.492
		s3.805,8.492,8.496,8.492C985.707,1116.574,989.516,1112.773,989.516,1108.082z"/>
	<path style="fill:#6D3A5C;" d="M1131.313,1008.555c3.117,0,5.656-2.539,5.656-5.664c0-3.129-2.539-5.66-5.656-5.66
		c-3.133,0-5.668,2.531-5.668,5.66C1125.645,1006.016,1128.18,1008.555,1131.313,1008.555z"/>
	<path style="fill:#6D3A5C;" d="M1059.883,1168.637c-3.125,0-5.664,2.535-5.664,5.664c0,3.121,2.539,5.66,5.664,5.66
		s5.668-2.539,5.668-5.66C1065.551,1171.172,1063.008,1168.637,1059.883,1168.637z"/>
	<path style="fill:#6D3A5C;" d="M1164.789,1080.848c-3.133,0-5.668,2.535-5.668,5.66s2.535,5.656,5.668,5.656
		c3.121,0,5.66-2.531,5.66-5.656S1167.91,1080.848,1164.789,1080.848z"/>
	<path style="fill:#6D3A5C;" d="M1114.941,1167.148c-3.125,0-5.664,2.531-5.664,5.664c0,3.125,2.539,5.66,5.664,5.66
		s5.664-2.535,5.664-5.66C1120.605,1169.68,1118.066,1167.148,1114.941,1167.148z"/>
	<path style="fill:#6D3A5C;" d="M1081.832,1171.703c-4.102,0-7.43,3.328-7.43,7.43c0,4.105,3.328,7.434,7.43,7.434
		s7.43-3.328,7.43-7.434C1089.262,1175.031,1085.934,1171.703,1081.832,1171.703z"/>
	<path style="fill:#6D3A5C;" d="M1156.609,1036.582c4.879,0,8.844-3.961,8.844-8.848c0-4.887-3.965-8.848-8.844-8.848
		c-4.891,0-8.859,3.961-8.859,8.848C1147.75,1032.621,1151.719,1036.582,1156.609,1036.582z"/>
	<path style="fill:#6D3A5C;" d="M1168.137,1114.488c-4.883,0-8.848,3.957-8.848,8.844c0,4.891,3.965,8.848,8.848,8.848
		c4.879,0,8.848-3.957,8.848-8.848C1176.984,1118.445,1173.016,1114.488,1168.137,1114.488z"/>
	<path style="fill:#6D3A5C;" d="M1158.543,1057.863c0,3.656,2.965,6.613,6.617,6.613c3.648,0,6.613-2.957,6.613-6.613
		c0-3.652-2.965-6.617-6.613-6.617C1161.508,1051.246,1158.543,1054.211,1158.543,1057.863z"/>
	<path style="fill:#6D3A5C;" d="M986.23,1044.23c4.18,0,7.57-3.387,7.57-7.57c0-4.18-3.391-7.57-7.57-7.57s-7.574,3.391-7.574,7.57
		C978.656,1040.844,982.051,1044.23,986.23,1044.23z"/>
	<path style="fill:#6D3A5C;" d="M1153.051,1093.301c0.063-0.547,0.137-1.09,0.195-1.641c0.961-1.219,1.559-2.734,1.559-4.406
		c0-1.461-0.438-2.82-1.191-3.949c-0.008-0.762-0.035-1.516-0.059-2.273c4.215-0.984,7.359-4.738,7.359-9.25
		c0-4.922-3.75-8.926-8.543-9.422c0.688-1.113,1.105-2.414,1.105-3.816c0-3.879-3.051-7.023-6.875-7.246l-0.301-0.672
		c1.211-1.5,1.965-3.391,1.965-5.473c0-2.984-1.5-5.613-3.773-7.199c0.609-1.195,0.984-2.527,0.984-3.961
		c0-4.605-3.563-8.344-8.074-8.707c0.859-1.355,1.379-2.957,1.379-4.684c0-4.848-3.93-8.777-8.773-8.777
		c-2.52,0-4.777,1.074-6.375,2.769c-0.406-5.289-4.789-9.465-10.18-9.465c-3.918,0-7.281,2.223-9.016,5.453l-0.207-0.082
		c0.5-1.102,0.797-2.313,0.797-3.602c0-4.797-3.887-8.684-8.688-8.684c-3.832,0-7.043,2.496-8.199,5.938
		c-1.27-2.414-3.766-4.078-6.68-4.078c-3.129,0-5.809,1.894-6.961,4.598l-0.113-0.004l-0.234,0.004v-0.004
		c0-4.18-3.391-7.57-7.574-7.57c-4.18,0-7.57,3.391-7.57,7.57l0.063,0.633c-1.867-1.922-4.473-3.125-7.371-3.125
		c-5.277,0-9.578,3.984-10.184,9.102c-1.977-4.539-6.492-7.727-11.762-7.727c-7.09,0-12.832,5.75-12.832,12.836
		c0,2.027,0.512,3.918,1.348,5.621c-3.105,0.941-5.387,3.797-5.387,7.215l0.039,0.402c-1.348-1.246-3.133-2.023-5.113-2.023
		c-4.18,0-7.57,3.391-7.57,7.574c0,2.645,1.363,4.969,3.426,6.32c-2.867,1.082-4.918,3.828-4.918,7.07
		c0,2.035,0.813,3.871,2.117,5.23c-1.293-0.57-2.715-0.898-4.219-0.898c-5.785,0-10.48,4.691-10.48,10.48
		c0,5.109,3.652,9.348,8.488,10.281c-1.758,1.297-2.91,3.363-2.91,5.715c0,2.5,1.297,4.691,3.246,5.969
		c-5.176,0.09-9.352,4.305-9.352,9.5c0,4.926,3.754,8.934,8.547,9.426c-0.688,1.109-1.106,2.406-1.106,3.813
		c0,4.023,3.266,7.285,7.289,7.285l0.445-0.043c-1.559,1.582-2.527,3.754-2.527,6.152c0,4.594,3.551,8.316,8.047,8.695
		c-0.379,0.98-0.605,2.027-0.605,3.145c0,4.848,3.93,8.773,8.773,8.773c0.992,0,1.926-0.203,2.813-0.508l-0.098,0.988
		c0,4.051,3.281,7.328,7.332,7.328c0.449,0,0.883-0.051,1.309-0.129c-0.328,0.988-0.555,2.023-0.555,3.121
		c0,4.313,2.789,7.934,6.648,9.262c-0.379,1.008-0.609,2.082-0.609,3.223c0,5.074,4.121,9.195,9.203,9.195
		c4.043,0,7.441-2.629,8.676-6.258l0.992,0.102c3.832,0,7.047-2.496,8.203-5.941c1.266,2.418,3.766,4.074,6.676,4.074
		c2.676,0,5.016-1.395,6.359-3.484l1.066,0.027c0.551,3.637,3.664,6.438,7.457,6.438c4.152,0,7.52-3.352,7.566-7.496l0.617-0.109
		c0.555,0.473,1.148,0.883,1.793,1.23c-1.063,1.465-1.711,3.242-1.711,5.191c0,4.887,3.961,8.848,8.848,8.848
		s8.844-3.961,8.844-8.848c0-2.926-1.438-5.5-3.629-7.105c1.094-1.145,1.891-2.551,2.363-4.105l1.09-0.457
		c2.23,3.813,6.313,6.398,11.051,6.398c7.082,0,12.828-5.746,12.828-12.832c0-2.027-0.512-3.922-1.352-5.625
		c3.109-0.945,5.391-3.793,5.391-7.215l-0.039-0.398c1.348,1.246,3.133,2.016,5.113,2.016c4.18,0,7.574-3.387,7.574-7.566
		c0-2.648-1.371-4.973-3.426-6.328c2.863-1.078,4.91-3.82,4.91-7.063c0-1.039-0.211-2.02-0.586-2.914
		c0.23-0.539,0.445-1.082,0.664-1.625c0.656,0.129,1.328,0.207,2.027,0.207c5.781,0,10.48-4.691,10.48-10.48
		C1160.391,1098.563,1157.289,1094.641,1153.051,1093.301z"/>
	<path style="fill:#6D3A5C;" d="M1103.219,996.637c4.844,0,8.781-3.926,8.781-8.773c0-4.844-3.938-8.773-8.781-8.773
		c-4.84,0-8.773,3.93-8.773,8.773C1094.445,992.711,1098.379,996.637,1103.219,996.637z"/>
	<path style="fill:#FDDBCC;" d="M841.234,576.285c6.297-32.469-16.473-63.188-21.762-93.074
		c-3.715-21.004-1.918-80.344,17.313-93.102c48.672-32.289,79.617,105.844,96.871,129.629c6.086,8.383,13.238,30.563,28.125,26.484
		c13.234-3.625,9.539-30.383,18.18-39.793c32.43-35.324,32.164,23.453,48.438,42.324c48.566,56.324,48.094-107.387,69.41-130.211
		c58.746-62.91,101.109,77.762,108.27,119.285c35.094-32.207,20.828-71.781,5.914-111.762c-7.707-20.66-14.73-41.109-18.273-61.879
		c-3.551-20.793,2.051-49.059-15.484-64.957c-17.105-15.504-40.762-1.559-58.195-5.336c-13.66-2.965-27.801-26.371-46.113-22.699
		c-44.656,8.953-30.527,78.383-61.105,100.434c-10.27-20.262-16.516-42.738-34.895-57.898
		c-14.676-12.109-27.609-12.781-46.316-20.113c-10.371-4.066-31.809-23.199-39.535-22.422
		c-28.473,2.875-18.039,28.023-26.855,42.898c-29.957,50.551-69.41-43.598-98.09-47.23c-83.453-10.578-0.398,169.336,8.934,194.004
		C784.859,484.129,811.516,578.195,841.234,576.285z"/>
	<path style="fill:#FDDBCC;" d="M1411.152,561.414c2.078,24.152,13.859,17.648,29.965,26.977
		c29.324,16.977,27.75,23.805,12.656,51.23c-15.941,28.965-33.324,53.586-31.32,87.484c29.934,0.051,63.313-76.723,88.375-95.973
		c28.16-21.629,68.355-45.059,103.828-42.063c5.113,48.469-28.621,68.316-61.09,96.957c-55.23,48.723,6.512,40.438,50.074,46.496
		c16.855,2.344,46.789,2.246,57.223,18.512c15.793,24.613-7.422,29.461-17.59,47.355c-33.086,58.238,44.711,32.531,75.707,38.27
		c8.484,17.668,3.246,38.344,12.949,56.66c28.777,5.309,102.746-22.082,110.602-54.34c16.273-66.801-89.672-31.156-114.387-50.156
		c-32.754-25.195,35.824-78.016,26.414-115.156c-3.465-13.68-19.598-45.414-31.035-54.231c-17.094-13.172-45.809-6.867-69.039-8.336
		c-4.773-19.516-22.191-87.961-36.246-95.219c-17.063-8.809-35.641,11.023-50.262,13.824c-20.27,3.883-42.438-2.277-62.152,3.195
		c-8.039-27.445,3.449-43.394,12.734-67.992c7.926-20.973,33.105-60.645-7.391-45.188c-30.195,11.523-61.996,69.133-78.734,95.277
		C1425.051,526.531,1409.926,547.07,1411.152,561.414z"/>
	<path style="fill:#FDDBCC;" d="M1808.602,1171.469c-34.605-10.555-59.578-36.656-96.68-37.711
		c-40.102-1.133-63.508,14.617-38.762,54.129c16.898,26.98,64.277,44.039,39.723,82.274c-19.063,29.672-49.309,8.816-74.438-3.961
		c-33.414-16.984-64.895-31.648-100.148-38.93c19.047,30.031,35.508,67.891,65.344,88.234c33.82,23.066,51.301,21.867,45.82,65.082
		c-29.777,12.207-49.348-1.055-76.375,1.258c7.168,22.125,10.934,32.734,26.699,49.692c11.32,12.168,39.898,34.156,34.957,54.035
		c-7.563,30.461-41.008,10.098-51.574,26.039c-7.766,11.719,18.027,47.742,28.207,55.277v-3.867
		c29.496,7.191,87.223,69.746,116,57.418c54.84-23.48-23.453-75.383-31.969-92.316c-6.77-13.449-10.012-29.41,4.816-39.535
		c23.391-15.969,25.773,13.648,46.691,9.059c15.43-3.387,38.289-63.273,45.629-76.742c-26.797-15.805-40.199-51.688-38.07-82.168
		c3.082-43.973,24.426-31.273,54.129-38.496c35.203-8.566,40.547-37.75,42.539-69.797
		C1854.023,1184.039,1848.5,1183.633,1808.602,1171.469z"/>
	<path style="fill:#FDDBCC;" d="M1421.867,1753.387c-13.773-11.391-26.316-11.234-38.758-27.945
		c-11.73-15.77-17.977-33.188-25.922-51.137c-17.816-40.23-36.652-73.414-74.617-91.949c-43.102-21.051-47.328,4.418-29.887,42.551
		c15.91,34.793,37.328,65.004,2.695,92.875c-23.152,18.637-51.637,12.055-73.449-6.762c-27.133-23.41-15.121-46.254-18.949-74.523
		c-1.898-13.992-13.188-24.672-16.617-37.723c-3.863-14.695,0.227-31.781-2.918-47.352c-14.121-69.844-54.043,30.887-58.008,58
		c-7.484,51.156-5.5,86.746-61.09,111.766c-6.348-28.855,27.332-120.789-0.785-134.965l-11.602,3.863
		c-18.77,24.457-40.355,47.277-58.012,72.438c-13.559,19.324-39.191,44.52-46.5,66.492c-10.414,31.32-1.375,117.641,50.356,96.297
		c20.406-8.418,62.781-94.168,88.172-72.02c5.457,4.762,4.785,46.875,8.535,57.223c7.219,19.934,17.602,32.465,31.027,46.977
		c9.539-11.078,19.395-20.645,28.031-34.512c8.145-13.082,8.414-34.086,21.094-44.242c22.164-17.754,69.477,8.832,63.504,38.918
		c27.234-3.148,33.203-25.434,53.559-38.07c16.117-10.012,48.754-15.883,69.699-7.738c18.617,7.238,35.754,27.965,53.281,39.645
		c15.711,10.465,45.723,14.328,55.77,25.602C1457.184,1822.297,1439.309,1767.809,1421.867,1753.387z"/>
	<path style="fill:#FDDBCC;" d="M632.883,1519.523c-22.188,7.711-44.684,33.684-65.742,28.102
		c-58.207-15.426,21.492-90.129,33.945-113.086c24.25-44.695,59.895-100.801-18.383-91.094c-11.922,1.484-21.301,8.59-34.019,6.094
		c-7.805-1.531-13.988-12.836-27.859-14.68c-23.641-3.148-51.957,20.773-72.016,0.09c14.285-24.348,47.539-37.359,64.652-61.973
		c-21.762-37.465-78.059-29.715-111.641-23.199c-18.16,3.523-36.82,0.699-55.109,3.883c-28.219,4.906-58.008,34.801-37.609,64.754
		c17.027,25.008,47.883,15.883,57.988,51.156c9.652,33.699-21.699,53.316-16.332,85.082c10.734,63.492,144.793-13.656,143.09,84.965
		c-0.508,29.07-14.758,70.277,4.758,96.004c29.844,39.34,48.328-6.918,76.453-2.195c2.363-1.602,4.719-1.703,7.074-0.305
		c1.496,13.617,7.371,25.328,12.828,37.496c22.27,0.148,117.422-117.992,114.773-149.461
		C684.027,1512.063,658.676,1510.559,632.883,1519.523z"/>
	<path style="fill:#FDDBCC;" d="M328.234,955.684c27.226,35.988,74.457,32.371,110.383,49.875c1.41-1.375,2.84-2.738,4.277-4.082
		c-10.086-35.547-54.102-52.867-65.047-92.012c-10.254-36.691-0.957-52.508,30.738-53.191c15.109-0.328,32.125,7.477,43.492,9.988
		c5.281,1.172,18.355-2.219,22.527,0.477c4.68,3.023,9.73,14.234,12.289,15.641c22.402,12.316,52.195,47.043,67.766,3.883
		c13.918-38.586-36.164-49.215-52.414-81.109c-25.137-49.355,27.789-33.797,38.09-61.793c3.828-10.41-10.598-27.699-11.777-38.855
		c-2.031-19.195,7.34-25.231-3.68-42.637c-11.223-17.727-68.797-45-18.551-68.543c17.449-8.18,61.379,20.426,69.676-0.766
		c19.559-49.945-115.313-76.598-143.262-46.898c-21.828,23.191-31.031,86.586-21.137,115.43
		c7.836,22.824,37.891,42.164,28.195,70.684c-12.609,37.082-52.816,23.164-77.527,30.66c-26,7.883-55.543,43.352-61.105,69.688
		c-10.781,51.031,36.203,32.867,48.504,62.645C363.328,927.82,295.734,912.719,328.234,955.684z"/>
</g>
</svg>
