<?xml version="1.0" encoding="utf-8"?>
<!-- Generator: Adobe Illustrator 27.5.0, SVG Export Plug-In . SVG Version: 6.00 Build 0)  -->
<svg version="1.1" id="Capa_1" xmlns="http://www.w3.org/2000/svg" xmlns:xlink="http://www.w3.org/1999/xlink" x="0px" y="0px"
	 viewBox="0 0 2122 2122" style="enable-background:new 0 0 2122 2122;" xml:space="preserve">
<g>
	<path style="fill:#F3C9DF;" d="M1225.344,567.481c8.34,44.387,58.406,56.934,72.68,96.754c8.859,24.66-12.918,52.484-23.598,73.105
		c-9.559,18.477-12.707,37.031-9.309,57.445c0.449,2.66,3.188,4.004,5.555,4.23c90.398,8.594,141.77-91.633,217.52-121.824
		c15.531-6.191,22.801,16.48,35.129,23.891c16.523,9.926,25.984,6.188,41.547-3.879c15.934-10.297,31.703-19.184,47.965-28.051
		c28.965-48.355,39.285-101.703,8.746-156.055c-32.117-57.152-103.383-39.609-141.242-84.215
		c-47.074-55.457-57.234-121.328-151.473-89.902c0,0-2.023,0.645-5.688,2.297c-14.023,38.336-39.438,73.254-60.152,107.523
		C1242.668,482.477,1217.598,526.289,1225.344,567.481z"/>
	<path style="fill:#F3C9DF;" d="M720.414,620.871c13.309,2.938,26.465-0.914,38.418-6.559c8.156-3.852,15.281-10.25,21.898-16.199
		c5.094-4.578,43.789,33.938,48.301,38.109c47.133,43.504,90.063,91.441,143.238,127.91c2.473,1.695,6.539,0.598,7.883-2.066
		c32.477-64.602,11.234-142.473,52.063-203.551c30.168,37.145,55.16,30.336,75.477,4.211
		c-2.996-112.652-25.844-263.215-152.504-277.984c-65.121-7.598-92.805,60.387-151.141,64.809
		c-72.527,5.5-131.801-24.965-161.754,69.758c0,0-27.43,82.141,55.281,230.594c-13.34-23.941-23.809-46.156-31.992-66.582
		C680.285,601.996,698.461,616.027,720.414,620.871z"/>
	<path style="fill:#F0A2C7;" d="M742.055,717.125c14.391-35.461,77.32,34.543,90.211,47.035
		c18.992,18.391,45.895,53.426,74.719,55.691c3.234,0.254,5.621-2.816,5.758-5.762c0.535-11.828,2.367-23.516,3.324-35.297
		c29.094,4.203,49.363,22.449,75.641,34.266c16.77,7.539,28.66-1.23,36.191-16.375c20.773-41.762,8.828-92.508,29.387-133.383
		c9.883-19.652,30.641-26.531,50.555-32.738c0.004-5.086,0.027-10.141,0.098-15.125c0.051-3.734,0.09-7.598,0.117-11.531
		c0.008-0.992,0.008-2.008,0.012-3.012c0.016-3.23,0.027-6.492,0.02-9.836c-0.004-0.734-0.004-1.469-0.008-2.207
		c-0.016-3.77-0.043-7.594-0.098-11.488c-0.004-0.434-0.012-0.871-0.016-1.313c-0.063-4.277-0.148-8.617-0.266-13.02
		c0-0.102-0.008-0.203-0.008-0.305l0,0c-20.316,26.125-45.309,32.934-75.477-4.211c-40.828,61.078-19.586,138.949-52.063,203.551
		c-1.344,2.664-5.41,3.762-7.883,2.066c-53.176-36.469-96.105-84.406-143.238-127.91c-4.512-4.172-43.207-42.688-48.301-38.109
		c-6.617,5.949-13.742,12.348-21.898,16.199c-11.953,5.644-25.109,9.496-38.418,6.559c-21.953-4.844-40.129-18.875-54.832-37.551
		c8.184,20.426,18.652,42.641,31.992,66.582c0.02,0.047,0.047,0.09,0.066,0.133c2.586,4.641,5.293,9.352,8.098,14.121
		c0.106,0.188,0.215,0.367,0.32,0.555c2.789,4.727,5.691,9.52,8.699,14.371c0.25,0.41,0.516,0.824,0.774,1.234
		c2.844,4.574,5.793,9.199,8.848,13.883c0.223,0.344,0.441,0.688,0.668,1.035c3.152,4.82,6.43,9.703,9.805,14.641
		c0.504,0.731,1.016,1.465,1.523,2.199c1.516,2.203,3.125,4.449,4.684,6.672C741.449,718.277,741.793,717.758,742.055,717.125z"/>
	<path style="fill:#F0A2C7;" d="M1157.145,709.547c1.598,5.082,7.621,5.328,10.531,1.375c15.32-20.766,35.605-37.313,52.27-57
		c29.984,32.293,2.609,87.973-9.766,123.105c-8.008,22.75-23.629,62.957,8.188,74.242c20.199,7.176,47.531-2.25,66.746-7.773
		c44.289-12.738,83.02-39.422,125.418-56.883c33.598-13.84,60.676-13.043,88.484,3.246c-4.734,3.77-9.445,7.43-14.102,10.992
		c0.504-0.387,0.996-0.75,1.504-1.141c0.242-0.184,0.48-0.371,0.723-0.555c3.539-2.727,7.102-5.508,10.688-8.344
		c0.219-0.176,0.438-0.348,0.656-0.523c7.563-6.004,15.199-12.258,22.797-18.758c0.102-0.09,0.211-0.18,0.313-0.269
		c3.738-3.199,7.465-6.453,11.168-9.762c0.121-0.113,0.242-0.223,0.371-0.332c7.598-6.809,15.113-13.84,22.406-21.086
		c0.012-0.012,0.027-0.027,0.043-0.043c3.621-3.594,7.191-7.246,10.695-10.945c0.082-0.086,0.16-0.172,0.242-0.258
		c7.07-7.473,13.871-15.141,20.289-22.992c0.004-0.008,0.008-0.012,0.012-0.019c3.168-3.875,6.238-7.801,9.211-11.762
		c0.09-0.129,0.184-0.254,0.281-0.383c5.965-7.984,11.492-16.141,16.469-24.441c0.02-0.027,0.039-0.059,0.059-0.086h-0.008
		c-16.262,8.867-32.031,17.754-47.965,28.051c-15.563,10.066-25.023,13.805-41.547,3.879c-12.328-7.41-19.598-30.082-35.129-23.891
		c-75.75,30.191-127.121,130.418-217.52,121.824c-2.367-0.227-5.105-1.57-5.555-4.23c-3.398-20.414-0.25-38.969,9.309-57.445
		c10.68-20.621,32.457-48.445,23.598-73.105c-14.273-39.82-64.34-52.367-72.68-96.754c-7.746-41.191,17.324-85.004,37.68-118.68
		c20.715-34.27,46.129-69.188,60.152-107.523l0,0c-0.094,0.039-0.199,0.09-0.297,0.137c-0.309,0.141-0.625,0.285-0.961,0.438
		c-0.195,0.094-0.41,0.195-0.613,0.297c-0.324,0.152-0.641,0.301-0.977,0.465c-0.293,0.145-0.609,0.301-0.914,0.457
		c-0.289,0.141-0.563,0.273-0.859,0.426c-0.594,0.301-1.219,0.621-1.855,0.961c-0.184,0.098-0.379,0.203-0.57,0.305
		c-0.5,0.27-1.012,0.543-1.539,0.832c-0.223,0.125-0.457,0.258-0.688,0.383c-0.512,0.285-1.023,0.574-1.555,0.875
		c-0.258,0.148-0.523,0.305-0.789,0.457c-0.535,0.313-1.074,0.629-1.625,0.957c-0.266,0.156-0.527,0.313-0.789,0.473
		c-0.598,0.359-1.203,0.734-1.824,1.113c-0.242,0.148-0.48,0.301-0.719,0.449c-0.688,0.43-1.387,0.875-2.098,1.332
		c-0.199,0.129-0.398,0.254-0.598,0.387c-0.883,0.574-1.789,1.172-2.703,1.793c-0.031,0.02-0.059,0.035-0.09,0.055
		c-1.988,1.344-4.063,2.801-6.223,4.375c-0.051,0.039-0.109,0.082-0.168,0.125c-0.988,0.723-2,1.473-3.016,2.25
		c-0.176,0.129-0.355,0.27-0.531,0.406c-0.918,0.691-1.836,1.406-2.777,2.145c-0.23,0.18-0.457,0.367-0.691,0.547
		c-0.906,0.719-1.824,1.457-2.754,2.215c-0.238,0.195-0.48,0.395-0.727,0.594c-0.965,0.793-1.941,1.613-2.934,2.449
		c-0.195,0.168-0.383,0.328-0.578,0.492c-1.098,0.938-2.211,1.902-3.336,2.895c-0.094,0.082-0.188,0.16-0.281,0.242
		c-3.758,3.328-7.656,6.961-11.672,10.93c-0.074,0.07-0.141,0.145-0.211,0.211c-1.227,1.215-2.465,2.461-3.707,3.734
		c-0.219,0.223-0.434,0.453-0.652,0.676c-1.117,1.148-2.234,2.32-3.367,3.52c-0.266,0.285-0.535,0.574-0.805,0.859
		c-1.105,1.18-2.215,2.387-3.332,3.617c-0.27,0.301-0.539,0.598-0.813,0.902c-1.148,1.273-2.309,2.574-3.469,3.906
		c-0.234,0.266-0.469,0.527-0.703,0.797c-1.324,1.523-2.652,3.082-3.992,4.68c-0.059,0.066-0.113,0.129-0.168,0.195
		c-4.316,5.141-8.707,10.66-13.145,16.574c-0.215,0.277-0.43,0.57-0.637,0.855c-1.23,1.641-2.461,3.309-3.695,5.016
		c-0.32,0.441-0.641,0.895-0.969,1.348c-1.129,1.574-2.266,3.176-3.406,4.809c-0.363,0.527-0.734,1.059-1.105,1.59
		c-1.113,1.613-2.23,3.25-3.352,4.914c-0.363,0.543-0.73,1.082-1.098,1.629c-1.172,1.762-2.352,3.563-3.531,5.383
		c-0.297,0.453-0.59,0.898-0.883,1.355c-1.391,2.164-2.785,4.371-4.184,6.617c-0.074,0.121-0.152,0.242-0.23,0.367
		c-3.035,4.895-6.074,9.988-9.109,15.281c-0.184,0.324-0.371,0.652-0.551,0.977c-1.281,2.242-2.563,4.516-3.84,6.828
		c-0.375,0.676-0.742,1.363-1.121,2.039c-1.094,2.008-2.191,4.039-3.293,6.098c-0.434,0.824-0.867,1.652-1.305,2.48
		c-1.031,1.969-2.07,3.961-3.102,5.98c-0.465,0.906-0.926,1.813-1.391,2.73c-1.027,2.031-2.055,4.094-3.078,6.176
		c-0.445,0.898-0.887,1.789-1.324,2.695c-1.078,2.219-2.156,4.473-3.227,6.75c-0.387,0.809-0.77,1.602-1.148,2.418
		c-1.297,2.781-2.594,5.609-3.891,8.477c-0.141,0.313-0.281,0.617-0.422,0.93c-1.488,3.301-2.957,6.656-4.43,10.074
		c-0.059,0.133-0.117,0.27-0.176,0.402c-1.355,3.156-2.707,6.367-4.055,9.625c-0.379,0.922-0.758,1.867-1.137,2.793
		c-0.734,1.793-1.465,3.566-2.195,5.383C1164.059,606.262,1141.039,658.164,1157.145,709.547z"/>
	<path style="fill:#F3C9DF;" d="M1812.223,1038.102c20.969-69.648,70.73-113.992-6.859-176.02c0,0-37.746-31.156-127.941-36.559
		c-22.527,7-44.922,14.449-67.098,22.188c-43.012,15.004-107.887,32.059-136.574,70.652c-28.219,37.984,57.801,73.453,75.75,91.039
		c15.438,15.121,14.793,38.891,0.918,54.969c-11.234,13.031-34.094,12.508-49.629,13.199c-27.34,1.211-56.008,1.715-75.066,24.16
		c-2.836,3.328-1.805,8.246,2.531,9.625c21.742,6.914,43.93,12.207,65.434,19.824c16.449,5.828,32.797,14.313,42.563,29.492
		c8.254,12.828,8.738,31.336,10.523,45.875c3.809,31.016,17.918,44.746,44.188,58.855c4.914,2.641,9.969,5.238,15.055,7.813
		c-48.508-9.117-96.438-25.844-135.031-40.871c105.723,41.184,281.477,95.25,347.309-29.902
		C1848.82,1144.41,1795.344,1094.121,1812.223,1038.102z"/>
	<path style="fill:#F0A2C7;" d="M1590.961,1265.402c-26.27-14.109-40.379-27.84-44.188-58.855
		c-1.785-14.539-2.27-33.047-10.523-45.875c-9.766-15.18-26.113-23.664-42.563-29.492c-21.504-7.617-43.691-12.91-65.434-19.824
		c-4.336-1.379-5.367-6.297-2.531-9.625c19.059-22.445,47.727-22.949,75.066-24.16c15.535-0.691,38.395-0.168,49.629-13.199
		c13.875-16.078,14.52-39.848-0.918-54.969c-17.949-17.586-103.969-53.055-75.75-91.039c28.688-38.594,93.563-55.648,136.574-70.652
		c22.176-7.738,44.57-15.188,67.098-22.188l0,0c-0.02,0-0.043-0.004-0.066-0.004c-17.922-1.07-37.922-1.113-60.094,0.293
		c-0.355,0.023-0.707,0.043-1.063,0.066c-5.25,0.344-10.629,0.773-16.137,1.289c-0.492,0.047-0.992,0.094-1.488,0.144
		c-5.547,0.527-11.207,1.144-17.004,1.859c-0.285,0.035-0.566,0.074-0.844,0.105c-11.824,1.477-24.176,3.359-37.059,5.676
		c-0.613,0.109-1.223,0.215-1.836,0.328c-6.086,1.109-12.301,2.332-18.621,3.645c-0.926,0.191-1.852,0.383-2.777,0.582
		c-6.289,1.328-12.688,2.754-19.215,4.293c-0.887,0.215-1.793,0.434-2.688,0.648c-6.734,1.613-13.574,3.32-20.566,5.164
		c-0.391,0.105-0.793,0.219-1.184,0.32c-3.105,0.828-6.324,1.766-9.48,2.637c-16.531,9.691-32.625,19.188-48.242,27.418
		c-28.699,15.133-51.129,36.066-52.047,70.172c-0.301,11.039,5.645,20.535,13.012,28.109c13.465,13.867,28.461,20.676,38.012,37.371
		c-40.574,13.449-87.57-28.516-128.926-9.992c-12.102,5.426-18.699,25.16-13.438,36.926c3.363,7.496,8.105,11.863,14.598,16.66
		c14.344,10.602,25.801,16.906,37.543,31.285c22.637,27.695,45.582,56.738,78.137,72.867c34.777,17.227,67.266,26.082,95.035,55.359
		c9.883,10.418,18.68,22.105,27.207,34.129c-23.504-7.613-45.551-15.898-64.926-23.555c2.418,0.953,4.863,1.914,7.355,2.887
		c0.117,0.047,0.238,0.094,0.363,0.137c38.594,15.027,86.523,31.754,135.031,40.871
		C1600.93,1270.641,1595.875,1268.043,1590.961,1265.402z"/>
	<path style="fill:#EC7AB0;" d="M1528.191,1252.875c-8.527-12.023-17.324-23.711-27.207-34.129
		c-27.77-29.277-60.258-38.133-95.035-55.359c-32.555-16.129-55.5-45.172-78.137-72.867c-11.742-14.379-23.199-20.684-37.543-31.285
		c-6.492-4.797-11.234-9.164-14.598-16.66c-5.262-11.766,1.336-31.5,13.438-36.926c41.355-18.523,88.352,23.441,128.926,9.992
		c-9.551-16.695-24.547-23.504-38.012-37.371c-7.367-7.574-13.313-17.07-13.012-28.109c0.918-34.106,23.348-55.039,52.047-70.172
		c15.617-8.23,31.711-17.727,48.242-27.418c0.004,0,0.008-0.004,0.008-0.004c-0.121,0.035-0.242,0.07-0.363,0.105
		c-7.844,2.172-15.855,4.508-24,6.973c-1.613,0.492-3.223,0.981-4.844,1.477c-4.723,1.457-9.5,2.969-14.328,4.531
		c-4.844,1.563-9.734,3.184-14.684,4.859c-2.852,0.965-5.73,1.957-8.613,2.957c-6.691,2.324-13.465,4.734-20.348,7.266
		c-1.617,0.594-3.27,1.219-4.902,1.824c-7.93,2.953-15.949,6-24.145,9.234c7.211-2.848,14.285-5.547,21.301-8.176
		c24.352-18.078,48.199-36.285,71.348-52.613c3.836-2.711,7.832-5.555,11.902-8.477c0.918-0.66,1.852-1.34,2.781-2.012
		c3.309-2.391,6.68-4.844,10.098-7.367c1.047-0.769,2.09-1.539,3.152-2.328c3.754-2.781,7.563-5.641,11.41-8.574
		c0.617-0.469,1.219-0.918,1.84-1.394c4.656-3.563,9.367-7.223,14.102-10.992c-27.809-16.289-54.887-17.086-88.484-3.246
		c-42.398,17.461-81.129,44.145-125.418,56.883c-19.215,5.523-46.547,14.949-66.746,7.773
		c-31.816-11.285-16.195-51.492-8.188-74.242c12.375-35.133,39.75-90.813,9.766-123.105c-16.664,19.688-36.949,36.234-52.27,57
		c-2.91,3.953-8.934,3.707-10.531-1.375c-16.105-51.383,6.914-103.285,2.035-154.324c0-0.004,0-0.012,0-0.016
		c-0.355,0.887-0.707,1.805-1.063,2.703c-0.23,0.598-0.465,1.199-0.703,1.801c-0.746,1.895-1.492,3.781-2.234,5.711
		c-0.043,0.121-0.09,0.25-0.141,0.375c-0.371,0.965-0.734,1.945-1.102,2.918c-0.277,0.727-0.555,1.449-0.828,2.18
		c-0.551,1.465-1.102,2.926-1.645,4.41c-0.246,0.645-0.48,1.313-0.723,1.961c-0.391,1.063-0.773,2.129-1.16,3.195
		c-0.195,0.531-0.391,1.055-0.582,1.59c-0.41,1.145-0.82,2.293-1.23,3.445c-0.32,0.898-0.633,1.813-0.953,2.715
		c-0.898,2.555-1.793,5.129-2.684,7.738c-0.371,1.082-0.738,2.18-1.109,3.269c-0.73,2.172-1.461,4.344-2.188,6.551
		c-0.102,0.316-0.203,0.641-0.305,0.957c-0.395,1.191-0.781,2.398-1.172,3.602c-0.793,2.457-1.586,4.93-2.371,7.43
		c0,0.008-0.004,0.016-0.004,0.023c-0.41,1.289-0.809,2.59-1.215,3.891c-0.766,2.477-1.527,4.973-2.289,7.496
		c-0.402,1.348-0.809,2.703-1.215,4.066c-0.043,0.145-0.086,0.289-0.129,0.438c-0.707,2.379-1.402,4.781-2.102,7.195
		c-0.398,1.398-0.805,2.797-1.203,4.207c-0.141,0.492-0.281,0.98-0.422,1.48c-0.59,2.086-1.172,4.199-1.754,6.313
		c-0.402,1.453-0.801,2.902-1.199,4.371c-0.707,2.613-1.41,5.254-2.105,7.91c-0.398,1.504-0.801,3.008-1.188,4.527
		c-0.344,1.305-0.68,2.609-1.016,3.922c-0.262,1.051-0.523,2.125-0.793,3.18c-0.094,0.356-0.18,0.715-0.27,1.074
		c-0.379,1.519-0.762,3.023-1.145,4.555c-0.406,1.664-0.813,3.34-1.223,5.016c-0.273,1.141-0.543,2.293-0.816,3.438
		c-0.371,1.531-0.742,3.047-1.102,4.59c-0.488,2.09-0.977,4.207-1.457,6.316c-0.211,0.914-0.414,1.828-0.625,2.742
		c-0.324,1.426-0.652,2.828-0.973,4.262c-0.609,2.731-1.203,5.508-1.809,8.277c-0.121,0.563-0.242,1.129-0.363,1.695
		c-0.27,1.246-0.543,2.469-0.813,3.723c-0.336,1.594-0.664,3.223-1,4.828c-0.008-32.793-0.922-65.594-0.875-96.746
		c-0.02,0.004-0.031,0.008-0.047,0.016c-19.914,6.207-40.672,13.086-50.555,32.738c-20.559,40.875-8.613,91.621-29.387,133.383
		c-7.531,15.145-19.422,23.914-36.191,16.375c-26.277-11.816-46.547-30.063-75.641-34.266c-0.957,11.781-2.789,23.469-3.324,35.297
		c-0.137,2.945-2.523,6.016-5.758,5.762c-28.824-2.266-55.727-37.301-74.719-55.691c-12.891-12.492-75.82-82.496-90.211-47.035
		c-0.262,0.633-0.606,1.152-0.996,1.621v0.004c0.078,0.117,0.172,0.234,0.254,0.352c7.82,11.125,16.273,22.555,25.273,34.23
		c-0.023-0.019-0.051-0.043-0.074-0.063c-0.047-0.043-0.102-0.086-0.152-0.129c-6.551-5.633-12.98-11.238-19.238-16.816
		c-7.074-6.316-14.695-13.031-22.781-19.957c19.168,29.773,44.297,56.348,72.992,79.234c19.449,15.523,54.969,38.781,58.027,66.473
		c3.926,35.535-37.137,45.664-43.75,76.082c-4.797,22.094,6.809,30.391,12.012,49.039c2.098,7.566,2.914,16.098-1.586,23.168
		c-15.496,24.316-36.699,29.906-63.387,19.543c-21.23-8.246-42.223-20.531-65.754-15.008c-20.57,4.828-39.648,13.086-58.531,22.465
		c-30.664,15.223-60.891,30.984-94.422,37.965c12.793,2.016,26.223,3.801,40.281,5.32c0.605,0.063,1.199,0.133,1.805,0.195
		c3.059,0.32,6.148,0.633,9.27,0.93c0.16,0.016,0.316,0.035,0.484,0.055c0.281,0.023,0.558,0.047,0.844,0.078
		c0.551,0.051,1.117,0.098,1.668,0.148c3.055,0.277,6.121,0.559,9.234,0.816c0.414,0.031,0.844,0.063,1.258,0.098
		c5.816,0.465,11.754,0.887,17.777,1.27c1.246,0.074,2.477,0.168,3.731,0.238c-2.18-0.129-4.344-0.273-6.504-0.414
		c24.012,8.832,54.25,11.051,72.766,13.215c40.098,4.66,82.973-1.238,120.789,14.195l0.465,0.137l-0.02,0.039
		c0.461,0.191,0.938,0.348,1.395,0.543c2.359,1.012,3.109,3.098,2.828,5.168c8.008,22.266,24.191,29.613,45.172,38.145
		c13.465,5.484,23.035,21.301,23.797,35.59c2.395,44.977-40.926,79.926-64.402,113.559
		c-33.637,48.188-31.539,109.633-64.672,158.574c4.699-3.684,9.465-7.523,14.273-11.473c1.168-0.961,2.336-1.926,3.512-2.906
		c0.262-0.211,0.527-0.438,0.785-0.652c1.855-3.43,3.715-6.797,5.563-10.117c0.098-0.172,0.191-0.344,0.289-0.512
		c2.219-3.984,4.422-7.879,6.606-11.684c0.176-0.309,0.34-0.602,0.516-0.902c2.055-3.582,4.082-7.078,6.086-10.492
		c0.203-0.352,0.41-0.707,0.617-1.059c2.098-3.582,4.168-7.078,6.18-10.457c7.789-13.074,15.547-26.742,23.367-40.676
		c9.07-10.973,18.094-21.984,27.02-33.074c18.184-22.613,37.445-47.063,60.07-65.477c10.68-8.699,24.313-19.539,38.754-13.586
		c12.609,5.203,15.914,21.848,17.18,36.016c22.176-25.109,33.781-65.141,69.328-72.277c34.523-6.926,50.941,33.945,58.824,59.523
		c17.512,56.793,29.945,113.035,59.559,165.285c3.625,6.395,7.289,12.75,10.961,19.086c-1.043-7.984-2.207-16.141-3.488-24.445
		c-0.027-0.227-0.063-0.445-0.098-0.668c-1.188-7.695-2.504-15.559-3.906-23.531c-0.18-1.016-0.348-2.008-0.527-3.023
		c-1.301-7.273-2.727-14.707-4.215-22.23c-0.207-1.039-0.375-2.027-0.578-3.07c1.32,6.582,2.59,13.098,3.77,19.496
		c0.148,0.793,0.277,1.563,0.422,2.352c1.137,6.23,2.195,12.359,3.203,18.41c0.27,1.637,0.547,3.277,0.809,4.902
		c1.043,6.484,2.027,12.883,2.934,19.172c0.176,1.223,0.332,2.422,0.496,3.641c0.758,5.402,1.457,10.727,2.105,15.984
		c0.188,1.5,0.379,3.016,0.555,4.512c0.711,5.965,1.359,11.832,1.941,17.605c0.141,1.414,0.262,2.797,0.398,4.195
		c0.461,4.883,0.887,9.691,1.262,14.441c0.102,1.293,0.219,2.602,0.316,3.887c0.41,5.496,0.754,10.891,1.055,16.207
		c0.074,1.477,0.145,2.934,0.223,4.398c0.223,4.508,0.41,8.949,0.555,13.332c0.035,1.055,0.082,2.137,0.117,3.188
		c0.145,5.055,0.223,10.004,0.27,14.883c0.012,1.465,0.012,2.91,0.023,4.355c0.008,4.305-0.012,8.555-0.078,12.719
		c-0.012,0.738-0.012,1.496-0.023,2.227c-0.055,2.887-0.145,5.711-0.23,8.531c3.277,7.656,6.719,15.246,10.367,22.684
		c0.508-24.895,1.727-49.746,4.492-74.469c0.352-3.137,0.723-6.293,1.121-9.461c0.074-0.586,0.156-1.18,0.23-1.77
		c0.344-2.68,0.699-5.363,1.09-8.051c0.082-0.566,0.172-1.133,0.254-1.699c0.414-2.805,0.855-5.609,1.34-8.406
		c0.066-0.402,0.137-0.801,0.203-1.199c0.555-3.145,1.141-6.281,1.793-9.402c0.012-0.039,0.016-0.078,0.023-0.117
		c2.773-13.281,6.52-26.289,11.914-38.422l0,0c-10.387-30.008-29.25-59.465-25.957-91.746c2.629-25.809,20.93-49.121,1.898-74.027
		c-11.293-14.766-19.918-26.797-22.762-45.379c-2.367-15.434-1.453-34.434,3.133-51.828c-24.73,5.199-51.922,3.664-75.016,6.574
		c-39.883,5.016-89.441,13.641-126.266-4.277c-55.863-27.191-35.176-60.012-38.555-109.512
		c-4.824-70.793-55.894-104.75-7.348-172.676c28.363-39.699,69.504-75.488,119.461-81.203
		c51.391-5.871,110.625,19.422,155.16,46.137c0.227,0.129,0.461,0.266,0.68,0.398c3.164,1.906,6.266,3.813,9.266,5.719
		c71.746,45.551,50.094,89.004,45.457,161.844c-1.98,31.066-4.781,63.344-17.656,92.02c11.563,0.606,23.133,4.504,33.305,11.852
		c27.266,19.692,45.738,53.047,75.801,68.656c36.344,18.863,78.254,33.52,116.539,48.082c9.258,3.516,18.762,7.023,28.438,10.223
		c0,0.004,0.004,0.004,0.004,0.004c-0.105-0.098-0.219-0.195-0.324-0.293c-0.16-0.152-0.344-0.309-0.508-0.453
		c-4.074-3.73-8.254-7.488-12.551-11.27c-0.055-0.047-0.105-0.098-0.164-0.145c-0.582-0.512-1.172-1.02-1.754-1.531
		c-0.75-0.656-1.555-1.328-2.309-1.98c-3.289-2.863-6.609-5.723-10.027-8.605c-0.238-0.207-0.465-0.398-0.699-0.602
		c-0.434-0.363-0.848-0.723-1.281-1.086c-1.125-0.945-2.332-1.902-3.469-2.844c-3.16-2.633-6.363-5.266-9.637-7.918
		c-0.473-0.379-0.914-0.754-1.387-1.133c-0.91-0.738-1.836-1.473-2.754-2.207c-0.676-0.539-1.387-1.082-2.066-1.625
		c-3.199-2.543-6.445-5.094-9.742-7.656c-0.781-0.605-1.516-1.207-2.301-1.809c-0.512-0.395-1.004-0.785-1.516-1.18
		c-0.949-0.731-1.969-1.473-2.922-2.203c-3.344-2.547-6.75-5.109-10.191-7.672c-0.926-0.688-1.805-1.371-2.734-2.063
		c-1.227-0.906-2.473-1.813-3.707-2.723c-0.207-0.145-0.422-0.301-0.621-0.449c-3.578-2.621-7.254-5.262-10.945-7.902
		c-1.387-0.988-2.707-1.969-4.102-2.961c-0.469-0.328-0.914-0.652-1.375-0.984c-0.547-0.379-1.125-0.77-1.668-1.148
		c-4.082-2.875-8.293-5.766-12.504-8.66c-1.109-0.758-2.164-1.508-3.281-2.27c3.637,2.48,7.223,4.945,10.758,7.41
		c0.867,0.605,1.777,1.215,2.641,1.816c25.652,9.52,51.035,18.723,74.816,28.273c2.648,1.063,5.363,2.145,8.129,3.242
		c0.098,0.035,0.203,0.074,0.301,0.121c0.012,0,0.031,0.008,0.047,0.02C1482.641,1236.977,1504.688,1245.262,1528.191,1252.875z"/>
	<path style="fill:#F3C9DF;" d="M1524.324,1352.164c-38.871-7.156-101.41-82.949-143.699-44.313
		c-8.352,7.637-10.563,17.16-10.641,28.172c-0.059,8.953,0.195,7.57-8.223,2.738c-15.316-8.789-30.5-19.961-42.035-33.281
		c-24.293-28.039-48.117-94.258-95.727-86.832c-46.762,7.301-43.207,40.398-19.703,72.141c13.477,18.199,30.195,33.945,42.414,53.07
		c8.402,13.16,15.281,31.055,16.633,46.824c1.004,11.672-12.625,17.715-20.52,23.402c-16.508,11.922-27.57,27.496-35.293,44.863l0,0
		c-5.395,12.133-9.141,25.141-11.914,38.422c-0.008,0.039-0.012,0.078-0.023,0.117c-0.652,3.121-1.238,6.258-1.793,9.402
		c-0.066,0.398-0.137,0.797-0.203,1.199c-0.484,2.797-0.926,5.602-1.34,8.406c-0.082,0.566-0.172,1.133-0.254,1.699
		c-0.391,2.688-0.746,5.371-1.09,8.051c-0.074,0.59-0.156,1.184-0.23,1.77c-0.398,3.168-0.77,6.324-1.121,9.461
		c-2.766,24.723-3.984,49.574-4.492,74.469c-3.648-7.438-7.09-15.027-10.367-22.684c0.086-2.82,0.176-5.645,0.23-8.531
		c-0.09,4.648-0.238,9.18-0.414,13.656c0.063-1.656,0.125-3.316,0.18-4.992c35.652,83.223,92.492,157.094,186.195,144.516
		c64.973-8.711,75.008-81.422,130.445-100.109c68.938-23.242,133.902-8.344,139.523-107.523c0,0,5.332-73.16-84.836-181.031
		c2.664,3.191,5.266,6.363,7.77,9.488C1543.945,1354.539,1534.105,1353.965,1524.324,1352.164z"/>
	<path style="fill:#F0A2C7;" d="M1454.672,1269.582c-38.285-14.563-80.195-29.219-116.539-48.082
		c-30.063-15.609-48.535-48.965-75.801-68.656c-10.172-7.348-21.742-11.246-33.305-11.852c-4.238,9.449-9.57,18.512-16.332,27.008
		c-13.02,16.352-30.242,24.063-48.852,27.969c-4.586,17.395-5.5,36.395-3.133,51.828c2.844,18.582,11.469,30.613,22.762,45.379
		c19.031,24.906,0.73,48.219-1.898,74.027c-3.293,32.281,15.57,61.738,25.957,91.746c7.723-17.367,18.785-32.941,35.293-44.863
		c7.895-5.688,21.523-11.73,20.52-23.402c-1.352-15.77-8.23-33.664-16.633-46.824c-12.219-19.125-28.938-34.871-42.414-53.07
		c-23.504-31.742-27.059-64.84,19.703-72.141c47.609-7.426,71.434,58.793,95.727,86.832c11.535,13.32,26.719,24.492,42.035,33.281
		c8.418,4.832,8.164,6.215,8.223-2.738c0.078-11.012,2.289-20.535,10.641-28.172c42.289-38.637,104.828,37.156,143.699,44.313
		c9.781,1.801,19.621,2.375,29.473,2.57c-2.504-3.125-5.105-6.297-7.77-9.488c-0.301-0.363-0.598-0.723-0.902-1.082
		c-5.477-6.516-11.289-13.152-17.48-19.906c-0.293-0.324-0.598-0.648-0.895-0.977c-2.766-3-5.605-6.031-8.52-9.082
		c-0.488-0.516-0.98-1.031-1.48-1.547c-6.441-6.711-13.246-13.516-20.434-20.43c-0.699-0.672-1.41-1.352-2.117-2.024
		c-3.016-2.879-6.102-5.773-9.246-8.68c-0.621-0.574-1.219-1.141-1.844-1.715C1473.434,1276.605,1463.93,1273.098,1454.672,1269.582
		z"/>
	<path style="fill:#F3C9DF;" d="M628.254,1504.969c18.453-22.586,24.816-46.613,21.746-75.363
		c-2.93-27.563-16.27-57.793,5.516-80.453c29.613-30.797,70.414-52.152,104.82-77.066c20.051-14.523,54.508-35.473,56.863-63.074
		c2.77-32.555-46.137-17.258-60.043-11.93c-23.863,9.137-48.145,23.258-74.258,23.785c-40.488,0.82-29.613-46.301-42.555-68.394
		c-26.016-44.426-91.34-41.301-134.652-31.996c-35.215,7.566-70.762,23.625-106.844,32.762
		c56.012-43.09,142.004-60.883,211.367-69.828c0.887,0.063,1.793,0.121,2.68,0.184c-2.672-0.199-5.32-0.402-7.953-0.617
		c1.738,0.141,3.441,0.293,5.195,0.43c-112.637,14.523-269.18,52.398-269.754,183.945c-0.313,65.566,70.344,85.492,81.234,142.973
		c13.535,71.477-10.133,133.773,87.34,152.98c0,0,22.156,4.734,62.309-3.84c-2.07,0.441-4.094,0.852-6.066,1.227
		C587.988,1544.148,610.246,1527.016,628.254,1504.969z"/>
	<path style="fill:#F0A2C7;" d="M757.906,1463.227c33.133-48.941,31.035-110.387,64.672-158.574
		c23.477-33.633,66.797-68.582,64.402-113.559c-0.762-14.289-10.332-30.105-23.797-35.59c-20.981-8.531-37.164-15.879-45.172-38.145
		c0.281-2.07-0.469-4.156-2.828-5.168c-0.457-0.195-0.934-0.352-1.395-0.543l0.02-0.039l-0.465-0.137
		c-37.816-15.434-80.691-9.535-120.789-14.195c-18.516-2.164-48.754-4.383-72.766-13.215c-0.148-0.004-0.297-0.02-0.441-0.027
		c1.063,0.07,2.145,0.137,3.215,0.203c-6.023-0.383-11.961-0.805-17.777-1.27c0.051,0.004,0.102,0.008,0.156,0.008
		c2.633,0.215,5.281,0.418,7.953,0.617c-0.887-0.063-1.793-0.121-2.68-0.184c-69.363,8.945-155.355,26.738-211.367,69.828
		c36.082-9.137,71.629-25.195,106.844-32.762c43.313-9.305,108.637-12.43,134.652,31.996c12.941,22.094,2.066,69.215,42.555,68.394
		c26.113-0.527,50.395-14.648,74.258-23.785c13.906-5.328,62.812-20.625,60.043,11.93c-2.355,27.602-36.813,48.551-56.863,63.074
		c-34.406,24.914-75.207,46.27-104.82,77.066c-21.785,22.66-8.445,52.891-5.516,80.453c3.07,28.75-3.293,52.777-21.746,75.363
		c-18.008,22.047-40.266,39.18-63.055,55.723c1.973-0.375,3.996-0.785,6.066-1.227c0.238-0.055,0.492-0.105,0.734-0.16
		c1.742-0.379,3.527-0.785,5.34-1.215c0.461-0.109,0.926-0.223,1.395-0.336c1.754-0.422,3.535-0.871,5.348-1.348
		c0.379-0.098,0.754-0.191,1.141-0.297c4.375-1.164,8.93-2.488,13.652-3.973c0.559-0.176,1.129-0.359,1.695-0.547
		c1.832-0.582,3.691-1.195,5.574-1.836c0.621-0.215,1.246-0.422,1.875-0.641c2.168-0.746,4.363-1.531,6.59-2.352
		c0.285-0.102,0.551-0.195,0.828-0.301c2.543-0.945,5.137-1.938,7.762-2.977c0.523-0.203,1.055-0.426,1.578-0.637
		c2.07-0.828,4.168-1.691,6.285-2.582c0.785-0.332,1.578-0.668,2.375-1.004c2.016-0.867,4.063-1.77,6.129-2.691
		c0.719-0.32,1.426-0.633,2.148-0.953c2.773-1.262,5.578-2.57,8.434-3.934c0.137-0.066,0.281-0.137,0.418-0.207
		c2.664-1.277,5.375-2.625,8.109-4c0.856-0.441,1.734-0.895,2.602-1.336c2.102-1.082,4.227-2.188,6.371-3.328
		c0.934-0.496,1.859-0.996,2.801-1.5c2.418-1.301,4.859-2.652,7.316-4.035c0.606-0.34,1.199-0.664,1.809-1.008
		c3.051-1.727,6.141-3.523,9.258-5.375c0.773-0.457,1.563-0.941,2.344-1.406c2.371-1.43,4.766-2.887,7.176-4.383
		c1.063-0.652,2.129-1.324,3.195-1.996c2.301-1.441,4.613-2.93,6.949-4.441c0.988-0.645,1.973-1.273,2.965-1.926
		c3.277-2.152,6.574-4.355,9.918-6.641c0.242-0.172,0.496-0.352,0.742-0.523c3.102-2.121,6.227-4.32,9.379-6.566
		c1.082-0.77,2.176-1.563,3.262-2.348c2.41-1.738,4.836-3.512,7.281-5.324c1.172-0.875,2.351-1.742,3.527-2.629
		c2.699-2.023,5.414-4.102,8.149-6.211c0.844-0.652,1.672-1.277,2.512-1.934c3.535-2.758,7.102-5.59,10.695-8.492
		c0.941-0.758,1.887-1.551,2.832-2.32c0.805-0.656,1.617-1.34,2.422-2C767.371,1455.703,762.605,1459.543,757.906,1463.227z"/>
	<path style="fill:#F3C9DF;" d="M1131.305,1677.023c8.32-24.359,13.34-47.086,8.543-72.676
		c-3.148-16.785-17.031-31.625-28.102-43.688c-20.016-21.789-38.938-41.297-42.445-72.254c-2.816-24.887,7.258-50.313,9.676-74.914
		c2.895-29.66-2.359-55.313-12.395-83.25c-4.609-12.867-17.781-43.383-37.035-33.676c-23.367,11.781-31.191,50.602-37.516,73.008
		c-11.918,42.293-15.66,87.266-45.555,121.949c-42.445,49.242-42.027-44.121-39.414-67.488c0.359-3.281-2.914-5.559-5.762-5.758
		c-103.656-7.395-163.406,110.484-188.156,206.867c0.481-4.895,1.121-9.832,1.899-14.777
		c-9.305,59.352,1.469,116.105,54.238,155.371c52.598,39.148,110.555-5.898,163.281,19.445
		c65.566,31.508,101.68,87.531,174.965,20.465c0,0,6.273-5.566,14.996-18.328c-1.316-6.797-2.484-13.625-3.402-20.535
		C1114.855,1734.766,1121.043,1707.059,1131.305,1677.023z"/>
	<path style="fill:#F0A2C7;" d="M1174.934,1580.73c0.012-0.73,0.012-1.488,0.023-2.227c0.066-4.164,0.086-8.414,0.078-12.719
		c-0.012-1.445-0.012-2.891-0.023-4.355c-0.047-4.879-0.125-9.828-0.27-14.883c-0.035-1.051-0.082-2.133-0.117-3.188
		c-0.145-4.375-0.332-8.824-0.555-13.332c-0.078-1.465-0.148-2.922-0.223-4.398c-0.301-5.316-0.645-10.711-1.055-16.207
		c-0.098-1.285-0.215-2.594-0.316-3.887c-0.375-4.75-0.801-9.559-1.262-14.441c-0.137-1.398-0.258-2.781-0.398-4.195
		c-0.582-5.773-1.23-11.641-1.941-17.605c-0.176-1.496-0.367-3.012-0.555-4.512c-0.648-5.258-1.348-10.582-2.105-15.984
		c-0.164-1.219-0.32-2.418-0.496-3.641c-0.555-3.875-1.199-7.867-1.813-11.808c1.281,8.305,2.445,16.461,3.488,24.445
		c-3.672-6.336-7.336-12.691-10.961-19.086c-29.613-52.25-42.047-108.492-59.559-165.285c-7.883-25.578-24.301-66.449-58.824-59.523
		c-35.547,7.137-47.152,47.168-69.328,72.277c-1.266-14.168-4.57-30.813-17.18-36.016c-14.441-5.953-28.074,4.887-38.754,13.586
		c-22.625,18.414-41.887,42.863-60.07,65.477c-8.926,11.09-17.949,22.101-27.02,33.074c-7.82,13.934-15.578,27.602-23.367,40.676
		c-2.012,3.379-4.082,6.875-6.18,10.457c-0.207,0.352-0.414,0.707-0.617,1.059c-2.004,3.414-4.031,6.91-6.086,10.492
		c-0.176,0.301-0.34,0.594-0.516,0.902c-2.184,3.805-4.387,7.699-6.606,11.684c-0.098,0.168-0.191,0.34-0.289,0.512
		c-2.156,3.883-4.336,7.844-6.512,11.867c-0.176,0.336-0.359,0.664-0.539,1c-2.219,4.121-4.441,8.313-6.652,12.57
		c-0.047,0.082-0.09,0.164-0.133,0.246c-2.266,4.363-4.516,8.789-6.75,13.277c-0.102,0.215-0.207,0.426-0.309,0.637
		c-2.164,4.363-4.309,8.781-6.414,13.238c-0.105,0.227-0.207,0.449-0.316,0.672c-4.359,9.258-8.57,18.719-12.535,28.313
		c-0.086,0.211-0.176,0.418-0.258,0.625c-1.969,4.773-3.883,9.582-5.715,14.414c-0.012,0.027-0.02,0.055-0.031,0.086
		c-1.879,4.941-3.676,9.918-5.387,14.906c-0.004,0.004-0.004,0.012-0.012,0.016c-1.68,4.906-3.266,9.832-4.762,14.762
		c-0.055,0.172-0.109,0.34-0.156,0.512c-2.996,9.918-5.594,19.863-7.684,29.777c-0.023,0.141-0.055,0.273-0.082,0.41
		c-1.024,4.871-1.922,9.734-2.691,14.586c-0.02,0.129-0.039,0.254-0.059,0.375c-0.777,4.945-1.418,9.883-1.899,14.777
		c24.75-96.383,84.5-214.262,188.156-206.867c2.848,0.199,6.121,2.477,5.762,5.758c-2.613,23.367-3.031,116.73,39.414,67.488
		c29.895-34.684,33.637-79.656,45.555-121.949c6.324-22.406,14.148-61.226,37.516-73.008c19.254-9.707,32.426,20.809,37.035,33.676
		c10.035,27.938,15.289,53.59,12.395,83.25c-2.418,24.602-12.492,50.027-9.676,74.914c3.508,30.957,22.43,50.465,42.445,72.254
		c11.07,12.063,24.953,26.902,28.102,43.688c4.797,25.59-0.223,48.316-8.543,72.676c-10.262,30.035-16.449,57.742-12.184,89.762
		c0.918,6.91,2.086,13.738,3.402,20.535v0.004c0.039-0.047,0.078-0.113,0.117-0.168c0.836-1.238,1.703-2.543,2.59-3.914
		c0.109-0.176,0.227-0.352,0.332-0.52c0.801-1.254,1.617-2.566,2.445-3.926c0.145-0.234,0.285-0.461,0.426-0.688
		c0.891-1.48,1.797-3.035,2.715-4.648c0.184-0.328,0.367-0.664,0.559-0.996c0.813-1.449,1.641-2.957,2.469-4.516
		c0.152-0.281,0.305-0.559,0.453-0.844c0.914-1.734,1.84-3.547,2.758-5.402c0.25-0.496,0.492-0.996,0.738-1.504
		c0.832-1.707,1.664-3.461,2.504-5.273c0.137-0.293,0.266-0.563,0.402-0.859c0.918-2.008,1.832-4.105,2.742-6.246
		c0.273-0.629,0.547-1.273,0.816-1.918c0.883-2.113,1.762-4.266,2.637-6.504c0.141-0.348,0.277-0.715,0.418-1.07
		c0.824-2.141,1.641-4.34,2.453-6.594c0.281-0.758,0.551-1.523,0.824-2.297c0.871-2.465,1.734-4.98,2.582-7.582
		c0.18-0.559,0.355-1.141,0.543-1.699c0.711-2.219,1.406-4.492,2.098-6.801c0.266-0.879,0.523-1.746,0.781-2.637
		c0.805-2.758,1.586-5.574,2.355-8.469c0.211-0.789,0.41-1.609,0.621-2.406c0.617-2.391,1.223-4.832,1.816-7.316
		c0.23-0.957,0.453-1.902,0.676-2.871c0.715-3.074,1.406-6.219,2.066-9.434c0.207-0.988,0.402-1.996,0.602-2.996
		c0.531-2.66,1.047-5.363,1.543-8.117c0.176-0.984,0.359-1.949,0.531-2.941c0.598-3.426,1.164-6.93,1.699-10.5
		c0.176-1.148,0.344-2.313,0.508-3.484c0.438-3.039,0.859-6.133,1.246-9.281c0.117-0.918,0.238-1.813,0.352-2.742
		c0.457-3.801,0.867-7.703,1.258-11.66c0.125-1.289,0.242-2.594,0.359-3.902c0.332-3.617,0.633-7.293,0.902-11.039
		c0.055-0.754,0.113-1.492,0.164-2.246c0.277-4.156,0.508-8.418,0.707-12.73c0.07-1.395,0.129-2.785,0.188-4.195
		C1174.695,1589.91,1174.844,1585.379,1174.934,1580.73z"/>
	<path style="fill:#F3C9DF;" d="M618.695,1020.434c2.445-0.543,4.285-3.094,4.227-5.555c-0.613-26.336-7.754-51.871-8.523-78.137
		c-1.055-36.367,40.223-58.519,71.297-43.25c14.109,6.938,26.746,19.352,43.066,20.938c24.391,2.375,42.145-14.902,57.277-31.859
		c2.32-2.602,2.328-7.313-1.168-9.051c-37.418-18.598-50.133-62.832-85.242-85.238c-14.813-9.453-28.941-15.836-45.68-21.055
		c-24.684-7.695-41.094-28.875-52.309-51.293c-18.68-37.313-22.137-69.75-57.234-97.195c-12.551-9.805-26.668-15.711-41.277-20.402
		c-37.293-2.711-73.598,7.07-105.852,36.504c-48.426,44.191-15.25,109.656-50.152,156.602
		c-43.41,58.379-105.285,83.156-53.387,167.859c0,0,19.574,33.125,81.836,65.551c-4.234-2.207-8.277-4.418-12.129-6.621
		C447.43,1035.512,535.078,1039.09,618.695,1020.434z"/>
	<path style="fill:#F0A2C7;" d="M539.941,1075.328c33.531-6.98,63.758-22.742,94.422-37.965
		c18.883-9.379,37.961-17.637,58.531-22.465c23.531-5.523,44.524,6.762,65.754,15.008c26.688,10.363,47.891,4.773,63.387-19.543
		c4.5-7.07,3.684-15.602,1.586-23.168c-5.203-18.648-16.809-26.945-12.012-49.039c6.613-30.418,47.676-40.547,43.75-76.082
		c-3.059-27.691-38.578-50.949-58.027-66.473c-28.695-22.887-53.824-49.461-72.992-79.234c8.086,6.926,15.707,13.641,22.781,19.957
		c-1.652-1.477-3.344-2.981-5.059-4.5c-0.379-0.336-0.758-0.672-1.148-1.016c-1.48-1.313-2.992-2.641-4.516-3.98
		c-0.301-0.266-0.602-0.523-0.902-0.789c-1.793-1.574-3.613-3.164-5.461-4.766c-0.313-0.269-0.625-0.539-0.938-0.809
		c-1.602-1.387-3.219-2.781-4.855-4.188c-0.379-0.324-0.762-0.644-1.141-0.969c-3.891-3.332-7.891-6.707-11.996-10.113
		c-0.348-0.297-0.699-0.586-1.055-0.879c-4.176-3.461-8.449-6.949-12.816-10.445c-0.246-0.199-0.5-0.398-0.75-0.598
		c-2.07-1.652-4.156-3.305-6.258-4.957c-0.168-0.125-0.324-0.25-0.484-0.375c-4.582-3.59-9.262-7.176-14.016-10.734
		c-0.215-0.164-0.434-0.328-0.652-0.488c-4.777-3.566-9.633-7.105-14.563-10.594c-0.156-0.113-0.313-0.223-0.469-0.332
		c-7.5-5.297-15.156-10.477-22.953-15.465c-0.117-0.078-0.234-0.152-0.352-0.23c-5.203-3.324-10.465-6.563-15.777-9.695
		c-0.125-0.07-0.242-0.141-0.363-0.215c-8.059-4.738-16.223-9.227-24.473-13.383c-0.012-0.008-0.027-0.012-0.043-0.023
		c-5.48-2.762-11-5.375-16.539-7.82c-0.117-0.055-0.234-0.102-0.352-0.152c-5.523-2.434-11.078-4.699-16.648-6.769
		c-0.055-0.02-0.113-0.043-0.172-0.063c-8.348-3.102-16.738-5.762-25.117-7.91c-0.148-0.039-0.289-0.078-0.43-0.113
		c-5.527-1.406-11.047-2.586-16.555-3.52c-0.18-0.031-0.367-0.063-0.547-0.09c-5.531-0.926-11.051-1.605-16.547-2.004
		c-0.02,0-0.039-0.004-0.059-0.008l0.012,0.004c14.609,4.691,28.727,10.598,41.277,20.402
		c35.098,27.445,38.555,59.883,57.234,97.195c11.215,22.418,27.625,43.598,52.309,51.293c16.738,5.219,30.867,11.602,45.68,21.055
		c35.109,22.406,47.824,66.641,85.242,85.238c3.496,1.738,3.488,6.449,1.168,9.051c-15.133,16.957-32.887,34.234-57.277,31.859
		c-16.32-1.586-28.957-14-43.066-20.938c-31.074-15.269-72.352,6.883-71.297,43.25c0.77,26.266,7.91,51.801,8.523,78.137
		c0.059,2.461-1.781,5.012-4.227,5.555c-83.617,18.656-171.266,15.078-255.25-2.203c3.852,2.203,7.895,4.414,12.129,6.621
		c0.098,0.051,0.199,0.105,0.297,0.156c2,1.039,4.051,2.082,6.148,3.121c0.168,0.082,0.34,0.168,0.512,0.25
		c2.047,1.016,4.145,2.027,6.277,3.035c0.207,0.098,0.41,0.195,0.617,0.293c2.168,1.02,4.383,2.035,6.645,3.047
		c0.164,0.074,0.32,0.148,0.48,0.219c2.406,1.078,4.863,2.145,7.371,3.211c0.016,0.004,0.027,0.008,0.039,0.016
		c10.168,4.309,21.195,8.516,33.133,12.539c0.563,0.191,1.141,0.375,1.703,0.563c2.348,0.781,4.719,1.559,7.133,2.324
		c0.883,0.281,1.789,0.555,2.68,0.832c2.141,0.668,4.297,1.332,6.496,1.984c1.074,0.32,2.172,0.637,3.262,0.953
		c2.063,0.602,4.145,1.199,6.254,1.789c1.211,0.336,2.438,0.672,3.668,1.004c2.051,0.559,4.117,1.109,6.211,1.652
		c1.305,0.34,2.625,0.68,3.953,1.012c2.074,0.527,4.172,1.043,6.289,1.555c1.391,0.336,2.781,0.672,4.188,1.004
		c2.117,0.496,4.258,0.98,6.414,1.461c1.449,0.328,2.906,0.656,4.383,0.973c2.195,0.477,4.422,0.941,6.656,1.398
		c1.484,0.309,2.961,0.617,4.465,0.918c2.316,0.465,4.68,0.91,7.043,1.359c1.477,0.277,2.934,0.563,4.434,0.832
		c2.617,0.48,5.293,0.934,7.973,1.395c1.273,0.219,2.531,0.445,3.824,0.66c3.816,0.633,7.703,1.246,11.637,1.836
		c0.313,0.047,0.625,0.094,0.938,0.145c3.98,0.586,8.019,1.156,12.117,1.703c1.477,0.199,2.988,0.375,4.481,0.566
		c2.797,0.359,5.594,0.719,8.445,1.055c1.766,0.207,3.578,0.395,5.367,0.602c1.031,0.113,2.082,0.223,3.117,0.336
		C566.164,1079.129,552.734,1077.344,539.941,1075.328z"/>
	<path style="fill:#D3698E;" d="M942.707,939.297c11.164,17.875,22.477,34.715,28.434,55.195c5.027,17.262,1.332,37.93,0.691,55.672
		c-0.75,20.914-0.449,43.516,15.016,59.371c18.113,18.582,54.613,15.684,77.289,11.863c58.242-9.816,108.344-41.891,96.105-107.813
		c-6.676-35.898-28.383-69.348,3.344-101.383c14.285-14.441,6.84-31.695-2.367-47.672c10.531,5.246,20.625,10.828,30.063,16.481
		c-44.535-26.715-103.77-52.008-155.16-46.137c-49.957,5.715-91.098,41.504-119.461,81.203c2.797-3.914,5.75-7.773,8.789-11.578
		C929.289,916.281,935.457,927.672,942.707,939.297z"/>
	<path style="fill:#B75077;" d="M1212.695,1168c6.762-8.496,12.094-17.559,16.332-27.008c12.875-28.676,15.676-60.953,17.656-92.02
		c4.637-72.84,26.289-116.293-45.457-161.844c-3.008-1.906-6.102-3.816-9.266-5.719c-0.219-0.133-0.453-0.27-0.68-0.398
		c-9.438-5.652-19.531-11.234-30.063-16.481c9.207,15.977,16.652,33.231,2.367,47.672c-31.727,32.035-10.02,65.484-3.344,101.383
		c12.238,65.922-37.863,97.996-96.105,107.813c-22.676,3.82-59.176,6.719-77.289-11.863c-15.465-15.855-15.766-38.457-15.016-59.371
		c0.641-17.742,4.336-38.41-0.691-55.672c-5.957-20.48-17.269-37.32-28.434-55.195c-7.25-11.625-13.418-23.016-17.258-34.797
		c-3.039,3.805-5.992,7.664-8.789,11.578c-48.547,67.926,2.523,101.883,7.348,172.676c3.379,49.5-17.309,82.32,38.555,109.512
		c36.824,17.918,86.383,9.293,126.266,4.277c23.094-2.91,50.285-1.375,75.016-6.574
		C1182.453,1192.063,1199.676,1184.352,1212.695,1168z"/>
	<path style="fill:#F6E1ED;" d="M716.242,556.941c30.449,6.293,30.254-33.789,50.563-48.961
		c49.852-37.262,95.832,49.461,114.512,83.434c11.031,20.043,42.281,55.051,66.594,60.797c15.512,3.672,12.051,7.223,18.844-12.391
		c5.039-14.52,0.867-36.996,0.848-52.293c-0.047-33.742,3.02-132.172,59.957-117.527c2.191,12.352,10.426,19.266,22.742,17.609
		c19.742-41.539-24.039-147.09-63.844-165.172C902.453,284.273,895,372.449,876.016,430.797c-18.164,1.336-37.66,3.664-53.301-5.879
		c-35.234-21.48-37.074-52.172-89.867-42.145c-35.266,6.703-53.273,31.484-56.652,66.273
		C673.563,476.105,682.059,549.879,716.242,556.941z"/>
	<path style="fill:#F6E1ED;" d="M1383.676,529.965c8.652,22.914-15.504,49.027-24.926,68.18
		c-20.57,41.824-25.102,110.797,33.266,65.43c28.414-22.086,92.063-84.938,131.828-64.77c-1.383,9.82,4.035,16.453,5.105,25.199
		c33.832,6.051,55.477-14.223,72.156-41.016c17.133-27.508,23.922-48.059-8.41-56.824c-13.133-3.566-28.148-1.059-41.676-4.621
		c-13.281-3.496-23.277-13.629-34.844-17.16c-28.246-8.625-55.113,2.488-81.949,6.039c-20.305-50.246-6.926-193.52-97.383-113.574
		c-17.48,15.449-62.051,66.328-44.043,90.398C1311.676,512.477,1368.934,490.969,1383.676,529.965z"/>
	<path style="fill:#F6E1ED;" d="M1672.133,853.816c-21.496,4.434-62.629,27.613-68.922,50.426
		c-6.91,25.074,11.254,27.27,27.266,41.527c15.297,13.617,34.18,32.746,18.453,55.059c-11.391,16.152-39.523,12.707-55.473,22.574
		c-7.629,4.727-22.41,19.457-24.516,28.531c-5.816,25.098,14.879,21.5,24.867,41.656c13.133,26.469-10.789,60.684,2.785,87.871
		c16.879,33.801,48.516,15.293,79.434,22.852c24.109,5.887,45.742,27.344,71.98,7.551c28.016-21.125,14.527-51.324-2.836-72.906
		c-21.496-26.707-32.797-42.504-24.523-78.512c6.059-26.344,27.867-36.481,43.758-55.648c12.133-14.648,40.031-63.598,39.516-81.785
		C1802.762,882.453,1708.301,846.359,1672.133,853.816z"/>
	<path style="fill:#F6E1ED;" d="M1399.305,1348.168c-29.094,29.781-7.93,73.551-29.941,102
		c-34.613-6.406-41.852-42.566-79.641-21.395c-62.75,35.164-40.508,163.875,15.055,200.027c28.695,18.676,66.914,9.07,80.488-22.836
		c12.258-28.809-1.813-77.832,48.32-79.738c26.648-1.008,46.762,24.063,75.77,26.613c27.547,2.422,59.996-12.688,72.176-37.676
		c21.504-44.102-22.605-53.344-45.855-75.98C1508.586,1412.813,1452.227,1294,1399.305,1348.168z"/>
	<path style="fill:#F6E1ED;" d="M1032.117,1598.301c-10.016-26.059,5.059-52.781,3.879-79.559
		c-0.918-20.738-5.809-51.871-11.566-71.984c-18.34-64.004-55.152,51.5-56.828,79.57c-1.715,28.781,2.348,57.191-26.516,74.988
		c-28.285,17.438-46.371,0.242-56.836-25.75c-11.945-29.633,10.582-64.379-26.707-80.691c-34.438-15.07-57.453,17.414-72.469,43.789
		c-20.922,36.738-67.391,134.566,8.262,138.438c34.543,1.77,55.594-33.004,78.617,9.188c22.606,41.441,15.238,49.27,62.488,30.309
		c26.992-10.836,56.672-13.508,77.867,10.52c17.258,19.563,18.602,68.844,53.797,44.609c24.145-16.629,26.648-68.465,18.922-93.027
		C1074.406,1644.949,1043.137,1626.973,1032.117,1598.301z"/>
	<path style="fill:#F6E1ED;" d="M566.973,1378.57c9.949-38.16,30.488-42.914,60.512-55.805
		c23.336-10.023,78.32-49.063,48.496-72.262c-25.727-20.016-148.812,37.449-132.676-23.461
		c4.453-16.785,25.344-21.465,25.129-39.902c-0.293-25.516-35.672-36.859-56.535-36.996c-46.93-0.297-94.773,53.059-107.926,95.07
		c-14.395,46.012,24.895,39.695,55.121,65.16c9.863,8.313,23.785,24.781,27.363,37.688c7.004,25.324-5.828,27.73-14.285,49.645
		c-11.313,29.313-3.43,75.016,20.93,98.5c30.48,29.379,56.906,6.688,69.027-26.914
		C573.383,1438.102,558.777,1409.984,566.973,1378.57z"/>
	<path style="fill:#F6E1ED;" d="M467.621,980.961c38.285-12.57,11.527-67.715,45.379-90.246
		c27.359-18.219,76.043,9.391,87.305-23.605c4.211-12.32-11.527-30.727,0.676-44.59c11.313-12.855,24.855-3.465,40.328-5.215
		c-1.781-31.555-36.051-28.59-60.129-32.594c-34.516-5.746-49.629-11.496-56.809-46.394c-6.031-29.273,4.16-65.023-15.191-90.066
		c-22.949-29.723-44.531-18.887-65.422,2.918c-19.566,20.418-35.957,49.945-22.801,79.559c15.238,34.305,52.031,44.769,8.699,79.547
		c-26.082,20.93-101.777,49.223-101.707,89.262C328.027,940.688,433.34,992.203,467.621,980.961z"/>
	<path style="fill:#F2789E;" d="M1035.879,1022.457c1.813,25.789-30.313,51.074-4.813,69.125
		c17.559,12.418,61.113-4.168,73.859-18.938c19.098-22.141,9.422-47.023-5.691-68.078c-23.59-32.891-29.152-33.957-0.066-66.395
		c15.891-17.719,36.023-31.328,22.801-54.941c-34.691-61.922-156.355-5.746-139.398,63.457
		C991.094,981.508,1033.207,984.582,1035.879,1022.457z"/>
</g>
</svg>
