<svg width="1130" height="317" viewBox="0 0 1130 317" fill="none" xmlns="http://www.w3.org/2000/svg">
<path d="M562.765 55.6284C564.986 55.0093 568.103 54.5733 571.203 55.6763C574.5 56.8497 577.164 59.54 578.684 63.9468C586.183 85.6919 584.664 104.006 580.402 120.897C578.288 129.277 575.486 137.35 572.819 145.214C570.959 150.7 569.16 156.095 567.646 161.532C574.916 161.184 591.178 158.489 608.489 152.203C618.013 148.744 623.047 141.414 626.333 132.618C627.985 128.195 629.153 123.507 630.227 118.862C631.279 114.308 632.268 109.658 633.532 105.698C639.602 86.6872 647.559 72.3887 656.296 65.5366C661.085 61.7811 666.358 62.7601 669.514 63.4497C676.829 65.0485 682.121 70.0792 687.093 77.1685C701.961 98.3679 698.792 116.046 699.766 127.657C699.95 129.852 700.55 131.96 701.555 133.835C701.869 134.127 702.784 134.743 704.865 135.407C707.107 136.122 710.187 136.737 714.066 137.201C721.783 138.123 732.236 138.397 744.603 137.898C749.042 137.41 751.7 136.706 753.49 135.976C755.25 135.258 756.326 134.462 757.7 133.431C759.247 132.272 761.44 132.585 762.6 134.131C763.759 135.677 763.446 137.871 761.9 139.031C760.474 140.101 758.787 141.375 756.134 142.458C753.526 143.521 750.146 144.34 745.241 144.872L745.125 144.884L745.007 144.889C732.376 145.403 721.478 145.136 713.235 144.151C709.123 143.659 705.563 142.977 702.738 142.076C700.077 141.227 697.43 139.993 695.888 137.976L695.741 137.784L695.622 137.574C693.984 134.679 693.062 131.477 692.791 128.243C691.684 115.051 694.811 100.364 681.361 81.188C676.755 74.6196 672.772 71.3274 668.02 70.2886C664.954 69.6187 662.662 69.4408 660.616 71.0444C653.593 76.5526 646.164 89.1478 640.2 107.827C639.049 111.432 638.149 115.67 637.047 120.438C635.966 125.115 634.714 130.186 632.891 135.068C629.225 144.881 623.082 154.351 610.879 158.783C591.718 165.741 573.486 168.572 566.155 168.572C566.061 168.572 565.968 168.567 565.876 168.56C565.858 168.639 565.841 168.717 565.823 168.795C561.544 188.136 557.925 201.417 553.822 224.64C551.926 235.374 553.789 243.213 556.029 249.305C556.126 249.567 556.226 249.826 556.331 250.083C556.798 251.009 557.223 251.889 557.615 252.713C558.591 254.418 559.792 255.988 561.207 257.441C561.413 257.604 561.599 257.791 561.764 257.996C565.738 261.842 571.282 264.83 578.263 267.208C589.797 271.138 604.512 273.152 620.665 274.875C622.686 275.09 624.497 275.759 625.933 276.995C627.374 278.236 628.168 279.817 628.55 281.382C629.269 284.333 628.613 287.576 627.887 289.97L627.825 290.173L627.739 290.367C623.479 300.018 617.598 307.553 611.441 311.789L611.38 311.831L611.317 311.871C608.158 313.851 605.034 315.353 597.751 316.827C595.856 317.21 594.01 315.985 593.626 314.09C593.243 312.196 594.468 310.349 596.362 309.965C602.867 308.649 605.198 307.439 607.54 305.975C612.288 302.683 617.378 296.421 621.246 287.737C621.831 285.739 622 284.075 621.748 283.04C621.64 282.595 621.488 282.405 621.366 282.299C621.238 282.189 620.866 281.935 619.923 281.834C603.816 280.117 588.372 278.047 576.006 273.834C571.833 272.413 567.927 270.716 564.423 268.661C564.14 269.202 563.714 269.677 563.156 270.02C562.276 270.561 561.25 270.665 560.331 270.394C558.347 274.656 554.107 276.821 551.336 278.035C548.047 279.475 544.063 279.905 540.056 279.8C535.998 279.694 531.632 279.029 527.402 278.057C519.008 276.128 510.672 272.869 505.835 269.831C503.261 268.213 501.494 265.667 500.524 262.346C500.025 260.634 499.802 258.688 499.799 256.895C499.796 255.136 500.002 253.223 500.562 251.642L500.696 251.294C501.412 249.598 502.74 248.535 504.015 247.888C505.331 247.221 506.814 246.875 508.149 246.666C508.436 246.62 508.734 246.579 509.038 246.542C508.592 246.049 508.158 245.541 507.767 245.031C505.879 242.568 505.448 239.258 505.375 236.384C505.299 233.389 505.617 229.984 505.894 226.827C506.254 222.703 508.558 220.432 510.361 219.129C512.325 217.711 514.581 217.161 516.639 216.973C518.692 216.786 520.804 216.939 522.66 217.133C527.515 217.641 531.842 220.26 535.899 223.803C539.189 226.676 542.532 230.37 546.055 234.541C545.972 231.153 546.216 227.458 546.929 223.422C551.066 200.006 554.772 186.343 558.989 167.283C560.838 158.926 563.511 150.869 566.19 142.967C568.887 135.014 571.583 127.235 573.614 119.184C577.644 103.212 579.003 86.3456 572.065 66.229C571.124 63.4985 569.836 62.6197 568.856 62.271C567.68 61.8523 566.191 61.9403 564.644 62.3716C561.828 63.1563 560.346 64.5892 558.3 66.6353C556.849 68.0857 555.882 70.0699 555.065 72.9048C554.202 75.8993 553.699 79.0206 552.734 83.1743C549.615 96.6032 545.455 110.596 542.571 117.057C541.784 118.822 539.713 119.615 537.948 118.828C536.183 118.04 535.391 115.97 536.179 114.205C538.775 108.388 542.814 94.9414 545.916 81.5903C546.733 78.0714 547.425 74.1366 548.339 70.9663C549.299 67.6364 550.69 64.3453 553.35 61.686C555.444 59.5918 558.041 56.9448 562.765 55.6284ZM157.996 48.7339C161.197 47.8953 165.052 47.8338 168.609 48.1021C172.219 48.3744 175.814 49.0098 178.625 49.7417C183.789 51.0864 187.585 54.7447 190.61 58.8608C193.622 62.958 196.225 68.0224 198.738 72.7017C201.184 77.2552 202.559 83.0955 203.226 89.8276C203.896 96.5957 203.873 104.506 203.361 113.352C202.339 131.031 199.336 152.85 195.75 177.443C192.644 198.744 192.033 223.539 192.463 243.745C192.678 253.834 193.151 262.739 193.695 269.439C193.968 272.792 194.257 275.568 194.535 277.653C194.675 278.696 194.808 279.54 194.931 280.182C194.992 280.502 195.047 280.755 195.095 280.945C195.097 280.952 195.099 280.959 195.101 280.966C197.933 285.27 203.085 288.843 211.032 290.71C215.519 291.347 220.639 291.355 226.247 291.355C228.18 291.355 229.747 292.922 229.747 294.855C229.747 296.788 228.18 298.355 226.247 298.355C220.709 298.355 215 298.363 209.881 297.619L209.737 297.597L209.595 297.565C200.047 295.355 192.948 290.771 188.924 284.302L188.739 284.006L188.617 283.68C188.199 282.563 187.877 280.676 187.597 278.58C187.297 276.336 186.997 273.431 186.719 270.005C186.162 263.149 185.681 254.105 185.464 243.894C185.134 228.423 185.406 210.174 186.946 192.73C186.399 193.085 185.747 193.292 185.046 193.292C179.94 193.292 175.793 193.328 172.979 194.19C172.296 194.399 171.705 194.649 170.728 195.038C169.785 195.413 168.65 195.845 167.148 196.275C164.156 197.131 159.897 197.923 152.762 198.444L152.68 198.45L152.599 198.452C114.119 199.454 85.7553 199.471 78.3057 199.471C77.5586 221.194 77.1277 240.005 77.1357 255.169C77.1413 265.773 77.3619 274.542 77.8311 281.252C78.0207 283.965 78.2476 286.268 78.501 288.18C79.0328 288.73 79.5116 289.417 79.8242 290.275L79.9248 290.577L80.0107 290.89C80.1863 291.619 80.1995 292.309 80.1826 292.828C80.1625 293.444 80.0869 294.076 80.0146 294.624C80.01 294.658 80.0046 294.693 80 294.728C82.0161 299.609 83.6359 303.317 84.8154 305.831C86.4448 306.13 87.6796 307.557 87.6797 309.273C87.6797 309.678 87.6088 310.066 87.4824 310.427C87.5602 310.717 87.6035 311.021 87.6035 311.335C87.6035 311.46 87.6342 312.46 86.998 313.43C86.5757 314.074 85.8075 314.77 84.6709 314.981C83.6515 315.17 82.845 314.87 82.4443 314.675C81.7194 314.322 81.2781 313.8 81.1641 313.667C80.9705 313.442 80.8083 313.211 80.6846 313.024C80.3592 312.532 79.9843 311.854 79.5713 311.045C79.5202 311.011 79.4685 310.976 79.417 310.941C78.8343 311.374 78.1122 311.631 77.3301 311.631C67.3127 311.631 57.3269 311.635 50.6816 311.035C44.0809 310.439 40.5405 309.222 38.2588 308.722C32.9302 308.051 26.5339 307.12 20.7871 305.54C15.1678 303.994 9.3462 301.622 6.08984 297.549C3.87196 294.776 -0.257513 289.719 0.0126953 282.651C0.408473 272.299 1.5844 261.938 10.4082 255.446C14.3838 252.521 20.6186 249.617 27.2285 251.281C27.2931 251.297 27.3591 251.312 27.4258 251.329C26.917 250.072 26.5643 248.65 26.46 247.036C26.1763 242.646 26.0044 238.519 26.1758 235.071C26.3377 231.813 26.8213 228.415 28.4062 226.057C29.6588 224.194 32.2285 220.552 37.6445 219.981C42.3149 219.489 47.0099 219.457 51.2568 220.164C55.4788 220.866 59.5159 222.342 62.5801 225.081C65.2249 227.444 67.944 229.929 70.1025 232.439C70.194 232.545 70.2844 232.653 70.375 232.761C70.7174 215.256 71.4104 194.753 72.3457 171.913C73.3365 147.717 76.9901 130.655 82.4902 116.653C87.9789 102.68 95.2465 91.9241 103.125 80.4331C109.566 71.0384 119.038 64.258 128.904 59.2817C138.786 54.2977 149.277 51.018 157.996 48.7339ZM564.908 182.466C565.542 180.64 567.535 179.673 569.361 180.306C577.683 183.193 588.447 189.57 599.472 196.704C605.03 200.3 610.738 204.144 616.327 207.917C621.927 211.696 627.404 215.4 632.545 218.75C656.447 234.319 672.501 259.763 679.591 275.446L680.249 276.933L680.329 277.119L680.388 277.313C680.959 279.209 681.428 281.094 681.801 282.982C681.971 282.957 682.145 282.944 682.322 282.944C684.255 282.944 685.822 284.511 685.822 286.444C685.822 287.1 685.819 292.604 686.924 301.154C687.027 301.952 687.321 302.348 687.812 302.701C688.461 303.165 689.527 303.577 691.19 303.934C698.844 305.578 704.891 303.824 706.959 302.408C709.529 300.648 710.943 297.311 712.082 292.053C713.118 287.27 713.925 280.628 715.912 275.042C718.6 267.487 723.814 263.172 727.512 260.993C729.999 259.527 732.812 259.333 734.982 259.563C736.26 259.698 737.63 260.068 738.954 260.931C740.264 261.785 741.322 262.985 742.199 264.471C745.63 270.282 746.983 275.293 747.518 279.173C747.741 278.906 747.968 278.64 748.199 278.379C749.297 277.141 750.687 275.762 752.29 274.854C754.89 273.383 758.217 272.936 761.423 272.83C764.72 272.72 768.448 272.964 772.144 273.246C774.175 273.401 776.003 274.03 777.439 275.357C778.828 276.639 779.482 278.238 779.855 279.58C781.679 286.123 778.594 292.463 775.14 296.353C771.963 299.93 767.302 301.977 762.586 303.292C757.858 304.609 752.595 305.315 747.753 305.88C745.504 306.288 743.052 306.674 736.918 306.871C730.78 307.067 721.273 307.065 709.212 309.291C709.092 309.313 708.972 309.329 708.853 309.338C704.454 311.382 697.424 312.433 689.72 310.778C687.772 310.359 685.569 309.704 683.736 308.391C681.836 307.03 680.476 305.059 680.039 302.427C679.85 302.459 679.656 302.476 679.458 302.476C677.525 302.476 675.958 300.909 675.958 298.976C675.958 295.446 675.954 292.222 675.625 288.977C675.304 285.817 674.685 282.699 673.739 279.522C667.285 264.71 651.742 239.608 628.724 224.615C623.524 221.228 617.994 217.487 612.411 213.719C606.817 209.943 601.162 206.136 595.669 202.582C584.59 195.413 574.485 189.492 567.068 186.919C565.242 186.286 564.275 184.292 564.908 182.466ZM50.1074 227.069C46.6677 226.496 42.6405 226.493 38.3789 226.942C36.2817 227.163 35.2806 228.378 34.2158 229.962C33.8055 230.573 33.3277 232.205 33.168 235.418C33.0178 238.442 33.164 242.231 33.4453 246.584C33.6636 249.963 35.734 251.427 38.8486 253.917C39.9774 254.169 41.0917 254.423 42.1553 254.669C44.6265 255.243 46.9104 255.806 48.2402 256.25C48.5707 256.36 48.9694 256.503 49.334 256.681C49.5031 256.764 49.8101 256.923 50.1289 257.17C50.2565 257.27 51.3223 258.056 51.5195 259.571C51.8002 261.73 50.2181 262.865 49.6953 263.155C49.1415 263.462 48.6217 263.559 48.4297 263.593C47.9564 263.676 47.4568 263.689 47.0693 263.689C44.8205 263.689 40.0939 263.162 35.9219 260.437C32.0261 259.571 27.9485 258.681 25.5195 258.07C21.8503 257.147 17.7951 258.702 14.5566 261.084C8.70927 265.387 7.4111 272.37 7.00781 282.918C6.84855 287.086 9.22094 290.256 11.5576 293.178C13.3122 295.372 17.1678 297.284 22.6436 298.791C27.2708 300.063 32.4766 300.9 37.2715 301.538L39.2979 301.799L39.4434 301.818L39.5869 301.848C42.6516 302.496 45.1308 303.506 51.3105 304.064C56.8537 304.564 65.0282 304.619 73.8926 304.626C72.7807 302.187 72.5669 299.748 72.6514 297.67C72.6822 296.913 72.7542 296.171 72.835 295.5C72.5626 294.605 72.3174 293.587 72.0986 292.457C71.5276 292.258 70.4722 291.921 69.6807 291.616C68.7716 291.266 67.6635 290.769 66.6562 289.997C64.1916 288.107 63.1681 285.364 62.8145 282.763C62.4643 280.188 62.7117 277.374 63.1318 274.741C63.556 272.083 64.2019 269.354 64.7705 266.941C65.3588 264.444 65.8445 262.361 66.0576 260.715C66.299 258.852 66.6043 257.074 66.8975 255.407C67.1947 253.716 67.4742 252.163 67.6924 250.633C68.1257 247.595 68.2757 244.888 67.8037 242.17C67.5761 240.86 66.6551 239.167 64.7949 237.003C62.9758 234.888 60.5845 232.685 57.916 230.3C56.1868 228.755 53.5718 227.645 50.1074 227.069ZM345.892 0.421387C350.198 -0.388559 353.956 0.170724 356.392 0.438965C358.663 0.689104 360.58 1.67136 362.029 3.25244C363.416 4.76524 364.22 6.65457 364.689 8.54541C365.614 12.2705 365.444 16.8833 364.866 21.356C363.697 30.4065 360.633 40.4249 358.998 45.3257C358.602 46.513 358.213 47.763 357.825 49.0649C363.295 46.5388 369.529 44.5388 375.367 43.0767C383.18 41.12 390.68 40.0298 395.171 40.0298C397.104 40.0298 398.671 41.5968 398.671 43.5298C398.671 45.4626 397.104 47.0298 395.171 47.0298C391.484 47.0298 384.605 47.9789 377.067 49.8667C369.542 51.7516 361.757 54.4753 356.148 57.8325C355.827 58.0248 355.517 58.2269 355.218 58.4399C354.858 59.7777 354.493 61.1397 354.118 62.5181C352.423 68.7475 350.553 75.2578 348.274 80.9126L348.239 80.9985L348.2 81.0825C347.528 82.5254 346.718 84.1918 345.91 85.8325C345.837 86.4639 345.765 87.1021 345.688 87.7456C345.141 92.2924 344.476 97.0538 343.302 101.663C342.29 105.635 341.692 109.265 341.34 140.402C341.238 149.416 341.166 160.726 341.098 173C341.737 172.307 342.653 171.873 343.67 171.873C353.457 171.872 376.411 167.882 390.078 164.108C391.519 163.71 392.967 163.402 394.334 163.115C395.73 162.822 397.04 162.553 398.361 162.217C400.961 161.557 403.45 160.675 405.931 159.073C415.262 153.044 421.368 142.483 425.807 131.138C428.008 125.512 429.752 119.82 431.28 114.575C432.785 109.409 434.124 104.511 435.455 100.777C440.795 85.7966 452.842 75.6642 465.793 69.8745L466.146 69.7173L466.525 69.6401C470.317 68.8705 474.616 68.7386 478.384 70.5874C480.315 71.5349 482.06 72.9999 483.305 75.106C484.54 77.1962 485.169 79.7241 485.193 82.6401C485.21 84.5729 483.655 86.1528 481.723 86.1694C479.79 86.1857 478.21 84.6324 478.193 82.6997C478.177 80.7547 477.766 79.491 477.278 78.6665C476.8 77.858 476.139 77.2836 475.3 76.8716C473.597 76.0363 471.227 75.8824 468.29 76.4292C456.691 81.7019 446.525 90.5695 442.049 103.127C440.81 106.604 439.566 111.159 438.001 116.533C436.459 121.827 434.645 127.762 432.326 133.689C427.725 145.451 420.939 157.711 409.729 164.953C406.391 167.109 403.116 168.232 400.084 169.001C398.59 169.381 397.116 169.683 395.771 169.965C394.398 170.254 393.146 170.523 391.941 170.856C378.005 174.704 354.36 178.872 343.67 178.873C342.639 178.873 341.713 178.427 341.072 177.718C340.917 206.478 340.765 239.441 340.309 260.344C339.969 275.892 339.458 284.551 338.742 289.575C338.385 292.081 337.947 293.919 337.335 295.331C336.65 296.91 335.804 297.823 334.969 298.529C331.896 301.125 328.01 301.776 320.922 302.122C313.636 302.477 301.972 302.476 290.108 302.476C288.176 302.476 286.609 300.909 286.608 298.976C286.608 297.043 288.175 295.476 290.108 295.476C302.058 295.476 313.509 295.475 320.581 295.13C327.85 294.776 329.404 294.067 330.451 293.182C330.646 293.018 330.743 292.937 330.913 292.544C331.156 291.984 331.487 290.869 331.812 288.587C332.461 284.034 332.97 275.769 333.311 260.191C333.99 229.075 333.989 171.406 334.34 140.323C334.681 110.155 335.232 105.111 336.438 100.263C335.345 100.636 334.094 100.465 333.125 99.6919C332.665 99.3253 332.324 98.8654 332.104 98.3618C328 97.2428 322.732 95.8335 317.246 94.2446C311.026 92.443 306.928 87.197 304.429 84.5327C302.519 82.4968 301.341 79.7801 300.582 76.9546C299.813 74.0922 299.399 70.8356 299.204 67.4556C298.816 60.7006 299.283 53.0014 299.853 46.0991C300.574 37.351 304.663 25.6173 309.557 16.3872C310.557 14.5 312.21 13.53 313.789 13.1675C315.267 12.8283 316.698 13.0001 317.766 13.2954C321.339 14.2838 323.413 16.6694 324.601 19.021C325.348 17.5801 326.174 16.0312 327.054 14.5435C328.369 12.3202 329.934 9.99469 331.702 8.28174C336.679 3.45954 341.475 1.25217 345.892 0.421387ZM734.245 266.524C732.968 266.389 731.823 266.577 731.066 267.023C728.315 268.645 724.486 271.824 722.507 277.389C720.71 282.442 720.178 287.739 718.923 293.536C718.382 296.035 717.69 298.657 716.589 301.093C725.222 300.055 732.142 300.019 736.693 299.874C742.589 299.685 744.678 299.325 746.601 298.975L746.711 298.956L746.822 298.943C751.695 298.375 756.519 297.716 760.706 296.549C764.944 295.368 768.056 293.788 769.906 291.705C772.524 288.757 774.046 284.809 773.112 281.458C772.905 280.716 772.726 280.532 772.69 280.5C772.676 280.486 772.63 280.444 772.497 280.393C772.352 280.337 772.078 280.261 771.612 280.225C767.895 279.942 764.521 279.73 761.655 279.826C758.699 279.924 756.8 280.344 755.737 280.946C755.158 281.274 754.385 281.954 753.438 283.022C752.517 284.062 751.642 285.22 750.753 286.376C749.989 287.37 748.982 288.685 748.026 289.482C747.754 289.709 747.375 289.992 746.904 290.221C746.445 290.445 745.691 290.72 744.756 290.649C742.394 290.47 741.47 288.532 741.202 287.716C740.971 287.011 740.927 286.284 740.907 285.878C740.884 285.409 740.88 284.835 740.872 284.324C740.855 283.237 740.818 281.933 740.618 280.379C740.223 277.305 739.167 273.103 736.172 268.03C735.709 267.245 735.342 266.932 735.133 266.795C734.938 266.668 734.691 266.571 734.245 266.524ZM993.513 58.2896C995.794 54.9469 999.469 55.0005 1001.7 55.4829C1004.51 56.089 1006.76 57.7162 1008.49 59.5122C1010.22 61.3127 1011.59 63.451 1012.63 65.4292C1014.01 68.0525 1014.95 71.4213 1015.64 74.9966C1016.34 78.6196 1016.83 82.7017 1017.23 86.8813C1018.04 95.4666 1018.43 104.06 1019.3 111.333C1020.32 119.866 1021.32 130.684 1022.37 140.763C1023.42 150.938 1024.51 160.309 1025.72 166.229C1028.85 181.556 1029.42 204.948 1028.45 216.134C1027.72 224.586 1026.29 230.874 1024.75 237.208C1024.43 238.552 1024.13 242.092 1024.07 247.57C1024.01 252.905 1024.17 259.755 1024.64 267.484C1024.71 268.636 1024.88 269.218 1025 269.485C1025.08 269.665 1025.11 269.664 1025.13 269.673C1025.23 269.734 1025.54 269.872 1026.31 269.983C1027.09 270.094 1028.06 270.147 1029.4 270.196C1036.23 270.446 1041.87 270.116 1045.87 269.383C1047.87 269.015 1049.32 268.568 1050.26 268.128C1050.76 267.893 1050.99 267.717 1051.08 267.643C1053.3 262.1 1053.36 254.337 1052.46 246.478C1051.56 238.635 1049.82 231.385 1048.93 227.061C1047.68 220.991 1049.36 214.593 1051.41 209.671C1053.45 204.77 1056.18 200.619 1057.85 198.948C1061.19 195.601 1066.49 194.978 1071.25 195.277C1076.24 195.59 1081.76 196.983 1086.68 198.871C1093.78 201.594 1096.87 207.154 1098.09 212.57C1100.65 210.835 1103.66 210.179 1106.41 209.969C1110.24 209.676 1114.38 210.203 1117.31 210.467C1120.76 210.779 1122.98 212.896 1124.4 215.076C1125.74 217.141 1126.64 219.699 1127.36 221.671C1129.38 227.232 1129.88 235.556 1128.7 243.707C1128.22 247.014 1126.52 249.416 1124.15 251.022C1121.94 252.525 1119.27 253.252 1116.82 253.682C1114.35 254.115 1111.68 254.311 1109.4 254.513C1107 254.727 1105.05 254.949 1103.55 255.37C1097.69 257.013 1092.07 260.118 1085.67 264.253L1085.54 264.339L1085.4 264.414C1077.54 268.533 1067.54 273.92 1056.45 277.48C1054.1 278.788 1051.15 281.376 1047.64 284.494C1046.2 285.777 1043.99 285.647 1042.7 284.204C1041.42 282.759 1041.55 280.546 1042.99 279.262C1044.04 278.333 1045.12 277.368 1046.22 276.424C1041.67 277.164 1035.82 277.435 1029.15 277.191C1027.84 277.143 1026.51 277.084 1025.31 276.912C1024.12 276.739 1022.78 276.42 1021.56 275.693C1018.74 274.019 1017.84 271.086 1017.65 267.906C1017.18 260.037 1017.01 253.018 1017.07 247.492C1017.13 242.109 1017.41 237.793 1017.95 235.559C1019.46 229.327 1020.79 223.447 1021.48 215.529C1022.4 204.891 1021.84 182.188 1018.86 167.63C1017.57 161.314 1016.45 151.591 1015.4 141.484C1014.35 131.281 1013.37 120.627 1012.35 112.167C1011.48 104.921 1011.01 95.503 1010.26 87.5415C1009.87 83.4483 1009.4 79.6217 1008.77 76.3218C1008.12 72.9746 1007.34 70.4038 1006.44 68.6919C1005.58 67.0635 1004.57 65.5344 1003.45 64.3647C1002.32 63.1912 1001.23 62.5435 1000.23 62.3257C999.706 62.2136 999.406 62.2318 999.281 62.2554C996.993 65.608 993.056 71.4497 989.696 85.2124C983.611 110.144 981.061 127.534 979.861 133.118C979.301 135.726 978.825 139.053 977.591 145.764C976.382 152.336 974.493 161.853 971.199 176.346C965.964 199.378 956.538 238.215 951.042 259.209C948.317 269.62 946.617 275.962 945.277 279.781C944.042 283.302 942.682 286.157 939.611 287.131C934.09 288.883 928.868 288.417 925.068 287.804C917.12 286.522 906.684 284.188 897.484 281.53C892.884 280.2 888.536 278.774 884.934 277.335C881.456 275.947 878.27 274.395 876.33 272.696C874.284 270.903 873.079 268.816 872.201 266.764C871.423 264.945 870.672 262.509 870.036 260.798C865.783 249.358 859.831 233.979 858.604 200.881C858.318 193.174 858.431 183.302 858.438 173.727C858.446 164.061 858.347 154.699 857.665 147.734C856.325 134.046 855.466 124.785 854.591 117.975C853.717 111.175 852.855 107.072 851.589 103.658C847.366 92.2718 841.831 74.91 824.066 70.2642C822.625 69.8872 821.37 69.6159 820.29 69.4224C819.704 70.5348 818.537 71.2934 817.192 71.2935C816.32 71.2935 815.598 71.3096 814.682 71.8286C813.351 72.5829 812.717 73.7298 812.495 76.7544C812.381 78.316 812.399 79.9996 812.368 82.1353C812.339 84.1307 812.262 86.3747 811.945 88.7534C811.824 92.7301 811.826 96.0958 811.928 98.686C812.032 101.334 812.236 102.836 812.389 103.396C812.471 103.609 812.561 103.824 812.658 104.045C814.112 104.086 816.526 104.202 819.657 104.538C824.23 105.028 826.726 108.372 828.289 111.187C829.083 112.617 829.794 114.204 830.429 115.575C831.095 117.012 831.709 118.284 832.398 119.398C839.254 130.468 840.95 144.192 840.433 154.118C840.327 156.143 839.852 158.021 838.549 159.401C837.252 160.775 835.593 161.066 835.298 161.139C831.922 161.983 828.295 162.107 825.332 161.946C822.477 161.791 819.76 161.343 818.283 160.754C816.296 159.962 815.048 158.548 814.256 157.003C814.209 157.055 814.162 157.107 814.113 157.158C813.038 158.28 811.666 158.931 810.404 159.333C809.116 159.742 807.691 159.971 806.256 160.092C803.389 160.334 800.052 160.18 796.783 159.863C794.701 159.661 792.883 158.769 791.672 156.983C790.656 155.484 790.318 153.681 790.121 152.267C789.169 145.446 789.851 140.309 791.367 136.056C792.834 131.942 795.068 128.769 796.71 126.193C799.622 121.184 803.753 116.031 807.005 112.158L807.015 112.145L807.025 112.133C807.463 111.622 807.69 111.381 808.034 110.887C808.138 110.738 808.252 110.561 808.383 110.35C807.945 110.031 807.574 109.606 807.315 109.088C806.822 108.102 806.239 106.943 805.787 105.733L805.754 105.643L805.726 105.552C805.258 104.054 805.039 101.657 804.933 98.9624C804.821 96.1233 804.824 92.5284 804.953 88.3774L804.959 88.1909L804.985 88.0054C805.266 85.9792 805.339 84.0012 805.368 82.0327C805.396 80.145 805.379 78.0763 805.514 76.2427C805.765 72.8175 806.613 69.0169 810.108 66.4624C810.015 65.4609 810.352 64.4273 811.119 63.6606C812.028 62.7519 813.189 62.4044 813.954 62.2437C814.835 62.0587 815.842 61.9928 816.938 62.019C819.14 62.0719 822.073 62.5075 825.837 63.4917C847.754 69.2232 854.292 90.8192 858.151 101.224C859.698 105.395 860.64 110.126 861.534 117.083C862.427 124.03 863.301 133.454 864.632 147.052C865.352 154.413 865.446 164.111 865.438 173.733C865.431 183.446 865.319 193.091 865.599 200.623C866.789 232.715 872.495 247.323 876.598 258.359C877.511 260.815 877.902 262.293 878.637 264.009C879.272 265.493 879.953 266.564 880.942 267.43C881.903 268.271 884.09 269.462 887.529 270.834C890.844 272.158 894.956 273.513 899.428 274.805C908.373 277.39 918.533 279.66 926.183 280.894C929.528 281.434 933.397 281.711 937.311 280.515C937.486 280.278 937.952 279.518 938.673 277.463C939.895 273.981 941.511 267.978 944.271 257.437C949.744 236.528 959.153 197.766 964.374 174.795C967.649 160.389 969.516 150.967 970.706 144.499C971.87 138.17 972.437 134.352 973.018 131.647C974.056 126.812 976.825 108.423 982.896 83.5522C986.504 68.769 990.867 62.1657 993.513 58.2896ZM394.729 182.26C410.228 178.957 423.277 176.609 442.223 180.835C446.079 181.696 449.203 183.277 451.465 185.658C453.746 188.059 454.896 191.007 455.251 194.13C455.936 200.155 453.709 207.194 450.639 213.895C444.459 227.381 433.495 242.217 428.707 249.666C424.112 256.814 419.674 263.415 417.788 270.316C417.042 273.047 417.379 274.494 418.428 275.739C419.502 277.013 422.295 278.979 433.143 280.021C443.767 281.041 461.093 281.051 480.996 277.005C482.89 276.621 484.738 277.844 485.123 279.738C485.508 281.632 484.284 283.48 482.39 283.865C461.751 288.06 443.727 288.07 432.474 286.989C421.445 285.929 416.079 283.816 413.074 280.25C410.044 276.653 409.92 272.552 411.035 268.471C413.27 260.293 418.459 252.662 422.818 245.88C428.022 237.786 438.37 223.865 444.274 210.979C447.246 204.494 448.753 198.942 448.296 194.921C448.08 193.022 447.439 191.584 446.39 190.479C445.321 189.354 443.574 188.309 440.698 187.667C423.263 183.778 411.426 185.859 396.188 189.106C379.825 192.593 354.894 195.353 345.729 195.353C343.797 195.353 342.23 193.786 342.229 191.853C342.23 189.92 343.797 188.353 345.729 188.353C354.281 188.353 378.709 185.674 394.729 182.26ZM70.4326 273.7C70.2887 274.423 70.1566 275.138 70.0439 275.844C69.6633 278.229 69.5377 280.251 69.751 281.82C69.9609 283.364 70.4376 284.075 70.916 284.442C70.9599 284.476 71.0108 284.509 71.0674 284.545C70.9881 283.641 70.9151 282.705 70.8477 281.741C70.6773 279.303 70.5399 276.619 70.4326 273.7ZM521.933 224.095C520.182 223.912 518.624 223.822 517.274 223.945C515.929 224.068 515.044 224.382 514.46 224.804C513.977 225.153 513.63 225.48 513.383 225.845C513.156 226.181 512.935 226.661 512.867 227.437C512.578 230.74 512.31 233.696 512.373 236.208C512.44 238.84 512.872 240.186 513.322 240.773C514.355 242.121 515.873 243.543 517.257 244.869C517.851 245.438 518.577 246.136 519.052 246.728C519.184 246.893 519.356 247.121 519.515 247.39C519.646 247.613 519.924 248.118 520.035 248.8C520.162 249.585 520.088 250.91 519.009 251.976C518.109 252.864 517.059 252.999 516.66 253.03C513.805 253.247 511.444 253.234 509.235 253.581C508.198 253.744 507.546 253.946 507.181 254.131C507.147 254.148 507.12 254.166 507.097 254.179C506.931 254.76 506.797 255.709 506.799 256.882C506.801 258.17 506.968 259.438 507.244 260.384C507.827 262.382 508.694 263.361 509.559 263.904C513.535 266.401 521.074 269.421 528.971 271.236C532.887 272.136 536.773 272.711 540.239 272.802C543.756 272.894 546.573 272.479 548.527 271.624C551.544 270.302 553.575 268.863 554.189 266.912C554.609 265.578 554.907 264.415 555.114 263.432C554.387 262.13 553.93 261.219 553.422 260.203C552.78 258.919 552.119 257.475 551.368 255.889C550.865 254.983 550.405 254.043 549.991 253.065C548.335 249.781 546.21 246.032 543.127 241.956C538.676 236.562 534.865 232.193 531.294 229.075C527.702 225.938 524.705 224.385 521.933 224.095ZM1070.81 202.263C1066.46 201.991 1063.89 202.803 1062.8 203.892C1062.01 204.693 1059.71 207.948 1057.87 212.366C1056.03 216.764 1054.95 221.598 1055.79 225.651C1056.62 229.706 1058.47 237.434 1059.41 245.684C1060.31 253.512 1060.48 262.459 1057.82 269.614C1066.79 266.355 1074.97 261.98 1082.01 258.285C1088.51 254.092 1094.81 250.551 1101.66 248.629C1103.88 248.009 1106.45 247.748 1108.78 247.541C1111.24 247.322 1113.51 247.155 1115.61 246.788C1117.72 246.418 1119.23 245.906 1120.22 245.232C1121.06 244.661 1121.59 243.946 1121.77 242.702C1122.85 235.261 1122.28 228.191 1120.78 224.065C1119.98 221.865 1119.34 220.145 1118.53 218.886C1117.78 217.742 1117.22 217.488 1116.68 217.439C1113.34 217.138 1110.02 216.713 1106.94 216.949C1103.91 217.181 1101.94 218.012 1100.78 219.53C1100.6 219.771 1100.2 220.589 1099.76 222.135C1099.35 223.547 1099 225.173 1098.71 226.673C1098.46 227.972 1098.18 229.643 1098.05 230.283C1098.01 230.475 1097.96 230.718 1097.9 230.94C1097.87 231.034 1097.81 231.251 1097.71 231.495C1097.66 231.605 1097.54 231.867 1097.34 232.16C1097.25 232.293 1096.6 233.261 1095.26 233.578C1093.32 234.033 1092.05 232.821 1091.62 232.238C1091.24 231.719 1091.1 231.223 1091.06 231.088C1090.96 230.734 1090.94 230.424 1090.93 230.331C1090.9 230.068 1090.9 229.782 1090.9 229.546C1090.9 228.887 1091.03 227.984 1091.13 227.286C1091.24 226.458 1091.38 225.505 1091.5 224.417C1091.75 222.242 1091.92 219.666 1091.71 217.081C1091.27 211.882 1089.4 207.411 1084.18 205.407C1079.74 203.704 1074.92 202.521 1070.81 202.263ZM168.083 55.0825C164.844 54.8382 161.881 54.9527 159.771 55.5054C151.268 57.7328 141.31 60.8646 132.057 65.5317C122.788 70.2066 114.434 76.317 108.898 84.3911C101.007 95.9003 94.1691 106.065 89.0049 119.212C83.8521 132.33 80.3065 148.591 79.3398 172.199C79.0537 179.186 78.7911 185.949 78.5537 192.471C86.3367 192.47 114.402 192.442 152.341 191.455C159.127 190.956 162.854 190.222 165.223 189.544C166.407 189.206 167.299 188.867 168.14 188.533C168.946 188.212 169.896 187.813 170.929 187.497C174.974 186.257 180.346 186.292 185.046 186.292C185.989 186.293 186.844 186.666 187.474 187.273C187.861 183.594 188.308 179.969 188.823 176.433C192.416 151.791 195.371 130.273 196.373 112.948C196.874 104.292 196.88 96.7819 196.26 90.5181C195.636 84.2185 194.397 79.413 192.571 76.0132C189.934 71.1033 187.612 66.6013 184.97 63.0063C182.342 59.4309 179.756 57.27 176.861 56.5161C174.45 55.8884 171.269 55.3229 168.083 55.0825ZM815.822 111.343C815.016 112.947 814.369 114.042 813.775 114.892C813.182 115.743 812.661 116.314 812.345 116.683C809.106 120.542 805.299 125.326 802.718 129.786L802.682 129.849L802.642 129.912C800.785 132.83 799.103 135.203 797.961 138.407C796.861 141.493 796.242 145.482 797.054 151.3C797.139 151.908 797.225 152.34 797.315 152.654C797.343 152.75 797.37 152.827 797.392 152.885C797.412 152.888 797.435 152.893 797.46 152.895C800.559 153.196 803.414 153.307 805.667 153.117C806.792 153.022 807.66 152.86 808.283 152.662C808.932 152.455 809.092 152.281 809.058 152.317C809.466 151.89 809.971 151.115 810.513 150.001C811.034 148.93 811.496 147.745 811.892 146.648C812.233 145.701 812.639 144.482 812.869 143.901C812.935 143.735 813.038 143.485 813.17 143.236C813.233 143.118 813.357 142.892 813.547 142.647C813.638 142.529 814.187 141.791 815.233 141.434C815.883 141.213 816.724 141.143 817.593 141.463C818.409 141.765 818.921 142.291 819.2 142.665C819.687 143.316 819.818 143.967 819.85 144.119C819.941 144.559 819.942 144.971 819.942 145.146C819.942 147.171 819.667 149.085 819.901 151.418C820.145 153.84 820.78 154.214 820.876 154.252C820.876 154.252 820.879 154.253 820.885 154.255C820.891 154.258 820.9 154.261 820.911 154.265C820.935 154.273 820.968 154.284 821.01 154.296C821.095 154.322 821.208 154.353 821.35 154.388C821.635 154.458 822.004 154.534 822.448 154.609C823.337 154.758 824.458 154.888 825.712 154.957C828.178 155.09 830.956 154.971 833.378 154.399C833.402 154.236 833.428 154.024 833.442 153.753C833.915 144.692 832.303 132.539 826.447 123.083C825.512 121.574 824.744 119.956 824.077 118.516C823.379 117.009 822.806 115.73 822.17 114.585C820.873 112.25 819.924 111.606 818.911 111.498C817.795 111.378 816.78 111.288 815.879 111.221C815.86 111.262 815.842 111.303 815.822 111.343ZM355.626 7.39697C352.931 7.10016 350.272 6.71972 347.186 7.30029C344.209 7.86011 340.635 9.37384 336.573 13.3091C335.49 14.3583 334.305 16.0338 333.079 18.1069C331.874 20.1439 330.758 22.3394 329.741 24.3335C328.807 26.1651 327.802 28.1526 326.953 29.3022C326.727 29.608 326.383 30.0364 325.929 30.4106C325.583 30.6955 324.469 31.5416 322.873 31.3188C321.051 31.0643 320.211 29.6938 319.928 29.0854C319.629 28.443 319.519 27.7957 319.466 27.3638C319.325 26.2204 319.31 24.7012 318.707 23.0073C318.152 21.4481 317.319 20.4341 315.899 20.0415C315.796 20.0128 315.681 19.9939 315.573 19.9858C311.027 28.6539 307.438 39.2785 306.828 46.6753C306.262 53.5391 305.835 60.8216 306.193 67.0532C306.372 70.1661 306.742 72.9046 307.342 75.1372C307.952 77.4065 308.729 78.8859 309.534 79.7446C312.731 83.153 315.292 86.3911 319.193 87.521C324.69 89.113 330.405 90.6362 334.781 91.8384C335.923 90.1904 336.487 89.0535 337.337 87.354C337.868 86.2911 338.474 85.0703 339.098 83.812C339.494 80.3674 339.897 76.8749 340.458 73.5894C341.668 66.5018 343.756 59.3848 349.04 54.4624C350.131 50.4295 351.22 46.5225 352.357 43.1108C353.959 38.3088 356.844 28.8136 357.924 20.4585C358.47 16.2287 358.499 12.6654 357.896 10.231C357.601 9.04216 357.21 8.35444 356.868 7.98193C356.589 7.67797 356.246 7.46531 355.626 7.39697Z" fill="#DE1616"/>
</svg>
