<svg width="1026" height="281" viewBox="0 0 1026 281" fill="none" xmlns="http://www.w3.org/2000/svg">
<path d="M557.155 80.274C559.069 80.1642 561.153 80.6096 562.909 81.403C566.784 83.1539 570 87.0026 572.927 91.3746C575.926 95.8555 579.058 101.589 582.512 107.799C591.02 123.099 594.375 142.977 595.791 166.394C596.504 178.183 594.419 192.215 591.307 204.337C594.602 203.582 597.995 202.809 601.487 202.017C693.713 181.109 855.288 147.052 1021.71 111.973C1023.6 111.575 1025.46 112.784 1025.86 114.675C1026.25 116.567 1025.04 118.424 1023.15 118.823C856.703 153.908 695.195 187.951 603.035 208.844C598.205 209.939 593.567 210.999 589.113 212.022C581.37 235.909 562.216 251.616 540.257 264.499C527.631 271.906 510.942 275.147 496.729 277.576C469.608 282.21 451.568 280.489 444.005 279.234C442.058 278.911 440.252 278.168 438.9 276.734C437.54 275.291 437.01 273.543 436.853 271.942C435.961 262.881 441.699 255.494 448.743 249.82C455.889 244.064 465.251 239.348 473.548 235.643L473.63 235.606L473.715 235.574C485.995 230.836 506.273 223.942 583.578 206.112C587.09 193.7 589.528 178.786 588.804 166.816C587.4 143.609 584.102 125.061 576.395 111.202C572.866 104.856 569.906 99.4467 567.109 95.2682C564.24 90.9812 561.954 88.6538 560.027 87.7828C559.352 87.4779 558.614 87.3089 558.014 87.2682C558.014 87.5276 558.018 87.8247 558.027 88.1617C558.065 89.6028 558.173 91.4819 558.294 93.7936C558.531 98.3499 558.8 104.32 558.54 110.598C558.281 116.857 557.493 123.584 555.543 129.638C553.596 135.684 550.392 141.355 545.101 145.076C541.386 147.688 536.143 150.365 529.87 151.078C524.042 151.74 515.235 153.218 507.635 152.958C503.798 152.826 499.9 152.254 496.606 150.715C493.194 149.121 490.402 146.46 489.156 142.378C488.122 138.988 488.419 135.58 488.937 132.485C489.195 130.935 489.539 129.317 489.846 127.787C490.16 126.22 490.453 124.674 490.659 123.091C491.45 117.035 491.866 111.753 491.353 107.339C490.847 102.989 489.478 99.8218 486.97 97.5944C485.316 96.1254 483.677 94.9751 482.193 94.3278C480.71 93.6803 479.723 93.6753 479.063 93.9088C475.674 95.1088 472.36 96.1012 469.323 96.1012C467.39 96.1011 465.823 94.534 465.823 92.6012C465.823 90.6684 467.39 89.1013 469.323 89.1012C471.038 89.1012 473.34 88.5097 476.729 87.3102C479.658 86.2735 482.574 86.857 484.993 87.9127C487.413 88.9687 489.679 90.6376 491.618 92.36C495.834 96.1047 497.678 101.132 498.306 106.529C498.926 111.861 498.399 117.876 497.6 123.998C497.361 125.826 497.029 127.563 496.708 129.164C496.379 130.802 496.075 132.238 495.841 133.639C495.372 136.446 495.303 138.535 495.852 140.334C496.421 142.198 497.625 143.465 499.57 144.374C501.634 145.338 504.454 145.845 507.875 145.963C514.789 146.199 522.653 144.853 529.08 144.123C533.852 143.581 537.998 141.514 541.074 139.35C544.677 136.816 547.199 132.71 548.88 127.493C550.558 122.283 551.3 116.258 551.546 110.309C551.791 104.38 551.54 98.6872 551.304 94.1578C551.187 91.9269 551.07 89.9054 551.029 88.3463C551.009 87.5645 551.005 86.8248 551.036 86.1852C551.062 85.6507 551.124 84.8045 551.407 84.0289L551.515 83.7555C552.682 81.0022 555.539 80.3669 557.155 80.274ZM580.994 213.894C507.362 230.955 487.914 237.602 476.317 242.072C468.154 245.721 459.521 250.128 453.135 255.272C446.625 260.516 443.285 265.828 443.819 271.257C443.849 271.558 443.9 271.734 443.937 271.826C443.968 271.906 443.99 271.928 443.994 271.932C444.001 271.939 444.052 271.992 444.208 272.065C444.377 272.145 444.672 272.249 445.15 272.329C451.974 273.461 469.228 275.173 495.55 270.675C509.915 268.221 525.353 265.126 536.715 258.461C556.864 246.64 573.287 233.111 580.994 213.894ZM280.042 80.9899C283.117 78.3032 286.87 77.6636 290.641 78.2174C294.402 78.77 298.387 80.5219 302.34 82.7692C310.228 87.2542 319.234 94.4693 327.808 100.957C330.325 102.862 331.774 105.33 332.803 107.255C333.978 109.454 334.471 110.549 335.208 111.297C338.187 114.321 342.619 114.544 349.582 112.262C352.962 111.155 356.609 109.562 360.51 107.779C364.351 106.023 368.466 104.07 372.543 102.384C374.659 101.51 376.768 101.081 378.836 101.313C380.955 101.551 382.746 102.452 384.225 103.758C392.247 110.85 394.861 121.754 395.546 131.183C396.238 140.712 395.009 149.626 394.626 153.302C394.376 155.698 393.29 157.605 391.41 158.837C389.806 159.887 387.904 160.238 386.479 160.446C382.65 161.004 378.374 160.76 373.644 160.101C368.902 159.441 363.476 158.328 357.323 157.037C339.992 153.399 315.364 152.503 294.45 154.651C293.074 154.792 292.551 155.13 292.391 155.267C292.29 155.353 292.14 155.512 292.064 156.05C291.865 157.476 292.4 159.843 293.628 163.339C299.123 178.982 309.941 196.851 322.586 213.864C335.151 228.405 347.348 239.431 358.382 246.994C363.597 250.282 368.146 252.557 374.044 254.925C375.837 255.646 376.707 257.685 375.987 259.478C375.267 261.272 373.229 262.141 371.436 261.422C365.164 258.903 360.221 256.434 354.59 252.879L354.535 252.843L354.481 252.807C342.806 244.814 330.12 233.303 317.203 218.341L317.12 218.246L317.044 218.143C304.189 200.861 292.868 182.296 287.023 165.659C285.864 162.359 284.662 158.432 285.132 155.079C285.391 153.228 286.178 151.374 287.836 149.953C289.434 148.583 291.492 147.919 293.735 147.688C315.222 145.481 340.592 146.371 358.761 150.185C364.954 151.485 370.146 152.547 374.609 153.169C379.083 153.792 382.6 153.938 385.468 153.519C386.102 153.427 386.582 153.332 386.958 153.225C387.332 153.119 387.508 153.025 387.575 152.981C387.577 152.98 387.578 152.978 387.579 152.977C387.598 152.931 387.639 152.811 387.663 152.576C388.072 148.657 389.201 140.459 388.564 131.691C387.92 122.823 385.518 114.245 379.588 109.004C379.051 108.529 378.572 108.327 378.055 108.269C377.486 108.205 376.589 108.286 375.217 108.853C371.298 110.473 367.391 112.331 363.42 114.146C359.508 115.934 355.549 117.674 351.762 118.915C344.39 121.33 336.234 122.313 330.221 116.21C328.559 114.522 327.422 112.039 326.629 110.555C325.689 108.798 324.827 107.48 323.584 106.539C314.7 99.8165 306.248 93.0426 298.881 88.8541C295.206 86.765 292.113 85.509 289.623 85.1432C287.341 84.8081 285.815 85.2401 284.635 86.275C284.607 86.3281 284.564 86.4181 284.509 86.5543C284.349 86.9499 284.172 87.5373 283.995 88.3356C283.643 89.9289 283.367 92.0228 283.162 94.3854C282.754 99.0906 282.655 104.47 282.655 108.199C282.655 109.74 281.658 111.047 280.274 111.514C280.385 112.877 280.501 114.325 280.623 115.866C282.61 141.03 286.175 190.936 289.846 242.327C289.983 244.255 288.531 245.93 286.604 246.068C284.676 246.206 283.001 244.754 282.863 242.826C279.191 191.418 275.629 141.548 273.645 116.417C272.651 103.837 272.061 97.5187 271.674 94.3082C271.518 93.0134 271.406 92.3217 271.335 91.9674C270.55 90.6268 270.732 88.877 271.882 87.7272C273.249 86.3606 275.464 86.3605 276.831 87.7272C276.859 87.7556 276.901 87.7975 276.952 87.8522C277.018 87.5002 277.087 87.1573 277.16 86.8258C277.383 85.8152 277.66 84.821 278.016 83.9381C278.346 83.119 278.869 82.0719 279.747 81.2555L280.042 80.9899ZM31.6924 76.6471C42.0486 73.7217 54.3238 77.1439 65.9609 83.0436C77.7429 89.0167 89.5781 97.8892 99.416 106.964C103.795 111.005 105.247 116.437 105.525 122.207C105.799 127.889 104.953 134.546 104.181 141.463C101.259 167.609 88.6194 192.942 80.1172 210.945C67.5391 237.579 55.5793 247.226 47.499 251.294C43.9842 253.063 40.401 252.857 37.4189 251.938C34.4789 251.032 31.9308 249.388 30.1162 247.918L29.6904 247.573L29.3906 247.114C22.8709 237.145 18.7544 228.954 16.0645 222.319L16.0479 222.279L16.0332 222.239C15.3772 220.498 14.8991 218.642 13.3525 213.61C12.7847 211.762 13.8224 209.804 15.6699 209.236C17.2096 208.763 18.8256 209.405 19.6504 210.701C19.3634 210.193 19.1983 209.607 19.1982 208.982C19.1982 207.694 19.2493 206.375 17.6377 198.542C16.0202 190.68 12.8292 176.71 9.59961 157.46C6.37235 138.222 3.19622 114.402 0.03125 90.6647C-0.224211 88.7487 1.12219 86.9877 3.03809 86.7321C4.95404 86.4766 6.71511 87.823 6.9707 89.7389C10.1407 113.513 13.2993 137.205 16.5029 156.301C19.7043 175.384 22.8482 189.131 24.4941 197.13C26.1458 205.158 26.1982 207.007 26.1982 208.982C26.1981 210.915 24.631 212.482 22.6982 212.482C21.4557 212.482 20.3652 211.834 19.7441 210.858C19.8662 211.074 19.968 211.306 20.0439 211.553C21.6963 216.93 22.0216 218.269 22.5674 219.726C25.0314 225.796 28.8396 233.419 34.9385 242.803C36.2458 243.802 37.84 244.743 39.4805 245.249C41.2564 245.796 42.8807 245.782 44.3516 245.042C50.6688 241.862 61.6758 233.601 73.7871 207.956C82.4419 189.629 94.4584 165.434 97.2236 140.685C98.0286 133.48 98.7734 127.522 98.5332 122.544C98.2972 117.653 97.1293 114.378 94.6699 112.109C85.1612 103.337 73.8493 94.892 62.7949 89.2877C51.5959 83.6102 41.3449 81.1946 33.5957 83.3834C27.48 85.111 23.4113 87.2691 20.9111 90.1295C18.8975 92.4334 17.7988 95.9006 17.7988 101.001C17.7984 102.933 16.2316 104.501 14.2988 104.501C12.3661 104.501 10.7992 102.933 10.7988 101.001C10.7988 95.0148 12.0755 89.6021 15.6406 85.5231C19.4543 81.1598 25.0662 78.5189 31.6924 76.6471ZM174.924 74.8121C176.962 74.7224 178.321 76.0294 178.926 76.7018C180.237 78.1606 181.501 80.6737 182.784 83.4147C188.23 95.0493 198.189 120.565 206.104 148.023C207.442 152.667 208.711 157.346 209.917 161.993C211.258 161.717 212.608 161.44 213.961 161.162C215.854 160.772 217.705 161.99 218.095 163.883C218.484 165.776 217.265 167.627 215.372 168.017C214.124 168.274 212.879 168.529 211.641 168.784C216.69 189.136 220.459 208.236 223.027 220.35C224.722 228.342 225.922 233.392 226.518 236.861C227.145 240.512 227.212 242.971 226.449 245.868C225.957 247.737 224.042 248.853 222.173 248.361C220.304 247.869 219.187 245.954 219.68 244.085C220.092 242.519 220.154 241.161 219.619 238.046C219.053 234.748 217.934 230.079 216.18 221.802C213.574 209.513 209.812 190.443 204.779 170.195C194.834 172.238 185.653 174.111 178.828 175.445C169.606 177.247 164.819 178.046 160.051 178.84C159.731 178.894 159.414 178.9 159.106 178.868C157.839 186.6 156.673 193.878 155.688 200.254C151.335 228.426 150.552 238.632 149.767 248.844C149.618 250.771 147.936 252.213 146.009 252.065C144.082 251.917 142.64 250.234 142.788 248.307C143.586 237.931 144.388 227.548 148.77 199.185C153.143 170.877 161.067 124.917 165.545 100.055C166.661 93.8582 167.563 88.9782 168.368 85.358C168.771 83.5469 169.164 81.9889 169.564 80.7047C169.95 79.4687 170.406 78.2708 171.008 77.3141C171.541 76.4669 172.763 74.9076 174.924 74.8121ZM701.051 73.5309C702.968 73.2915 704.718 74.6515 704.958 76.569C706.94 92.4227 708.914 108.215 710.521 119.097C712.1 129.795 713.336 135.65 713.96 143.203C714.437 148.982 714.548 155.739 714.574 162.758C722.913 161.59 729.744 160.648 734.842 159.946C739.499 159.174 742.125 158.423 744.32 157.824C746.622 157.196 748.356 156.762 751.378 156.327C753.291 156.051 755.065 157.379 755.341 159.292C755.616 161.205 754.289 162.979 752.376 163.255C749.735 163.635 748.3 163.993 746.163 164.577C743.922 165.189 741.007 166.021 735.969 166.855L735.922 166.863L735.875 166.87C730.571 167.6 723.378 168.591 714.555 169.829C714.338 171.554 712.867 172.888 711.084 172.888C709.642 172.888 708.403 172.016 707.867 170.77C698.83 172.049 688.401 173.545 676.798 175.252C674.886 175.532 673.108 174.209 672.826 172.297C672.545 170.385 673.868 168.607 675.78 168.326C687.694 166.574 698.37 165.043 707.575 163.742C707.555 156.414 707.46 149.551 706.983 143.779C706.383 136.514 705.244 131.282 703.596 120.12C701.975 109.142 699.99 93.2587 698.013 77.4381C697.773 75.5203 699.133 73.7709 701.051 73.5309ZM175.688 84.8102C175.533 85.4285 175.371 86.1162 175.201 86.8785C174.432 90.3345 173.556 95.0699 172.435 101.297C169.279 118.816 164.412 146.817 160.287 171.702C164.595 170.982 169.241 170.186 177.485 168.575C184.207 167.261 193.236 165.421 203.052 163.405C201.888 158.931 200.665 154.43 199.377 149.962C191.55 122.805 181.712 97.6403 176.443 86.3824C176.172 85.8028 175.92 85.2805 175.688 84.8102ZM827.152 3.54163C828.684 3.1819 829.864 3.85111 830.395 4.2428C831.343 4.94242 831.966 6.01674 832.307 6.63245C833.138 8.13711 834.089 10.431 835.097 12.9938C837.053 17.969 839.442 24.5159 842.251 30.9967L842.818 32.2916L842.838 32.3356L842.856 32.3815C848.746 46.7415 854.94 60.5434 860.086 71.5973C860.474 71.4813 860.863 71.3684 861.252 71.2516C863.103 70.6962 865.055 71.7469 865.61 73.5983C866.166 75.4497 865.115 77.4012 863.264 77.9567C863.207 77.9735 863.151 77.9896 863.095 78.0065C866.146 84.4457 868.63 89.5166 870.171 92.6041H870.17C871.431 95.1203 872.662 97.9922 873.874 100.821C874.635 102.598 873.812 104.655 872.035 105.417C870.259 106.178 868.201 105.355 867.439 103.579C866.205 100.699 865.06 98.0297 863.91 95.736L863.907 95.7301C862.269 92.446 859.577 86.9513 856.276 79.9655C854.056 80.5594 851.548 81.1804 848.498 81.8453C841.958 83.271 833.178 84.8663 824.49 86.4459C823.656 86.5977 822.836 86.44 822.15 86.0543C821.669 96.0974 821.128 104.942 820.514 112.441C819.972 119.051 819.371 124.658 818.697 129.138C818.035 133.542 817.269 137.111 816.316 139.494C815.598 141.288 813.561 142.162 811.767 141.444C809.972 140.726 809.099 138.689 809.816 136.894C810.447 135.318 811.123 132.437 811.775 128.097C812.416 123.834 813.002 118.4 813.537 111.87C814.607 98.8127 815.46 81.5346 816.155 60.7858C816.892 38.8077 818.657 25.6104 820.412 17.5992C821.292 13.5841 822.176 10.8385 822.943 8.92444C823.723 6.98141 824.378 5.92123 824.589 5.53772L824.725 5.30725C825.094 4.72288 825.84 3.84988 827.152 3.54163ZM914.438 0.199829C915.572 -0.128757 916.67 -0.0104358 917.593 0.254517C919.523 0.808603 921.462 2.21723 923.579 4.74475C925.71 7.2888 928.24 11.2266 931.297 17.3073C935.184 25.0384 940 36.4547 945.201 49.6276C946.476 49.5037 947.628 49.5074 948.645 49.5074C950.577 49.5078 952.144 51.0748 952.145 53.0074C952.145 54.9402 950.577 56.5071 948.645 56.5074C948.385 56.5074 948.135 56.5097 947.895 56.5114C948.243 57.4099 948.592 58.3149 948.942 59.2252C949.013 59.2065 949.085 59.1889 949.157 59.1744C951.052 58.7957 952.896 60.0245 953.275 61.9196C955.631 73.6998 957.986 83.4938 960.266 89.8219C961.255 91.9452 962.03 92.613 963.27 94.3395C964.653 96.2669 965.592 98.3604 966.472 102.705C966.855 104.599 965.63 106.446 963.735 106.83C961.841 107.213 959.995 105.988 959.611 104.093C958.859 100.376 958.215 99.3014 957.583 98.4215C956.831 97.3737 955.236 95.6568 953.842 92.6119L953.783 92.483L953.734 92.3502C952.328 88.4764 950.933 83.5057 949.558 77.7721C948.759 77.3979 948.101 76.7249 947.767 75.8346C945.438 69.6303 943.13 63.5768 940.89 57.8141C939.522 58.2048 937.763 58.6803 935.337 59.2379L935.298 59.2467L935.258 59.2555C928.473 60.6515 923.057 61.8361 919.356 62.7633C917.492 63.2305 916.146 63.611 915.302 63.902C915.172 63.9466 915.063 63.9891 914.971 64.024C914.353 64.5719 913.541 64.9058 912.65 64.9059C910.717 64.9059 909.15 63.3389 909.15 61.4059C909.151 59.8374 910.12 58.9029 910.384 58.6617C910.76 58.3179 911.148 58.0929 911.385 57.9664C911.887 57.6983 912.474 57.4736 913.021 57.2848C914.161 56.8923 915.744 56.4522 917.655 55.9733C921.494 55.0115 927.005 53.8084 933.771 52.4156C935.689 51.975 937.15 51.5922 938.322 51.2662C933.308 38.6028 928.718 27.7619 925.043 20.4518C922.107 14.613 919.858 11.2041 918.213 9.23987C917.768 8.7083 917.38 8.30125 917.053 7.98889C916.587 10.4657 915.602 16.874 914.105 27.0153C912.386 38.6708 910.03 54.9636 907.079 75.153C904.473 92.9819 902.491 105.666 900.511 118.338C900.212 120.247 898.422 121.553 896.513 121.255C894.603 120.957 893.296 119.166 893.595 117.256C895.574 104.588 897.551 91.9329 900.152 74.1403C903.101 53.969 905.46 37.6535 907.181 25.9938C908.879 14.4828 909.994 7.20671 910.448 5.39124C910.589 4.82897 910.928 3.22006 911.85 2.00159C912.411 1.25853 913.256 0.542156 914.438 0.199829ZM828.311 14.8766C827.973 16.0412 827.613 17.434 827.249 19.0973C825.618 26.543 823.88 39.28 823.151 61.0201C822.93 67.6332 822.691 73.9041 822.435 79.8073C822.686 79.6949 822.955 79.6107 823.238 79.5592C831.971 77.9714 840.613 76.3993 847.007 75.0055C849.396 74.4847 851.433 73.9954 853.261 73.5231C848.179 62.5778 842.148 49.1015 836.399 35.0865C833.272 28.0233 830.575 20.6237 828.582 15.5553C828.491 15.3228 828.398 15.0971 828.311 14.8766ZM753.076 55.5065C755.009 55.5066 756.576 57.0737 756.576 59.0065C756.576 60.9394 755.009 62.5064 753.076 62.5065C738.37 62.5065 724.258 62.5082 709.546 63.7184C694.806 64.9309 679.895 67.2855 671.707 68.4811C663.564 69.6701 662.156 69.7057 660.691 69.7057C658.759 69.7057 657.192 68.1385 657.191 66.2057C657.192 64.2729 658.759 62.7057 660.691 62.7057C661.602 62.7057 662.57 62.7409 670.696 61.5543C678.778 60.3743 693.958 57.9769 708.973 56.7418C724.016 55.5044 738.411 55.5065 753.076 55.5065Z" fill="#DE1616"/>
</svg>
